ISO-10303-21;
HEADER;
/* Generated by software containing ST-Developer
 * from STEP Tools, Inc. (www.steptools.com) 
 */
/* OPTION: using custom renumber hook */

FILE_DESCRIPTION(
/* description */ ('STEP AP242 Edition 2',
'CAx-IF Rec.Pracs.---Representation and Presentation of Product Manufa
cturing Information (PMI)---4.0---2014-10-13',
'CAx-IF Rec.Pracs.---3D Tessellated Geometry---0.4---2014-09-14','2;1',
'CAx-IF Rec.Pracs.---User Defined Attributes---1.5---2016-08-15'),
/* implementation_level */ '2;1');

FILE_NAME(
/* name */ 'Part Studio 1 - Part 28',
/* time_stamp */ '2026-08-12T18:45:28Z',
/* author */ (''),
/* organization */ (''),
/* preprocessor_version */ 'ST-DEVELOPER v20',
/* originating_system */ 'ONSHAPE BY PTC INC, 1.219',
/* authorisation */ '  ');

FILE_SCHEMA (('AP242_MANAGED_MODEL_BASED_3D_ENGINEERING_MIM_LF { 1 0 10303 442 3 1 4 }'));
ENDSEC;

DATA;
#10=SHAPE_REPRESENTATION_RELATIONSHIP('','',#922,#11);
#11=ADVANCED_BREP_SHAPE_REPRESENTATION('',(#920),#1600);
#12=CONICAL_SURFACE('',#997,0.002,0.785398163397438);
#13=CONICAL_SURFACE('',#998,0.002,0.785398163397438);
#14=CONICAL_SURFACE('',#1001,0.002,0.785398163397436);
#15=CONICAL_SURFACE('',#1002,0.002,0.785398163397428);
#16=CONICAL_SURFACE('',#1011,0.00174999999999996,0.785398163397684);
#17=CONICAL_SURFACE('',#1012,0.00174999999999998,0.785398163397848);
#18=CONICAL_SURFACE('',#1013,0.0017500000000001,0.785398163397513);
#19=CONICAL_SURFACE('',#1014,0.00125,0.785398163397684);
#20=CONICAL_SURFACE('',#1015,0.00125,0.785398163397848);
#21=CONICAL_SURFACE('',#1016,0.00125,0.785398163397513);
#22=CONICAL_SURFACE('',#1017,0.0086,0.785398163397448);
#23=CONICAL_SURFACE('',#1018,0.0066,0.785398163397448);
#24=CONICAL_SURFACE('',#1019,0.0066,0.785398163397448);
#25=CONICAL_SURFACE('',#1020,0.0086,0.785398163397448);
#26=ELLIPSE('',#941,0.00472200620342232,0.003);
#27=ELLIPSE('',#946,0.00545604689961703,0.003);
#28=ELLIPSE('',#967,0.00545604689961703,0.003);
#29=ELLIPSE('',#972,0.00472200620342232,0.003);
#30=LINE('',#1327,#97);
#31=LINE('',#1330,#98);
#32=LINE('',#1332,#99);
#33=LINE('',#1334,#100);
#34=LINE('',#1336,#101);
#35=LINE('',#1338,#102);
#36=LINE('',#1340,#103);
#37=LINE('',#1342,#104);
#38=LINE('',#1347,#105);
#39=LINE('',#1351,#106);
#40=LINE('',#1355,#107);
#41=LINE('',#1359,#108);
#42=LINE('',#1361,#109);
#43=LINE('',#1364,#110);
#44=LINE('',#1366,#111);
#45=LINE('',#1368,#112);
#46=LINE('',#1370,#113);
#47=LINE('',#1372,#114);
#48=LINE('',#1374,#115);
#49=LINE('',#1376,#116);
#50=LINE('',#1381,#117);
#51=LINE('',#1385,#118);
#52=LINE('',#1387,#119);
#53=LINE('',#1389,#120);
#54=LINE('',#1391,#121);
#55=LINE('',#1393,#122);
#56=LINE('',#1396,#123);
#57=LINE('',#1398,#124);
#58=LINE('',#1400,#125);
#59=LINE('',#1404,#126);
#60=LINE('',#1406,#127);
#61=LINE('',#1408,#128);
#62=LINE('',#1414,#129);
#63=LINE('',#1417,#130);
#64=LINE('',#1419,#131);
#65=LINE('',#1421,#132);
#66=LINE('',#1425,#133);
#67=LINE('',#1428,#134);
#68=LINE('',#1430,#135);
#69=LINE('',#1478,#136);
#70=LINE('',#1480,#137);
#71=LINE('',#1482,#138);
#72=LINE('',#1488,#139);
#73=LINE('',#1489,#140);
#74=LINE('',#1503,#141);
#75=LINE('',#1505,#142);
#76=LINE('',#1507,#143);
#77=LINE('',#1513,#144);
#78=LINE('',#1516,#145);
#79=LINE('',#1518,#146);
#80=LINE('',#1520,#147);
#81=LINE('',#1524,#148);
#82=LINE('',#1527,#149);
#83=LINE('',#1529,#150);
#84=LINE('',#1535,#151);
#85=LINE('',#1537,#152);
#86=LINE('',#1539,#153);
#87=LINE('',#1546,#154);
#88=LINE('',#1547,#155);
#89=LINE('',#1567,#156);
#90=LINE('',#1568,#157);
#91=LINE('',#1570,#158);
#92=LINE('',#1572,#159);
#93=LINE('',#1574,#160);
#94=LINE('',#1576,#161);
#95=LINE('',#1578,#162);
#96=LINE('',#1580,#163);
#97=VECTOR('',#1031,1.);
#98=VECTOR('',#1032,1.);
#99=VECTOR('',#1033,1.);
#100=VECTOR('',#1034,1.);
#101=VECTOR('',#1035,1.);
#102=VECTOR('',#1036,1.);
#103=VECTOR('',#1037,1.);
#104=VECTOR('',#1038,1.);
#105=VECTOR('',#1043,1.);
#106=VECTOR('',#1046,1.);
#107=VECTOR('',#1049,1.);
#108=VECTOR('',#1052,1.);
#109=VECTOR('',#1055,1.);
#110=VECTOR('',#1056,1.);
#111=VECTOR('',#1057,1.);
#112=VECTOR('',#1058,1.);
#113=VECTOR('',#1059,1.);
#114=VECTOR('',#1060,1.);
#115=VECTOR('',#1061,1.);
#116=VECTOR('',#1062,1.);
#117=VECTOR('',#1067,1.);
#118=VECTOR('',#1070,1.);
#119=VECTOR('',#1073,1.);
#120=VECTOR('',#1074,1.);
#121=VECTOR('',#1075,1.);
#122=VECTOR('',#1078,1.);
#123=VECTOR('',#1079,1.);
#124=VECTOR('',#1080,1.);
#125=VECTOR('',#1081,1.);
#126=VECTOR('',#1086,1.);
#127=VECTOR('',#1087,1.);
#128=VECTOR('',#1088,1.);
#129=VECTOR('',#1095,1.);
#130=VECTOR('',#1096,1.);
#131=VECTOR('',#1097,1.);
#132=VECTOR('',#1098,1.);
#133=VECTOR('',#1103,1.);
#134=VECTOR('',#1104,1.);
#135=VECTOR('',#1105,1.);
#136=VECTOR('',#1122,1.);
#137=VECTOR('',#1123,1.);
#138=VECTOR('',#1124,1.);
#139=VECTOR('',#1133,1.);
#140=VECTOR('',#1134,1.);
#141=VECTOR('',#1153,1.);
#142=VECTOR('',#1154,1.);
#143=VECTOR('',#1155,1.);
#144=VECTOR('',#1162,1.);
#145=VECTOR('',#1163,1.);
#146=VECTOR('',#1164,1.);
#147=VECTOR('',#1165,1.);
#148=VECTOR('',#1170,1.);
#149=VECTOR('',#1171,1.);
#150=VECTOR('',#1172,1.);
#151=VECTOR('',#1181,1.);
#152=VECTOR('',#1182,1.);
#153=VECTOR('',#1183,1.);
#154=VECTOR('',#1194,1.);
#155=VECTOR('',#1195,1.);
#156=VECTOR('',#1228,1.);
#157=VECTOR('',#1229,1.);
#158=VECTOR('',#1232,1.);
#159=VECTOR('',#1235,1.);
#160=VECTOR('',#1238,1.);
#161=VECTOR('',#1241,1.);
#162=VECTOR('',#1244,1.);
#163=VECTOR('',#1247,1.);
#164=PLANE('',#927);
#165=PLANE('',#928);
#166=PLANE('',#933);
#167=PLANE('',#937);
#168=PLANE('',#938);
#169=PLANE('',#939);
#170=PLANE('',#942);
#171=PLANE('',#944);
#172=PLANE('',#950);
#173=PLANE('',#954);
#174=PLANE('',#965);
#175=PLANE('',#968);
#176=PLANE('',#970);
#177=PLANE('',#973);
#178=PLANE('',#977);
#179=PLANE('',#996);
#180=PLANE('',#999);
#181=PLANE('',#1000);
#182=PLANE('',#1003);
#183=PLANE('',#1005);
#184=PLANE('',#1006);
#185=B_SPLINE_CURVE_WITH_KNOTS('',3,(#1290,#1291,#1292,#1293,#1294,#1295,
#1296,#1297,#1298,#1299,#1300),.UNSPECIFIED.,.T.,.F.,(1,1,1,1,1,1,1,1,1,
1,1,1,1,1,1),(-0.0029373108471678,-0.0019582072314452,-0.000979103615722599,
0.,0.000979103615722599,0.0019582072314452,0.0029373108471678,0.0039164144628904,
0.004895518078613,0.00587462169433559,0.00685372531005819,0.00783282892578079,
0.00881193254150339,0.00979103615722599,0.0107701397729486),
 .UNSPECIFIED.);
#186=B_SPLINE_CURVE_WITH_KNOTS('',3,(#1302,#1303,#1304,#1305,#1306,#1307,
#1308,#1309,#1310,#1311,#1312),.UNSPECIFIED.,.T.,.F.,(1,1,1,1,1,1,1,1,1,
1,1,1,1,1,1),(-0.00293731084716715,-0.00195820723144477,-0.000979103615722383,
0.,0.000979103615722383,0.00195820723144477,0.00293731084716715,0.00391641446288953,
0.00489551807861192,0.0058746216943343,0.00685372531005668,0.00783282892577906,
0.00881193254150145,0.00979103615722383,0.0107701397729462),
 .UNSPECIFIED.);
#187=B_SPLINE_CURVE_WITH_KNOTS('',3,(#1314,#1315,#1316,#1317,#1318,#1319,
#1320,#1321,#1322,#1323,#1324),.UNSPECIFIED.,.T.,.F.,(1,1,1,1,1,1,1,1,1,
1,1,1,1,1,1),(-0.00294455306852652,-0.00196303537901768,-0.000981517689508841,
0.,0.000981517689508841,0.00196303537901768,0.00294455306852652,0.00392607075803536,
0.0049075884475442,0.00588910613705305,0.00687062382656189,0.00785214151607073,
0.00883365920557957,0.00981517689508841,0.0107966945845973),
 .UNSPECIFIED.);
#188=B_SPLINE_CURVE_WITH_KNOTS('',3,(#1437,#1438,#1439,#1440,#1441,#1442,
#1443,#1444,#1445,#1446,#1447),.UNSPECIFIED.,.T.,.F.,(1,1,1,1,1,1,1,1,1,
1,1,1,1,1,1),(-0.00294455306852651,-0.00196303537901768,-0.000981517689508838,
0.,0.000981517689508838,0.00196303537901768,0.00294455306852651,0.00392607075803535,
0.00490758844754419,0.00588910613705303,0.00687062382656186,0.0078521415160707,
0.00883365920557954,0.00981517689508838,0.0107966945845972),
 .UNSPECIFIED.);
#189=B_SPLINE_CURVE_WITH_KNOTS('',3,(#1449,#1450,#1451,#1452,#1453,#1454,
#1455,#1456,#1457,#1458,#1459),.UNSPECIFIED.,.T.,.F.,(1,1,1,1,1,1,1,1,1,
1,1,1,1,1,1),(-0.00293731084716715,-0.00195820723144477,-0.000979103615722383,
0.,0.000979103615722384,0.00195820723144477,0.00293731084716715,0.00391641446288953,
0.00489551807861192,0.0058746216943343,0.00685372531005668,0.00783282892577907,
0.00881193254150145,0.00979103615722383,0.0107701397729462),
 .UNSPECIFIED.);
#190=B_SPLINE_CURVE_WITH_KNOTS('',3,(#1461,#1462,#1463,#1464,#1465,#1466,
#1467,#1468,#1469,#1470,#1471),.UNSPECIFIED.,.T.,.F.,(1,1,1,1,1,1,1,1,1,
1,1,1,1,1,1),(-0.00293731084716779,-0.00195820723144519,-0.000979103615722596,
0.,0.000979103615722596,0.00195820723144519,0.00293731084716779,0.00391641446289038,
0.00489551807861298,0.00587462169433558,0.00685372531005817,0.00783282892578077,
0.00881193254150337,0.00979103615722596,0.0107701397729486),
 .UNSPECIFIED.);
#191=ORIENTED_EDGE('',*,*,#425,.T.);
#192=ORIENTED_EDGE('',*,*,#426,.T.);
#193=ORIENTED_EDGE('',*,*,#427,.T.);
#194=ORIENTED_EDGE('',*,*,#428,.T.);
#195=ORIENTED_EDGE('',*,*,#429,.T.);
#196=ORIENTED_EDGE('',*,*,#430,.T.);
#197=ORIENTED_EDGE('',*,*,#431,.T.);
#198=ORIENTED_EDGE('',*,*,#432,.F.);
#199=ORIENTED_EDGE('',*,*,#433,.T.);
#200=ORIENTED_EDGE('',*,*,#434,.T.);
#201=ORIENTED_EDGE('',*,*,#435,.T.);
#202=ORIENTED_EDGE('',*,*,#436,.T.);
#203=ORIENTED_EDGE('',*,*,#437,.T.);
#204=ORIENTED_EDGE('',*,*,#438,.T.);
#205=ORIENTED_EDGE('',*,*,#439,.T.);
#206=ORIENTED_EDGE('',*,*,#440,.T.);
#207=ORIENTED_EDGE('',*,*,#441,.T.);
#208=ORIENTED_EDGE('',*,*,#442,.T.);
#209=ORIENTED_EDGE('',*,*,#443,.T.);
#210=ORIENTED_EDGE('',*,*,#444,.T.);
#211=ORIENTED_EDGE('',*,*,#445,.T.);
#212=ORIENTED_EDGE('',*,*,#446,.T.);
#213=ORIENTED_EDGE('',*,*,#447,.T.);
#214=ORIENTED_EDGE('',*,*,#448,.T.);
#215=ORIENTED_EDGE('',*,*,#449,.T.);
#216=ORIENTED_EDGE('',*,*,#450,.F.);
#217=ORIENTED_EDGE('',*,*,#451,.T.);
#218=ORIENTED_EDGE('',*,*,#452,.T.);
#219=ORIENTED_EDGE('',*,*,#453,.T.);
#220=ORIENTED_EDGE('',*,*,#454,.T.);
#221=ORIENTED_EDGE('',*,*,#455,.T.);
#222=ORIENTED_EDGE('',*,*,#456,.F.);
#223=ORIENTED_EDGE('',*,*,#457,.F.);
#224=ORIENTED_EDGE('',*,*,#458,.F.);
#225=ORIENTED_EDGE('',*,*,#459,.T.);
#226=ORIENTED_EDGE('',*,*,#460,.T.);
#227=ORIENTED_EDGE('',*,*,#457,.T.);
#228=ORIENTED_EDGE('',*,*,#461,.T.);
#229=ORIENTED_EDGE('',*,*,#462,.T.);
#230=ORIENTED_EDGE('',*,*,#463,.F.);
#231=ORIENTED_EDGE('',*,*,#464,.T.);
#232=ORIENTED_EDGE('',*,*,#465,.T.);
#233=ORIENTED_EDGE('',*,*,#466,.T.);
#234=ORIENTED_EDGE('',*,*,#467,.T.);
#235=ORIENTED_EDGE('',*,*,#468,.F.);
#236=ORIENTED_EDGE('',*,*,#469,.T.);
#237=ORIENTED_EDGE('',*,*,#450,.T.);
#238=ORIENTED_EDGE('',*,*,#470,.T.);
#239=ORIENTED_EDGE('',*,*,#471,.T.);
#240=ORIENTED_EDGE('',*,*,#472,.T.);
#241=ORIENTED_EDGE('',*,*,#473,.F.);
#242=ORIENTED_EDGE('',*,*,#474,.T.);
#243=ORIENTED_EDGE('',*,*,#475,.T.);
#244=ORIENTED_EDGE('',*,*,#476,.F.);
#245=ORIENTED_EDGE('',*,*,#477,.T.);
#246=ORIENTED_EDGE('',*,*,#478,.T.);
#247=ORIENTED_EDGE('',*,*,#436,.F.);
#248=ORIENTED_EDGE('',*,*,#479,.T.);
#249=ORIENTED_EDGE('',*,*,#480,.T.);
#250=ORIENTED_EDGE('',*,*,#481,.T.);
#251=ORIENTED_EDGE('',*,*,#482,.T.);
#252=ORIENTED_EDGE('',*,*,#483,.T.);
#253=ORIENTED_EDGE('',*,*,#484,.T.);
#254=ORIENTED_EDGE('',*,*,#485,.T.);
#255=ORIENTED_EDGE('',*,*,#468,.T.);
#256=ORIENTED_EDGE('',*,*,#486,.T.);
#257=ORIENTED_EDGE('',*,*,#471,.F.);
#258=ORIENTED_EDGE('',*,*,#487,.T.);
#259=ORIENTED_EDGE('',*,*,#476,.T.);
#260=ORIENTED_EDGE('',*,*,#488,.T.);
#261=ORIENTED_EDGE('',*,*,#489,.T.);
#262=ORIENTED_EDGE('',*,*,#490,.T.);
#263=ORIENTED_EDGE('',*,*,#491,.T.);
#264=ORIENTED_EDGE('',*,*,#473,.T.);
#265=ORIENTED_EDGE('',*,*,#492,.T.);
#266=ORIENTED_EDGE('',*,*,#466,.F.);
#267=ORIENTED_EDGE('',*,*,#449,.F.);
#268=ORIENTED_EDGE('',*,*,#493,.T.);
#269=ORIENTED_EDGE('',*,*,#454,.F.);
#270=ORIENTED_EDGE('',*,*,#460,.F.);
#271=ORIENTED_EDGE('',*,*,#494,.T.);
#272=ORIENTED_EDGE('',*,*,#463,.T.);
#273=ORIENTED_EDGE('',*,*,#495,.T.);
#274=ORIENTED_EDGE('',*,*,#437,.F.);
#275=ORIENTED_EDGE('',*,*,#478,.F.);
#276=ORIENTED_EDGE('',*,*,#496,.T.);
#277=ORIENTED_EDGE('',*,*,#497,.T.);
#278=ORIENTED_EDGE('',*,*,#484,.F.);
#279=ORIENTED_EDGE('',*,*,#498,.T.);
#280=ORIENTED_EDGE('',*,*,#483,.F.);
#281=ORIENTED_EDGE('',*,*,#499,.T.);
#282=ORIENTED_EDGE('',*,*,#482,.F.);
#283=ORIENTED_EDGE('',*,*,#500,.T.);
#284=ORIENTED_EDGE('',*,*,#501,.F.);
#285=ORIENTED_EDGE('',*,*,#502,.T.);
#286=ORIENTED_EDGE('',*,*,#503,.T.);
#287=ORIENTED_EDGE('',*,*,#504,.T.);
#288=ORIENTED_EDGE('',*,*,#432,.T.);
#289=ORIENTED_EDGE('',*,*,#505,.T.);
#290=ORIENTED_EDGE('',*,*,#506,.T.);
#291=ORIENTED_EDGE('',*,*,#507,.T.);
#292=ORIENTED_EDGE('',*,*,#508,.F.);
#293=ORIENTED_EDGE('',*,*,#509,.T.);
#294=ORIENTED_EDGE('',*,*,#510,.T.);
#295=ORIENTED_EDGE('',*,*,#511,.T.);
#296=ORIENTED_EDGE('',*,*,#512,.T.);
#297=ORIENTED_EDGE('',*,*,#513,.F.);
#298=ORIENTED_EDGE('',*,*,#446,.F.);
#299=ORIENTED_EDGE('',*,*,#514,.T.);
#300=ORIENTED_EDGE('',*,*,#515,.T.);
#301=ORIENTED_EDGE('',*,*,#508,.T.);
#302=ORIENTED_EDGE('',*,*,#516,.T.);
#303=ORIENTED_EDGE('',*,*,#511,.F.);
#304=ORIENTED_EDGE('',*,*,#517,.T.);
#305=ORIENTED_EDGE('',*,*,#518,.T.);
#306=ORIENTED_EDGE('',*,*,#519,.T.);
#307=ORIENTED_EDGE('',*,*,#503,.F.);
#308=ORIENTED_EDGE('',*,*,#520,.T.);
#309=ORIENTED_EDGE('',*,*,#521,.T.);
#310=ORIENTED_EDGE('',*,*,#513,.T.);
#311=ORIENTED_EDGE('',*,*,#522,.T.);
#312=ORIENTED_EDGE('',*,*,#506,.F.);
#313=ORIENTED_EDGE('',*,*,#523,.T.);
#314=ORIENTED_EDGE('',*,*,#501,.T.);
#315=ORIENTED_EDGE('',*,*,#431,.F.);
#316=ORIENTED_EDGE('',*,*,#524,.T.);
#317=ORIENTED_EDGE('',*,*,#461,.F.);
#318=ORIENTED_EDGE('',*,*,#525,.T.);
#319=ORIENTED_EDGE('',*,*,#458,.T.);
#320=ORIENTED_EDGE('',*,*,#456,.T.);
#321=ORIENTED_EDGE('',*,*,#526,.T.);
#322=ORIENTED_EDGE('',*,*,#447,.F.);
#323=ORIENTED_EDGE('',*,*,#527,.T.);
#324=ORIENTED_EDGE('',*,*,#427,.F.);
#325=ORIENTED_EDGE('',*,*,#528,.T.);
#326=ORIENTED_EDGE('',*,*,#428,.F.);
#327=ORIENTED_EDGE('',*,*,#529,.T.);
#328=ORIENTED_EDGE('',*,*,#429,.F.);
#329=ORIENTED_EDGE('',*,*,#490,.F.);
#330=ORIENTED_EDGE('',*,*,#530,.T.);
#331=ORIENTED_EDGE('',*,*,#451,.F.);
#332=ORIENTED_EDGE('',*,*,#469,.F.);
#333=ORIENTED_EDGE('',*,*,#453,.F.);
#334=ORIENTED_EDGE('',*,*,#531,.T.);
#335=ORIENTED_EDGE('',*,*,#517,.F.);
#336=ORIENTED_EDGE('',*,*,#514,.F.);
#337=ORIENTED_EDGE('',*,*,#435,.F.);
#338=ORIENTED_EDGE('',*,*,#532,.T.);
#339=ORIENTED_EDGE('',*,*,#488,.F.);
#340=ORIENTED_EDGE('',*,*,#479,.F.);
#341=ORIENTED_EDGE('',*,*,#519,.F.);
#342=ORIENTED_EDGE('',*,*,#533,.T.);
#343=ORIENTED_EDGE('',*,*,#433,.F.);
#344=ORIENTED_EDGE('',*,*,#504,.F.);
#345=ORIENTED_EDGE('',*,*,#534,.F.);
#346=ORIENTED_EDGE('',*,*,#443,.F.);
#347=ORIENTED_EDGE('',*,*,#535,.F.);
#348=ORIENTED_EDGE('',*,*,#434,.F.);
#349=ORIENTED_EDGE('',*,*,#535,.T.);
#350=ORIENTED_EDGE('',*,*,#442,.F.);
#351=ORIENTED_EDGE('',*,*,#536,.F.);
#352=ORIENTED_EDGE('',*,*,#532,.F.);
#353=ORIENTED_EDGE('',*,*,#534,.T.);
#354=ORIENTED_EDGE('',*,*,#533,.F.);
#355=ORIENTED_EDGE('',*,*,#537,.F.);
#356=ORIENTED_EDGE('',*,*,#444,.F.);
#357=ORIENTED_EDGE('',*,*,#536,.T.);
#358=ORIENTED_EDGE('',*,*,#441,.F.);
#359=ORIENTED_EDGE('',*,*,#538,.F.);
#360=ORIENTED_EDGE('',*,*,#489,.F.);
#361=ORIENTED_EDGE('',*,*,#537,.T.);
#362=ORIENTED_EDGE('',*,*,#518,.F.);
#363=ORIENTED_EDGE('',*,*,#539,.F.);
#364=ORIENTED_EDGE('',*,*,#445,.F.);
#365=ORIENTED_EDGE('',*,*,#538,.T.);
#366=ORIENTED_EDGE('',*,*,#440,.F.);
#367=ORIENTED_EDGE('',*,*,#540,.F.);
#368=ORIENTED_EDGE('',*,*,#530,.F.);
#369=ORIENTED_EDGE('',*,*,#539,.T.);
#370=ORIENTED_EDGE('',*,*,#531,.F.);
#371=ORIENTED_EDGE('',*,*,#541,.F.);
#372=ORIENTED_EDGE('',*,*,#438,.F.);
#373=ORIENTED_EDGE('',*,*,#540,.T.);
#374=ORIENTED_EDGE('',*,*,#439,.F.);
#375=ORIENTED_EDGE('',*,*,#541,.T.);
#376=ORIENTED_EDGE('',*,*,#452,.F.);
#377=ORIENTED_EDGE('',*,*,#493,.F.);
#378=ORIENTED_EDGE('',*,*,#448,.F.);
#379=ORIENTED_EDGE('',*,*,#526,.F.);
#380=ORIENTED_EDGE('',*,*,#455,.F.);
#381=ORIENTED_EDGE('',*,*,#495,.F.);
#382=ORIENTED_EDGE('',*,*,#462,.F.);
#383=ORIENTED_EDGE('',*,*,#524,.F.);
#384=ORIENTED_EDGE('',*,*,#430,.F.);
#385=ORIENTED_EDGE('',*,*,#494,.F.);
#386=ORIENTED_EDGE('',*,*,#459,.F.);
#387=ORIENTED_EDGE('',*,*,#525,.F.);
#388=ORIENTED_EDGE('',*,*,#464,.F.);
#389=ORIENTED_EDGE('',*,*,#516,.F.);
#390=ORIENTED_EDGE('',*,*,#507,.F.);
#391=ORIENTED_EDGE('',*,*,#522,.F.);
#392=ORIENTED_EDGE('',*,*,#512,.F.);
#393=ORIENTED_EDGE('',*,*,#520,.F.);
#394=ORIENTED_EDGE('',*,*,#502,.F.);
#395=ORIENTED_EDGE('',*,*,#523,.F.);
#396=ORIENTED_EDGE('',*,*,#509,.F.);
#397=ORIENTED_EDGE('',*,*,#486,.F.);
#398=ORIENTED_EDGE('',*,*,#467,.F.);
#399=ORIENTED_EDGE('',*,*,#492,.F.);
#400=ORIENTED_EDGE('',*,*,#472,.F.);
#401=ORIENTED_EDGE('',*,*,#487,.F.);
#402=ORIENTED_EDGE('',*,*,#474,.F.);
#403=ORIENTED_EDGE('',*,*,#496,.F.);
#404=ORIENTED_EDGE('',*,*,#477,.F.);
#405=ORIENTED_EDGE('',*,*,#529,.F.);
#406=ORIENTED_EDGE('',*,*,#505,.F.);
#407=ORIENTED_EDGE('',*,*,#528,.F.);
#408=ORIENTED_EDGE('',*,*,#500,.F.);
#409=ORIENTED_EDGE('',*,*,#527,.F.);
#410=ORIENTED_EDGE('',*,*,#510,.F.);
#411=ORIENTED_EDGE('',*,*,#470,.F.);
#412=ORIENTED_EDGE('',*,*,#499,.F.);
#413=ORIENTED_EDGE('',*,*,#475,.F.);
#414=ORIENTED_EDGE('',*,*,#498,.F.);
#415=ORIENTED_EDGE('',*,*,#465,.F.);
#416=ORIENTED_EDGE('',*,*,#497,.F.);
#417=ORIENTED_EDGE('',*,*,#425,.F.);
#418=ORIENTED_EDGE('',*,*,#515,.F.);
#419=ORIENTED_EDGE('',*,*,#521,.F.);
#420=ORIENTED_EDGE('',*,*,#426,.F.);
#421=ORIENTED_EDGE('',*,*,#485,.F.);
#422=ORIENTED_EDGE('',*,*,#480,.F.);
#423=ORIENTED_EDGE('',*,*,#481,.F.);
#424=ORIENTED_EDGE('',*,*,#491,.F.);
#425=EDGE_CURVE('',#542,#542,#626,.T.);
#426=EDGE_CURVE('',#543,#543,#627,.F.);
#427=EDGE_CURVE('',#544,#544,#185,.T.);
#428=EDGE_CURVE('',#545,#545,#186,.T.);
#429=EDGE_CURVE('',#546,#546,#187,.T.);
#430=EDGE_CURVE('',#547,#548,#30,.T.);
#431=EDGE_CURVE('',#548,#549,#31,.T.);
#432=EDGE_CURVE('',#550,#549,#32,.T.);
#433=EDGE_CURVE('',#550,#551,#33,.F.);
#434=EDGE_CURVE('',#551,#552,#34,.T.);
#435=EDGE_CURVE('',#552,#553,#35,.T.);
#436=EDGE_CURVE('',#553,#554,#36,.T.);
#437=EDGE_CURVE('',#554,#547,#37,.T.);
#438=EDGE_CURVE('',#555,#556,#628,.F.);
#439=EDGE_CURVE('',#556,#557,#38,.T.);
#440=EDGE_CURVE('',#557,#558,#629,.F.);
#441=EDGE_CURVE('',#558,#559,#39,.T.);
#442=EDGE_CURVE('',#559,#560,#630,.F.);
#443=EDGE_CURVE('',#560,#561,#40,.T.);
#444=EDGE_CURVE('',#561,#562,#631,.F.);
#445=EDGE_CURVE('',#562,#555,#41,.T.);
#446=EDGE_CURVE('',#563,#564,#42,.T.);
#447=EDGE_CURVE('',#564,#565,#43,.T.);
#448=EDGE_CURVE('',#565,#566,#44,.T.);
#449=EDGE_CURVE('',#566,#567,#45,.T.);
#450=EDGE_CURVE('',#568,#567,#46,.T.);
#451=EDGE_CURVE('',#568,#569,#47,.F.);
#452=EDGE_CURVE('',#569,#570,#48,.T.);
#453=EDGE_CURVE('',#570,#563,#49,.T.);
#454=EDGE_CURVE('',#571,#572,#632,.T.);
#455=EDGE_CURVE('',#572,#573,#50,.T.);
#456=EDGE_CURVE('',#574,#573,#633,.T.);
#457=EDGE_CURVE('',#571,#574,#51,.T.);
#458=EDGE_CURVE('',#575,#574,#52,.T.);
#459=EDGE_CURVE('',#575,#576,#53,.T.);
#460=EDGE_CURVE('',#576,#571,#54,.T.);
#461=EDGE_CURVE('',#577,#578,#55,.T.);
#462=EDGE_CURVE('',#578,#579,#56,.T.);
#463=EDGE_CURVE('',#580,#579,#57,.T.);
#464=EDGE_CURVE('',#580,#577,#58,.T.);
#465=EDGE_CURVE('',#581,#581,#634,.T.);
#466=EDGE_CURVE('',#567,#582,#59,.T.);
#467=EDGE_CURVE('',#582,#583,#60,.F.);
#468=EDGE_CURVE('',#584,#583,#61,.T.);
#469=EDGE_CURVE('',#584,#568,#26,.F.);
#470=EDGE_CURVE('',#585,#585,#635,.F.);
#471=EDGE_CURVE('',#586,#587,#62,.T.);
#472=EDGE_CURVE('',#587,#588,#63,.T.);
#473=EDGE_CURVE('',#589,#588,#64,.T.);
#474=EDGE_CURVE('',#589,#586,#65,.F.);
#475=EDGE_CURVE('',#590,#590,#636,.T.);
#476=EDGE_CURVE('',#591,#592,#66,.T.);
#477=EDGE_CURVE('',#591,#593,#67,.T.);
#478=EDGE_CURVE('',#593,#554,#68,.T.);
#479=EDGE_CURVE('',#553,#592,#27,.F.);
#480=EDGE_CURVE('',#594,#594,#637,.T.);
#481=EDGE_CURVE('',#595,#595,#638,.F.);
#482=EDGE_CURVE('',#596,#596,#188,.T.);
#483=EDGE_CURVE('',#597,#597,#189,.T.);
#484=EDGE_CURVE('',#598,#598,#190,.T.);
#485=EDGE_CURVE('',#599,#599,#639,.F.);
#486=EDGE_CURVE('',#583,#587,#640,.T.);
#487=EDGE_CURVE('',#586,#591,#641,.T.);
#488=EDGE_CURVE('',#592,#600,#69,.F.);
#489=EDGE_CURVE('',#600,#601,#70,.T.);
#490=EDGE_CURVE('',#601,#584,#71,.T.);
#491=EDGE_CURVE('',#602,#602,#642,.T.);
#492=EDGE_CURVE('',#588,#582,#643,.F.);
#493=EDGE_CURVE('',#566,#572,#644,.T.);
#494=EDGE_CURVE('',#576,#580,#72,.T.);
#495=EDGE_CURVE('',#579,#547,#73,.T.);
#496=EDGE_CURVE('',#593,#589,#645,.F.);
#497=EDGE_CURVE('',#603,#603,#646,.F.);
#498=EDGE_CURVE('',#604,#604,#647,.F.);
#499=EDGE_CURVE('',#605,#605,#648,.T.);
#500=EDGE_CURVE('',#606,#606,#649,.F.);
#501=EDGE_CURVE('',#607,#549,#74,.T.);
#502=EDGE_CURVE('',#607,#608,#75,.F.);
#503=EDGE_CURVE('',#608,#609,#76,.T.);
#504=EDGE_CURVE('',#609,#550,#28,.T.);
#505=EDGE_CURVE('',#610,#610,#650,.T.);
#506=EDGE_CURVE('',#611,#612,#77,.T.);
#507=EDGE_CURVE('',#612,#613,#78,.F.);
#508=EDGE_CURVE('',#614,#613,#79,.T.);
#509=EDGE_CURVE('',#614,#611,#80,.T.);
#510=EDGE_CURVE('',#615,#615,#651,.F.);
#511=EDGE_CURVE('',#616,#617,#81,.T.);
#512=EDGE_CURVE('',#617,#618,#82,.T.);
#513=EDGE_CURVE('',#564,#618,#83,.T.);
#514=EDGE_CURVE('',#563,#616,#29,.T.);
#515=EDGE_CURVE('',#619,#619,#652,.F.);
#516=EDGE_CURVE('',#613,#617,#653,.T.);
#517=EDGE_CURVE('',#616,#620,#84,.F.);
#518=EDGE_CURVE('',#620,#621,#85,.T.);
#519=EDGE_CURVE('',#621,#609,#86,.T.);
#520=EDGE_CURVE('',#608,#614,#654,.T.);
#521=EDGE_CURVE('',#622,#622,#655,.T.);
#522=EDGE_CURVE('',#618,#612,#656,.F.);
#523=EDGE_CURVE('',#611,#607,#657,.F.);
#524=EDGE_CURVE('',#548,#578,#87,.T.);
#525=EDGE_CURVE('',#577,#575,#88,.T.);
#526=EDGE_CURVE('',#573,#565,#658,.T.);
#527=EDGE_CURVE('',#623,#623,#659,.T.);
#528=EDGE_CURVE('',#624,#624,#660,.T.);
#529=EDGE_CURVE('',#625,#625,#661,.F.);
#530=EDGE_CURVE('',#601,#569,#662,.T.);
#531=EDGE_CURVE('',#570,#620,#663,.T.);
#532=EDGE_CURVE('',#552,#600,#664,.T.);
#533=EDGE_CURVE('',#621,#551,#665,.T.);
#534=EDGE_CURVE('',#561,#551,#89,.T.);
#535=EDGE_CURVE('',#552,#560,#90,.T.);
#536=EDGE_CURVE('',#600,#559,#91,.T.);
#537=EDGE_CURVE('',#562,#621,#92,.T.);
#538=EDGE_CURVE('',#601,#558,#93,.T.);
#539=EDGE_CURVE('',#555,#620,#94,.T.);
#540=EDGE_CURVE('',#569,#557,#95,.T.);
#541=EDGE_CURVE('',#556,#570,#96,.T.);
#542=VERTEX_POINT('',#1287);
#543=VERTEX_POINT('',#1289);
#544=VERTEX_POINT('',#1301);
#545=VERTEX_POINT('',#1313);
#546=VERTEX_POINT('',#1325);
#547=VERTEX_POINT('',#1328);
#548=VERTEX_POINT('',#1329);
#549=VERTEX_POINT('',#1331);
#550=VERTEX_POINT('',#1333);
#551=VERTEX_POINT('',#1335);
#552=VERTEX_POINT('',#1337);
#553=VERTEX_POINT('',#1339);
#554=VERTEX_POINT('',#1341);
#555=VERTEX_POINT('',#1345);
#556=VERTEX_POINT('',#1346);
#557=VERTEX_POINT('',#1348);
#558=VERTEX_POINT('',#1350);
#559=VERTEX_POINT('',#1352);
#560=VERTEX_POINT('',#1354);
#561=VERTEX_POINT('',#1356);
#562=VERTEX_POINT('',#1358);
#563=VERTEX_POINT('',#1362);
#564=VERTEX_POINT('',#1363);
#565=VERTEX_POINT('',#1365);
#566=VERTEX_POINT('',#1367);
#567=VERTEX_POINT('',#1369);
#568=VERTEX_POINT('',#1371);
#569=VERTEX_POINT('',#1373);
#570=VERTEX_POINT('',#1375);
#571=VERTEX_POINT('',#1379);
#572=VERTEX_POINT('',#1380);
#573=VERTEX_POINT('',#1382);
#574=VERTEX_POINT('',#1384);
#575=VERTEX_POINT('',#1388);
#576=VERTEX_POINT('',#1390);
#577=VERTEX_POINT('',#1394);
#578=VERTEX_POINT('',#1395);
#579=VERTEX_POINT('',#1397);
#580=VERTEX_POINT('',#1399);
#581=VERTEX_POINT('',#1403);
#582=VERTEX_POINT('',#1405);
#583=VERTEX_POINT('',#1407);
#584=VERTEX_POINT('',#1409);
#585=VERTEX_POINT('',#1413);
#586=VERTEX_POINT('',#1415);
#587=VERTEX_POINT('',#1416);
#588=VERTEX_POINT('',#1418);
#589=VERTEX_POINT('',#1420);
#590=VERTEX_POINT('',#1424);
#591=VERTEX_POINT('',#1426);
#592=VERTEX_POINT('',#1427);
#593=VERTEX_POINT('',#1429);
#594=VERTEX_POINT('',#1434);
#595=VERTEX_POINT('',#1436);
#596=VERTEX_POINT('',#1448);
#597=VERTEX_POINT('',#1460);
#598=VERTEX_POINT('',#1472);
#599=VERTEX_POINT('',#1475);
#600=VERTEX_POINT('',#1479);
#601=VERTEX_POINT('',#1481);
#602=VERTEX_POINT('',#1485);
#603=VERTEX_POINT('',#1493);
#604=VERTEX_POINT('',#1496);
#605=VERTEX_POINT('',#1499);
#606=VERTEX_POINT('',#1502);
#607=VERTEX_POINT('',#1504);
#608=VERTEX_POINT('',#1506);
#609=VERTEX_POINT('',#1508);
#610=VERTEX_POINT('',#1512);
#611=VERTEX_POINT('',#1514);
#612=VERTEX_POINT('',#1515);
#613=VERTEX_POINT('',#1517);
#614=VERTEX_POINT('',#1519);
#615=VERTEX_POINT('',#1523);
#616=VERTEX_POINT('',#1525);
#617=VERTEX_POINT('',#1526);
#618=VERTEX_POINT('',#1528);
#619=VERTEX_POINT('',#1533);
#620=VERTEX_POINT('',#1536);
#621=VERTEX_POINT('',#1538);
#622=VERTEX_POINT('',#1543);
#623=VERTEX_POINT('',#1551);
#624=VERTEX_POINT('',#1554);
#625=VERTEX_POINT('',#1557);
#626=CIRCLE('',#925,0.0066);
#627=CIRCLE('',#926,0.0066);
#628=CIRCLE('',#929,0.002);
#629=CIRCLE('',#930,0.00199999999999997);
#630=CIRCLE('',#931,0.002);
#631=CIRCLE('',#932,0.002);
#632=CIRCLE('',#935,0.0455);
#633=CIRCLE('',#936,0.0455);
#634=CIRCLE('',#940,0.00175000000000017);
#635=CIRCLE('',#943,0.00174999999999995);
#636=CIRCLE('',#945,0.00175);
#637=CIRCLE('',#948,0.0066);
#638=CIRCLE('',#949,0.0066);
#639=CIRCLE('',#951,0.0086);
#640=CIRCLE('',#952,0.002);
#641=CIRCLE('',#953,0.002);
#642=CIRCLE('',#955,0.0086);
#643=CIRCLE('',#956,0.002);
#644=CIRCLE('',#957,0.0005);
#645=CIRCLE('',#958,0.002);
#646=CIRCLE('',#960,0.00125);
#647=CIRCLE('',#962,0.00125);
#648=CIRCLE('',#964,0.00125);
#649=CIRCLE('',#966,0.00175);
#650=CIRCLE('',#969,0.00174999999999995);
#651=CIRCLE('',#971,0.00175000000000017);
#652=CIRCLE('',#974,0.0086);
#653=CIRCLE('',#975,0.002);
#654=CIRCLE('',#976,0.002);
#655=CIRCLE('',#978,0.0086);
#656=CIRCLE('',#979,0.002);
#657=CIRCLE('',#980,0.002);
#658=CIRCLE('',#981,0.0005);
#659=CIRCLE('',#983,0.00125);
#660=CIRCLE('',#985,0.00125);
#661=CIRCLE('',#987,0.00125);
#662=CIRCLE('',#989,0.003);
#663=CIRCLE('',#991,0.003);
#664=CIRCLE('',#993,0.003);
#665=CIRCLE('',#995,0.003);
#666=EDGE_LOOP('',(#191));
#667=EDGE_LOOP('',(#192));
#668=EDGE_LOOP('',(#193));
#669=EDGE_LOOP('',(#194));
#670=EDGE_LOOP('',(#195));
#671=EDGE_LOOP('',(#196,#197,#198,#199,#200,#201,#202,#203));
#672=EDGE_LOOP('',(#204,#205,#206,#207,#208,#209,#210,#211));
#673=EDGE_LOOP('',(#212,#213,#214,#215,#216,#217,#218,#219));
#674=EDGE_LOOP('',(#220,#221,#222,#223));
#675=EDGE_LOOP('',(#224,#225,#226,#227));
#676=EDGE_LOOP('',(#228,#229,#230,#231));
#677=EDGE_LOOP('',(#232));
#678=EDGE_LOOP('',(#233,#234,#235,#236,#237));
#679=EDGE_LOOP('',(#238));
#680=EDGE_LOOP('',(#239,#240,#241,#242));
#681=EDGE_LOOP('',(#243));
#682=EDGE_LOOP('',(#244,#245,#246,#247,#248));
#683=EDGE_LOOP('',(#249));
#684=EDGE_LOOP('',(#250));
#685=EDGE_LOOP('',(#251));
#686=EDGE_LOOP('',(#252));
#687=EDGE_LOOP('',(#253));
#688=EDGE_LOOP('',(#254));
#689=EDGE_LOOP('',(#255,#256,#257,#258,#259,#260,#261,#262));
#690=EDGE_LOOP('',(#263));
#691=EDGE_LOOP('',(#264,#265,#266,#267,#268,#269,#270,#271,#272,#273,#274,
#275,#276));
#692=EDGE_LOOP('',(#277));
#693=EDGE_LOOP('',(#278));
#694=EDGE_LOOP('',(#279));
#695=EDGE_LOOP('',(#280));
#696=EDGE_LOOP('',(#281));
#697=EDGE_LOOP('',(#282));
#698=EDGE_LOOP('',(#283));
#699=EDGE_LOOP('',(#284,#285,#286,#287,#288));
#700=EDGE_LOOP('',(#289));
#701=EDGE_LOOP('',(#290,#291,#292,#293));
#702=EDGE_LOOP('',(#294));
#703=EDGE_LOOP('',(#295,#296,#297,#298,#299));
#704=EDGE_LOOP('',(#300));
#705=EDGE_LOOP('',(#301,#302,#303,#304,#305,#306,#307,#308));
#706=EDGE_LOOP('',(#309));
#707=EDGE_LOOP('',(#310,#311,#312,#313,#314,#315,#316,#317,#318,#319,#320,
#321,#322));
#708=EDGE_LOOP('',(#323));
#709=EDGE_LOOP('',(#324));
#710=EDGE_LOOP('',(#325));
#711=EDGE_LOOP('',(#326));
#712=EDGE_LOOP('',(#327));
#713=EDGE_LOOP('',(#328));
#714=EDGE_LOOP('',(#329,#330,#331,#332));
#715=EDGE_LOOP('',(#333,#334,#335,#336));
#716=EDGE_LOOP('',(#337,#338,#339,#340));
#717=EDGE_LOOP('',(#341,#342,#343,#344));
#718=EDGE_LOOP('',(#345,#346,#347,#348));
#719=EDGE_LOOP('',(#349,#350,#351,#352));
#720=EDGE_LOOP('',(#353,#354,#355,#356));
#721=EDGE_LOOP('',(#357,#358,#359,#360));
#722=EDGE_LOOP('',(#361,#362,#363,#364));
#723=EDGE_LOOP('',(#365,#366,#367,#368));
#724=EDGE_LOOP('',(#369,#370,#371,#372));
#725=EDGE_LOOP('',(#373,#374,#375,#376));
#726=EDGE_LOOP('',(#377,#378,#379,#380));
#727=EDGE_LOOP('',(#381,#382,#383,#384));
#728=EDGE_LOOP('',(#385,#386,#387,#388));
#729=EDGE_LOOP('',(#389,#390,#391,#392));
#730=EDGE_LOOP('',(#393,#394,#395,#396));
#731=EDGE_LOOP('',(#397,#398,#399,#400));
#732=EDGE_LOOP('',(#401,#402,#403,#404));
#733=EDGE_LOOP('',(#405));
#734=EDGE_LOOP('',(#406));
#735=EDGE_LOOP('',(#407));
#736=EDGE_LOOP('',(#408));
#737=EDGE_LOOP('',(#409));
#738=EDGE_LOOP('',(#410));
#739=EDGE_LOOP('',(#411));
#740=EDGE_LOOP('',(#412));
#741=EDGE_LOOP('',(#413));
#742=EDGE_LOOP('',(#414));
#743=EDGE_LOOP('',(#415));
#744=EDGE_LOOP('',(#416));
#745=EDGE_LOOP('',(#417));
#746=EDGE_LOOP('',(#418));
#747=EDGE_LOOP('',(#419));
#748=EDGE_LOOP('',(#420));
#749=EDGE_LOOP('',(#421));
#750=EDGE_LOOP('',(#422));
#751=EDGE_LOOP('',(#423));
#752=EDGE_LOOP('',(#424));
#753=FACE_BOUND('',#666,.T.);
#754=FACE_BOUND('',#667,.T.);
#755=FACE_BOUND('',#668,.T.);
#756=FACE_BOUND('',#669,.T.);
#757=FACE_BOUND('',#670,.T.);
#758=FACE_BOUND('',#671,.T.);
#759=FACE_BOUND('',#672,.T.);
#760=FACE_BOUND('',#673,.T.);
#761=FACE_BOUND('',#674,.T.);
#762=FACE_BOUND('',#675,.T.);
#763=FACE_BOUND('',#676,.T.);
#764=FACE_BOUND('',#677,.T.);
#765=FACE_BOUND('',#678,.T.);
#766=FACE_BOUND('',#679,.T.);
#767=FACE_BOUND('',#680,.T.);
#768=FACE_BOUND('',#681,.T.);
#769=FACE_BOUND('',#682,.T.);
#770=FACE_BOUND('',#683,.T.);
#771=FACE_BOUND('',#684,.T.);
#772=FACE_BOUND('',#685,.T.);
#773=FACE_BOUND('',#686,.T.);
#774=FACE_BOUND('',#687,.T.);
#775=FACE_BOUND('',#688,.T.);
#776=FACE_BOUND('',#689,.T.);
#777=FACE_BOUND('',#690,.T.);
#778=FACE_BOUND('',#691,.T.);
#779=FACE_BOUND('',#692,.T.);
#780=FACE_BOUND('',#693,.T.);
#781=FACE_BOUND('',#694,.T.);
#782=FACE_BOUND('',#695,.T.);
#783=FACE_BOUND('',#696,.T.);
#784=FACE_BOUND('',#697,.T.);
#785=FACE_BOUND('',#698,.T.);
#786=FACE_BOUND('',#699,.T.);
#787=FACE_BOUND('',#700,.T.);
#788=FACE_BOUND('',#701,.T.);
#789=FACE_BOUND('',#702,.T.);
#790=FACE_BOUND('',#703,.T.);
#791=FACE_BOUND('',#704,.T.);
#792=FACE_BOUND('',#705,.T.);
#793=FACE_BOUND('',#706,.T.);
#794=FACE_BOUND('',#707,.T.);
#795=FACE_BOUND('',#708,.T.);
#796=FACE_BOUND('',#709,.T.);
#797=FACE_BOUND('',#710,.T.);
#798=FACE_BOUND('',#711,.T.);
#799=FACE_BOUND('',#712,.T.);
#800=FACE_BOUND('',#713,.T.);
#801=FACE_BOUND('',#714,.T.);
#802=FACE_BOUND('',#715,.T.);
#803=FACE_BOUND('',#716,.T.);
#804=FACE_BOUND('',#717,.T.);
#805=FACE_BOUND('',#718,.T.);
#806=FACE_BOUND('',#719,.T.);
#807=FACE_BOUND('',#720,.T.);
#808=FACE_BOUND('',#721,.T.);
#809=FACE_BOUND('',#722,.T.);
#810=FACE_BOUND('',#723,.T.);
#811=FACE_BOUND('',#724,.T.);
#812=FACE_BOUND('',#725,.T.);
#813=FACE_BOUND('',#726,.T.);
#814=FACE_BOUND('',#727,.T.);
#815=FACE_BOUND('',#728,.T.);
#816=FACE_BOUND('',#729,.T.);
#817=FACE_BOUND('',#730,.T.);
#818=FACE_BOUND('',#731,.T.);
#819=FACE_BOUND('',#732,.T.);
#820=FACE_BOUND('',#733,.T.);
#821=FACE_BOUND('',#734,.T.);
#822=FACE_BOUND('',#735,.T.);
#823=FACE_BOUND('',#736,.T.);
#824=FACE_BOUND('',#737,.T.);
#825=FACE_BOUND('',#738,.T.);
#826=FACE_BOUND('',#739,.T.);
#827=FACE_BOUND('',#740,.T.);
#828=FACE_BOUND('',#741,.T.);
#829=FACE_BOUND('',#742,.T.);
#830=FACE_BOUND('',#743,.T.);
#831=FACE_BOUND('',#744,.T.);
#832=FACE_BOUND('',#745,.T.);
#833=FACE_BOUND('',#746,.T.);
#834=FACE_BOUND('',#747,.T.);
#835=FACE_BOUND('',#748,.T.);
#836=FACE_BOUND('',#749,.T.);
#837=FACE_BOUND('',#750,.T.);
#838=FACE_BOUND('',#751,.T.);
#839=FACE_BOUND('',#752,.T.);
#840=CYLINDRICAL_SURFACE('',#924,0.0066);
#841=CYLINDRICAL_SURFACE('',#934,0.0455);
#842=CYLINDRICAL_SURFACE('',#947,0.0066);
#843=CYLINDRICAL_SURFACE('',#959,0.00125);
#844=CYLINDRICAL_SURFACE('',#961,0.00125);
#845=CYLINDRICAL_SURFACE('',#963,0.00125);
#846=CYLINDRICAL_SURFACE('',#982,0.00125);
#847=CYLINDRICAL_SURFACE('',#984,0.00125);
#848=CYLINDRICAL_SURFACE('',#986,0.00125);
#849=CYLINDRICAL_SURFACE('',#988,0.003);
#850=CYLINDRICAL_SURFACE('',#990,0.003);
#851=CYLINDRICAL_SURFACE('',#992,0.003);
#852=CYLINDRICAL_SURFACE('',#994,0.003);
#853=CYLINDRICAL_SURFACE('',#1004,0.0005);
#854=CYLINDRICAL_SURFACE('',#1007,0.002);
#855=CYLINDRICAL_SURFACE('',#1008,0.002);
#856=CYLINDRICAL_SURFACE('',#1009,0.002);
#857=CYLINDRICAL_SURFACE('',#1010,0.002);
#858=ADVANCED_FACE('',(#753,#754,#755,#756,#757),#840,.F.);
#859=ADVANCED_FACE('',(#758),#164,.T.);
#860=ADVANCED_FACE('',(#759),#165,.F.);
#861=ADVANCED_FACE('',(#760),#166,.F.);
#862=ADVANCED_FACE('',(#761),#841,.F.);
#863=ADVANCED_FACE('',(#762),#167,.T.);
#864=ADVANCED_FACE('',(#763),#168,.F.);
#865=ADVANCED_FACE('',(#764,#765),#169,.F.);
#866=ADVANCED_FACE('',(#766,#767),#170,.T.);
#867=ADVANCED_FACE('',(#768,#769),#171,.F.);
#868=ADVANCED_FACE('',(#770,#771,#772,#773,#774),#842,.F.);
#869=ADVANCED_FACE('',(#775,#776),#172,.T.);
#870=ADVANCED_FACE('',(#777,#778),#173,.F.);
#871=ADVANCED_FACE('',(#779,#780),#843,.F.);
#872=ADVANCED_FACE('',(#781,#782),#844,.F.);
#873=ADVANCED_FACE('',(#783,#784),#845,.F.);
#874=ADVANCED_FACE('',(#785,#786),#174,.T.);
#875=ADVANCED_FACE('',(#787,#788),#175,.F.);
#876=ADVANCED_FACE('',(#789,#790),#176,.T.);
#877=ADVANCED_FACE('',(#791,#792),#177,.T.);
#878=ADVANCED_FACE('',(#793,#794),#178,.F.);
#879=ADVANCED_FACE('',(#795,#796),#846,.F.);
#880=ADVANCED_FACE('',(#797,#798),#847,.F.);
#881=ADVANCED_FACE('',(#799,#800),#848,.F.);
#882=ADVANCED_FACE('',(#801),#849,.T.);
#883=ADVANCED_FACE('',(#802),#850,.T.);
#884=ADVANCED_FACE('',(#803),#851,.T.);
#885=ADVANCED_FACE('',(#804),#852,.T.);
#886=ADVANCED_FACE('',(#805),#179,.T.);
#887=ADVANCED_FACE('',(#806),#12,.T.);
#888=ADVANCED_FACE('',(#807),#13,.T.);
#889=ADVANCED_FACE('',(#808),#180,.T.);
#890=ADVANCED_FACE('',(#809),#181,.T.);
#891=ADVANCED_FACE('',(#810),#14,.T.);
#892=ADVANCED_FACE('',(#811),#15,.T.);
#893=ADVANCED_FACE('',(#812),#182,.F.);
#894=ADVANCED_FACE('',(#813),#853,.T.);
#895=ADVANCED_FACE('',(#814),#183,.T.);
#896=ADVANCED_FACE('',(#815),#184,.T.);
#897=ADVANCED_FACE('',(#816),#854,.T.);
#898=ADVANCED_FACE('',(#817),#855,.T.);
#899=ADVANCED_FACE('',(#818),#856,.T.);
#900=ADVANCED_FACE('',(#819),#857,.T.);
#901=ADVANCED_FACE('',(#820,#821),#16,.F.);
#902=ADVANCED_FACE('',(#822,#823),#17,.F.);
#903=ADVANCED_FACE('',(#824,#825),#18,.F.);
#904=ADVANCED_FACE('',(#826,#827),#19,.F.);
#905=ADVANCED_FACE('',(#828,#829),#20,.F.);
#906=ADVANCED_FACE('',(#830,#831),#21,.F.);
#907=ADVANCED_FACE('',(#832,#833),#22,.F.);
#908=ADVANCED_FACE('',(#834,#835),#23,.F.);
#909=ADVANCED_FACE('',(#836,#837),#24,.F.);
#910=ADVANCED_FACE('',(#838,#839),#25,.F.);
#911=CLOSED_SHELL('',(#858,#859,#860,#861,#862,#863,#864,#865,#866,#867,
#868,#869,#870,#871,#872,#873,#874,#875,#876,#877,#878,#879,#880,#881,#882,
#883,#884,#885,#886,#887,#888,#889,#890,#891,#892,#893,#894,#895,#896,#897,
#898,#899,#900,#901,#902,#903,#904,#905,#906,#907,#908,#909,#910));
#912=STYLED_ITEM('',(#913),#920);
#913=PRESENTATION_STYLE_ASSIGNMENT((#914));
#914=SURFACE_STYLE_USAGE(.BOTH.,#915);
#915=SURFACE_SIDE_STYLE('',(#916));
#916=SURFACE_STYLE_FILL_AREA(#917);
#917=FILL_AREA_STYLE('',(#918));
#918=FILL_AREA_STYLE_COLOUR('',#919);
#919=COLOUR_RGB('',0.972549019607843,0.529411764705882,0.00392156862745098);
#920=MANIFOLD_SOLID_BREP('Part 28',#911);
#921=SHAPE_DEFINITION_REPRESENTATION(#1605,#922);
#922=SHAPE_REPRESENTATION('Part 28',(#923),#1600);
#923=AXIS2_PLACEMENT_3D('',#1284,#1021,#1022);
#924=AXIS2_PLACEMENT_3D('',#1285,#1023,#1024);
#925=AXIS2_PLACEMENT_3D('',#1286,#1025,#1026);
#926=AXIS2_PLACEMENT_3D('',#1288,#1027,#1028);
#927=AXIS2_PLACEMENT_3D('',#1326,#1029,#1030);
#928=AXIS2_PLACEMENT_3D('',#1343,#1039,#1040);
#929=AXIS2_PLACEMENT_3D('',#1344,#1041,#1042);
#930=AXIS2_PLACEMENT_3D('',#1349,#1044,#1045);
#931=AXIS2_PLACEMENT_3D('',#1353,#1047,#1048);
#932=AXIS2_PLACEMENT_3D('',#1357,#1050,#1051);
#933=AXIS2_PLACEMENT_3D('',#1360,#1053,#1054);
#934=AXIS2_PLACEMENT_3D('',#1377,#1063,#1064);
#935=AXIS2_PLACEMENT_3D('',#1378,#1065,#1066);
#936=AXIS2_PLACEMENT_3D('',#1383,#1068,#1069);
#937=AXIS2_PLACEMENT_3D('',#1386,#1071,#1072);
#938=AXIS2_PLACEMENT_3D('',#1392,#1076,#1077);
#939=AXIS2_PLACEMENT_3D('',#1401,#1082,#1083);
#940=AXIS2_PLACEMENT_3D('',#1402,#1084,#1085);
#941=AXIS2_PLACEMENT_3D('',#1410,#1089,#1090);
#942=AXIS2_PLACEMENT_3D('',#1411,#1091,#1092);
#943=AXIS2_PLACEMENT_3D('',#1412,#1093,#1094);
#944=AXIS2_PLACEMENT_3D('',#1422,#1099,#1100);
#945=AXIS2_PLACEMENT_3D('',#1423,#1101,#1102);
#946=AXIS2_PLACEMENT_3D('',#1431,#1106,#1107);
#947=AXIS2_PLACEMENT_3D('',#1432,#1108,#1109);
#948=AXIS2_PLACEMENT_3D('',#1433,#1110,#1111);
#949=AXIS2_PLACEMENT_3D('',#1435,#1112,#1113);
#950=AXIS2_PLACEMENT_3D('',#1473,#1114,#1115);
#951=AXIS2_PLACEMENT_3D('',#1474,#1116,#1117);
#952=AXIS2_PLACEMENT_3D('',#1476,#1118,#1119);
#953=AXIS2_PLACEMENT_3D('',#1477,#1120,#1121);
#954=AXIS2_PLACEMENT_3D('',#1483,#1125,#1126);
#955=AXIS2_PLACEMENT_3D('',#1484,#1127,#1128);
#956=AXIS2_PLACEMENT_3D('',#1486,#1129,#1130);
#957=AXIS2_PLACEMENT_3D('',#1487,#1131,#1132);
#958=AXIS2_PLACEMENT_3D('',#1490,#1135,#1136);
#959=AXIS2_PLACEMENT_3D('',#1491,#1137,#1138);
#960=AXIS2_PLACEMENT_3D('',#1492,#1139,#1140);
#961=AXIS2_PLACEMENT_3D('',#1494,#1141,#1142);
#962=AXIS2_PLACEMENT_3D('',#1495,#1143,#1144);
#963=AXIS2_PLACEMENT_3D('',#1497,#1145,#1146);
#964=AXIS2_PLACEMENT_3D('',#1498,#1147,#1148);
#965=AXIS2_PLACEMENT_3D('',#1500,#1149,#1150);
#966=AXIS2_PLACEMENT_3D('',#1501,#1151,#1152);
#967=AXIS2_PLACEMENT_3D('',#1509,#1156,#1157);
#968=AXIS2_PLACEMENT_3D('',#1510,#1158,#1159);
#969=AXIS2_PLACEMENT_3D('',#1511,#1160,#1161);
#970=AXIS2_PLACEMENT_3D('',#1521,#1166,#1167);
#971=AXIS2_PLACEMENT_3D('',#1522,#1168,#1169);
#972=AXIS2_PLACEMENT_3D('',#1530,#1173,#1174);
#973=AXIS2_PLACEMENT_3D('',#1531,#1175,#1176);
#974=AXIS2_PLACEMENT_3D('',#1532,#1177,#1178);
#975=AXIS2_PLACEMENT_3D('',#1534,#1179,#1180);
#976=AXIS2_PLACEMENT_3D('',#1540,#1184,#1185);
#977=AXIS2_PLACEMENT_3D('',#1541,#1186,#1187);
#978=AXIS2_PLACEMENT_3D('',#1542,#1188,#1189);
#979=AXIS2_PLACEMENT_3D('',#1544,#1190,#1191);
#980=AXIS2_PLACEMENT_3D('',#1545,#1192,#1193);
#981=AXIS2_PLACEMENT_3D('',#1548,#1196,#1197);
#982=AXIS2_PLACEMENT_3D('',#1549,#1198,#1199);
#983=AXIS2_PLACEMENT_3D('',#1550,#1200,#1201);
#984=AXIS2_PLACEMENT_3D('',#1552,#1202,#1203);
#985=AXIS2_PLACEMENT_3D('',#1553,#1204,#1205);
#986=AXIS2_PLACEMENT_3D('',#1555,#1206,#1207);
#987=AXIS2_PLACEMENT_3D('',#1556,#1208,#1209);
#988=AXIS2_PLACEMENT_3D('',#1558,#1210,#1211);
#989=AXIS2_PLACEMENT_3D('',#1559,#1212,#1213);
#990=AXIS2_PLACEMENT_3D('',#1560,#1214,#1215);
#991=AXIS2_PLACEMENT_3D('',#1561,#1216,#1217);
#992=AXIS2_PLACEMENT_3D('',#1562,#1218,#1219);
#993=AXIS2_PLACEMENT_3D('',#1563,#1220,#1221);
#994=AXIS2_PLACEMENT_3D('',#1564,#1222,#1223);
#995=AXIS2_PLACEMENT_3D('',#1565,#1224,#1225);
#996=AXIS2_PLACEMENT_3D('',#1566,#1226,#1227);
#997=AXIS2_PLACEMENT_3D('',#1569,#1230,#1231);
#998=AXIS2_PLACEMENT_3D('',#1571,#1233,#1234);
#999=AXIS2_PLACEMENT_3D('',#1573,#1236,#1237);
#1000=AXIS2_PLACEMENT_3D('',#1575,#1239,#1240);
#1001=AXIS2_PLACEMENT_3D('',#1577,#1242,#1243);
#1002=AXIS2_PLACEMENT_3D('',#1579,#1245,#1246);
#1003=AXIS2_PLACEMENT_3D('',#1581,#1248,#1249);
#1004=AXIS2_PLACEMENT_3D('',#1582,#1250,#1251);
#1005=AXIS2_PLACEMENT_3D('',#1583,#1252,#1253);
#1006=AXIS2_PLACEMENT_3D('',#1584,#1254,#1255);
#1007=AXIS2_PLACEMENT_3D('',#1585,#1256,#1257);
#1008=AXIS2_PLACEMENT_3D('',#1586,#1258,#1259);
#1009=AXIS2_PLACEMENT_3D('',#1587,#1260,#1261);
#1010=AXIS2_PLACEMENT_3D('',#1588,#1262,#1263);
#1011=AXIS2_PLACEMENT_3D('',#1589,#1264,#1265);
#1012=AXIS2_PLACEMENT_3D('',#1590,#1266,#1267);
#1013=AXIS2_PLACEMENT_3D('',#1591,#1268,#1269);
#1014=AXIS2_PLACEMENT_3D('',#1592,#1270,#1271);
#1015=AXIS2_PLACEMENT_3D('',#1593,#1272,#1273);
#1016=AXIS2_PLACEMENT_3D('',#1594,#1274,#1275);
#1017=AXIS2_PLACEMENT_3D('',#1595,#1276,#1277);
#1018=AXIS2_PLACEMENT_3D('',#1596,#1278,#1279);
#1019=AXIS2_PLACEMENT_3D('',#1597,#1280,#1281);
#1020=AXIS2_PLACEMENT_3D('',#1598,#1282,#1283);
#1021=DIRECTION('',(0.,0.,1.));
#1022=DIRECTION('',(1.,0.,0.));
#1023=DIRECTION('',(0.,-1.,0.));
#1024=DIRECTION('',(0.,0.,-1.));
#1025=DIRECTION('',(0.,1.,0.));
#1026=DIRECTION('',(0.,0.,1.));
#1027=DIRECTION('',(0.,1.,0.));
#1028=DIRECTION('',(0.,0.,1.));
#1029=DIRECTION('',(-0.707106781186548,0.,0.707106781186547));
#1030=DIRECTION('',(0.707106781186547,0.,0.707106781186548));
#1031=DIRECTION('',(0.,1.,0.));
#1032=DIRECTION('',(0.707106781186547,0.,0.707106781186548));
#1033=DIRECTION('',(0.,-1.,0.));
#1034=DIRECTION('',(0.707106781186547,0.,0.707106781186548));
#1035=DIRECTION('',(0.,-1.,0.));
#1036=DIRECTION('',(0.707106781186547,0.,0.707106781186548));
#1037=DIRECTION('',(0.,1.,0.));
#1038=DIRECTION('',(-0.707106781186547,0.,-0.707106781186548));
#1039=DIRECTION('',(0.707106781186547,0.,0.707106781186548));
#1040=DIRECTION('',(0.707106781186548,0.,-0.707106781186547));
#1041=DIRECTION('',(0.707106781186547,0.,0.707106781186548));
#1042=DIRECTION('',(0.707106781186548,0.,-0.707106781186547));
#1043=DIRECTION('',(0.,-1.,0.));
#1044=DIRECTION('',(0.707106781186547,0.,0.707106781186548));
#1045=DIRECTION('',(0.707106781186548,0.,-0.707106781186547));
#1046=DIRECTION('',(-0.707106781186548,0.,0.707106781186547));
#1047=DIRECTION('',(0.707106781186547,0.,0.707106781186548));
#1048=DIRECTION('',(0.707106781186548,0.,-0.707106781186547));
#1049=DIRECTION('',(0.,1.,0.));
#1050=DIRECTION('',(0.707106781186547,0.,0.707106781186548));
#1051=DIRECTION('',(0.707106781186548,0.,-0.707106781186547));
#1052=DIRECTION('',(0.707106781186548,0.,-0.707106781186547));
#1053=DIRECTION('',(-0.707106781186548,0.,0.707106781186547));
#1054=DIRECTION('',(0.707106781186547,0.,0.707106781186548));
#1055=DIRECTION('',(0.,-1.,0.));
#1056=DIRECTION('',(-0.707106781186547,0.,-0.707106781186548));
#1057=DIRECTION('',(0.,-1.,0.));
#1058=DIRECTION('',(0.707106781186547,0.,0.707106781186548));
#1059=DIRECTION('',(0.,1.,0.));
#1060=DIRECTION('',(0.707106781186547,0.,0.707106781186548));
#1061=DIRECTION('',(0.,1.,0.));
#1062=DIRECTION('',(0.707106781186547,0.,0.707106781186548));
#1063=DIRECTION('',(0.,1.,0.));
#1064=DIRECTION('',(0.,0.,1.));
#1065=DIRECTION('',(0.,-1.,0.));
#1066=DIRECTION('',(0.,0.,-1.));
#1067=DIRECTION('',(0.,1.,0.));
#1068=DIRECTION('',(0.,-1.,0.));
#1069=DIRECTION('',(0.,0.,-1.));
#1070=DIRECTION('',(0.,1.,0.));
#1071=DIRECTION('',(0.707106781186563,0.,-0.707106781186532));
#1072=DIRECTION('',(-0.707106781186532,0.,-0.707106781186563));
#1073=DIRECTION('',(-0.707106781186532,0.,-0.707106781186563));
#1074=DIRECTION('',(0.,-1.,0.));
#1075=DIRECTION('',(-0.707106781186532,0.,-0.707106781186563));
#1076=DIRECTION('',(-0.707106781186494,0.,-0.707106781186601));
#1077=DIRECTION('',(-0.707106781186601,0.,0.707106781186494));
#1078=DIRECTION('',(-0.707106781186601,0.,0.707106781186494));
#1079=DIRECTION('',(0.,-1.,0.));
#1080=DIRECTION('',(-0.707106781186601,0.,0.707106781186494));
#1081=DIRECTION('',(0.,1.,0.));
#1082=DIRECTION('',(-0.995301974319757,0.,0.0968193158165985));
#1083=DIRECTION('',(0.0968193158165985,0.,0.995301974319757));
#1084=DIRECTION('',(-0.995301974319757,0.,0.0968193158165985));
#1085=DIRECTION('',(0.0968193158165985,0.,0.995301974319757));
#1086=DIRECTION('',(0.0968193158165985,0.,0.995301974319757));
#1087=DIRECTION('',(0.,1.,0.));
#1088=DIRECTION('',(0.0968193158165985,0.,0.995301974319757));
#1089=DIRECTION('',(-0.995301974319757,0.,0.0968193158165985));
#1090=DIRECTION('',(-0.0968193158165985,0.,-0.995301974319757));
#1091=DIRECTION('',(0.707106781186548,0.,0.707106781186548));
#1092=DIRECTION('',(0.707106781186548,0.,-0.707106781186548));
#1093=DIRECTION('',(0.707106781186548,0.,0.707106781186548));
#1094=DIRECTION('',(0.707106781186548,0.,-0.707106781186548));
#1095=DIRECTION('',(0.707106781186548,0.,-0.707106781186548));
#1096=DIRECTION('',(0.,1.,0.));
#1097=DIRECTION('',(0.707106781186548,0.,-0.707106781186548));
#1098=DIRECTION('',(0.,1.,0.));
#1099=DIRECTION('',(0.201819351076642,0.,-0.979422763433137));
#1100=DIRECTION('',(-0.979422763433137,0.,-0.201819351076642));
#1101=DIRECTION('',(0.201819351076642,0.,-0.979422763433137));
#1102=DIRECTION('',(-0.979422763433137,0.,-0.201819351076642));
#1103=DIRECTION('',(-0.979422763433137,0.,-0.201819351076642));
#1104=DIRECTION('',(0.,1.,0.));
#1105=DIRECTION('',(-0.979422763433137,0.,-0.201819351076642));
#1106=DIRECTION('',(0.201819351076642,0.,-0.979422763433137));
#1107=DIRECTION('',(0.979422763433137,0.,0.201819351076642));
#1108=DIRECTION('',(0.,1.,0.));
#1109=DIRECTION('',(0.,0.,1.));
#1110=DIRECTION('',(0.,-1.,0.));
#1111=DIRECTION('',(0.,0.,-1.));
#1112=DIRECTION('',(0.,-1.,0.));
#1113=DIRECTION('',(0.,0.,-1.));
#1114=DIRECTION('',(0.,-1.,0.));
#1115=DIRECTION('',(1.,0.,0.));
#1116=DIRECTION('',(0.,-1.,0.));
#1117=DIRECTION('',(0.,0.,-1.));
#1118=DIRECTION('',(0.,-1.,0.));
#1119=DIRECTION('',(0.,0.,-1.));
#1120=DIRECTION('',(0.,-1.,0.));
#1121=DIRECTION('',(0.,0.,-1.));
#1122=DIRECTION('',(0.707106781186547,0.,0.707106781186548));
#1123=DIRECTION('',(0.707106781186548,0.,-0.707106781186547));
#1124=DIRECTION('',(0.707106781186547,0.,0.707106781186548));
#1125=DIRECTION('',(0.,-1.,0.));
#1126=DIRECTION('',(1.,0.,0.));
#1127=DIRECTION('',(0.,-1.,0.));
#1128=DIRECTION('',(0.,0.,-1.));
#1129=DIRECTION('',(0.,-1.,0.));
#1130=DIRECTION('',(0.,0.,-1.));
#1131=DIRECTION('',(0.,-1.,0.));
#1132=DIRECTION('',(0.,0.,-1.));
#1133=DIRECTION('',(1.27570012268032E-13,0.,1.));
#1134=DIRECTION('',(-1.,0.,-7.85046229341912E-14));
#1135=DIRECTION('',(0.,-1.,0.));
#1136=DIRECTION('',(0.,0.,-1.));
#1137=DIRECTION('',(0.995301974319757,0.,-0.0968193158165985));
#1138=DIRECTION('',(-0.0968193158165985,0.,-0.995301974319757));
#1139=DIRECTION('',(-0.995301974319755,0.,0.0968193158166142));
#1140=DIRECTION('',(0.0968193158166143,0.,0.995301974319755));
#1141=DIRECTION('',(-0.201819351076642,0.,0.979422763433137));
#1142=DIRECTION('',(0.979422763433137,0.,0.201819351076642));
#1143=DIRECTION('',(0.201819351076647,0.,-0.979422763433136));
#1144=DIRECTION('',(-0.979422763433136,0.,-0.201819351076647));
#1145=DIRECTION('',(0.707106781186548,0.,0.707106781186548));
#1146=DIRECTION('',(0.707106781186548,0.,-0.707106781186548));
#1147=DIRECTION('',(0.707106781186575,0.,0.70710678118652));
#1148=DIRECTION('',(0.70710678118652,0.,-0.707106781186575));
#1149=DIRECTION('',(-0.201819351076642,0.,0.979422763433137));
#1150=DIRECTION('',(0.979422763433137,0.,0.201819351076642));
#1151=DIRECTION('',(-0.201819351076642,0.,0.979422763433137));
#1152=DIRECTION('',(0.979422763433137,0.,0.201819351076642));
#1153=DIRECTION('',(-0.979422763433137,0.,-0.201819351076642));
#1154=DIRECTION('',(0.,-1.,0.));
#1155=DIRECTION('',(-0.979422763433137,0.,-0.201819351076642));
#1156=DIRECTION('',(-0.201819351076642,0.,0.979422763433137));
#1157=DIRECTION('',(0.979422763433137,0.,0.201819351076642));
#1158=DIRECTION('',(-0.707106781186548,0.,-0.707106781186548));
#1159=DIRECTION('',(-0.707106781186548,0.,0.707106781186548));
#1160=DIRECTION('',(-0.707106781186548,0.,-0.707106781186548));
#1161=DIRECTION('',(-0.707106781186548,0.,0.707106781186548));
#1162=DIRECTION('',(0.707106781186548,0.,-0.707106781186548));
#1163=DIRECTION('',(0.,-1.,0.));
#1164=DIRECTION('',(0.707106781186548,0.,-0.707106781186548));
#1165=DIRECTION('',(0.,-1.,0.));
#1166=DIRECTION('',(0.995301974319757,0.,-0.0968193158165985));
#1167=DIRECTION('',(-0.0968193158165985,0.,-0.995301974319757));
#1168=DIRECTION('',(0.995301974319757,0.,-0.0968193158165985));
#1169=DIRECTION('',(-0.0968193158165985,0.,-0.995301974319757));
#1170=DIRECTION('',(0.0968193158165985,0.,0.995301974319757));
#1171=DIRECTION('',(0.,-1.,0.));
#1172=DIRECTION('',(0.0968193158165985,0.,0.995301974319757));
#1173=DIRECTION('',(0.995301974319757,0.,-0.0968193158165985));
#1174=DIRECTION('',(-0.0968193158165985,0.,-0.995301974319757));
#1175=DIRECTION('',(0.,1.,0.));
#1176=DIRECTION('',(1.,0.,0.));
#1177=DIRECTION('',(0.,1.,0.));
#1178=DIRECTION('',(0.,0.,1.));
#1179=DIRECTION('',(0.,1.,0.));
#1180=DIRECTION('',(0.,0.,1.));
#1181=DIRECTION('',(0.707106781186547,0.,0.707106781186548));
#1182=DIRECTION('',(-0.707106781186548,0.,0.707106781186547));
#1183=DIRECTION('',(0.707106781186547,0.,0.707106781186548));
#1184=DIRECTION('',(0.,1.,0.));
#1185=DIRECTION('',(0.,0.,1.));
#1186=DIRECTION('',(0.,1.,0.));
#1187=DIRECTION('',(1.,0.,0.));
#1188=DIRECTION('',(0.,1.,0.));
#1189=DIRECTION('',(0.,0.,1.));
#1190=DIRECTION('',(0.,1.,0.));
#1191=DIRECTION('',(0.,0.,1.));
#1192=DIRECTION('',(0.,1.,0.));
#1193=DIRECTION('',(0.,0.,1.));
#1194=DIRECTION('',(1.,0.,7.85046229341912E-14));
#1195=DIRECTION('',(-1.27570012268032E-13,0.,-1.));
#1196=DIRECTION('',(0.,1.,0.));
#1197=DIRECTION('',(0.,0.,1.));
#1198=DIRECTION('',(0.995301974319757,0.,-0.0968193158165985));
#1199=DIRECTION('',(-0.0968193158165985,0.,-0.995301974319757));
#1200=DIRECTION('',(0.995301974319755,0.,-0.0968193158166142));
#1201=DIRECTION('',(-0.0968193158166143,0.,-0.995301974319755));
#1202=DIRECTION('',(-0.201819351076642,0.,0.979422763433137));
#1203=DIRECTION('',(0.979422763433137,0.,0.201819351076642));
#1204=DIRECTION('',(-0.201819351076647,0.,0.979422763433136));
#1205=DIRECTION('',(0.979422763433136,0.,0.201819351076647));
#1206=DIRECTION('',(0.707106781186548,0.,0.707106781186548));
#1207=DIRECTION('',(0.707106781186548,0.,-0.707106781186548));
#1208=DIRECTION('',(-0.707106781186575,0.,-0.70710678118652));
#1209=DIRECTION('',(-0.70710678118652,0.,0.707106781186575));
#1210=DIRECTION('',(-0.707106781186547,0.,-0.707106781186548));
#1211=DIRECTION('',(-0.707106781186548,0.,0.707106781186547));
#1212=DIRECTION('',(0.707106781186548,0.,0.707106781186548));
#1213=DIRECTION('',(0.707106781186548,0.,-0.707106781186548));
#1214=DIRECTION('',(-0.707106781186547,0.,-0.707106781186548));
#1215=DIRECTION('',(-0.707106781186548,0.,0.707106781186547));
#1216=DIRECTION('',(0.707106781186541,0.,0.707106781186555));
#1217=DIRECTION('',(0.707106781186555,0.,-0.707106781186541));
#1218=DIRECTION('',(0.707106781186547,0.,0.707106781186548));
#1219=DIRECTION('',(0.707106781186548,0.,-0.707106781186547));
#1220=DIRECTION('',(0.707106781186548,0.,0.707106781186547));
#1221=DIRECTION('',(0.707106781186547,0.,-0.707106781186548));
#1222=DIRECTION('',(0.707106781186547,0.,0.707106781186548));
#1223=DIRECTION('',(0.707106781186548,0.,-0.707106781186547));
#1224=DIRECTION('',(0.707106781186545,0.,0.70710678118655));
#1225=DIRECTION('',(0.70710678118655,0.,-0.707106781186545));
#1226=DIRECTION('',(-1.,0.,-9.81307786677324E-15));
#1227=DIRECTION('',(0.,-1.,0.));
#1228=DIRECTION('',(-2.16194371752348E-14,0.,1.));
#1229=DIRECTION('',(2.18494311877373E-14,0.,-1.));
#1230=DIRECTION('',(0.707106781186548,0.,0.707106781186547));
#1231=DIRECTION('',(0.707106781186547,0.,-0.707106781186548));
#1232=DIRECTION('',(-0.5,0.707106781186541,-0.500000000000009));
#1233=DIRECTION('',(0.707106781186545,0.,0.70710678118655));
#1234=DIRECTION('',(0.70710678118655,0.,-0.707106781186545));
#1235=DIRECTION('',(0.500000000000007,0.707106781186535,0.500000000000012));
#1236=DIRECTION('',(-0.49999999999999,-0.707106781186562,-0.49999999999999));
#1237=DIRECTION('',(-0.707106781186548,0.,0.707106781186547));
#1238=DIRECTION('',(-0.500000000000014,0.707106781186534,-0.5));
#1239=DIRECTION('',(-0.499999999999991,0.70710678118656,-0.499999999999991));
#1240=DIRECTION('',(-0.707106781186548,0.,0.707106781186547));
#1241=DIRECTION('',(0.5,0.70710678118654,0.500000000000008));
#1242=DIRECTION('',(0.707106781186548,0.,0.707106781186548));
#1243=DIRECTION('',(0.707106781186548,0.,-0.707106781186548));
#1244=DIRECTION('',(-1.,0.,0.));
#1245=DIRECTION('',(0.707106781186541,0.,0.707106781186555));
#1246=DIRECTION('',(0.707106781186555,0.,-0.707106781186541));
#1247=DIRECTION('',(1.,0.,3.92523114670941E-14));
#1248=DIRECTION('',(0.,0.,1.));
#1249=DIRECTION('',(0.,1.,0.));
#1250=DIRECTION('',(0.,1.,0.));
#1251=DIRECTION('',(0.,0.,1.));
#1252=DIRECTION('',(-7.85046229341912E-14,0.,1.));
#1253=DIRECTION('',(0.,-1.,0.));
#1254=DIRECTION('',(1.,0.,-1.27570012268032E-13));
#1255=DIRECTION('',(0.,-1.,0.));
#1256=DIRECTION('',(0.,1.,0.));
#1257=DIRECTION('',(0.,0.,1.));
#1258=DIRECTION('',(0.,1.,0.));
#1259=DIRECTION('',(0.,0.,1.));
#1260=DIRECTION('',(0.,-1.,0.));
#1261=DIRECTION('',(0.,0.,-1.));
#1262=DIRECTION('',(0.,-1.,0.));
#1263=DIRECTION('',(0.,0.,-1.));
#1264=DIRECTION('',(0.707106781186575,0.,0.70710678118652));
#1265=DIRECTION('',(0.70710678118652,0.,-0.707106781186575));
#1266=DIRECTION('',(-0.201819351076647,0.,0.979422763433136));
#1267=DIRECTION('',(0.979422763433136,0.,0.201819351076647));
#1268=DIRECTION('',(0.995301974319755,0.,-0.0968193158166142));
#1269=DIRECTION('',(-0.0968193158166143,0.,-0.995301974319755));
#1270=DIRECTION('',(0.707106781186575,0.,0.70710678118652));
#1271=DIRECTION('',(0.70710678118652,0.,-0.707106781186575));
#1272=DIRECTION('',(-0.201819351076647,0.,0.979422763433136));
#1273=DIRECTION('',(0.979422763433136,0.,0.201819351076647));
#1274=DIRECTION('',(0.995301974319755,0.,-0.0968193158166142));
#1275=DIRECTION('',(-0.0968193158166143,0.,-0.995301974319755));
#1276=DIRECTION('',(0.,1.,0.));
#1277=DIRECTION('',(0.,0.,1.));
#1278=DIRECTION('',(0.,-1.,0.));
#1279=DIRECTION('',(0.,0.,-1.));
#1280=DIRECTION('',(0.,-1.,0.));
#1281=DIRECTION('',(0.,0.,-1.));
#1282=DIRECTION('',(0.,1.,0.));
#1283=DIRECTION('',(0.,0.,1.));
#1284=CARTESIAN_POINT('',(0.,0.,0.));
#1285=CARTESIAN_POINT('',(0.0597961867226988,0.0425,0.51010782104868));
#1286=CARTESIAN_POINT('',(0.0597961867226988,0.0405,0.51010782104868));
#1287=CARTESIAN_POINT('',(0.0597961867226988,0.0405,0.51670782104868));
#1288=CARTESIAN_POINT('',(0.0597961867226988,0.0345,0.51010782104868));
#1289=CARTESIAN_POINT('',(0.0597961867226988,0.0345,0.51670782104868));
#1290=CARTESIAN_POINT('',(0.0662116593253525,0.0365194716214886,0.508500436647049));
#1291=CARTESIAN_POINT('',(0.0660820992879946,0.0375002236315194,0.508104222796563));
#1292=CARTESIAN_POINT('',(0.0662115312079578,0.0384796338524336,0.508500180417204));
#1293=CARTESIAN_POINT('',(0.0663944910006075,0.0388851599540759,0.509464695738383));
#1294=CARTESIAN_POINT('',(0.0664011574963302,0.0384797250432322,0.510449543184319));
#1295=CARTESIAN_POINT('',(0.0663504196210856,0.0375004235531442,0.510861743137961));
#1296=CARTESIAN_POINT('',(0.0664010414995396,0.0365215958936255,0.510450521514595));
#1297=CARTESIAN_POINT('',(0.0663947278300206,0.0361147336282359,0.509466853215107));
#1298=CARTESIAN_POINT('',(0.0662116593253525,0.0365194716214886,0.508500436647049));
#1299=CARTESIAN_POINT('',(0.0660820992879946,0.0375002236315194,0.508104222796563));
#1300=CARTESIAN_POINT('',(0.0662115312079578,0.0384796338524336,0.508500180417204));
#1301=CARTESIAN_POINT('',(0.0661252646142148,0.0375,0.508236251375084));
#1302=CARTESIAN_POINT('',(0.0594346471819024,0.0365194716214886,0.516711703428799));
#1303=CARTESIAN_POINT('',(0.0598514535782357,0.0375002236315195,0.516705096873527));
#1304=CARTESIAN_POINT('',(0.0594349298375953,0.0384796338524335,0.516711656807349));
#1305=CARTESIAN_POINT('',(0.0584594454038041,0.0388851599540759,0.516601229410624));
#1306=CARTESIAN_POINT('',(0.05751666768714,0.0384797250432321,0.516316380133124));
#1307=CARTESIAN_POINT('',(0.0571379038393354,0.0375004235531442,0.516146024383697));
#1308=CARTESIAN_POINT('',(0.0575157674064719,0.0365215958936255,0.516315980033006));
#1309=CARTESIAN_POINT('',(0.0584573143763811,0.0361147336282359,0.516600817687287));
#1310=CARTESIAN_POINT('',(0.0594346471819024,0.0365194716214886,0.516711703428799));
#1311=CARTESIAN_POINT('',(0.0598514535782357,0.0375002236315195,0.516705096873527));
#1312=CARTESIAN_POINT('',(0.0594349298375953,0.0384796338524335,0.516711656807349));
#1313=CARTESIAN_POINT('',(0.0597125652220734,0.0375,0.516707291288376));
#1314=CARTESIAN_POINT('',(0.064705110427556,0.0365144208174713,0.514540214563815));
#1315=CARTESIAN_POINT('',(0.0649593586209051,0.0375003067595177,0.514214745195277));
#1316=CARTESIAN_POINT('',(0.0647054115522743,0.0384843521444579,0.514539787915812));
#1317=CARTESIAN_POINT('',(0.064001676679792,0.0388842850922823,0.515232951929819));
#1318=CARTESIAN_POINT('',(0.0631871876254902,0.0384783833208589,0.515786371028921));
#1319=CARTESIAN_POINT('',(0.0628039077758543,0.0375008863628138,0.51598002169467));
#1320=CARTESIAN_POINT('',(0.0631862597946145,0.0365227149535166,0.515786848915712));
#1321=CARTESIAN_POINT('',(0.0639999657422246,0.0361157638477439,0.515234381648822));
#1322=CARTESIAN_POINT('',(0.064705110427556,0.0365144208174713,0.514540214563815));
#1323=CARTESIAN_POINT('',(0.0649593586209051,0.0375003067595177,0.514214745195277));
#1324=CARTESIAN_POINT('',(0.0647054115522743,0.0384843521444579,0.514539787915812));
#1325=CARTESIAN_POINT('',(0.0648746594105751,0.0375,0.514323163876789));
#1326=CARTESIAN_POINT('',(0.00726497700999262,-0.0325,0.506225557881608));
#1327=CARTESIAN_POINT('',(0.0142103086947661,0.0325,0.513170889566382));
#1328=CARTESIAN_POINT('',(0.0142103086947661,-0.0325,0.513170889566382));
#1329=CARTESIAN_POINT('',(0.0142103086947661,0.0325,0.513170889566382));
#1330=CARTESIAN_POINT('',(0.0134764771979193,0.0325,0.512437058069535));
#1331=CARTESIAN_POINT('',(0.0149174154759527,0.0325,0.513877996347568));
#1332=CARTESIAN_POINT('',(0.0149174154759527,0.0425,0.513877996347568));
#1333=CARTESIAN_POINT('',(0.0149174154759527,0.0395,0.513877996347568));
#1334=CARTESIAN_POINT('',(0.00726497700999262,0.0395,0.506225557881608));
#1335=CARTESIAN_POINT('',(0.000823481171740701,0.0395,0.499784062043356));
#1336=CARTESIAN_POINT('',(0.000823481171740704,-0.0395,0.499784062043356));
#1337=CARTESIAN_POINT('',(0.000823481171740726,-0.0395,0.499784062043356));
#1338=CARTESIAN_POINT('',(0.00726497700999262,-0.0395,0.506225557881608));
#1339=CARTESIAN_POINT('',(0.0149174154759527,-0.0395,0.513877996347568));
#1340=CARTESIAN_POINT('',(0.0149174154759527,-0.0425,0.513877996347568));
#1341=CARTESIAN_POINT('',(0.0149174154759527,-0.0325,0.513877996347568));
#1342=CARTESIAN_POINT('',(0.0134764771979193,-0.0325,0.512437058069535));
#1343=CARTESIAN_POINT('',(0.0255015078351512,-0.0325,0.473691821817573));
#1344=CARTESIAN_POINT('',(0.0487653209361886,0.0395,0.450428008716535));
#1345=CARTESIAN_POINT('',(0.0487653209361886,0.0415,0.450428008716535));
#1346=CARTESIAN_POINT('',(0.0501795344985617,0.0395,0.449013795154163));
#1347=CARTESIAN_POINT('',(0.0501795344985617,-0.0325,0.449013795154163));
#1348=CARTESIAN_POINT('',(0.0501795344985617,-0.0395,0.449013795154163));
#1349=CARTESIAN_POINT('',(0.0487653209361886,-0.0395,0.450428008716535));
#1350=CARTESIAN_POINT('',(0.0487653209361886,-0.0415,0.450428008716535));
#1351=CARTESIAN_POINT('',(0.00223769473411377,-0.0415,0.49695563491861));
#1352=CARTESIAN_POINT('',(0.00223769473411377,-0.0415,0.49695563491861));
#1353=CARTESIAN_POINT('',(0.00223769473411378,-0.0395,0.49695563491861));
#1354=CARTESIAN_POINT('',(0.000823481171740688,-0.0395,0.498369848480983));
#1355=CARTESIAN_POINT('',(0.000823481171740734,0.0395,0.498369848480983));
#1356=CARTESIAN_POINT('',(0.000823481171740735,0.0395,0.498369848480983));
#1357=CARTESIAN_POINT('',(0.00223769473411377,0.0395,0.49695563491861));
#1358=CARTESIAN_POINT('',(0.00223769473411377,0.0415,0.49695563491861));
#1359=CARTESIAN_POINT('',(0.0487653209361886,0.0415,0.450428008716535));
#1360=CARTESIAN_POINT('',(0.0594026379272359,-0.0325,0.456822685020463));
#1361=CARTESIAN_POINT('',(0.0679186345747236,0.0425,0.465338681667951));
#1362=CARTESIAN_POINT('',(0.0679186345747236,0.0395,0.465338681667951));
#1363=CARTESIAN_POINT('',(0.0679186345747236,0.0325,0.465338681667951));
#1364=CARTESIAN_POINT('',(0.0594026379272359,0.0325,0.456822685020463));
#1365=CARTESIAN_POINT('',(0.0668204716438172,0.0325,0.464240518737045));
#1366=CARTESIAN_POINT('',(0.0668204716438172,-0.0325,0.464240518737045));
#1367=CARTESIAN_POINT('',(0.0668204716438172,-0.0325,0.464240518737045));
#1368=CARTESIAN_POINT('',(0.0594026379272359,-0.0325,0.456822685020463));
#1369=CARTESIAN_POINT('',(0.0679186345747236,-0.0325,0.465338681667951));
#1370=CARTESIAN_POINT('',(0.0679186345747236,-0.0425,0.465338681667951));
#1371=CARTESIAN_POINT('',(0.0679186345747236,-0.0395,0.465338681667951));
#1372=CARTESIAN_POINT('',(0.0508866412797483,-0.0395,0.448306688372975));
#1373=CARTESIAN_POINT('',(0.0515937480609349,-0.0395,0.449013795154163));
#1374=CARTESIAN_POINT('',(0.0515937480609348,-0.0325,0.449013795154163));
#1375=CARTESIAN_POINT('',(0.0515937480609349,0.0395,0.449013795154163));
#1376=CARTESIAN_POINT('',(0.0679186345747236,0.0395,0.465338681667951));
#1377=CARTESIAN_POINT('',(0.0597961867226987,-0.0325,0.51010782104868));
#1378=CARTESIAN_POINT('',(0.0597961867226987,-0.0325,0.51010782104868));
#1379=CARTESIAN_POINT('',(0.0144523089523077,-0.0325,0.506341822012058));
#1380=CARTESIAN_POINT('',(0.0663944103018052,-0.0325,0.465088786789823));
#1381=CARTESIAN_POINT('',(0.0663944103018052,-0.0325,0.465088786789823));
#1382=CARTESIAN_POINT('',(0.0663944103018052,0.0325,0.465088786789823));
#1383=CARTESIAN_POINT('',(0.0597961867226987,0.0325,0.51010782104868));
#1384=CARTESIAN_POINT('',(0.0144523089523077,0.0325,0.506341822012058));
#1385=CARTESIAN_POINT('',(0.0144523089523077,-0.0325,0.506341822012058));
#1386=CARTESIAN_POINT('',(0.0146848622141302,-0.0325,0.506574375273881));
#1387=CARTESIAN_POINT('',(0.0146848622141302,0.0325,0.506574375273881));
#1388=CARTESIAN_POINT('',(0.0177458426006987,0.0325,0.509635355660449));
#1389=CARTESIAN_POINT('',(0.0177458426006987,-0.0325,0.509635355660449));
#1390=CARTESIAN_POINT('',(0.0177458426006987,-0.0325,0.509635355660449));
#1391=CARTESIAN_POINT('',(0.0146848622141302,-0.0325,0.506574375273881));
#1392=CARTESIAN_POINT('',(0.0149344798739886,-0.0325,0.513860931949532));
#1393=CARTESIAN_POINT('',(0.0149344798739886,0.0325,0.513860931949532));
#1394=CARTESIAN_POINT('',(0.0177458426006988,0.0325,0.511049569222823));
#1395=CARTESIAN_POINT('',(0.0156245222571392,0.0325,0.513170889566382));
#1396=CARTESIAN_POINT('',(0.0156245222571392,-0.0325,0.513170889566382));
#1397=CARTESIAN_POINT('',(0.0156245222571392,-0.0325,0.513170889566382));
#1398=CARTESIAN_POINT('',(0.0149344798739886,-0.0325,0.513860931949532));
#1399=CARTESIAN_POINT('',(0.0177458426006988,-0.0325,0.511049569222823));
#1400=CARTESIAN_POINT('',(0.0177458426006988,0.0325,0.511049569222823));
#1401=CARTESIAN_POINT('',(0.0694935210319369,-0.0425,0.481528504814017));
#1402=CARTESIAN_POINT('',(0.0721566486819707,-0.0375,0.508905440765157));
#1403=CARTESIAN_POINT('',(0.0723260824846498,-0.0375,0.510647219220217));
#1404=CARTESIAN_POINT('',(0.0694935210319369,-0.0325,0.481528504814017));
#1405=CARTESIAN_POINT('',(0.0726745283455172,-0.0325,0.514229240538379));
#1406=CARTESIAN_POINT('',(0.0726745283455172,-0.0425,0.514229240538379));
#1407=CARTESIAN_POINT('',(0.0726745283455172,-0.0425,0.514229240538379));
#1408=CARTESIAN_POINT('',(0.0694935210319369,-0.0425,0.481528504814017));
#1409=CARTESIAN_POINT('',(0.0683758159846206,-0.0425,0.470038503764967));
#1410=CARTESIAN_POINT('',(0.0683758159846206,-0.0395,0.470038503764967));
#1411=CARTESIAN_POINT('',(0.0683594796362275,-0.0425,0.519575751055408));
#1412=CARTESIAN_POINT('',(0.0683594796362275,-0.0375,0.519575751055408));
#1413=CARTESIAN_POINT('',(0.0695969165033039,-0.0375,0.518338314188332));
#1414=CARTESIAN_POINT('',(0.0683594796362275,-0.0425,0.519575751055408));
#1415=CARTESIAN_POINT('',(0.0647151553383296,-0.0425,0.523220075353306));
#1416=CARTESIAN_POINT('',(0.0720981379592508,-0.0425,0.515837092732385));
#1417=CARTESIAN_POINT('',(0.0720981379592508,-0.0325,0.515837092732385));
#1418=CARTESIAN_POINT('',(0.0720981379592508,-0.0325,0.515837092732385));
#1419=CARTESIAN_POINT('',(0.0683594796362275,-0.0325,0.519575751055408));
#1420=CARTESIAN_POINT('',(0.0647151553383296,-0.0325,0.523220075353306));
#1421=CARTESIAN_POINT('',(0.0647151553383296,-0.0425,0.523220075353306));
#1422=CARTESIAN_POINT('',(0.0307505754925827,-0.0425,0.517140569160199));
#1423=CARTESIAN_POINT('',(0.0572229899964717,-0.0375,0.522595461282452));
#1424=CARTESIAN_POINT('',(0.0555090001604637,-0.0375,0.522242277418068));
#1425=CARTESIAN_POINT('',(0.0307505754925827,-0.0425,0.517140569160199));
#1426=CARTESIAN_POINT('',(0.0628973030738032,-0.0425,0.523764707317799));
#1427=CARTESIAN_POINT('',(0.0202611920077964,-0.0425,0.514979132192293));
#1428=CARTESIAN_POINT('',(0.0628973030738032,-0.0325,0.523764707317799));
#1429=CARTESIAN_POINT('',(0.0628973030738032,-0.0325,0.523764707317799));
#1430=CARTESIAN_POINT('',(0.0307505754925827,-0.0325,0.517140569160199));
#1431=CARTESIAN_POINT('',(0.0202611920077963,-0.0395,0.514979132192293));
#1432=CARTESIAN_POINT('',(0.0597961867226988,-0.0425,0.51010782104868));
#1433=CARTESIAN_POINT('',(0.0597961867226988,-0.0405,0.51010782104868));
#1434=CARTESIAN_POINT('',(0.0597961867226988,-0.0405,0.50350782104868));
#1435=CARTESIAN_POINT('',(0.0597961867226988,-0.0345,0.51010782104868));
#1436=CARTESIAN_POINT('',(0.0597961867226988,-0.0345,0.50350782104868));
#1437=CARTESIAN_POINT('',(0.064705110427556,-0.0384855791825287,0.514540214563815));
#1438=CARTESIAN_POINT('',(0.0649593586209051,-0.0374996932404823,0.514214745195277));
#1439=CARTESIAN_POINT('',(0.0647054115522743,-0.0365156478555421,0.514539787915811));
#1440=CARTESIAN_POINT('',(0.064001676679792,-0.0361157149077177,0.515232951929819));
#1441=CARTESIAN_POINT('',(0.0631871876254902,-0.0365216166791411,0.515786371028921));
#1442=CARTESIAN_POINT('',(0.0628039077758543,-0.0374991136371862,0.51598002169467));
#1443=CARTESIAN_POINT('',(0.0631862597946145,-0.0384772850464834,0.515786848915712));
#1444=CARTESIAN_POINT('',(0.0639999657422246,-0.0388842361522561,0.515234381648822));
#1445=CARTESIAN_POINT('',(0.064705110427556,-0.0384855791825287,0.514540214563815));
#1446=CARTESIAN_POINT('',(0.0649593586209051,-0.0374996932404823,0.514214745195277));
#1447=CARTESIAN_POINT('',(0.0647054115522743,-0.0365156478555421,0.514539787915811));
#1448=CARTESIAN_POINT('',(0.0648746594105751,-0.0375,0.514323163876789));
#1449=CARTESIAN_POINT('',(0.0594346471819024,-0.0384805283785114,0.516711703428799));
#1450=CARTESIAN_POINT('',(0.0598514535782357,-0.0374997763684805,0.516705096873527));
#1451=CARTESIAN_POINT('',(0.0594349298375952,-0.0365203661475665,0.516711656807349));
#1452=CARTESIAN_POINT('',(0.0584594454038041,-0.0361148400459241,0.516601229410624));
#1453=CARTESIAN_POINT('',(0.05751666768714,-0.0365202749567679,0.516316380133124));
#1454=CARTESIAN_POINT('',(0.0571379038393354,-0.0374995764468558,0.516146024383697));
#1455=CARTESIAN_POINT('',(0.0575157674064719,-0.0384784041063745,0.516315980033006));
#1456=CARTESIAN_POINT('',(0.0584573143763811,-0.0388852663717641,0.516600817687287));
#1457=CARTESIAN_POINT('',(0.0594346471819024,-0.0384805283785114,0.516711703428799));
#1458=CARTESIAN_POINT('',(0.0598514535782357,-0.0374997763684805,0.516705096873527));
#1459=CARTESIAN_POINT('',(0.0594349298375952,-0.0365203661475665,0.516711656807349));
#1460=CARTESIAN_POINT('',(0.0597125652220734,-0.0375,0.516707291288376));
#1461=CARTESIAN_POINT('',(0.0662116593253525,-0.0384805283785115,0.508500436647049));
#1462=CARTESIAN_POINT('',(0.0660820992879946,-0.0374997763684805,0.508104222796563));
#1463=CARTESIAN_POINT('',(0.0662115312079577,-0.0365203661475664,0.508500180417204));
#1464=CARTESIAN_POINT('',(0.0663944910006075,-0.0361148400459241,0.509464695738383));
#1465=CARTESIAN_POINT('',(0.0664011574963302,-0.0365202749567679,0.510449543184319));
#1466=CARTESIAN_POINT('',(0.0663504196210856,-0.0374995764468558,0.510861743137961));
#1467=CARTESIAN_POINT('',(0.0664010414995396,-0.0384784041063745,0.510450521514595));
#1468=CARTESIAN_POINT('',(0.0663947278300205,-0.038885266371764,0.509466853215107));
#1469=CARTESIAN_POINT('',(0.0662116593253525,-0.0384805283785115,0.508500436647049));
#1470=CARTESIAN_POINT('',(0.0660820992879946,-0.0374997763684805,0.508104222796563));
#1471=CARTESIAN_POINT('',(0.0662115312079577,-0.0365203661475664,0.508500180417204));
#1472=CARTESIAN_POINT('',(0.0661252646142148,-0.0375,0.508236251375084));
#1473=CARTESIAN_POINT('',(0.0383312805566264,-0.0425,0.487582254710828));
#1474=CARTESIAN_POINT('',(0.0597961867226988,-0.0425,0.51010782104868));
#1475=CARTESIAN_POINT('',(0.0597961867226988,-0.0425,0.50150782104868));
#1476=CARTESIAN_POINT('',(0.0706839243968777,-0.0425,0.514422879170012));
#1477=CARTESIAN_POINT('',(0.0633009417759565,-0.0425,0.521805861790933));
#1478=CARTESIAN_POINT('',(0.015597797541479,-0.0425,0.510315737725975));
#1479=CARTESIAN_POINT('',(0.00294480151530033,-0.0425,0.497662741699797));
#1480=CARTESIAN_POINT('',(0.0494724277173752,-0.0425,0.451135115497722));
#1481=CARTESIAN_POINT('',(0.0494724277173752,-0.0425,0.451135115497722));
#1482=CARTESIAN_POINT('',(0.0657973142311639,-0.0425,0.467460002011511));
#1483=CARTESIAN_POINT('',(0.0383312805566264,-0.0325,0.487582254710828));
#1484=CARTESIAN_POINT('',(0.0597961867226988,-0.0325,0.51010782104868));
#1485=CARTESIAN_POINT('',(0.0597961867226988,-0.0325,0.50150782104868));
#1486=CARTESIAN_POINT('',(0.0706839243968777,-0.0325,0.514422879170012));
#1487=CARTESIAN_POINT('',(0.0664669182532239,-0.0325,0.464594072127638));
#1488=CARTESIAN_POINT('',(0.0177458426006958,-0.0325,0.48758225471083));
#1489=CARTESIAN_POINT('',(0.0383312805566245,-0.0325,0.513170889566384));
#1490=CARTESIAN_POINT('',(0.0633009417759565,-0.0325,0.521805861790933));
#1491=CARTESIAN_POINT('',(0.0532252030882398,-0.0375,0.510747022171701));
#1492=CARTESIAN_POINT('',(0.0716589976948108,-0.0375,0.508953850423065));
#1493=CARTESIAN_POINT('',(0.0717800218395816,-0.0375,0.510197977890965));
#1494=CARTESIAN_POINT('',(0.0611285980785069,-0.0375,0.503641671964494));
#1495=CARTESIAN_POINT('',(0.05732389967201,-0.0375,0.522105749900736));
#1496=CARTESIAN_POINT('',(0.0560996212177186,-0.0375,0.52185347571189));
#1497=CARTESIAN_POINT('',(0.0546755492067055,-0.0375,0.505891820625886));
#1498=CARTESIAN_POINT('',(0.0680059262456344,-0.0375,0.519222197664815));
#1499=CARTESIAN_POINT('',(0.0688898097221175,-0.0375,0.518338314188332));
#1500=CARTESIAN_POINT('',(0.0307505754925827,0.0425,0.517140569160199));
#1501=CARTESIAN_POINT('',(0.0572229899964717,0.0375,0.522595461282452));
#1502=CARTESIAN_POINT('',(0.0589369798324797,0.0375,0.522948645146836));
#1503=CARTESIAN_POINT('',(0.0307505754925827,0.0325,0.517140569160199));
#1504=CARTESIAN_POINT('',(0.0628973030738032,0.0325,0.523764707317799));
#1505=CARTESIAN_POINT('',(0.0628973030738032,0.0425,0.523764707317799));
#1506=CARTESIAN_POINT('',(0.0628973030738032,0.0425,0.523764707317799));
#1507=CARTESIAN_POINT('',(0.0307505754925827,0.0425,0.517140569160199));
#1508=CARTESIAN_POINT('',(0.0202611920077963,0.0425,0.514979132192293));
#1509=CARTESIAN_POINT('',(0.0202611920077963,0.0395,0.514979132192293));
#1510=CARTESIAN_POINT('',(0.0683594796362275,0.0425,0.519575751055408));
#1511=CARTESIAN_POINT('',(0.0683594796362275,0.0375,0.519575751055408));
#1512=CARTESIAN_POINT('',(0.0671220427691511,0.0375,0.520813187922484));
#1513=CARTESIAN_POINT('',(0.0683594796362275,0.0325,0.519575751055408));
#1514=CARTESIAN_POINT('',(0.0647151553383296,0.0325,0.523220075353306));
#1515=CARTESIAN_POINT('',(0.0720981379592508,0.0325,0.515837092732385));
#1516=CARTESIAN_POINT('',(0.0720981379592508,0.0425,0.515837092732385));
#1517=CARTESIAN_POINT('',(0.0720981379592508,0.0425,0.515837092732385));
#1518=CARTESIAN_POINT('',(0.0683594796362275,0.0425,0.519575751055408));
#1519=CARTESIAN_POINT('',(0.0647151553383296,0.0425,0.523220075353306));
#1520=CARTESIAN_POINT('',(0.0647151553383296,0.0325,0.523220075353306));
#1521=CARTESIAN_POINT('',(0.0694935210319369,0.0425,0.481528504814017));
#1522=CARTESIAN_POINT('',(0.0721566486819707,0.0375,0.508905440765157));
#1523=CARTESIAN_POINT('',(0.0719872148792916,0.0375,0.507163662310097));
#1524=CARTESIAN_POINT('',(0.0694935210319369,0.0425,0.481528504814017));
#1525=CARTESIAN_POINT('',(0.0683758159846206,0.0425,0.470038503764967));
#1526=CARTESIAN_POINT('',(0.0726745283455172,0.0425,0.514229240538379));
#1527=CARTESIAN_POINT('',(0.0726745283455172,0.0325,0.514229240538379));
#1528=CARTESIAN_POINT('',(0.0726745283455172,0.0325,0.514229240538379));
#1529=CARTESIAN_POINT('',(0.0694935210319369,0.0325,0.481528504814017));
#1530=CARTESIAN_POINT('',(0.0683758159846206,0.0395,0.470038503764967));
#1531=CARTESIAN_POINT('',(0.0383312805566264,0.0425,0.487582254710828));
#1532=CARTESIAN_POINT('',(0.0597961867226988,0.0425,0.51010782104868));
#1533=CARTESIAN_POINT('',(0.0597961867226988,0.0425,0.51870782104868));
#1534=CARTESIAN_POINT('',(0.0706839243968777,0.0425,0.514422879170012));
#1535=CARTESIAN_POINT('',(0.0487653209361886,0.0425,0.450428008716535));
#1536=CARTESIAN_POINT('',(0.0494724277173752,0.0425,0.451135115497722));
#1537=CARTESIAN_POINT('',(0.00294480151530034,0.0425,0.497662741699797));
#1538=CARTESIAN_POINT('',(0.00294480151530031,0.0425,0.497662741699797));
#1539=CARTESIAN_POINT('',(0.0155977975414789,0.0425,0.510315737725975));
#1540=CARTESIAN_POINT('',(0.0633009417759565,0.0425,0.521805861790933));
#1541=CARTESIAN_POINT('',(0.0383312805566264,0.0325,0.487582254710828));
#1542=CARTESIAN_POINT('',(0.0597961867226988,0.0325,0.51010782104868));
#1543=CARTESIAN_POINT('',(0.0597961867226988,0.0325,0.51870782104868));
#1544=CARTESIAN_POINT('',(0.0706839243968777,0.0325,0.514422879170012));
#1545=CARTESIAN_POINT('',(0.0633009417759565,0.0325,0.521805861790933));
#1546=CARTESIAN_POINT('',(0.0383312805566245,0.0325,0.513170889566384));
#1547=CARTESIAN_POINT('',(0.0177458426006958,0.0325,0.48758225471083));
#1548=CARTESIAN_POINT('',(0.0664669182532239,0.0325,0.464594072127638));
#1549=CARTESIAN_POINT('',(0.0532252030882398,0.0375,0.510747022171701));
#1550=CARTESIAN_POINT('',(0.0716589976948108,0.0375,0.508953850423065));
#1551=CARTESIAN_POINT('',(0.07153797355004,0.0375,0.507709722955165));
#1552=CARTESIAN_POINT('',(0.0611285980785069,0.0375,0.503641671964494));
#1553=CARTESIAN_POINT('',(0.05732389967201,0.0375,0.522105749900736));
#1554=CARTESIAN_POINT('',(0.0585481781263014,0.0375,0.522358024089582));
#1555=CARTESIAN_POINT('',(0.0546755492067055,0.0375,0.505891820625886));
#1556=CARTESIAN_POINT('',(0.0680059262456344,0.0375,0.519222197664815));
#1557=CARTESIAN_POINT('',(0.0671220427691512,0.0375,0.520106081141298));
#1558=CARTESIAN_POINT('',(0.0621254237435538,-0.0395,0.463788111523901));
#1559=CARTESIAN_POINT('',(0.0494724277173752,-0.0395,0.451135115497722));
#1560=CARTESIAN_POINT('',(0.0572813175836763,0.0395,0.458944005364023));
#1561=CARTESIAN_POINT('',(0.0494724277173752,0.0395,0.451135115497722));
#1562=CARTESIAN_POINT('',(0.00938629735355226,-0.0395,0.504104237538049));
#1563=CARTESIAN_POINT('',(0.00294480151530034,-0.0395,0.497662741699797));
#1564=CARTESIAN_POINT('',(0.0155977975414789,0.0395,0.510315737725975));
#1565=CARTESIAN_POINT('',(0.00294480151530032,0.0395,0.497662741699797));
#1566=CARTESIAN_POINT('',(0.000823481171740727,-0.0325,0.498369848480983));
#1567=CARTESIAN_POINT('',(0.000823481171740735,0.0395,0.498369848480983));
#1568=CARTESIAN_POINT('',(0.000823481171740704,-0.0395,0.499784062043356));
#1569=CARTESIAN_POINT('',(0.00223769473411377,-0.0395,0.49695563491861));
#1570=CARTESIAN_POINT('',(0.00294480151530033,-0.0425,0.497662741699797));
#1571=CARTESIAN_POINT('',(0.00223769473411375,0.0395,0.49695563491861));
#1572=CARTESIAN_POINT('',(0.00223769473411377,0.0415,0.49695563491861));
#1573=CARTESIAN_POINT('',(0.0256782845304478,-0.0425,0.474929258684649));
#1574=CARTESIAN_POINT('',(0.0494724277173752,-0.0425,0.451135115497722));
#1575=CARTESIAN_POINT('',(0.0255015078351512,0.0415,0.473691821817573));
#1576=CARTESIAN_POINT('',(0.0487653209361886,0.0415,0.450428008716535));
#1577=CARTESIAN_POINT('',(0.0487653209361886,-0.0395,0.450428008716535));
#1578=CARTESIAN_POINT('',(0.0515937480609348,-0.0395,0.449013795154163));
#1579=CARTESIAN_POINT('',(0.0487653209361886,0.0395,0.450428008716535));
#1580=CARTESIAN_POINT('',(0.0501795344985617,0.0395,0.449013795154163));
#1581=CARTESIAN_POINT('',(0.0515937480609348,-0.0325,0.449013795154163));
#1582=CARTESIAN_POINT('',(0.0664669182532239,-0.0325,0.464594072127638));
#1583=CARTESIAN_POINT('',(0.0142103086947661,-0.0325,0.513170889566382));
#1584=CARTESIAN_POINT('',(0.0177458426006988,-0.0325,0.511049569222823));
#1585=CARTESIAN_POINT('',(0.0706839243968777,0.0425,0.514422879170012));
#1586=CARTESIAN_POINT('',(0.0633009417759565,0.0425,0.521805861790933));
#1587=CARTESIAN_POINT('',(0.0706839243968777,-0.0425,0.514422879170012));
#1588=CARTESIAN_POINT('',(0.0633009417759565,-0.0425,0.521805861790933));
#1589=CARTESIAN_POINT('',(0.0683594796362275,0.0375,0.519575751055408));
#1590=CARTESIAN_POINT('',(0.0572229899964717,0.0375,0.522595461282452));
#1591=CARTESIAN_POINT('',(0.0721566486819707,0.0375,0.508905440765157));
#1592=CARTESIAN_POINT('',(0.0680059262456344,-0.0375,0.519222197664815));
#1593=CARTESIAN_POINT('',(0.05732389967201,-0.0375,0.522105749900736));
#1594=CARTESIAN_POINT('',(0.0716589976948107,-0.0375,0.508953850423065));
#1595=CARTESIAN_POINT('',(0.0597961867226988,0.0425,0.51010782104868));
#1596=CARTESIAN_POINT('',(0.0597961867226988,0.0345,0.51010782104868));
#1597=CARTESIAN_POINT('',(0.0597961867226988,-0.0405,0.51010782104868));
#1598=CARTESIAN_POINT('',(0.0597961867226988,-0.0325,0.51010782104868));
#1599=MECHANICAL_DESIGN_GEOMETRIC_PRESENTATION_REPRESENTATION('',(#912),
#1600);
#1600=(
GEOMETRIC_REPRESENTATION_CONTEXT(3)
GLOBAL_UNCERTAINTY_ASSIGNED_CONTEXT((#1601))
GLOBAL_UNIT_ASSIGNED_CONTEXT((#1604,#1603,#1602))
REPRESENTATION_CONTEXT('Part 28','TOP_LEVEL_ASSEMBLY_PART')
);
#1601=UNCERTAINTY_MEASURE_WITH_UNIT(LENGTH_MEASURE(2.E-5),#1604,
'DISTANCE_ACCURACY_VALUE','Maximum Tolerance applied to model');
#1602=(
NAMED_UNIT(*)
SI_UNIT($,.STERADIAN.)
SOLID_ANGLE_UNIT()
);
#1603=(
NAMED_UNIT(*)
PLANE_ANGLE_UNIT()
SI_UNIT($,.RADIAN.)
);
#1604=(
LENGTH_UNIT()
NAMED_UNIT(*)
SI_UNIT($,.METRE.)
);
#1605=PRODUCT_DEFINITION_SHAPE('','',#1606);
#1606=PRODUCT_DEFINITION('','',#1608,#1607);
#1607=PRODUCT_DEFINITION_CONTEXT('',#1614,'design');
#1608=PRODUCT_DEFINITION_FORMATION_WITH_SPECIFIED_SOURCE('','',#1610,
 .NOT_KNOWN.);
#1609=PRODUCT_RELATED_PRODUCT_CATEGORY('','',(#1610));
#1610=PRODUCT('Part 28','Part 28','Part 28',(#1612));
#1611=PRODUCT_CATEGORY('','');
#1612=PRODUCT_CONTEXT('',#1614,'mechanical');
#1613=APPLICATION_PROTOCOL_DEFINITION('international standard',
'ap242_managed_model_based_3d_engineering',2020,#1614);
#1614=APPLICATION_CONTEXT('managed model based 3d engineering');
ENDSEC;
END-ISO-10303-21;
