ISO-10303-21;
HEADER;
/* Generated by software containing ST-Developer
 * from STEP Tools, Inc. (www.steptools.com) 
 */
/* OPTION: using custom renumber hook */

FILE_DESCRIPTION(
/* description */ ('STEP AP242 Edition 2',
'CAx-IF Rec.Pracs.---Representation and Presentation of Product Manufa
cturing Information (PMI)---4.0---2014-10-13',
'CAx-IF Rec.Pracs.---3D Tessellated Geometry---0.4---2014-09-14','2;1',
'CAx-IF Rec.Pracs.---User Defined Attributes---1.5---2016-08-15'),
/* implementation_level */ '2;1');

FILE_NAME(
/* name */ 'Part Studio 1 - Part 30',
/* time_stamp */ '2026-08-12T18:47:20Z',
/* author */ (''),
/* organization */ (''),
/* preprocessor_version */ 'ST-DEVELOPER v20',
/* originating_system */ 'ONSHAPE BY PTC INC, 1.219',
/* authorisation */ '  ');

FILE_SCHEMA (('AP242_MANAGED_MODEL_BASED_3D_ENGINEERING_MIM_LF { 1 0 10303 442 3 1 4 }'));
ENDSEC;

DATA;
#10=SHAPE_REPRESENTATION_RELATIONSHIP('','',#575,#11);
#11=ADVANCED_BREP_SHAPE_REPRESENTATION('',(#573),#963);
#12=CONICAL_SURFACE('',#621,0.00149999999999997,0.785398163397419);
#13=CONICAL_SURFACE('',#622,0.00149999999999999,0.785398163397405);
#14=CONICAL_SURFACE('',#625,0.00149999999999999,0.785398163397405);
#15=CONICAL_SURFACE('',#626,0.00149999999999997,0.785398163397419);
#16=CONICAL_SURFACE('',#628,0.00275,0.785398163397282);
#17=CONICAL_SURFACE('',#629,0.00275,0.785398163397282);
#18=CONICAL_SURFACE('',#630,0.00325,0.785398163397726);
#19=CONICAL_SURFACE('',#631,0.00325,0.785398163397726);
#20=CYLINDRICAL_SURFACE('',#595,0.0311625);
#21=CYLINDRICAL_SURFACE('',#606,0.00275);
#22=CYLINDRICAL_SURFACE('',#609,0.00275);
#23=CYLINDRICAL_SURFACE('',#612,0.002);
#24=CYLINDRICAL_SURFACE('',#614,0.002);
#25=CYLINDRICAL_SURFACE('',#616,0.002);
#26=CYLINDRICAL_SURFACE('',#618,0.002);
#27=CYLINDRICAL_SURFACE('',#632,0.025);
#28=CYLINDRICAL_SURFACE('',#633,0.025);
#29=CIRCLE('',#579,0.025);
#30=CIRCLE('',#580,0.025);
#31=CIRCLE('',#584,0.025);
#32=CIRCLE('',#585,0.025);
#33=CIRCLE('',#589,0.00149999999999997);
#34=CIRCLE('',#590,0.00149999999999999);
#35=CIRCLE('',#591,0.00149999999999997);
#36=CIRCLE('',#592,0.00149999999999999);
#37=CIRCLE('',#593,0.00325);
#38=CIRCLE('',#594,0.00325);
#39=CIRCLE('',#598,0.00325);
#40=CIRCLE('',#599,0.002);
#41=CIRCLE('',#600,0.002);
#42=CIRCLE('',#603,0.00325);
#43=CIRCLE('',#604,0.002);
#44=CIRCLE('',#605,0.002);
#45=CIRCLE('',#607,0.00275);
#46=CIRCLE('',#608,0.00275);
#47=CIRCLE('',#610,0.00275);
#48=CIRCLE('',#611,0.00275);
#49=CIRCLE('',#613,0.002);
#50=CIRCLE('',#615,0.002);
#51=CIRCLE('',#617,0.002);
#52=CIRCLE('',#619,0.002);
#53=LINE('',#808,#101);
#54=LINE('',#813,#102);
#55=LINE('',#817,#103);
#56=LINE('',#819,#104);
#57=LINE('',#821,#105);
#58=LINE('',#823,#106);
#59=LINE('',#825,#107);
#60=LINE('',#827,#108);
#61=LINE('',#829,#109);
#62=LINE('',#831,#110);
#63=LINE('',#833,#111);
#64=LINE('',#835,#112);
#65=LINE('',#837,#113);
#66=LINE('',#841,#114);
#67=LINE('',#845,#115);
#68=LINE('',#847,#116);
#69=LINE('',#849,#117);
#70=LINE('',#851,#118);
#71=LINE('',#853,#119);
#72=LINE('',#855,#120);
#73=LINE('',#857,#121);
#74=LINE('',#859,#122);
#75=LINE('',#863,#123);
#76=LINE('',#864,#124);
#77=LINE('',#866,#125);
#78=LINE('',#867,#126);
#79=LINE('',#872,#127);
#80=LINE('',#876,#128);
#81=LINE('',#880,#129);
#82=LINE('',#884,#130);
#83=LINE('',#891,#131);
#84=LINE('',#894,#132);
#85=LINE('',#896,#133);
#86=LINE('',#898,#134);
#87=LINE('',#902,#135);
#88=LINE('',#906,#136);
#89=LINE('',#909,#137);
#90=LINE('',#911,#138);
#91=LINE('',#913,#139);
#92=LINE('',#917,#140);
#93=LINE('',#939,#141);
#94=LINE('',#940,#142);
#95=LINE('',#942,#143);
#96=LINE('',#944,#144);
#97=LINE('',#946,#145);
#98=LINE('',#948,#146);
#99=LINE('',#950,#147);
#100=LINE('',#952,#148);
#101=VECTOR('',#642,1.);
#102=VECTOR('',#645,1.);
#103=VECTOR('',#648,1.);
#104=VECTOR('',#649,1.);
#105=VECTOR('',#650,1.);
#106=VECTOR('',#651,1.);
#107=VECTOR('',#652,1.);
#108=VECTOR('',#653,1.);
#109=VECTOR('',#654,1.);
#110=VECTOR('',#655,1.);
#111=VECTOR('',#658,1.);
#112=VECTOR('',#659,1.);
#113=VECTOR('',#660,1.);
#114=VECTOR('',#665,1.);
#115=VECTOR('',#668,1.);
#116=VECTOR('',#669,1.);
#117=VECTOR('',#670,1.);
#118=VECTOR('',#671,1.);
#119=VECTOR('',#672,1.);
#120=VECTOR('',#673,1.);
#121=VECTOR('',#674,1.);
#122=VECTOR('',#675,1.);
#123=VECTOR('',#680,1.);
#124=VECTOR('',#681,1.);
#125=VECTOR('',#684,1.);
#126=VECTOR('',#685,1.);
#127=VECTOR('',#690,1.);
#128=VECTOR('',#693,1.);
#129=VECTOR('',#696,1.);
#130=VECTOR('',#699,1.);
#131=VECTOR('',#708,1.);
#132=VECTOR('',#709,1.);
#133=VECTOR('',#710,1.);
#134=VECTOR('',#711,1.);
#135=VECTOR('',#716,1.);
#136=VECTOR('',#723,1.);
#137=VECTOR('',#724,1.);
#138=VECTOR('',#725,1.);
#139=VECTOR('',#726,1.);
#140=VECTOR('',#731,1.);
#141=VECTOR('',#766,1.);
#142=VECTOR('',#767,1.);
#143=VECTOR('',#770,1.);
#144=VECTOR('',#773,1.);
#145=VECTOR('',#776,1.);
#146=VECTOR('',#779,1.);
#147=VECTOR('',#782,1.);
#148=VECTOR('',#785,1.);
#149=ORIENTED_EDGE('',*,*,#297,.T.);
#150=ORIENTED_EDGE('',*,*,#298,.F.);
#151=ORIENTED_EDGE('',*,*,#299,.T.);
#152=ORIENTED_EDGE('',*,*,#300,.T.);
#153=ORIENTED_EDGE('',*,*,#301,.T.);
#154=ORIENTED_EDGE('',*,*,#302,.T.);
#155=ORIENTED_EDGE('',*,*,#303,.T.);
#156=ORIENTED_EDGE('',*,*,#304,.T.);
#157=ORIENTED_EDGE('',*,*,#305,.T.);
#158=ORIENTED_EDGE('',*,*,#306,.T.);
#159=ORIENTED_EDGE('',*,*,#307,.T.);
#160=ORIENTED_EDGE('',*,*,#308,.F.);
#161=ORIENTED_EDGE('',*,*,#309,.T.);
#162=ORIENTED_EDGE('',*,*,#298,.T.);
#163=ORIENTED_EDGE('',*,*,#310,.T.);
#164=ORIENTED_EDGE('',*,*,#311,.F.);
#165=ORIENTED_EDGE('',*,*,#312,.T.);
#166=ORIENTED_EDGE('',*,*,#313,.F.);
#167=ORIENTED_EDGE('',*,*,#314,.F.);
#168=ORIENTED_EDGE('',*,*,#315,.T.);
#169=ORIENTED_EDGE('',*,*,#311,.T.);
#170=ORIENTED_EDGE('',*,*,#316,.T.);
#171=ORIENTED_EDGE('',*,*,#317,.T.);
#172=ORIENTED_EDGE('',*,*,#318,.T.);
#173=ORIENTED_EDGE('',*,*,#319,.T.);
#174=ORIENTED_EDGE('',*,*,#320,.T.);
#175=ORIENTED_EDGE('',*,*,#321,.F.);
#176=ORIENTED_EDGE('',*,*,#322,.T.);
#177=ORIENTED_EDGE('',*,*,#323,.F.);
#178=ORIENTED_EDGE('',*,*,#324,.T.);
#179=ORIENTED_EDGE('',*,*,#323,.T.);
#180=ORIENTED_EDGE('',*,*,#325,.T.);
#181=ORIENTED_EDGE('',*,*,#302,.F.);
#182=ORIENTED_EDGE('',*,*,#326,.T.);
#183=ORIENTED_EDGE('',*,*,#300,.F.);
#184=ORIENTED_EDGE('',*,*,#327,.T.);
#185=ORIENTED_EDGE('',*,*,#314,.T.);
#186=ORIENTED_EDGE('',*,*,#328,.T.);
#187=ORIENTED_EDGE('',*,*,#329,.T.);
#188=ORIENTED_EDGE('',*,*,#330,.T.);
#189=ORIENTED_EDGE('',*,*,#331,.T.);
#190=ORIENTED_EDGE('',*,*,#332,.T.);
#191=ORIENTED_EDGE('',*,*,#333,.T.);
#192=ORIENTED_EDGE('',*,*,#334,.T.);
#193=ORIENTED_EDGE('',*,*,#335,.T.);
#194=ORIENTED_EDGE('',*,*,#336,.T.);
#195=ORIENTED_EDGE('',*,*,#337,.T.);
#196=ORIENTED_EDGE('',*,*,#338,.T.);
#197=ORIENTED_EDGE('',*,*,#297,.F.);
#198=ORIENTED_EDGE('',*,*,#313,.T.);
#199=ORIENTED_EDGE('',*,*,#339,.T.);
#200=ORIENTED_EDGE('',*,*,#340,.T.);
#201=ORIENTED_EDGE('',*,*,#341,.T.);
#202=ORIENTED_EDGE('',*,*,#342,.F.);
#203=ORIENTED_EDGE('',*,*,#343,.T.);
#204=ORIENTED_EDGE('',*,*,#304,.F.);
#205=ORIENTED_EDGE('',*,*,#344,.T.);
#206=ORIENTED_EDGE('',*,*,#321,.T.);
#207=ORIENTED_EDGE('',*,*,#345,.T.);
#208=ORIENTED_EDGE('',*,*,#342,.T.);
#209=ORIENTED_EDGE('',*,*,#346,.T.);
#210=ORIENTED_EDGE('',*,*,#347,.T.);
#211=ORIENTED_EDGE('',*,*,#348,.T.);
#212=ORIENTED_EDGE('',*,*,#349,.T.);
#213=ORIENTED_EDGE('',*,*,#350,.F.);
#214=ORIENTED_EDGE('',*,*,#351,.T.);
#215=ORIENTED_EDGE('',*,*,#317,.F.);
#216=ORIENTED_EDGE('',*,*,#352,.T.);
#217=ORIENTED_EDGE('',*,*,#308,.T.);
#218=ORIENTED_EDGE('',*,*,#353,.T.);
#219=ORIENTED_EDGE('',*,*,#350,.T.);
#220=ORIENTED_EDGE('',*,*,#354,.T.);
#221=ORIENTED_EDGE('',*,*,#355,.T.);
#222=ORIENTED_EDGE('',*,*,#356,.T.);
#223=ORIENTED_EDGE('',*,*,#357,.T.);
#224=ORIENTED_EDGE('',*,*,#358,.T.);
#225=ORIENTED_EDGE('',*,*,#307,.F.);
#226=ORIENTED_EDGE('',*,*,#359,.T.);
#227=ORIENTED_EDGE('',*,*,#347,.F.);
#228=ORIENTED_EDGE('',*,*,#353,.F.);
#229=ORIENTED_EDGE('',*,*,#349,.F.);
#230=ORIENTED_EDGE('',*,*,#360,.T.);
#231=ORIENTED_EDGE('',*,*,#318,.F.);
#232=ORIENTED_EDGE('',*,*,#354,.F.);
#233=ORIENTED_EDGE('',*,*,#341,.F.);
#234=ORIENTED_EDGE('',*,*,#361,.T.);
#235=ORIENTED_EDGE('',*,*,#305,.F.);
#236=ORIENTED_EDGE('',*,*,#346,.F.);
#237=ORIENTED_EDGE('',*,*,#320,.F.);
#238=ORIENTED_EDGE('',*,*,#362,.T.);
#239=ORIENTED_EDGE('',*,*,#339,.F.);
#240=ORIENTED_EDGE('',*,*,#345,.F.);
#241=ORIENTED_EDGE('',*,*,#363,.F.);
#242=ORIENTED_EDGE('',*,*,#334,.F.);
#243=ORIENTED_EDGE('',*,*,#364,.F.);
#244=ORIENTED_EDGE('',*,*,#306,.F.);
#245=ORIENTED_EDGE('',*,*,#364,.T.);
#246=ORIENTED_EDGE('',*,*,#333,.F.);
#247=ORIENTED_EDGE('',*,*,#365,.F.);
#248=ORIENTED_EDGE('',*,*,#359,.F.);
#249=ORIENTED_EDGE('',*,*,#363,.T.);
#250=ORIENTED_EDGE('',*,*,#361,.F.);
#251=ORIENTED_EDGE('',*,*,#366,.F.);
#252=ORIENTED_EDGE('',*,*,#335,.F.);
#253=ORIENTED_EDGE('',*,*,#365,.T.);
#254=ORIENTED_EDGE('',*,*,#332,.F.);
#255=ORIENTED_EDGE('',*,*,#367,.F.);
#256=ORIENTED_EDGE('',*,*,#348,.F.);
#257=ORIENTED_EDGE('',*,*,#366,.T.);
#258=ORIENTED_EDGE('',*,*,#340,.F.);
#259=ORIENTED_EDGE('',*,*,#368,.F.);
#260=ORIENTED_EDGE('',*,*,#336,.F.);
#261=ORIENTED_EDGE('',*,*,#367,.T.);
#262=ORIENTED_EDGE('',*,*,#331,.F.);
#263=ORIENTED_EDGE('',*,*,#369,.F.);
#264=ORIENTED_EDGE('',*,*,#360,.F.);
#265=ORIENTED_EDGE('',*,*,#368,.T.);
#266=ORIENTED_EDGE('',*,*,#362,.F.);
#267=ORIENTED_EDGE('',*,*,#370,.F.);
#268=ORIENTED_EDGE('',*,*,#329,.F.);
#269=ORIENTED_EDGE('',*,*,#369,.T.);
#270=ORIENTED_EDGE('',*,*,#330,.F.);
#271=ORIENTED_EDGE('',*,*,#370,.T.);
#272=ORIENTED_EDGE('',*,*,#319,.F.);
#273=ORIENTED_EDGE('',*,*,#337,.F.);
#274=ORIENTED_EDGE('',*,*,#357,.F.);
#275=ORIENTED_EDGE('',*,*,#338,.F.);
#276=ORIENTED_EDGE('',*,*,#355,.F.);
#277=ORIENTED_EDGE('',*,*,#358,.F.);
#278=ORIENTED_EDGE('',*,*,#343,.F.);
#279=ORIENTED_EDGE('',*,*,#356,.F.);
#280=ORIENTED_EDGE('',*,*,#351,.F.);
#281=ORIENTED_EDGE('',*,*,#299,.F.);
#282=ORIENTED_EDGE('',*,*,#312,.F.);
#283=ORIENTED_EDGE('',*,*,#315,.F.);
#284=ORIENTED_EDGE('',*,*,#327,.F.);
#285=ORIENTED_EDGE('',*,*,#301,.F.);
#286=ORIENTED_EDGE('',*,*,#328,.F.);
#287=ORIENTED_EDGE('',*,*,#324,.F.);
#288=ORIENTED_EDGE('',*,*,#326,.F.);
#289=ORIENTED_EDGE('',*,*,#303,.F.);
#290=ORIENTED_EDGE('',*,*,#325,.F.);
#291=ORIENTED_EDGE('',*,*,#322,.F.);
#292=ORIENTED_EDGE('',*,*,#344,.F.);
#293=ORIENTED_EDGE('',*,*,#309,.F.);
#294=ORIENTED_EDGE('',*,*,#352,.F.);
#295=ORIENTED_EDGE('',*,*,#316,.F.);
#296=ORIENTED_EDGE('',*,*,#310,.F.);
#297=EDGE_CURVE('',#371,#371,#421,.F.);
#298=EDGE_CURVE('',#372,#373,#53,.T.);
#299=EDGE_CURVE('',#372,#374,#29,.T.);
#300=EDGE_CURVE('',#374,#375,#54,.T.);
#301=EDGE_CURVE('',#375,#376,#30,.T.);
#302=EDGE_CURVE('',#376,#377,#55,.T.);
#303=EDGE_CURVE('',#377,#378,#56,.F.);
#304=EDGE_CURVE('',#378,#379,#57,.T.);
#305=EDGE_CURVE('',#379,#380,#58,.T.);
#306=EDGE_CURVE('',#380,#381,#59,.T.);
#307=EDGE_CURVE('',#381,#382,#60,.F.);
#308=EDGE_CURVE('',#383,#382,#61,.T.);
#309=EDGE_CURVE('',#383,#373,#62,.T.);
#310=EDGE_CURVE('',#373,#384,#63,.T.);
#311=EDGE_CURVE('',#385,#384,#64,.T.);
#312=EDGE_CURVE('',#385,#372,#65,.F.);
#313=EDGE_CURVE('',#386,#386,#422,.F.);
#314=EDGE_CURVE('',#387,#388,#66,.T.);
#315=EDGE_CURVE('',#387,#385,#31,.F.);
#316=EDGE_CURVE('',#384,#389,#67,.T.);
#317=EDGE_CURVE('',#389,#390,#68,.T.);
#318=EDGE_CURVE('',#390,#391,#69,.T.);
#319=EDGE_CURVE('',#391,#392,#70,.T.);
#320=EDGE_CURVE('',#392,#393,#71,.F.);
#321=EDGE_CURVE('',#394,#393,#72,.T.);
#322=EDGE_CURVE('',#394,#395,#73,.F.);
#323=EDGE_CURVE('',#396,#395,#74,.T.);
#324=EDGE_CURVE('',#396,#388,#32,.F.);
#325=EDGE_CURVE('',#395,#377,#75,.T.);
#326=EDGE_CURVE('',#376,#396,#76,.T.);
#327=EDGE_CURVE('',#374,#387,#77,.T.);
#328=EDGE_CURVE('',#388,#375,#78,.F.);
#329=EDGE_CURVE('',#397,#398,#33,.F.);
#330=EDGE_CURVE('',#398,#399,#79,.T.);
#331=EDGE_CURVE('',#399,#400,#34,.F.);
#332=EDGE_CURVE('',#400,#401,#80,.T.);
#333=EDGE_CURVE('',#401,#402,#35,.F.);
#334=EDGE_CURVE('',#402,#403,#81,.T.);
#335=EDGE_CURVE('',#403,#404,#36,.F.);
#336=EDGE_CURVE('',#404,#397,#82,.T.);
#337=EDGE_CURVE('',#405,#405,#37,.T.);
#338=EDGE_CURVE('',#406,#406,#38,.T.);
#339=EDGE_CURVE('',#407,#408,#83,.T.);
#340=EDGE_CURVE('',#408,#409,#84,.T.);
#341=EDGE_CURVE('',#409,#410,#85,.F.);
#342=EDGE_CURVE('',#407,#410,#86,.T.);
#343=EDGE_CURVE('',#411,#411,#39,.F.);
#344=EDGE_CURVE('',#378,#394,#87,.T.);
#345=EDGE_CURVE('',#393,#407,#40,.T.);
#346=EDGE_CURVE('',#410,#379,#41,.T.);
#347=EDGE_CURVE('',#412,#413,#88,.T.);
#348=EDGE_CURVE('',#413,#414,#89,.T.);
#349=EDGE_CURVE('',#414,#415,#90,.F.);
#350=EDGE_CURVE('',#412,#415,#91,.T.);
#351=EDGE_CURVE('',#416,#416,#42,.F.);
#352=EDGE_CURVE('',#389,#383,#92,.T.);
#353=EDGE_CURVE('',#382,#412,#43,.T.);
#354=EDGE_CURVE('',#415,#390,#44,.T.);
#355=EDGE_CURVE('',#417,#417,#45,.F.);
#356=EDGE_CURVE('',#418,#418,#46,.T.);
#357=EDGE_CURVE('',#419,#419,#47,.F.);
#358=EDGE_CURVE('',#420,#420,#48,.T.);
#359=EDGE_CURVE('',#381,#413,#49,.T.);
#360=EDGE_CURVE('',#414,#391,#50,.T.);
#361=EDGE_CURVE('',#409,#380,#51,.T.);
#362=EDGE_CURVE('',#392,#408,#52,.T.);
#363=EDGE_CURVE('',#403,#380,#93,.T.);
#364=EDGE_CURVE('',#381,#402,#94,.T.);
#365=EDGE_CURVE('',#413,#401,#95,.T.);
#366=EDGE_CURVE('',#404,#409,#96,.T.);
#367=EDGE_CURVE('',#414,#400,#97,.T.);
#368=EDGE_CURVE('',#397,#408,#98,.T.);
#369=EDGE_CURVE('',#391,#399,#99,.T.);
#370=EDGE_CURVE('',#398,#392,#100,.T.);
#371=VERTEX_POINT('',#807);
#372=VERTEX_POINT('',#809);
#373=VERTEX_POINT('',#810);
#374=VERTEX_POINT('',#812);
#375=VERTEX_POINT('',#814);
#376=VERTEX_POINT('',#816);
#377=VERTEX_POINT('',#818);
#378=VERTEX_POINT('',#820);
#379=VERTEX_POINT('',#822);
#380=VERTEX_POINT('',#824);
#381=VERTEX_POINT('',#826);
#382=VERTEX_POINT('',#828);
#383=VERTEX_POINT('',#830);
#384=VERTEX_POINT('',#834);
#385=VERTEX_POINT('',#836);
#386=VERTEX_POINT('',#840);
#387=VERTEX_POINT('',#842);
#388=VERTEX_POINT('',#843);
#389=VERTEX_POINT('',#846);
#390=VERTEX_POINT('',#848);
#391=VERTEX_POINT('',#850);
#392=VERTEX_POINT('',#852);
#393=VERTEX_POINT('',#854);
#394=VERTEX_POINT('',#856);
#395=VERTEX_POINT('',#858);
#396=VERTEX_POINT('',#860);
#397=VERTEX_POINT('',#870);
#398=VERTEX_POINT('',#871);
#399=VERTEX_POINT('',#873);
#400=VERTEX_POINT('',#875);
#401=VERTEX_POINT('',#877);
#402=VERTEX_POINT('',#879);
#403=VERTEX_POINT('',#881);
#404=VERTEX_POINT('',#883);
#405=VERTEX_POINT('',#886);
#406=VERTEX_POINT('',#888);
#407=VERTEX_POINT('',#892);
#408=VERTEX_POINT('',#893);
#409=VERTEX_POINT('',#895);
#410=VERTEX_POINT('',#897);
#411=VERTEX_POINT('',#901);
#412=VERTEX_POINT('',#907);
#413=VERTEX_POINT('',#908);
#414=VERTEX_POINT('',#910);
#415=VERTEX_POINT('',#912);
#416=VERTEX_POINT('',#916);
#417=VERTEX_POINT('',#922);
#418=VERTEX_POINT('',#924);
#419=VERTEX_POINT('',#927);
#420=VERTEX_POINT('',#929);
#421=ELLIPSE('',#578,0.0440704301374517,0.0311625);
#422=ELLIPSE('',#583,0.0440704301374517,0.0311625);
#423=EDGE_LOOP('',(#149));
#424=EDGE_LOOP('',(#150,#151,#152,#153,#154,#155,#156,#157,#158,#159,#160,
#161));
#425=EDGE_LOOP('',(#162,#163,#164,#165));
#426=EDGE_LOOP('',(#166));
#427=EDGE_LOOP('',(#167,#168,#169,#170,#171,#172,#173,#174,#175,#176,#177,
#178));
#428=EDGE_LOOP('',(#179,#180,#181,#182));
#429=EDGE_LOOP('',(#183,#184,#185,#186));
#430=EDGE_LOOP('',(#187,#188,#189,#190,#191,#192,#193,#194));
#431=EDGE_LOOP('',(#195));
#432=EDGE_LOOP('',(#196));
#433=EDGE_LOOP('',(#197));
#434=EDGE_LOOP('',(#198));
#435=EDGE_LOOP('',(#199,#200,#201,#202));
#436=EDGE_LOOP('',(#203));
#437=EDGE_LOOP('',(#204,#205,#206,#207,#208,#209));
#438=EDGE_LOOP('',(#210,#211,#212,#213));
#439=EDGE_LOOP('',(#214));
#440=EDGE_LOOP('',(#215,#216,#217,#218,#219,#220));
#441=EDGE_LOOP('',(#221));
#442=EDGE_LOOP('',(#222));
#443=EDGE_LOOP('',(#223));
#444=EDGE_LOOP('',(#224));
#445=EDGE_LOOP('',(#225,#226,#227,#228));
#446=EDGE_LOOP('',(#229,#230,#231,#232));
#447=EDGE_LOOP('',(#233,#234,#235,#236));
#448=EDGE_LOOP('',(#237,#238,#239,#240));
#449=EDGE_LOOP('',(#241,#242,#243,#244));
#450=EDGE_LOOP('',(#245,#246,#247,#248));
#451=EDGE_LOOP('',(#249,#250,#251,#252));
#452=EDGE_LOOP('',(#253,#254,#255,#256));
#453=EDGE_LOOP('',(#257,#258,#259,#260));
#454=EDGE_LOOP('',(#261,#262,#263,#264));
#455=EDGE_LOOP('',(#265,#266,#267,#268));
#456=EDGE_LOOP('',(#269,#270,#271,#272));
#457=EDGE_LOOP('',(#273));
#458=EDGE_LOOP('',(#274));
#459=EDGE_LOOP('',(#275));
#460=EDGE_LOOP('',(#276));
#461=EDGE_LOOP('',(#277));
#462=EDGE_LOOP('',(#278));
#463=EDGE_LOOP('',(#279));
#464=EDGE_LOOP('',(#280));
#465=EDGE_LOOP('',(#281,#282,#283,#284));
#466=EDGE_LOOP('',(#285,#286,#287,#288));
#467=EDGE_LOOP('',(#289,#290,#291,#292));
#468=EDGE_LOOP('',(#293,#294,#295,#296));
#469=FACE_BOUND('',#423,.T.);
#470=FACE_BOUND('',#424,.T.);
#471=FACE_BOUND('',#425,.T.);
#472=FACE_BOUND('',#426,.T.);
#473=FACE_BOUND('',#427,.T.);
#474=FACE_BOUND('',#428,.T.);
#475=FACE_BOUND('',#429,.T.);
#476=FACE_BOUND('',#430,.T.);
#477=FACE_BOUND('',#431,.T.);
#478=FACE_BOUND('',#432,.T.);
#479=FACE_BOUND('',#433,.T.);
#480=FACE_BOUND('',#434,.T.);
#481=FACE_BOUND('',#435,.T.);
#482=FACE_BOUND('',#436,.T.);
#483=FACE_BOUND('',#437,.T.);
#484=FACE_BOUND('',#438,.T.);
#485=FACE_BOUND('',#439,.T.);
#486=FACE_BOUND('',#440,.T.);
#487=FACE_BOUND('',#441,.T.);
#488=FACE_BOUND('',#442,.T.);
#489=FACE_BOUND('',#443,.T.);
#490=FACE_BOUND('',#444,.T.);
#491=FACE_BOUND('',#445,.T.);
#492=FACE_BOUND('',#446,.T.);
#493=FACE_BOUND('',#447,.T.);
#494=FACE_BOUND('',#448,.T.);
#495=FACE_BOUND('',#449,.T.);
#496=FACE_BOUND('',#450,.T.);
#497=FACE_BOUND('',#451,.T.);
#498=FACE_BOUND('',#452,.T.);
#499=FACE_BOUND('',#453,.T.);
#500=FACE_BOUND('',#454,.T.);
#501=FACE_BOUND('',#455,.T.);
#502=FACE_BOUND('',#456,.T.);
#503=FACE_BOUND('',#457,.T.);
#504=FACE_BOUND('',#458,.T.);
#505=FACE_BOUND('',#459,.T.);
#506=FACE_BOUND('',#460,.T.);
#507=FACE_BOUND('',#461,.T.);
#508=FACE_BOUND('',#462,.T.);
#509=FACE_BOUND('',#463,.T.);
#510=FACE_BOUND('',#464,.T.);
#511=FACE_BOUND('',#465,.T.);
#512=FACE_BOUND('',#466,.T.);
#513=FACE_BOUND('',#467,.T.);
#514=FACE_BOUND('',#468,.T.);
#515=PLANE('',#577);
#516=PLANE('',#581);
#517=PLANE('',#582);
#518=PLANE('',#586);
#519=PLANE('',#587);
#520=PLANE('',#588);
#521=PLANE('',#596);
#522=PLANE('',#597);
#523=PLANE('',#601);
#524=PLANE('',#602);
#525=PLANE('',#620);
#526=PLANE('',#623);
#527=PLANE('',#624);
#528=PLANE('',#627);
#529=PLANE('',#634);
#530=PLANE('',#635);
#531=ADVANCED_FACE('',(#469,#470),#515,.T.);
#532=ADVANCED_FACE('',(#471),#516,.F.);
#533=ADVANCED_FACE('',(#472,#473),#517,.F.);
#534=ADVANCED_FACE('',(#474),#518,.T.);
#535=ADVANCED_FACE('',(#475),#519,.T.);
#536=ADVANCED_FACE('',(#476,#477,#478),#520,.F.);
#537=ADVANCED_FACE('',(#479,#480),#20,.F.);
#538=ADVANCED_FACE('',(#481),#521,.F.);
#539=ADVANCED_FACE('',(#482,#483),#522,.T.);
#540=ADVANCED_FACE('',(#484),#523,.F.);
#541=ADVANCED_FACE('',(#485,#486),#524,.T.);
#542=ADVANCED_FACE('',(#487,#488),#21,.F.);
#543=ADVANCED_FACE('',(#489,#490),#22,.F.);
#544=ADVANCED_FACE('',(#491),#23,.T.);
#545=ADVANCED_FACE('',(#492),#24,.T.);
#546=ADVANCED_FACE('',(#493),#25,.T.);
#547=ADVANCED_FACE('',(#494),#26,.T.);
#548=ADVANCED_FACE('',(#495),#525,.T.);
#549=ADVANCED_FACE('',(#496),#12,.T.);
#550=ADVANCED_FACE('',(#497),#13,.T.);
#551=ADVANCED_FACE('',(#498),#526,.F.);
#552=ADVANCED_FACE('',(#499),#527,.F.);
#553=ADVANCED_FACE('',(#500),#14,.T.);
#554=ADVANCED_FACE('',(#501),#15,.T.);
#555=ADVANCED_FACE('',(#502),#528,.F.);
#556=ADVANCED_FACE('',(#503,#504),#16,.F.);
#557=ADVANCED_FACE('',(#505,#506),#17,.F.);
#558=ADVANCED_FACE('',(#507,#508),#18,.F.);
#559=ADVANCED_FACE('',(#509,#510),#19,.F.);
#560=ADVANCED_FACE('',(#511),#27,.T.);
#561=ADVANCED_FACE('',(#512),#28,.T.);
#562=ADVANCED_FACE('',(#513),#529,.T.);
#563=ADVANCED_FACE('',(#514),#530,.F.);
#564=CLOSED_SHELL('',(#531,#532,#533,#534,#535,#536,#537,#538,#539,#540,
#541,#542,#543,#544,#545,#546,#547,#548,#549,#550,#551,#552,#553,#554,#555,
#556,#557,#558,#559,#560,#561,#562,#563));
#565=STYLED_ITEM('',(#566),#573);
#566=PRESENTATION_STYLE_ASSIGNMENT((#567));
#567=SURFACE_STYLE_USAGE(.BOTH.,#568);
#568=SURFACE_SIDE_STYLE('',(#569));
#569=SURFACE_STYLE_FILL_AREA(#570);
#570=FILL_AREA_STYLE('',(#571));
#571=FILL_AREA_STYLE_COLOUR('',#572);
#572=COLOUR_RGB('',0.980392156862745,0.713725490196078,0.00392156862745098);
#573=MANIFOLD_SOLID_BREP('Part 30',#564);
#574=SHAPE_DEFINITION_REPRESENTATION(#968,#575);
#575=SHAPE_REPRESENTATION('Part 30',(#576),#963);
#576=AXIS2_PLACEMENT_3D('',#804,#636,#637);
#577=AXIS2_PLACEMENT_3D('',#805,#638,#639);
#578=AXIS2_PLACEMENT_3D('',#806,#640,#641);
#579=AXIS2_PLACEMENT_3D('',#811,#643,#644);
#580=AXIS2_PLACEMENT_3D('',#815,#646,#647);
#581=AXIS2_PLACEMENT_3D('',#832,#656,#657);
#582=AXIS2_PLACEMENT_3D('',#838,#661,#662);
#583=AXIS2_PLACEMENT_3D('',#839,#663,#664);
#584=AXIS2_PLACEMENT_3D('',#844,#666,#667);
#585=AXIS2_PLACEMENT_3D('',#861,#676,#677);
#586=AXIS2_PLACEMENT_3D('',#862,#678,#679);
#587=AXIS2_PLACEMENT_3D('',#865,#682,#683);
#588=AXIS2_PLACEMENT_3D('',#868,#686,#687);
#589=AXIS2_PLACEMENT_3D('',#869,#688,#689);
#590=AXIS2_PLACEMENT_3D('',#874,#691,#692);
#591=AXIS2_PLACEMENT_3D('',#878,#694,#695);
#592=AXIS2_PLACEMENT_3D('',#882,#697,#698);
#593=AXIS2_PLACEMENT_3D('',#885,#700,#701);
#594=AXIS2_PLACEMENT_3D('',#887,#702,#703);
#595=AXIS2_PLACEMENT_3D('',#889,#704,#705);
#596=AXIS2_PLACEMENT_3D('',#890,#706,#707);
#597=AXIS2_PLACEMENT_3D('',#899,#712,#713);
#598=AXIS2_PLACEMENT_3D('',#900,#714,#715);
#599=AXIS2_PLACEMENT_3D('',#903,#717,#718);
#600=AXIS2_PLACEMENT_3D('',#904,#719,#720);
#601=AXIS2_PLACEMENT_3D('',#905,#721,#722);
#602=AXIS2_PLACEMENT_3D('',#914,#727,#728);
#603=AXIS2_PLACEMENT_3D('',#915,#729,#730);
#604=AXIS2_PLACEMENT_3D('',#918,#732,#733);
#605=AXIS2_PLACEMENT_3D('',#919,#734,#735);
#606=AXIS2_PLACEMENT_3D('',#920,#736,#737);
#607=AXIS2_PLACEMENT_3D('',#921,#738,#739);
#608=AXIS2_PLACEMENT_3D('',#923,#740,#741);
#609=AXIS2_PLACEMENT_3D('',#925,#742,#743);
#610=AXIS2_PLACEMENT_3D('',#926,#744,#745);
#611=AXIS2_PLACEMENT_3D('',#928,#746,#747);
#612=AXIS2_PLACEMENT_3D('',#930,#748,#749);
#613=AXIS2_PLACEMENT_3D('',#931,#750,#751);
#614=AXIS2_PLACEMENT_3D('',#932,#752,#753);
#615=AXIS2_PLACEMENT_3D('',#933,#754,#755);
#616=AXIS2_PLACEMENT_3D('',#934,#756,#757);
#617=AXIS2_PLACEMENT_3D('',#935,#758,#759);
#618=AXIS2_PLACEMENT_3D('',#936,#760,#761);
#619=AXIS2_PLACEMENT_3D('',#937,#762,#763);
#620=AXIS2_PLACEMENT_3D('',#938,#764,#765);
#621=AXIS2_PLACEMENT_3D('',#941,#768,#769);
#622=AXIS2_PLACEMENT_3D('',#943,#771,#772);
#623=AXIS2_PLACEMENT_3D('',#945,#774,#775);
#624=AXIS2_PLACEMENT_3D('',#947,#777,#778);
#625=AXIS2_PLACEMENT_3D('',#949,#780,#781);
#626=AXIS2_PLACEMENT_3D('',#951,#783,#784);
#627=AXIS2_PLACEMENT_3D('',#953,#786,#787);
#628=AXIS2_PLACEMENT_3D('',#954,#788,#789);
#629=AXIS2_PLACEMENT_3D('',#955,#790,#791);
#630=AXIS2_PLACEMENT_3D('',#956,#792,#793);
#631=AXIS2_PLACEMENT_3D('',#957,#794,#795);
#632=AXIS2_PLACEMENT_3D('',#958,#796,#797);
#633=AXIS2_PLACEMENT_3D('',#959,#798,#799);
#634=AXIS2_PLACEMENT_3D('',#960,#800,#801);
#635=AXIS2_PLACEMENT_3D('',#961,#802,#803);
#636=DIRECTION('',(0.,0.,1.));
#637=DIRECTION('',(1.,0.,0.));
#638=DIRECTION('',(1.,0.,0.));
#639=DIRECTION('',(0.,0.,-1.));
#640=DIRECTION('',(1.,0.,0.));
#641=DIRECTION('',(0.,0.,-1.));
#642=DIRECTION('',(0.,0.,-1.));
#643=DIRECTION('',(1.,0.,0.));
#644=DIRECTION('',(0.,0.,-1.));
#645=DIRECTION('',(0.,-1.,0.));
#646=DIRECTION('',(1.,0.,0.));
#647=DIRECTION('',(0.,0.,-1.));
#648=DIRECTION('',(0.,0.,-1.));
#649=DIRECTION('',(0.,0.707106781186548,0.707106781186548));
#650=DIRECTION('',(0.,-1.,0.));
#651=DIRECTION('',(0.,0.,-1.));
#652=DIRECTION('',(0.,1.,0.));
#653=DIRECTION('',(0.,0.,-1.));
#654=DIRECTION('',(0.,1.,0.));
#655=DIRECTION('',(0.,-0.707106781186548,0.707106781186548));
#656=DIRECTION('',(0.,-1.,0.));
#657=DIRECTION('',(0.,0.,-1.));
#658=DIRECTION('',(-1.,0.,0.));
#659=DIRECTION('',(0.,0.,-1.));
#660=DIRECTION('',(-1.,0.,0.));
#661=DIRECTION('',(1.,0.,0.));
#662=DIRECTION('',(0.,0.,-1.));
#663=DIRECTION('',(1.,0.,0.));
#664=DIRECTION('',(0.,0.,-1.));
#665=DIRECTION('',(0.,-1.,0.));
#666=DIRECTION('',(1.,0.,0.));
#667=DIRECTION('',(0.,0.,-1.));
#668=DIRECTION('',(0.,0.707106781186548,-0.707106781186548));
#669=DIRECTION('',(0.,1.,0.));
#670=DIRECTION('',(0.,0.,-1.));
#671=DIRECTION('',(0.,-1.,0.));
#672=DIRECTION('',(0.,0.,-1.));
#673=DIRECTION('',(0.,-1.,0.));
#674=DIRECTION('',(0.,-0.707106781186548,-0.707106781186548));
#675=DIRECTION('',(0.,0.,-1.));
#676=DIRECTION('',(1.,0.,0.));
#677=DIRECTION('',(0.,0.,-1.));
#678=DIRECTION('',(0.,-1.,0.));
#679=DIRECTION('',(0.,0.,-1.));
#680=DIRECTION('',(1.,0.,0.));
#681=DIRECTION('',(-1.,0.,0.));
#682=DIRECTION('',(0.,0.,1.));
#683=DIRECTION('',(1.,0.,0.));
#684=DIRECTION('',(-1.,0.,0.));
#685=DIRECTION('',(-1.,0.,0.));
#686=DIRECTION('',(0.,0.,1.));
#687=DIRECTION('',(1.,0.,0.));
#688=DIRECTION('',(0.,0.,1.));
#689=DIRECTION('',(1.,0.,0.));
#690=DIRECTION('',(0.,1.,0.));
#691=DIRECTION('',(0.,0.,1.));
#692=DIRECTION('',(1.,0.,0.));
#693=DIRECTION('',(1.,0.,0.));
#694=DIRECTION('',(0.,0.,1.));
#695=DIRECTION('',(1.,0.,0.));
#696=DIRECTION('',(0.,-1.,0.));
#697=DIRECTION('',(0.,0.,1.));
#698=DIRECTION('',(1.,0.,0.));
#699=DIRECTION('',(-1.,0.,0.));
#700=DIRECTION('',(0.,0.,1.));
#701=DIRECTION('',(1.,0.,0.));
#702=DIRECTION('',(0.,0.,1.));
#703=DIRECTION('',(1.,0.,0.));
#704=DIRECTION('',(-0.707106781186548,0.,-0.707106781186548));
#705=DIRECTION('',(-0.707106781186548,0.,0.707106781186548));
#706=DIRECTION('',(0.,1.,0.));
#707=DIRECTION('',(0.,0.,1.));
#708=DIRECTION('',(0.,0.,-1.));
#709=DIRECTION('',(1.,0.,0.));
#710=DIRECTION('',(0.,0.,-1.));
#711=DIRECTION('',(1.,0.,0.));
#712=DIRECTION('',(0.,0.,1.));
#713=DIRECTION('',(1.,0.,0.));
#714=DIRECTION('',(0.,0.,1.));
#715=DIRECTION('',(1.,0.,0.));
#716=DIRECTION('',(-1.,0.,0.));
#717=DIRECTION('',(0.,0.,1.));
#718=DIRECTION('',(1.,0.,0.));
#719=DIRECTION('',(0.,0.,1.));
#720=DIRECTION('',(1.,0.,0.));
#721=DIRECTION('',(0.,-1.,0.));
#722=DIRECTION('',(0.,0.,-1.));
#723=DIRECTION('',(0.,0.,-1.));
#724=DIRECTION('',(-1.,0.,0.));
#725=DIRECTION('',(0.,0.,-1.));
#726=DIRECTION('',(-1.,0.,0.));
#727=DIRECTION('',(0.,0.,1.));
#728=DIRECTION('',(1.,0.,0.));
#729=DIRECTION('',(0.,0.,1.));
#730=DIRECTION('',(1.,0.,0.));
#731=DIRECTION('',(1.,0.,0.));
#732=DIRECTION('',(0.,0.,1.));
#733=DIRECTION('',(1.,0.,0.));
#734=DIRECTION('',(0.,0.,1.));
#735=DIRECTION('',(1.,0.,0.));
#736=DIRECTION('',(0.,0.,-1.));
#737=DIRECTION('',(-1.,0.,0.));
#738=DIRECTION('',(0.,0.,1.));
#739=DIRECTION('',(1.,0.,0.));
#740=DIRECTION('',(0.,0.,1.));
#741=DIRECTION('',(1.,0.,0.));
#742=DIRECTION('',(0.,0.,-1.));
#743=DIRECTION('',(-1.,0.,0.));
#744=DIRECTION('',(0.,0.,1.));
#745=DIRECTION('',(1.,0.,0.));
#746=DIRECTION('',(0.,0.,1.));
#747=DIRECTION('',(1.,0.,0.));
#748=DIRECTION('',(0.,0.,1.));
#749=DIRECTION('',(1.,0.,0.));
#750=DIRECTION('',(0.,0.,1.));
#751=DIRECTION('',(1.,0.,0.));
#752=DIRECTION('',(0.,0.,-1.));
#753=DIRECTION('',(-1.,0.,0.));
#754=DIRECTION('',(0.,0.,1.));
#755=DIRECTION('',(1.,0.,0.));
#756=DIRECTION('',(0.,0.,1.));
#757=DIRECTION('',(1.,0.,0.));
#758=DIRECTION('',(0.,0.,1.));
#759=DIRECTION('',(1.,0.,0.));
#760=DIRECTION('',(0.,0.,-1.));
#761=DIRECTION('',(-1.,0.,0.));
#762=DIRECTION('',(0.,0.,1.));
#763=DIRECTION('',(1.,0.,0.));
#764=DIRECTION('',(0.707106781186587,0.,-0.707106781186508));
#765=DIRECTION('',(0.,1.,0.));
#766=DIRECTION('',(0.707106781186508,0.,0.707106781186587));
#767=DIRECTION('',(-0.707106781186508,0.,-0.707106781186587));
#768=DIRECTION('',(0.,0.,1.));
#769=DIRECTION('',(1.,0.,0.));
#770=DIRECTION('',(0.,-0.707106781186528,-0.707106781186567));
#771=DIRECTION('',(0.,0.,1.));
#772=DIRECTION('',(1.,0.,0.));
#773=DIRECTION('',(0.,-0.707106781186518,0.707106781186577));
#774=DIRECTION('',(0.,-0.707106781186577,0.707106781186518));
#775=DIRECTION('',(-1.,0.,0.));
#776=DIRECTION('',(0.,-0.707106781186518,-0.707106781186577));
#777=DIRECTION('',(0.,0.707106781186577,0.707106781186518));
#778=DIRECTION('',(1.,0.,0.));
#779=DIRECTION('',(0.,-0.707106781186518,0.707106781186577));
#780=DIRECTION('',(0.,0.,1.));
#781=DIRECTION('',(1.,0.,0.));
#782=DIRECTION('',(0.707106781186508,0.,-0.707106781186587));
#783=DIRECTION('',(0.,0.,1.));
#784=DIRECTION('',(1.,0.,0.));
#785=DIRECTION('',(-0.707106781186528,0.,0.707106781186567));
#786=DIRECTION('',(0.707106781186587,0.,0.707106781186508));
#787=DIRECTION('',(0.,-1.,0.));
#788=DIRECTION('',(0.,0.,-1.));
#789=DIRECTION('',(-1.,0.,0.));
#790=DIRECTION('',(0.,0.,-1.));
#791=DIRECTION('',(-1.,0.,0.));
#792=DIRECTION('',(0.,0.,1.));
#793=DIRECTION('',(1.,0.,0.));
#794=DIRECTION('',(0.,0.,1.));
#795=DIRECTION('',(1.,0.,0.));
#796=DIRECTION('',(1.,0.,0.));
#797=DIRECTION('',(0.,0.,-1.));
#798=DIRECTION('',(-1.,0.,0.));
#799=DIRECTION('',(0.,0.,1.));
#800=DIRECTION('',(0.,-0.707106781186548,0.707106781186548));
#801=DIRECTION('',(1.,0.,0.));
#802=DIRECTION('',(0.,-0.707106781186548,-0.707106781186548));
#803=DIRECTION('',(-1.,0.,0.));
#804=CARTESIAN_POINT('',(0.,0.,0.));
#805=CARTESIAN_POINT('',(0.157514094365276,0.,0.654));
#806=CARTESIAN_POINT('',(0.157514094365276,0.,0.607825728691257));
#807=CARTESIAN_POINT('',(0.157514094365276,0.,0.563755298553805));
#808=CARTESIAN_POINT('',(0.157514094365276,0.0351625,0.654));
#809=CARTESIAN_POINT('',(0.157514094365276,0.0351625,0.629));
#810=CARTESIAN_POINT('',(0.157514094365276,0.0351625,0.554));
#811=CARTESIAN_POINT('',(0.157514094365276,0.0101625,0.629));
#812=CARTESIAN_POINT('',(0.157514094365276,0.0101625,0.654));
#813=CARTESIAN_POINT('',(0.157514094365276,0.,0.654));
#814=CARTESIAN_POINT('',(0.157514094365276,-0.0101625,0.654));
#815=CARTESIAN_POINT('',(0.157514094365276,-0.0101625,0.629));
#816=CARTESIAN_POINT('',(0.157514094365276,-0.0351625,0.629));
#817=CARTESIAN_POINT('',(0.157514094365276,-0.0351625,0.654));
#818=CARTESIAN_POINT('',(0.157514094365276,-0.0351625,0.554));
#819=CARTESIAN_POINT('',(0.157514094365276,-0.0361625,0.553));
#820=CARTESIAN_POINT('',(0.157514094365276,-0.0361625,0.553));
#821=CARTESIAN_POINT('',(0.157514094365276,-0.0451625,0.553));
#822=CARTESIAN_POINT('',(0.157514094365276,-0.0531625,0.553));
#823=CARTESIAN_POINT('',(0.157514094365276,-0.0531625,0.541));
#824=CARTESIAN_POINT('',(0.157514094365276,-0.0531625,0.5415));
#825=CARTESIAN_POINT('',(0.157514094365276,0.0531625,0.5415));
#826=CARTESIAN_POINT('',(0.157514094365276,0.0531625,0.5415));
#827=CARTESIAN_POINT('',(0.157514094365276,0.0531625,0.553));
#828=CARTESIAN_POINT('',(0.157514094365276,0.0531625,0.553));
#829=CARTESIAN_POINT('',(0.157514094365276,0.0451625,0.553));
#830=CARTESIAN_POINT('',(0.157514094365276,0.0361625,0.553));
#831=CARTESIAN_POINT('',(0.157514094365276,0.0351625,0.554));
#832=CARTESIAN_POINT('',(0.147514094365276,0.0351625,0.654));
#833=CARTESIAN_POINT('',(0.147514094365276,0.0351625,0.554));
#834=CARTESIAN_POINT('',(0.137514094365276,0.0351625,0.554));
#835=CARTESIAN_POINT('',(0.137514094365276,0.0351625,0.654));
#836=CARTESIAN_POINT('',(0.137514094365276,0.0351625,0.629));
#837=CARTESIAN_POINT('',(0.157514094365276,0.0351625,0.629));
#838=CARTESIAN_POINT('',(0.137514094365276,0.,0.654));
#839=CARTESIAN_POINT('',(0.137514094365276,0.,0.587825728691257));
#840=CARTESIAN_POINT('',(0.137514094365276,0.,0.543755298553805));
#841=CARTESIAN_POINT('',(0.137514094365276,0.,0.654));
#842=CARTESIAN_POINT('',(0.137514094365276,0.0101625,0.654));
#843=CARTESIAN_POINT('',(0.137514094365276,-0.0101625,0.654));
#844=CARTESIAN_POINT('',(0.137514094365276,0.0101625,0.629));
#845=CARTESIAN_POINT('',(0.137514094365276,-0.03241875,0.62158125));
#846=CARTESIAN_POINT('',(0.137514094365276,0.0361625,0.553));
#847=CARTESIAN_POINT('',(0.137514094365276,0.0451625,0.553));
#848=CARTESIAN_POINT('',(0.137514094365276,0.0531625,0.553));
#849=CARTESIAN_POINT('',(0.137514094365276,0.0531625,0.654));
#850=CARTESIAN_POINT('',(0.137514094365276,0.0531625,0.5415));
#851=CARTESIAN_POINT('',(0.137514094365276,0.,0.5415));
#852=CARTESIAN_POINT('',(0.137514094365276,-0.0531625,0.5415));
#853=CARTESIAN_POINT('',(0.137514094365276,-0.0531625,0.654));
#854=CARTESIAN_POINT('',(0.137514094365276,-0.0531625,0.553));
#855=CARTESIAN_POINT('',(0.137514094365276,-0.0451625,0.553));
#856=CARTESIAN_POINT('',(0.137514094365276,-0.0361625,0.553));
#857=CARTESIAN_POINT('',(0.137514094365276,0.03241875,0.62158125));
#858=CARTESIAN_POINT('',(0.137514094365276,-0.0351625,0.554));
#859=CARTESIAN_POINT('',(0.137514094365276,-0.0351625,0.654));
#860=CARTESIAN_POINT('',(0.137514094365276,-0.0351625,0.629));
#861=CARTESIAN_POINT('',(0.137514094365276,-0.0101625,0.629));
#862=CARTESIAN_POINT('',(0.147514094365276,-0.0351625,0.654));
#863=CARTESIAN_POINT('',(0.157514094365276,-0.0351625,0.554));
#864=CARTESIAN_POINT('',(0.147514094365276,-0.0351625,0.629));
#865=CARTESIAN_POINT('',(0.197752719732194,0.,0.654));
#866=CARTESIAN_POINT('',(0.137514094365276,0.0101625,0.654));
#867=CARTESIAN_POINT('',(0.197752719732194,-0.0101625,0.654));
#868=CARTESIAN_POINT('',(0.197752719732194,0.,0.541));
#869=CARTESIAN_POINT('',(0.139514094365276,-0.0531625,0.541));
#870=CARTESIAN_POINT('',(0.139514094365276,-0.0546625,0.541));
#871=CARTESIAN_POINT('',(0.138014094365276,-0.0531625,0.541));
#872=CARTESIAN_POINT('',(0.138014094365276,0.,0.541));
#873=CARTESIAN_POINT('',(0.138014094365276,0.0531625,0.541));
#874=CARTESIAN_POINT('',(0.139514094365276,0.0531625,0.541));
#875=CARTESIAN_POINT('',(0.139514094365276,0.0546625,0.541));
#876=CARTESIAN_POINT('',(0.197752719732194,0.0546625,0.541));
#877=CARTESIAN_POINT('',(0.155514094365276,0.0546625,0.541));
#878=CARTESIAN_POINT('',(0.155514094365276,0.0531625,0.541));
#879=CARTESIAN_POINT('',(0.157014094365276,0.0531625,0.541));
#880=CARTESIAN_POINT('',(0.157014094365276,-0.0531625,0.541));
#881=CARTESIAN_POINT('',(0.157014094365276,-0.0531625,0.541));
#882=CARTESIAN_POINT('',(0.155514094365276,-0.0531625,0.541));
#883=CARTESIAN_POINT('',(0.155514094365276,-0.0546625,0.541));
#884=CARTESIAN_POINT('',(0.197752719732194,-0.0546625,0.541));
#885=CARTESIAN_POINT('',(0.147514094365276,-0.0451625,0.541));
#886=CARTESIAN_POINT('',(0.150764094365276,-0.0451625,0.541));
#887=CARTESIAN_POINT('',(0.147514094365276,0.0451625,0.541));
#888=CARTESIAN_POINT('',(0.150764094365276,0.0451625,0.541));
#889=CARTESIAN_POINT('',(1.18136481212164,0.,1.63167644644762));
#890=CARTESIAN_POINT('',(0.147514094365276,-0.0551625,0.553));
#891=CARTESIAN_POINT('',(0.139514094365276,-0.0551625,0.553));
#892=CARTESIAN_POINT('',(0.139514094365276,-0.0551625,0.553));
#893=CARTESIAN_POINT('',(0.139514094365276,-0.0551625,0.5415));
#894=CARTESIAN_POINT('',(0.147514094365276,-0.0551625,0.5415));
#895=CARTESIAN_POINT('',(0.155514094365276,-0.0551625,0.5415));
#896=CARTESIAN_POINT('',(0.155514094365276,-0.0551625,0.553));
#897=CARTESIAN_POINT('',(0.155514094365276,-0.0551625,0.553));
#898=CARTESIAN_POINT('',(0.147514094365276,-0.0551625,0.553));
#899=CARTESIAN_POINT('',(0.197752719732194,0.,0.553));
#900=CARTESIAN_POINT('',(0.147514094365276,-0.0451625,0.553));
#901=CARTESIAN_POINT('',(0.150764094365276,-0.0451625,0.553));
#902=CARTESIAN_POINT('',(0.137514094365276,-0.0361625,0.553));
#903=CARTESIAN_POINT('',(0.139514094365276,-0.0531625,0.553));
#904=CARTESIAN_POINT('',(0.155514094365276,-0.0531625,0.553));
#905=CARTESIAN_POINT('',(0.147514094365276,0.0551625,0.553));
#906=CARTESIAN_POINT('',(0.155514094365276,0.0551625,0.541));
#907=CARTESIAN_POINT('',(0.155514094365276,0.0551625,0.553));
#908=CARTESIAN_POINT('',(0.155514094365276,0.0551625,0.5415));
#909=CARTESIAN_POINT('',(0.147514094365276,0.0551625,0.5415));
#910=CARTESIAN_POINT('',(0.139514094365276,0.0551625,0.5415));
#911=CARTESIAN_POINT('',(0.139514094365276,0.0551625,0.553));
#912=CARTESIAN_POINT('',(0.139514094365276,0.0551625,0.553));
#913=CARTESIAN_POINT('',(0.147514094365276,0.0551625,0.553));
#914=CARTESIAN_POINT('',(0.197752719732194,0.,0.553));
#915=CARTESIAN_POINT('',(0.147514094365276,0.0451625,0.553));
#916=CARTESIAN_POINT('',(0.150764094365276,0.0451625,0.553));
#917=CARTESIAN_POINT('',(0.197752719732194,0.0361625,0.553));
#918=CARTESIAN_POINT('',(0.155514094365276,0.0531625,0.553));
#919=CARTESIAN_POINT('',(0.139514094365276,0.0531625,0.553));
#920=CARTESIAN_POINT('',(0.147514094365276,0.0451625,0.553));
#921=CARTESIAN_POINT('',(0.147514094365276,0.0451625,0.5415));
#922=CARTESIAN_POINT('',(0.150264094365276,0.0451625,0.5415));
#923=CARTESIAN_POINT('',(0.147514094365276,0.0451625,0.5525));
#924=CARTESIAN_POINT('',(0.150264094365276,0.0451625,0.5525));
#925=CARTESIAN_POINT('',(0.147514094365276,-0.0451625,0.553));
#926=CARTESIAN_POINT('',(0.147514094365276,-0.0451625,0.5415));
#927=CARTESIAN_POINT('',(0.150264094365276,-0.0451625,0.5415));
#928=CARTESIAN_POINT('',(0.147514094365276,-0.0451625,0.5525));
#929=CARTESIAN_POINT('',(0.150264094365276,-0.0451625,0.5525));
#930=CARTESIAN_POINT('',(0.155514094365276,0.0531625,0.553));
#931=CARTESIAN_POINT('',(0.155514094365276,0.0531625,0.5415));
#932=CARTESIAN_POINT('',(0.139514094365276,0.0531625,0.654));
#933=CARTESIAN_POINT('',(0.139514094365276,0.0531625,0.5415));
#934=CARTESIAN_POINT('',(0.155514094365276,-0.0531625,0.654));
#935=CARTESIAN_POINT('',(0.155514094365276,-0.0531625,0.5415));
#936=CARTESIAN_POINT('',(0.139514094365276,-0.0531625,0.553));
#937=CARTESIAN_POINT('',(0.139514094365276,-0.0531625,0.5415));
#938=CARTESIAN_POINT('',(0.157014094365276,0.,0.541));
#939=CARTESIAN_POINT('',(0.157014094365276,-0.0531625,0.541));
#940=CARTESIAN_POINT('',(0.157514094365276,0.0531625,0.5415));
#941=CARTESIAN_POINT('',(0.155514094365276,0.0531625,0.541));
#942=CARTESIAN_POINT('',(0.155514094365276,0.0551625,0.5415));
#943=CARTESIAN_POINT('',(0.155514094365276,-0.0531625,0.541));
#944=CARTESIAN_POINT('',(0.155514094365276,-0.0546625,0.541));
#945=CARTESIAN_POINT('',(0.147514094365276,0.0551625,0.5415));
#946=CARTESIAN_POINT('',(0.139514094365276,0.0551625,0.5415));
#947=CARTESIAN_POINT('',(0.147514094365276,-0.0551625,0.5415));
#948=CARTESIAN_POINT('',(0.139514094365276,-0.0546625,0.541));
#949=CARTESIAN_POINT('',(0.139514094365276,0.0531625,0.541));
#950=CARTESIAN_POINT('',(0.137514094365276,0.0531625,0.5415));
#951=CARTESIAN_POINT('',(0.139514094365276,-0.0531625,0.541));
#952=CARTESIAN_POINT('',(0.138014094365276,-0.0531625,0.541));
#953=CARTESIAN_POINT('',(0.137514094365276,0.,0.5415));
#954=CARTESIAN_POINT('',(0.147514094365276,-0.0451625,0.5415));
#955=CARTESIAN_POINT('',(0.147514094365276,0.0451625,0.5415));
#956=CARTESIAN_POINT('',(0.147514094365276,-0.0451625,0.553));
#957=CARTESIAN_POINT('',(0.147514094365276,0.0451625,0.553));
#958=CARTESIAN_POINT('',(0.197752719732194,0.0101625,0.629));
#959=CARTESIAN_POINT('',(0.147514094365276,-0.0101625,0.629));
#960=CARTESIAN_POINT('',(0.197752719732194,-0.0361625,0.553));
#961=CARTESIAN_POINT('',(0.147514094365276,0.0351625,0.554));
#962=MECHANICAL_DESIGN_GEOMETRIC_PRESENTATION_REPRESENTATION('',(#565),
#963);
#963=(
GEOMETRIC_REPRESENTATION_CONTEXT(3)
GLOBAL_UNCERTAINTY_ASSIGNED_CONTEXT((#964))
GLOBAL_UNIT_ASSIGNED_CONTEXT((#967,#966,#965))
REPRESENTATION_CONTEXT('Part 30','TOP_LEVEL_ASSEMBLY_PART')
);
#964=UNCERTAINTY_MEASURE_WITH_UNIT(LENGTH_MEASURE(1.E-8),#967,
'DISTANCE_ACCURACY_VALUE','Maximum Tolerance applied to model');
#965=(
NAMED_UNIT(*)
SI_UNIT($,.STERADIAN.)
SOLID_ANGLE_UNIT()
);
#966=(
NAMED_UNIT(*)
PLANE_ANGLE_UNIT()
SI_UNIT($,.RADIAN.)
);
#967=(
LENGTH_UNIT()
NAMED_UNIT(*)
SI_UNIT($,.METRE.)
);
#968=PRODUCT_DEFINITION_SHAPE('','',#969);
#969=PRODUCT_DEFINITION('','',#971,#970);
#970=PRODUCT_DEFINITION_CONTEXT('',#977,'design');
#971=PRODUCT_DEFINITION_FORMATION_WITH_SPECIFIED_SOURCE('','',#973,
 .NOT_KNOWN.);
#972=PRODUCT_RELATED_PRODUCT_CATEGORY('','',(#973));
#973=PRODUCT('Part 30','Part 30','Part 30',(#975));
#974=PRODUCT_CATEGORY('','');
#975=PRODUCT_CONTEXT('',#977,'mechanical');
#976=APPLICATION_PROTOCOL_DEFINITION('international standard',
'ap242_managed_model_based_3d_engineering',2020,#977);
#977=APPLICATION_CONTEXT('managed model based 3d engineering');
ENDSEC;
END-ISO-10303-21;
