ISO-10303-21;
HEADER;
/* Generated by software containing ST-Developer
 * from STEP Tools, Inc. (www.steptools.com) 
 */
/* OPTION: using custom renumber hook */

FILE_DESCRIPTION(
/* description */ ('STEP AP242 Edition 2',
'CAx-IF Rec.Pracs.---Representation and Presentation of Product Manufa
cturing Information (PMI)---4.0---2014-10-13',
'CAx-IF Rec.Pracs.---3D Tessellated Geometry---0.4---2014-09-14','2;1',
'CAx-IF Rec.Pracs.---User Defined Attributes---1.5---2016-08-15'),
/* implementation_level */ '2;1');

FILE_NAME(
/* name */ 'Part Studio 1 - Part 29',
/* time_stamp */ '2026-08-12T18:45:52Z',
/* author */ (''),
/* organization */ (''),
/* preprocessor_version */ 'ST-DEVELOPER v20',
/* originating_system */ 'ONSHAPE BY PTC INC, 1.219',
/* authorisation */ '  ');

FILE_SCHEMA (('AP242_MANAGED_MODEL_BASED_3D_ENGINEERING_MIM_LF { 1 0 10303 442 3 1 4 }'));
ENDSEC;

DATA;
#10=SHAPE_REPRESENTATION_RELATIONSHIP('','',#703,#11);
#11=ADVANCED_BREP_SHAPE_REPRESENTATION('',(#701),#1243);
#12=CONICAL_SURFACE('',#793,0.0005,0.78539816339739);
#13=CONICAL_SURFACE('',#794,0.000499999999999987,0.785398163397406);
#14=CONICAL_SURFACE('',#797,0.00049999999999999,0.785398163397402);
#15=CONICAL_SURFACE('',#798,0.0005,0.785398163397394);
#16=CONICAL_SURFACE('',#800,0.00325,0.785398163397504);
#17=CONICAL_SURFACE('',#801,0.00325,0.785398163397504);
#18=CONICAL_SURFACE('',#802,0.00275,0.7853981633975);
#19=CONICAL_SURFACE('',#803,0.00275,0.7853981633975);
#20=TOROIDAL_SURFACE('',#757,0.00535,0.001);
#21=TOROIDAL_SURFACE('',#761,0.00735,0.001);
#22=TOROIDAL_SURFACE('',#763,0.00975,0.001);
#23=TOROIDAL_SURFACE('',#765,0.00735,0.001);
#24=TOROIDAL_SURFACE('',#769,0.00535,0.001);
#25=TOROIDAL_SURFACE('',#776,0.00535,0.001);
#26=TOROIDAL_SURFACE('',#780,0.00735,0.001);
#27=TOROIDAL_SURFACE('',#782,0.00975,0.001);
#28=TOROIDAL_SURFACE('',#784,0.00735,0.001);
#29=TOROIDAL_SURFACE('',#788,0.00535,0.001);
#30=CYLINDRICAL_SURFACE('',#716,0.01075);
#31=CYLINDRICAL_SURFACE('',#721,0.00675);
#32=CYLINDRICAL_SURFACE('',#736,0.00635);
#33=CYLINDRICAL_SURFACE('',#739,0.00635);
#34=CYLINDRICAL_SURFACE('',#742,0.00635);
#35=CYLINDRICAL_SURFACE('',#745,0.00635);
#36=CYLINDRICAL_SURFACE('',#748,0.00275);
#37=CYLINDRICAL_SURFACE('',#751,0.00275);
#38=CYLINDRICAL_SURFACE('',#754,0.001);
#39=CYLINDRICAL_SURFACE('',#759,0.001);
#40=CYLINDRICAL_SURFACE('',#767,0.001);
#41=CYLINDRICAL_SURFACE('',#771,0.001);
#42=CYLINDRICAL_SURFACE('',#773,0.001);
#43=CYLINDRICAL_SURFACE('',#778,0.001);
#44=CYLINDRICAL_SURFACE('',#786,0.001);
#45=CYLINDRICAL_SURFACE('',#790,0.001);
#46=CIRCLE('',#707,0.0005);
#47=CIRCLE('',#708,0.00049999999999999);
#48=CIRCLE('',#709,0.0005);
#49=CIRCLE('',#710,0.000499999999999987);
#50=CIRCLE('',#711,0.00325);
#51=CIRCLE('',#712,0.00325);
#52=CIRCLE('',#715,0.00325);
#53=CIRCLE('',#717,0.01075);
#54=CIRCLE('',#718,0.01075);
#55=CIRCLE('',#720,0.00325);
#56=CIRCLE('',#722,0.00675);
#57=CIRCLE('',#723,0.00675);
#58=CIRCLE('',#725,0.00535);
#59=CIRCLE('',#726,0.00735);
#60=CIRCLE('',#727,0.00975);
#61=CIRCLE('',#728,0.00735);
#62=CIRCLE('',#729,0.00535);
#63=CIRCLE('',#731,0.00535);
#64=CIRCLE('',#732,0.00735);
#65=CIRCLE('',#733,0.00975);
#66=CIRCLE('',#734,0.00735);
#67=CIRCLE('',#735,0.00535);
#68=CIRCLE('',#737,0.00635);
#69=CIRCLE('',#738,0.00635);
#70=CIRCLE('',#740,0.00635);
#71=CIRCLE('',#741,0.00635);
#72=CIRCLE('',#743,0.00635);
#73=CIRCLE('',#744,0.00635);
#74=CIRCLE('',#746,0.00635);
#75=CIRCLE('',#747,0.00635);
#76=CIRCLE('',#749,0.00275);
#77=CIRCLE('',#750,0.00275);
#78=CIRCLE('',#752,0.00275);
#79=CIRCLE('',#753,0.00275);
#80=CIRCLE('',#755,0.001);
#81=CIRCLE('',#756,0.001);
#82=CIRCLE('',#758,0.001);
#83=CIRCLE('',#760,0.001);
#84=CIRCLE('',#762,0.001);
#85=CIRCLE('',#764,0.001);
#86=CIRCLE('',#766,0.001);
#87=CIRCLE('',#768,0.001);
#88=CIRCLE('',#770,0.001);
#89=CIRCLE('',#772,0.001);
#90=CIRCLE('',#774,0.001);
#91=CIRCLE('',#775,0.001);
#92=CIRCLE('',#777,0.001);
#93=CIRCLE('',#779,0.001);
#94=CIRCLE('',#781,0.001);
#95=CIRCLE('',#783,0.001);
#96=CIRCLE('',#785,0.001);
#97=CIRCLE('',#787,0.001);
#98=CIRCLE('',#789,0.001);
#99=CIRCLE('',#791,0.001);
#100=ORIENTED_EDGE('',*,*,#288,.T.);
#101=ORIENTED_EDGE('',*,*,#289,.T.);
#102=ORIENTED_EDGE('',*,*,#290,.T.);
#103=ORIENTED_EDGE('',*,*,#291,.T.);
#104=ORIENTED_EDGE('',*,*,#292,.T.);
#105=ORIENTED_EDGE('',*,*,#293,.T.);
#106=ORIENTED_EDGE('',*,*,#294,.T.);
#107=ORIENTED_EDGE('',*,*,#295,.T.);
#108=ORIENTED_EDGE('',*,*,#296,.T.);
#109=ORIENTED_EDGE('',*,*,#297,.T.);
#110=ORIENTED_EDGE('',*,*,#298,.T.);
#111=ORIENTED_EDGE('',*,*,#299,.T.);
#112=ORIENTED_EDGE('',*,*,#300,.T.);
#113=ORIENTED_EDGE('',*,*,#301,.T.);
#114=ORIENTED_EDGE('',*,*,#302,.T.);
#115=ORIENTED_EDGE('',*,*,#303,.T.);
#116=ORIENTED_EDGE('',*,*,#304,.T.);
#117=ORIENTED_EDGE('',*,*,#305,.T.);
#118=ORIENTED_EDGE('',*,*,#306,.T.);
#119=ORIENTED_EDGE('',*,*,#307,.T.);
#120=ORIENTED_EDGE('',*,*,#308,.T.);
#121=ORIENTED_EDGE('',*,*,#309,.T.);
#122=ORIENTED_EDGE('',*,*,#310,.T.);
#123=ORIENTED_EDGE('',*,*,#311,.T.);
#124=ORIENTED_EDGE('',*,*,#312,.T.);
#125=ORIENTED_EDGE('',*,*,#313,.T.);
#126=ORIENTED_EDGE('',*,*,#314,.T.);
#127=ORIENTED_EDGE('',*,*,#315,.T.);
#128=ORIENTED_EDGE('',*,*,#316,.T.);
#129=ORIENTED_EDGE('',*,*,#317,.T.);
#130=ORIENTED_EDGE('',*,*,#318,.T.);
#131=ORIENTED_EDGE('',*,*,#319,.T.);
#132=ORIENTED_EDGE('',*,*,#320,.T.);
#133=ORIENTED_EDGE('',*,*,#321,.F.);
#134=ORIENTED_EDGE('',*,*,#322,.T.);
#135=ORIENTED_EDGE('',*,*,#323,.T.);
#136=ORIENTED_EDGE('',*,*,#324,.T.);
#137=ORIENTED_EDGE('',*,*,#325,.T.);
#138=ORIENTED_EDGE('',*,*,#326,.T.);
#139=ORIENTED_EDGE('',*,*,#327,.T.);
#140=ORIENTED_EDGE('',*,*,#328,.T.);
#141=ORIENTED_EDGE('',*,*,#329,.T.);
#142=ORIENTED_EDGE('',*,*,#330,.T.);
#143=ORIENTED_EDGE('',*,*,#331,.T.);
#144=ORIENTED_EDGE('',*,*,#320,.F.);
#145=ORIENTED_EDGE('',*,*,#332,.T.);
#146=ORIENTED_EDGE('',*,*,#333,.T.);
#147=ORIENTED_EDGE('',*,*,#334,.T.);
#148=ORIENTED_EDGE('',*,*,#335,.T.);
#149=ORIENTED_EDGE('',*,*,#336,.T.);
#150=ORIENTED_EDGE('',*,*,#337,.T.);
#151=ORIENTED_EDGE('',*,*,#338,.T.);
#152=ORIENTED_EDGE('',*,*,#339,.T.);
#153=ORIENTED_EDGE('',*,*,#340,.T.);
#154=ORIENTED_EDGE('',*,*,#341,.T.);
#155=ORIENTED_EDGE('',*,*,#321,.T.);
#156=ORIENTED_EDGE('',*,*,#309,.F.);
#157=ORIENTED_EDGE('',*,*,#342,.T.);
#158=ORIENTED_EDGE('',*,*,#305,.F.);
#159=ORIENTED_EDGE('',*,*,#343,.T.);
#160=ORIENTED_EDGE('',*,*,#313,.F.);
#161=ORIENTED_EDGE('',*,*,#344,.T.);
#162=ORIENTED_EDGE('',*,*,#307,.F.);
#163=ORIENTED_EDGE('',*,*,#345,.T.);
#164=ORIENTED_EDGE('',*,*,#318,.F.);
#165=ORIENTED_EDGE('',*,*,#346,.T.);
#166=ORIENTED_EDGE('',*,*,#311,.F.);
#167=ORIENTED_EDGE('',*,*,#347,.T.);
#168=ORIENTED_EDGE('',*,*,#291,.F.);
#169=ORIENTED_EDGE('',*,*,#348,.T.);
#170=ORIENTED_EDGE('',*,*,#316,.F.);
#171=ORIENTED_EDGE('',*,*,#349,.T.);
#172=ORIENTED_EDGE('',*,*,#350,.T.);
#173=ORIENTED_EDGE('',*,*,#351,.T.);
#174=ORIENTED_EDGE('',*,*,#352,.T.);
#175=ORIENTED_EDGE('',*,*,#353,.T.);
#176=ORIENTED_EDGE('',*,*,#290,.F.);
#177=ORIENTED_EDGE('',*,*,#354,.T.);
#178=ORIENTED_EDGE('',*,*,#322,.F.);
#179=ORIENTED_EDGE('',*,*,#355,.F.);
#180=ORIENTED_EDGE('',*,*,#355,.T.);
#181=ORIENTED_EDGE('',*,*,#331,.F.);
#182=ORIENTED_EDGE('',*,*,#356,.F.);
#183=ORIENTED_EDGE('',*,*,#348,.F.);
#184=ORIENTED_EDGE('',*,*,#356,.T.);
#185=ORIENTED_EDGE('',*,*,#330,.F.);
#186=ORIENTED_EDGE('',*,*,#357,.F.);
#187=ORIENTED_EDGE('',*,*,#317,.F.);
#188=ORIENTED_EDGE('',*,*,#357,.T.);
#189=ORIENTED_EDGE('',*,*,#329,.F.);
#190=ORIENTED_EDGE('',*,*,#358,.F.);
#191=ORIENTED_EDGE('',*,*,#346,.F.);
#192=ORIENTED_EDGE('',*,*,#358,.T.);
#193=ORIENTED_EDGE('',*,*,#328,.F.);
#194=ORIENTED_EDGE('',*,*,#359,.F.);
#195=ORIENTED_EDGE('',*,*,#312,.F.);
#196=ORIENTED_EDGE('',*,*,#359,.T.);
#197=ORIENTED_EDGE('',*,*,#327,.F.);
#198=ORIENTED_EDGE('',*,*,#360,.F.);
#199=ORIENTED_EDGE('',*,*,#344,.F.);
#200=ORIENTED_EDGE('',*,*,#360,.T.);
#201=ORIENTED_EDGE('',*,*,#326,.F.);
#202=ORIENTED_EDGE('',*,*,#361,.F.);
#203=ORIENTED_EDGE('',*,*,#308,.F.);
#204=ORIENTED_EDGE('',*,*,#361,.T.);
#205=ORIENTED_EDGE('',*,*,#325,.F.);
#206=ORIENTED_EDGE('',*,*,#362,.F.);
#207=ORIENTED_EDGE('',*,*,#342,.F.);
#208=ORIENTED_EDGE('',*,*,#324,.F.);
#209=ORIENTED_EDGE('',*,*,#363,.T.);
#210=ORIENTED_EDGE('',*,*,#302,.F.);
#211=ORIENTED_EDGE('',*,*,#362,.T.);
#212=ORIENTED_EDGE('',*,*,#334,.F.);
#213=ORIENTED_EDGE('',*,*,#364,.T.);
#214=ORIENTED_EDGE('',*,*,#288,.F.);
#215=ORIENTED_EDGE('',*,*,#365,.F.);
#216=ORIENTED_EDGE('',*,*,#365,.T.);
#217=ORIENTED_EDGE('',*,*,#349,.F.);
#218=ORIENTED_EDGE('',*,*,#366,.F.);
#219=ORIENTED_EDGE('',*,*,#335,.F.);
#220=ORIENTED_EDGE('',*,*,#366,.T.);
#221=ORIENTED_EDGE('',*,*,#319,.F.);
#222=ORIENTED_EDGE('',*,*,#367,.F.);
#223=ORIENTED_EDGE('',*,*,#336,.F.);
#224=ORIENTED_EDGE('',*,*,#367,.T.);
#225=ORIENTED_EDGE('',*,*,#347,.F.);
#226=ORIENTED_EDGE('',*,*,#368,.F.);
#227=ORIENTED_EDGE('',*,*,#337,.F.);
#228=ORIENTED_EDGE('',*,*,#368,.T.);
#229=ORIENTED_EDGE('',*,*,#314,.F.);
#230=ORIENTED_EDGE('',*,*,#369,.F.);
#231=ORIENTED_EDGE('',*,*,#338,.F.);
#232=ORIENTED_EDGE('',*,*,#369,.T.);
#233=ORIENTED_EDGE('',*,*,#345,.F.);
#234=ORIENTED_EDGE('',*,*,#370,.F.);
#235=ORIENTED_EDGE('',*,*,#339,.F.);
#236=ORIENTED_EDGE('',*,*,#370,.T.);
#237=ORIENTED_EDGE('',*,*,#310,.F.);
#238=ORIENTED_EDGE('',*,*,#371,.F.);
#239=ORIENTED_EDGE('',*,*,#340,.F.);
#240=ORIENTED_EDGE('',*,*,#371,.T.);
#241=ORIENTED_EDGE('',*,*,#343,.F.);
#242=ORIENTED_EDGE('',*,*,#372,.F.);
#243=ORIENTED_EDGE('',*,*,#341,.F.);
#244=ORIENTED_EDGE('',*,*,#304,.F.);
#245=ORIENTED_EDGE('',*,*,#373,.T.);
#246=ORIENTED_EDGE('',*,*,#332,.F.);
#247=ORIENTED_EDGE('',*,*,#372,.T.);
#248=ORIENTED_EDGE('',*,*,#374,.F.);
#249=ORIENTED_EDGE('',*,*,#297,.F.);
#250=ORIENTED_EDGE('',*,*,#375,.F.);
#251=ORIENTED_EDGE('',*,*,#333,.F.);
#252=ORIENTED_EDGE('',*,*,#375,.T.);
#253=ORIENTED_EDGE('',*,*,#296,.F.);
#254=ORIENTED_EDGE('',*,*,#376,.F.);
#255=ORIENTED_EDGE('',*,*,#364,.F.);
#256=ORIENTED_EDGE('',*,*,#374,.T.);
#257=ORIENTED_EDGE('',*,*,#373,.F.);
#258=ORIENTED_EDGE('',*,*,#377,.F.);
#259=ORIENTED_EDGE('',*,*,#298,.F.);
#260=ORIENTED_EDGE('',*,*,#376,.T.);
#261=ORIENTED_EDGE('',*,*,#295,.F.);
#262=ORIENTED_EDGE('',*,*,#378,.F.);
#263=ORIENTED_EDGE('',*,*,#289,.F.);
#264=ORIENTED_EDGE('',*,*,#377,.T.);
#265=ORIENTED_EDGE('',*,*,#303,.F.);
#266=ORIENTED_EDGE('',*,*,#379,.F.);
#267=ORIENTED_EDGE('',*,*,#299,.F.);
#268=ORIENTED_EDGE('',*,*,#378,.T.);
#269=ORIENTED_EDGE('',*,*,#294,.F.);
#270=ORIENTED_EDGE('',*,*,#380,.F.);
#271=ORIENTED_EDGE('',*,*,#354,.F.);
#272=ORIENTED_EDGE('',*,*,#379,.T.);
#273=ORIENTED_EDGE('',*,*,#363,.F.);
#274=ORIENTED_EDGE('',*,*,#381,.F.);
#275=ORIENTED_EDGE('',*,*,#292,.F.);
#276=ORIENTED_EDGE('',*,*,#380,.T.);
#277=ORIENTED_EDGE('',*,*,#293,.F.);
#278=ORIENTED_EDGE('',*,*,#381,.T.);
#279=ORIENTED_EDGE('',*,*,#323,.F.);
#280=ORIENTED_EDGE('',*,*,#352,.F.);
#281=ORIENTED_EDGE('',*,*,#306,.F.);
#282=ORIENTED_EDGE('',*,*,#350,.F.);
#283=ORIENTED_EDGE('',*,*,#315,.F.);
#284=ORIENTED_EDGE('',*,*,#300,.F.);
#285=ORIENTED_EDGE('',*,*,#353,.F.);
#286=ORIENTED_EDGE('',*,*,#301,.F.);
#287=ORIENTED_EDGE('',*,*,#351,.F.);
#288=EDGE_CURVE('',#382,#383,#440,.T.);
#289=EDGE_CURVE('',#383,#384,#441,.T.);
#290=EDGE_CURVE('',#384,#385,#442,.F.);
#291=EDGE_CURVE('',#385,#382,#443,.T.);
#292=EDGE_CURVE('',#386,#387,#46,.F.);
#293=EDGE_CURVE('',#387,#388,#444,.T.);
#294=EDGE_CURVE('',#388,#389,#47,.F.);
#295=EDGE_CURVE('',#389,#390,#445,.T.);
#296=EDGE_CURVE('',#390,#391,#48,.F.);
#297=EDGE_CURVE('',#391,#392,#446,.T.);
#298=EDGE_CURVE('',#392,#393,#49,.F.);
#299=EDGE_CURVE('',#393,#386,#447,.T.);
#300=EDGE_CURVE('',#394,#394,#50,.T.);
#301=EDGE_CURVE('',#395,#395,#51,.T.);
#302=EDGE_CURVE('',#396,#397,#448,.T.);
#303=EDGE_CURVE('',#397,#398,#449,.T.);
#304=EDGE_CURVE('',#398,#399,#450,.F.);
#305=EDGE_CURVE('',#399,#396,#451,.F.);
#306=EDGE_CURVE('',#400,#400,#52,.F.);
#307=EDGE_CURVE('',#401,#402,#452,.F.);
#308=EDGE_CURVE('',#402,#403,#453,.T.);
#309=EDGE_CURVE('',#403,#404,#454,.T.);
#310=EDGE_CURVE('',#404,#401,#455,.F.);
#311=EDGE_CURVE('',#405,#406,#456,.F.);
#312=EDGE_CURVE('',#406,#407,#53,.F.);
#313=EDGE_CURVE('',#407,#408,#457,.T.);
#314=EDGE_CURVE('',#408,#405,#54,.T.);
#315=EDGE_CURVE('',#409,#409,#55,.T.);
#316=EDGE_CURVE('',#410,#411,#458,.F.);
#317=EDGE_CURVE('',#411,#412,#459,.F.);
#318=EDGE_CURVE('',#412,#413,#460,.F.);
#319=EDGE_CURVE('',#413,#410,#461,.T.);
#320=EDGE_CURVE('',#414,#414,#56,.T.);
#321=EDGE_CURVE('',#415,#415,#57,.T.);
#322=EDGE_CURVE('',#416,#417,#462,.T.);
#323=EDGE_CURVE('',#417,#418,#463,.T.);
#324=EDGE_CURVE('',#418,#419,#464,.F.);
#325=EDGE_CURVE('',#419,#420,#58,.T.);
#326=EDGE_CURVE('',#420,#421,#465,.F.);
#327=EDGE_CURVE('',#421,#422,#59,.F.);
#328=EDGE_CURVE('',#422,#423,#60,.T.);
#329=EDGE_CURVE('',#423,#424,#61,.F.);
#330=EDGE_CURVE('',#424,#425,#466,.T.);
#331=EDGE_CURVE('',#425,#416,#62,.T.);
#332=EDGE_CURVE('',#426,#427,#467,.T.);
#333=EDGE_CURVE('',#427,#428,#468,.T.);
#334=EDGE_CURVE('',#428,#429,#469,.F.);
#335=EDGE_CURVE('',#429,#430,#63,.F.);
#336=EDGE_CURVE('',#430,#431,#470,.F.);
#337=EDGE_CURVE('',#431,#432,#64,.T.);
#338=EDGE_CURVE('',#432,#433,#65,.F.);
#339=EDGE_CURVE('',#433,#434,#66,.T.);
#340=EDGE_CURVE('',#434,#435,#471,.T.);
#341=EDGE_CURVE('',#435,#426,#67,.F.);
#342=EDGE_CURVE('',#403,#396,#68,.F.);
#343=EDGE_CURVE('',#399,#404,#69,.T.);
#344=EDGE_CURVE('',#407,#402,#70,.T.);
#345=EDGE_CURVE('',#401,#408,#71,.F.);
#346=EDGE_CURVE('',#412,#406,#72,.T.);
#347=EDGE_CURVE('',#405,#413,#73,.F.);
#348=EDGE_CURVE('',#385,#411,#74,.F.);
#349=EDGE_CURVE('',#410,#382,#75,.T.);
#350=EDGE_CURVE('',#436,#436,#76,.F.);
#351=EDGE_CURVE('',#437,#437,#77,.F.);
#352=EDGE_CURVE('',#438,#438,#78,.T.);
#353=EDGE_CURVE('',#439,#439,#79,.F.);
#354=EDGE_CURVE('',#384,#417,#80,.T.);
#355=EDGE_CURVE('',#385,#416,#81,.T.);
#356=EDGE_CURVE('',#411,#425,#82,.T.);
#357=EDGE_CURVE('',#412,#424,#83,.T.);
#358=EDGE_CURVE('',#406,#423,#84,.T.);
#359=EDGE_CURVE('',#407,#422,#85,.T.);
#360=EDGE_CURVE('',#402,#421,#86,.T.);
#361=EDGE_CURVE('',#403,#420,#87,.T.);
#362=EDGE_CURVE('',#396,#419,#88,.T.);
#363=EDGE_CURVE('',#418,#397,#89,.T.);
#364=EDGE_CURVE('',#428,#383,#90,.T.);
#365=EDGE_CURVE('',#429,#382,#91,.T.);
#366=EDGE_CURVE('',#430,#410,#92,.T.);
#367=EDGE_CURVE('',#431,#413,#93,.T.);
#368=EDGE_CURVE('',#432,#405,#94,.T.);
#369=EDGE_CURVE('',#433,#408,#95,.T.);
#370=EDGE_CURVE('',#434,#401,#96,.T.);
#371=EDGE_CURVE('',#435,#404,#97,.T.);
#372=EDGE_CURVE('',#426,#399,#98,.T.);
#373=EDGE_CURVE('',#398,#427,#99,.T.);
#374=EDGE_CURVE('',#392,#427,#472,.T.);
#375=EDGE_CURVE('',#428,#391,#473,.T.);
#376=EDGE_CURVE('',#383,#390,#474,.T.);
#377=EDGE_CURVE('',#393,#398,#475,.T.);
#378=EDGE_CURVE('',#384,#389,#476,.T.);
#379=EDGE_CURVE('',#386,#397,#477,.T.);
#380=EDGE_CURVE('',#417,#388,#478,.T.);
#381=EDGE_CURVE('',#387,#418,#479,.T.);
#382=VERTEX_POINT('',#1047);
#383=VERTEX_POINT('',#1048);
#384=VERTEX_POINT('',#1050);
#385=VERTEX_POINT('',#1052);
#386=VERTEX_POINT('',#1056);
#387=VERTEX_POINT('',#1057);
#388=VERTEX_POINT('',#1059);
#389=VERTEX_POINT('',#1061);
#390=VERTEX_POINT('',#1063);
#391=VERTEX_POINT('',#1065);
#392=VERTEX_POINT('',#1067);
#393=VERTEX_POINT('',#1069);
#394=VERTEX_POINT('',#1072);
#395=VERTEX_POINT('',#1074);
#396=VERTEX_POINT('',#1077);
#397=VERTEX_POINT('',#1078);
#398=VERTEX_POINT('',#1080);
#399=VERTEX_POINT('',#1082);
#400=VERTEX_POINT('',#1086);
#401=VERTEX_POINT('',#1088);
#402=VERTEX_POINT('',#1089);
#403=VERTEX_POINT('',#1091);
#404=VERTEX_POINT('',#1093);
#405=VERTEX_POINT('',#1097);
#406=VERTEX_POINT('',#1098);
#407=VERTEX_POINT('',#1100);
#408=VERTEX_POINT('',#1102);
#409=VERTEX_POINT('',#1106);
#410=VERTEX_POINT('',#1108);
#411=VERTEX_POINT('',#1109);
#412=VERTEX_POINT('',#1111);
#413=VERTEX_POINT('',#1113);
#414=VERTEX_POINT('',#1117);
#415=VERTEX_POINT('',#1119);
#416=VERTEX_POINT('',#1122);
#417=VERTEX_POINT('',#1123);
#418=VERTEX_POINT('',#1125);
#419=VERTEX_POINT('',#1127);
#420=VERTEX_POINT('',#1129);
#421=VERTEX_POINT('',#1131);
#422=VERTEX_POINT('',#1133);
#423=VERTEX_POINT('',#1135);
#424=VERTEX_POINT('',#1137);
#425=VERTEX_POINT('',#1139);
#426=VERTEX_POINT('',#1143);
#427=VERTEX_POINT('',#1144);
#428=VERTEX_POINT('',#1146);
#429=VERTEX_POINT('',#1148);
#430=VERTEX_POINT('',#1150);
#431=VERTEX_POINT('',#1152);
#432=VERTEX_POINT('',#1154);
#433=VERTEX_POINT('',#1156);
#434=VERTEX_POINT('',#1158);
#435=VERTEX_POINT('',#1160);
#436=VERTEX_POINT('',#1176);
#437=VERTEX_POINT('',#1178);
#438=VERTEX_POINT('',#1181);
#439=VERTEX_POINT('',#1183);
#440=LINE('',#1046,#480);
#441=LINE('',#1049,#481);
#442=LINE('',#1051,#482);
#443=LINE('',#1053,#483);
#444=LINE('',#1058,#484);
#445=LINE('',#1062,#485);
#446=LINE('',#1066,#486);
#447=LINE('',#1070,#487);
#448=LINE('',#1076,#488);
#449=LINE('',#1079,#489);
#450=LINE('',#1081,#490);
#451=LINE('',#1083,#491);
#452=LINE('',#1087,#492);
#453=LINE('',#1090,#493);
#454=LINE('',#1092,#494);
#455=LINE('',#1094,#495);
#456=LINE('',#1096,#496);
#457=LINE('',#1101,#497);
#458=LINE('',#1107,#498);
#459=LINE('',#1110,#499);
#460=LINE('',#1112,#500);
#461=LINE('',#1114,#501);
#462=LINE('',#1121,#502);
#463=LINE('',#1124,#503);
#464=LINE('',#1126,#504);
#465=LINE('',#1130,#505);
#466=LINE('',#1138,#506);
#467=LINE('',#1142,#507);
#468=LINE('',#1145,#508);
#469=LINE('',#1147,#509);
#470=LINE('',#1151,#510);
#471=LINE('',#1159,#511);
#472=LINE('',#1223,#512);
#473=LINE('',#1224,#513);
#474=LINE('',#1226,#514);
#475=LINE('',#1228,#515);
#476=LINE('',#1230,#516);
#477=LINE('',#1232,#517);
#478=LINE('',#1234,#518);
#479=LINE('',#1236,#519);
#480=VECTOR('',#808,1.);
#481=VECTOR('',#809,1.);
#482=VECTOR('',#810,1.);
#483=VECTOR('',#811,1.);
#484=VECTOR('',#816,1.);
#485=VECTOR('',#819,1.);
#486=VECTOR('',#822,1.);
#487=VECTOR('',#825,1.);
#488=VECTOR('',#832,1.);
#489=VECTOR('',#833,1.);
#490=VECTOR('',#834,1.);
#491=VECTOR('',#835,1.);
#492=VECTOR('',#840,1.);
#493=VECTOR('',#841,1.);
#494=VECTOR('',#842,1.);
#495=VECTOR('',#843,1.);
#496=VECTOR('',#846,1.);
#497=VECTOR('',#849,1.);
#498=VECTOR('',#856,1.);
#499=VECTOR('',#857,1.);
#500=VECTOR('',#858,1.);
#501=VECTOR('',#859,1.);
#502=VECTOR('',#868,1.);
#503=VECTOR('',#869,1.);
#504=VECTOR('',#870,1.);
#505=VECTOR('',#873,1.);
#506=VECTOR('',#880,1.);
#507=VECTOR('',#885,1.);
#508=VECTOR('',#886,1.);
#509=VECTOR('',#887,1.);
#510=VECTOR('',#890,1.);
#511=VECTOR('',#897,1.);
#512=VECTOR('',#1014,1.);
#513=VECTOR('',#1015,1.);
#514=VECTOR('',#1018,1.);
#515=VECTOR('',#1021,1.);
#516=VECTOR('',#1024,1.);
#517=VECTOR('',#1027,1.);
#518=VECTOR('',#1030,1.);
#519=VECTOR('',#1033,1.);
#520=EDGE_LOOP('',(#100,#101,#102,#103));
#521=EDGE_LOOP('',(#104,#105,#106,#107,#108,#109,#110,#111));
#522=EDGE_LOOP('',(#112));
#523=EDGE_LOOP('',(#113));
#524=EDGE_LOOP('',(#114,#115,#116,#117));
#525=EDGE_LOOP('',(#118));
#526=EDGE_LOOP('',(#119,#120,#121,#122));
#527=EDGE_LOOP('',(#123,#124,#125,#126));
#528=EDGE_LOOP('',(#127));
#529=EDGE_LOOP('',(#128,#129,#130,#131));
#530=EDGE_LOOP('',(#132));
#531=EDGE_LOOP('',(#133));
#532=EDGE_LOOP('',(#134,#135,#136,#137,#138,#139,#140,#141,#142,#143));
#533=EDGE_LOOP('',(#144));
#534=EDGE_LOOP('',(#145,#146,#147,#148,#149,#150,#151,#152,#153,#154));
#535=EDGE_LOOP('',(#155));
#536=EDGE_LOOP('',(#156,#157,#158,#159));
#537=EDGE_LOOP('',(#160,#161,#162,#163));
#538=EDGE_LOOP('',(#164,#165,#166,#167));
#539=EDGE_LOOP('',(#168,#169,#170,#171));
#540=EDGE_LOOP('',(#172));
#541=EDGE_LOOP('',(#173));
#542=EDGE_LOOP('',(#174));
#543=EDGE_LOOP('',(#175));
#544=EDGE_LOOP('',(#176,#177,#178,#179));
#545=EDGE_LOOP('',(#180,#181,#182,#183));
#546=EDGE_LOOP('',(#184,#185,#186,#187));
#547=EDGE_LOOP('',(#188,#189,#190,#191));
#548=EDGE_LOOP('',(#192,#193,#194,#195));
#549=EDGE_LOOP('',(#196,#197,#198,#199));
#550=EDGE_LOOP('',(#200,#201,#202,#203));
#551=EDGE_LOOP('',(#204,#205,#206,#207));
#552=EDGE_LOOP('',(#208,#209,#210,#211));
#553=EDGE_LOOP('',(#212,#213,#214,#215));
#554=EDGE_LOOP('',(#216,#217,#218,#219));
#555=EDGE_LOOP('',(#220,#221,#222,#223));
#556=EDGE_LOOP('',(#224,#225,#226,#227));
#557=EDGE_LOOP('',(#228,#229,#230,#231));
#558=EDGE_LOOP('',(#232,#233,#234,#235));
#559=EDGE_LOOP('',(#236,#237,#238,#239));
#560=EDGE_LOOP('',(#240,#241,#242,#243));
#561=EDGE_LOOP('',(#244,#245,#246,#247));
#562=EDGE_LOOP('',(#248,#249,#250,#251));
#563=EDGE_LOOP('',(#252,#253,#254,#255));
#564=EDGE_LOOP('',(#256,#257,#258,#259));
#565=EDGE_LOOP('',(#260,#261,#262,#263));
#566=EDGE_LOOP('',(#264,#265,#266,#267));
#567=EDGE_LOOP('',(#268,#269,#270,#271));
#568=EDGE_LOOP('',(#272,#273,#274,#275));
#569=EDGE_LOOP('',(#276,#277,#278,#279));
#570=EDGE_LOOP('',(#280));
#571=EDGE_LOOP('',(#281));
#572=EDGE_LOOP('',(#282));
#573=EDGE_LOOP('',(#283));
#574=EDGE_LOOP('',(#284));
#575=EDGE_LOOP('',(#285));
#576=EDGE_LOOP('',(#286));
#577=EDGE_LOOP('',(#287));
#578=FACE_BOUND('',#520,.T.);
#579=FACE_BOUND('',#521,.T.);
#580=FACE_BOUND('',#522,.T.);
#581=FACE_BOUND('',#523,.T.);
#582=FACE_BOUND('',#524,.T.);
#583=FACE_BOUND('',#525,.T.);
#584=FACE_BOUND('',#526,.T.);
#585=FACE_BOUND('',#527,.T.);
#586=FACE_BOUND('',#528,.T.);
#587=FACE_BOUND('',#529,.T.);
#588=FACE_BOUND('',#530,.T.);
#589=FACE_BOUND('',#531,.T.);
#590=FACE_BOUND('',#532,.T.);
#591=FACE_BOUND('',#533,.T.);
#592=FACE_BOUND('',#534,.T.);
#593=FACE_BOUND('',#535,.T.);
#594=FACE_BOUND('',#536,.T.);
#595=FACE_BOUND('',#537,.T.);
#596=FACE_BOUND('',#538,.T.);
#597=FACE_BOUND('',#539,.T.);
#598=FACE_BOUND('',#540,.T.);
#599=FACE_BOUND('',#541,.T.);
#600=FACE_BOUND('',#542,.T.);
#601=FACE_BOUND('',#543,.T.);
#602=FACE_BOUND('',#544,.T.);
#603=FACE_BOUND('',#545,.T.);
#604=FACE_BOUND('',#546,.T.);
#605=FACE_BOUND('',#547,.T.);
#606=FACE_BOUND('',#548,.T.);
#607=FACE_BOUND('',#549,.T.);
#608=FACE_BOUND('',#550,.T.);
#609=FACE_BOUND('',#551,.T.);
#610=FACE_BOUND('',#552,.T.);
#611=FACE_BOUND('',#553,.T.);
#612=FACE_BOUND('',#554,.T.);
#613=FACE_BOUND('',#555,.T.);
#614=FACE_BOUND('',#556,.T.);
#615=FACE_BOUND('',#557,.T.);
#616=FACE_BOUND('',#558,.T.);
#617=FACE_BOUND('',#559,.T.);
#618=FACE_BOUND('',#560,.T.);
#619=FACE_BOUND('',#561,.T.);
#620=FACE_BOUND('',#562,.T.);
#621=FACE_BOUND('',#563,.T.);
#622=FACE_BOUND('',#564,.T.);
#623=FACE_BOUND('',#565,.T.);
#624=FACE_BOUND('',#566,.T.);
#625=FACE_BOUND('',#567,.T.);
#626=FACE_BOUND('',#568,.T.);
#627=FACE_BOUND('',#569,.T.);
#628=FACE_BOUND('',#570,.T.);
#629=FACE_BOUND('',#571,.T.);
#630=FACE_BOUND('',#572,.T.);
#631=FACE_BOUND('',#573,.T.);
#632=FACE_BOUND('',#574,.T.);
#633=FACE_BOUND('',#575,.T.);
#634=FACE_BOUND('',#576,.T.);
#635=FACE_BOUND('',#577,.T.);
#636=PLANE('',#705);
#637=PLANE('',#706);
#638=PLANE('',#713);
#639=PLANE('',#714);
#640=PLANE('',#719);
#641=PLANE('',#724);
#642=PLANE('',#730);
#643=PLANE('',#792);
#644=PLANE('',#795);
#645=PLANE('',#796);
#646=PLANE('',#799);
#647=ADVANCED_FACE('',(#578),#636,.F.);
#648=ADVANCED_FACE('',(#579,#580,#581),#637,.F.);
#649=ADVANCED_FACE('',(#582),#638,.T.);
#650=ADVANCED_FACE('',(#583,#584),#639,.T.);
#651=ADVANCED_FACE('',(#585),#30,.T.);
#652=ADVANCED_FACE('',(#586,#587),#640,.F.);
#653=ADVANCED_FACE('',(#588,#589),#31,.F.);
#654=ADVANCED_FACE('',(#590,#591),#641,.T.);
#655=ADVANCED_FACE('',(#592,#593),#642,.F.);
#656=ADVANCED_FACE('',(#594),#32,.T.);
#657=ADVANCED_FACE('',(#595),#33,.F.);
#658=ADVANCED_FACE('',(#596),#34,.F.);
#659=ADVANCED_FACE('',(#597),#35,.T.);
#660=ADVANCED_FACE('',(#598,#599),#36,.F.);
#661=ADVANCED_FACE('',(#600,#601),#37,.F.);
#662=ADVANCED_FACE('',(#602),#38,.T.);
#663=ADVANCED_FACE('',(#603),#20,.T.);
#664=ADVANCED_FACE('',(#604),#39,.T.);
#665=ADVANCED_FACE('',(#605),#21,.T.);
#666=ADVANCED_FACE('',(#606),#22,.T.);
#667=ADVANCED_FACE('',(#607),#23,.T.);
#668=ADVANCED_FACE('',(#608),#40,.T.);
#669=ADVANCED_FACE('',(#609),#24,.T.);
#670=ADVANCED_FACE('',(#610),#41,.T.);
#671=ADVANCED_FACE('',(#611),#42,.T.);
#672=ADVANCED_FACE('',(#612),#25,.T.);
#673=ADVANCED_FACE('',(#613),#43,.T.);
#674=ADVANCED_FACE('',(#614),#26,.T.);
#675=ADVANCED_FACE('',(#615),#27,.T.);
#676=ADVANCED_FACE('',(#616),#28,.T.);
#677=ADVANCED_FACE('',(#617),#44,.T.);
#678=ADVANCED_FACE('',(#618),#29,.T.);
#679=ADVANCED_FACE('',(#619),#45,.T.);
#680=ADVANCED_FACE('',(#620),#643,.F.);
#681=ADVANCED_FACE('',(#621),#12,.T.);
#682=ADVANCED_FACE('',(#622),#13,.T.);
#683=ADVANCED_FACE('',(#623),#644,.F.);
#684=ADVANCED_FACE('',(#624),#645,.T.);
#685=ADVANCED_FACE('',(#625),#14,.T.);
#686=ADVANCED_FACE('',(#626),#15,.T.);
#687=ADVANCED_FACE('',(#627),#646,.T.);
#688=ADVANCED_FACE('',(#628,#629),#16,.F.);
#689=ADVANCED_FACE('',(#630,#631),#17,.F.);
#690=ADVANCED_FACE('',(#632,#633),#18,.F.);
#691=ADVANCED_FACE('',(#634,#635),#19,.F.);
#692=CLOSED_SHELL('',(#647,#648,#649,#650,#651,#652,#653,#654,#655,#656,
#657,#658,#659,#660,#661,#662,#663,#664,#665,#666,#667,#668,#669,#670,#671,
#672,#673,#674,#675,#676,#677,#678,#679,#680,#681,#682,#683,#684,#685,#686,
#687,#688,#689,#690,#691));
#693=STYLED_ITEM('',(#694),#701);
#694=PRESENTATION_STYLE_ASSIGNMENT((#695));
#695=SURFACE_STYLE_USAGE(.BOTH.,#696);
#696=SURFACE_SIDE_STYLE('',(#697));
#697=SURFACE_STYLE_FILL_AREA(#698);
#698=FILL_AREA_STYLE('',(#699));
#699=FILL_AREA_STYLE_COLOUR('',#700);
#700=COLOUR_RGB('',0.917647058823529,0.917647058823529,0.917647058823529);
#701=MANIFOLD_SOLID_BREP('Part 29',#692);
#702=SHAPE_DEFINITION_REPRESENTATION(#1248,#703);
#703=SHAPE_REPRESENTATION('Part 29',(#704),#1243);
#704=AXIS2_PLACEMENT_3D('',#1044,#804,#805);
#705=AXIS2_PLACEMENT_3D('',#1045,#806,#807);
#706=AXIS2_PLACEMENT_3D('',#1054,#812,#813);
#707=AXIS2_PLACEMENT_3D('',#1055,#814,#815);
#708=AXIS2_PLACEMENT_3D('',#1060,#817,#818);
#709=AXIS2_PLACEMENT_3D('',#1064,#820,#821);
#710=AXIS2_PLACEMENT_3D('',#1068,#823,#824);
#711=AXIS2_PLACEMENT_3D('',#1071,#826,#827);
#712=AXIS2_PLACEMENT_3D('',#1073,#828,#829);
#713=AXIS2_PLACEMENT_3D('',#1075,#830,#831);
#714=AXIS2_PLACEMENT_3D('',#1084,#836,#837);
#715=AXIS2_PLACEMENT_3D('',#1085,#838,#839);
#716=AXIS2_PLACEMENT_3D('',#1095,#844,#845);
#717=AXIS2_PLACEMENT_3D('',#1099,#847,#848);
#718=AXIS2_PLACEMENT_3D('',#1103,#850,#851);
#719=AXIS2_PLACEMENT_3D('',#1104,#852,#853);
#720=AXIS2_PLACEMENT_3D('',#1105,#854,#855);
#721=AXIS2_PLACEMENT_3D('',#1115,#860,#861);
#722=AXIS2_PLACEMENT_3D('',#1116,#862,#863);
#723=AXIS2_PLACEMENT_3D('',#1118,#864,#865);
#724=AXIS2_PLACEMENT_3D('',#1120,#866,#867);
#725=AXIS2_PLACEMENT_3D('',#1128,#871,#872);
#726=AXIS2_PLACEMENT_3D('',#1132,#874,#875);
#727=AXIS2_PLACEMENT_3D('',#1134,#876,#877);
#728=AXIS2_PLACEMENT_3D('',#1136,#878,#879);
#729=AXIS2_PLACEMENT_3D('',#1140,#881,#882);
#730=AXIS2_PLACEMENT_3D('',#1141,#883,#884);
#731=AXIS2_PLACEMENT_3D('',#1149,#888,#889);
#732=AXIS2_PLACEMENT_3D('',#1153,#891,#892);
#733=AXIS2_PLACEMENT_3D('',#1155,#893,#894);
#734=AXIS2_PLACEMENT_3D('',#1157,#895,#896);
#735=AXIS2_PLACEMENT_3D('',#1161,#898,#899);
#736=AXIS2_PLACEMENT_3D('',#1162,#900,#901);
#737=AXIS2_PLACEMENT_3D('',#1163,#902,#903);
#738=AXIS2_PLACEMENT_3D('',#1164,#904,#905);
#739=AXIS2_PLACEMENT_3D('',#1165,#906,#907);
#740=AXIS2_PLACEMENT_3D('',#1166,#908,#909);
#741=AXIS2_PLACEMENT_3D('',#1167,#910,#911);
#742=AXIS2_PLACEMENT_3D('',#1168,#912,#913);
#743=AXIS2_PLACEMENT_3D('',#1169,#914,#915);
#744=AXIS2_PLACEMENT_3D('',#1170,#916,#917);
#745=AXIS2_PLACEMENT_3D('',#1171,#918,#919);
#746=AXIS2_PLACEMENT_3D('',#1172,#920,#921);
#747=AXIS2_PLACEMENT_3D('',#1173,#922,#923);
#748=AXIS2_PLACEMENT_3D('',#1174,#924,#925);
#749=AXIS2_PLACEMENT_3D('',#1175,#926,#927);
#750=AXIS2_PLACEMENT_3D('',#1177,#928,#929);
#751=AXIS2_PLACEMENT_3D('',#1179,#930,#931);
#752=AXIS2_PLACEMENT_3D('',#1180,#932,#933);
#753=AXIS2_PLACEMENT_3D('',#1182,#934,#935);
#754=AXIS2_PLACEMENT_3D('',#1184,#936,#937);
#755=AXIS2_PLACEMENT_3D('',#1185,#938,#939);
#756=AXIS2_PLACEMENT_3D('',#1186,#940,#941);
#757=AXIS2_PLACEMENT_3D('',#1187,#942,#943);
#758=AXIS2_PLACEMENT_3D('',#1188,#944,#945);
#759=AXIS2_PLACEMENT_3D('',#1189,#946,#947);
#760=AXIS2_PLACEMENT_3D('',#1190,#948,#949);
#761=AXIS2_PLACEMENT_3D('',#1191,#950,#951);
#762=AXIS2_PLACEMENT_3D('',#1192,#952,#953);
#763=AXIS2_PLACEMENT_3D('',#1193,#954,#955);
#764=AXIS2_PLACEMENT_3D('',#1194,#956,#957);
#765=AXIS2_PLACEMENT_3D('',#1195,#958,#959);
#766=AXIS2_PLACEMENT_3D('',#1196,#960,#961);
#767=AXIS2_PLACEMENT_3D('',#1197,#962,#963);
#768=AXIS2_PLACEMENT_3D('',#1198,#964,#965);
#769=AXIS2_PLACEMENT_3D('',#1199,#966,#967);
#770=AXIS2_PLACEMENT_3D('',#1200,#968,#969);
#771=AXIS2_PLACEMENT_3D('',#1201,#970,#971);
#772=AXIS2_PLACEMENT_3D('',#1202,#972,#973);
#773=AXIS2_PLACEMENT_3D('',#1203,#974,#975);
#774=AXIS2_PLACEMENT_3D('',#1204,#976,#977);
#775=AXIS2_PLACEMENT_3D('',#1205,#978,#979);
#776=AXIS2_PLACEMENT_3D('',#1206,#980,#981);
#777=AXIS2_PLACEMENT_3D('',#1207,#982,#983);
#778=AXIS2_PLACEMENT_3D('',#1208,#984,#985);
#779=AXIS2_PLACEMENT_3D('',#1209,#986,#987);
#780=AXIS2_PLACEMENT_3D('',#1210,#988,#989);
#781=AXIS2_PLACEMENT_3D('',#1211,#990,#991);
#782=AXIS2_PLACEMENT_3D('',#1212,#992,#993);
#783=AXIS2_PLACEMENT_3D('',#1213,#994,#995);
#784=AXIS2_PLACEMENT_3D('',#1214,#996,#997);
#785=AXIS2_PLACEMENT_3D('',#1215,#998,#999);
#786=AXIS2_PLACEMENT_3D('',#1216,#1000,#1001);
#787=AXIS2_PLACEMENT_3D('',#1217,#1002,#1003);
#788=AXIS2_PLACEMENT_3D('',#1218,#1004,#1005);
#789=AXIS2_PLACEMENT_3D('',#1219,#1006,#1007);
#790=AXIS2_PLACEMENT_3D('',#1220,#1008,#1009);
#791=AXIS2_PLACEMENT_3D('',#1221,#1010,#1011);
#792=AXIS2_PLACEMENT_3D('',#1222,#1012,#1013);
#793=AXIS2_PLACEMENT_3D('',#1225,#1016,#1017);
#794=AXIS2_PLACEMENT_3D('',#1227,#1019,#1020);
#795=AXIS2_PLACEMENT_3D('',#1229,#1022,#1023);
#796=AXIS2_PLACEMENT_3D('',#1231,#1025,#1026);
#797=AXIS2_PLACEMENT_3D('',#1233,#1028,#1029);
#798=AXIS2_PLACEMENT_3D('',#1235,#1031,#1032);
#799=AXIS2_PLACEMENT_3D('',#1237,#1034,#1035);
#800=AXIS2_PLACEMENT_3D('',#1238,#1036,#1037);
#801=AXIS2_PLACEMENT_3D('',#1239,#1038,#1039);
#802=AXIS2_PLACEMENT_3D('',#1240,#1040,#1041);
#803=AXIS2_PLACEMENT_3D('',#1241,#1042,#1043);
#804=DIRECTION('',(0.,0.,1.));
#805=DIRECTION('',(1.,0.,0.));
#806=DIRECTION('',(1.,0.,0.));
#807=DIRECTION('',(0.,0.,-1.));
#808=DIRECTION('',(0.,3.23521722487282E-16,1.));
#809=DIRECTION('',(0.,1.,-3.23521722487282E-16));
#810=DIRECTION('',(0.,3.23521722487282E-16,1.));
#811=DIRECTION('',(0.,-1.,3.23521722487282E-16));
#812=DIRECTION('',(0.,-3.23521722487282E-16,-1.));
#813=DIRECTION('',(0.,1.,-3.23521722487282E-16));
#814=DIRECTION('',(0.,-3.23521722487282E-16,-1.));
#815=DIRECTION('',(0.,1.,-3.23521722487282E-16));
#816=DIRECTION('',(-1.,0.,0.));
#817=DIRECTION('',(0.,-3.23521722487282E-16,-1.));
#818=DIRECTION('',(0.,1.,-3.23521722487282E-16));
#819=DIRECTION('',(0.,-1.,3.23521722487282E-16));
#820=DIRECTION('',(0.,-3.23521722487282E-16,-1.));
#821=DIRECTION('',(0.,1.,-3.23521722487282E-16));
#822=DIRECTION('',(1.,0.,0.));
#823=DIRECTION('',(0.,-3.23521722487282E-16,-1.));
#824=DIRECTION('',(0.,1.,-3.23521722487282E-16));
#825=DIRECTION('',(0.,1.,-3.23521722487282E-16));
#826=DIRECTION('',(0.,-3.23521722487282E-16,-1.));
#827=DIRECTION('',(0.,1.,-3.23521722487282E-16));
#828=DIRECTION('',(0.,-3.23521722487282E-16,-1.));
#829=DIRECTION('',(0.,1.,-3.23521722487282E-16));
#830=DIRECTION('',(1.,0.,0.));
#831=DIRECTION('',(0.,0.,-1.));
#832=DIRECTION('',(0.,3.23521722487282E-16,1.));
#833=DIRECTION('',(0.,-1.,3.23521722487282E-16));
#834=DIRECTION('',(0.,3.23521722487282E-16,1.));
#835=DIRECTION('',(0.,-1.,3.23521722487282E-16));
#836=DIRECTION('',(0.,-3.23521722487282E-16,-1.));
#837=DIRECTION('',(0.,1.,-3.23521722487282E-16));
#838=DIRECTION('',(0.,-3.23521722487282E-16,-1.));
#839=DIRECTION('',(0.,1.,-3.23521722487282E-16));
#840=DIRECTION('',(0.,-1.,3.23521722487282E-16));
#841=DIRECTION('',(1.,0.,0.));
#842=DIRECTION('',(0.,-1.,3.23521722487282E-16));
#843=DIRECTION('',(1.,0.,0.));
#844=DIRECTION('',(0.,-1.,3.23521722487282E-16));
#845=DIRECTION('',(0.,-3.23521722487282E-16,-1.));
#846=DIRECTION('',(0.,-1.,3.23521722487282E-16));
#847=DIRECTION('',(0.,1.,-3.23521722487282E-16));
#848=DIRECTION('',(0.,3.23521722487282E-16,1.));
#849=DIRECTION('',(0.,-1.,3.23521722487282E-16));
#850=DIRECTION('',(0.,1.,-3.23521722487282E-16));
#851=DIRECTION('',(0.,3.23521722487282E-16,1.));
#852=DIRECTION('',(0.,3.23521722487282E-16,1.));
#853=DIRECTION('',(0.,-1.,3.23521722487282E-16));
#854=DIRECTION('',(0.,3.23521722487282E-16,1.));
#855=DIRECTION('',(0.,-1.,3.23521722487282E-16));
#856=DIRECTION('',(0.,-1.,3.23521722487282E-16));
#857=DIRECTION('',(-1.,0.,0.));
#858=DIRECTION('',(0.,1.,-3.23521722487282E-16));
#859=DIRECTION('',(-1.,0.,0.));
#860=DIRECTION('',(0.,-1.,3.23521722487282E-16));
#861=DIRECTION('',(0.,-3.23521722487282E-16,-1.));
#862=DIRECTION('',(0.,1.,-3.23521722487282E-16));
#863=DIRECTION('',(0.,3.23521722487282E-16,1.));
#864=DIRECTION('',(0.,1.,-3.23521722487282E-16));
#865=DIRECTION('',(0.,3.23521722487282E-16,1.));
#866=DIRECTION('',(0.,1.,-3.23521722487282E-16));
#867=DIRECTION('',(-1.,0.,0.));
#868=DIRECTION('',(0.,3.23521722487282E-16,1.));
#869=DIRECTION('',(1.,0.,0.));
#870=DIRECTION('',(0.,3.23521722487282E-16,1.));
#871=DIRECTION('',(0.,1.,-3.23521722487282E-16));
#872=DIRECTION('',(0.,3.23521722487282E-16,1.));
#873=DIRECTION('',(1.,0.,0.));
#874=DIRECTION('',(0.,1.,-3.23521722487282E-16));
#875=DIRECTION('',(0.,3.23521722487282E-16,1.));
#876=DIRECTION('',(0.,1.,-3.23521722487282E-16));
#877=DIRECTION('',(0.,3.23521722487282E-16,1.));
#878=DIRECTION('',(0.,1.,-3.23521722487282E-16));
#879=DIRECTION('',(0.,3.23521722487282E-16,1.));
#880=DIRECTION('',(-1.,0.,0.));
#881=DIRECTION('',(0.,1.,-3.23521722487282E-16));
#882=DIRECTION('',(0.,3.23521722487282E-16,1.));
#883=DIRECTION('',(0.,1.,-3.23521722487282E-16));
#884=DIRECTION('',(-1.,0.,0.));
#885=DIRECTION('',(0.,3.23521722487282E-16,1.));
#886=DIRECTION('',(-1.,0.,0.));
#887=DIRECTION('',(0.,3.23521722487282E-16,1.));
#888=DIRECTION('',(0.,1.,-3.23521722487282E-16));
#889=DIRECTION('',(0.,3.23521722487282E-16,1.));
#890=DIRECTION('',(-1.,0.,0.));
#891=DIRECTION('',(0.,1.,-3.23521722487282E-16));
#892=DIRECTION('',(0.,3.23521722487282E-16,1.));
#893=DIRECTION('',(0.,1.,-3.23521722487282E-16));
#894=DIRECTION('',(0.,3.23521722487282E-16,1.));
#895=DIRECTION('',(0.,1.,-3.23521722487282E-16));
#896=DIRECTION('',(0.,3.23521722487282E-16,1.));
#897=DIRECTION('',(1.,0.,0.));
#898=DIRECTION('',(0.,1.,-3.23521722487282E-16));
#899=DIRECTION('',(0.,3.23521722487282E-16,1.));
#900=DIRECTION('',(0.,-1.,3.23521722487282E-16));
#901=DIRECTION('',(0.,-3.23521722487282E-16,-1.));
#902=DIRECTION('',(0.,1.,-3.23521722487282E-16));
#903=DIRECTION('',(0.,3.23521722487282E-16,1.));
#904=DIRECTION('',(0.,1.,-3.23521722487282E-16));
#905=DIRECTION('',(0.,3.23521722487282E-16,1.));
#906=DIRECTION('',(0.,-1.,3.23521722487282E-16));
#907=DIRECTION('',(0.,-3.23521722487282E-16,-1.));
#908=DIRECTION('',(0.,1.,-3.23521722487282E-16));
#909=DIRECTION('',(0.,3.23521722487282E-16,1.));
#910=DIRECTION('',(0.,1.,-3.23521722487282E-16));
#911=DIRECTION('',(0.,3.23521722487282E-16,1.));
#912=DIRECTION('',(0.,-1.,3.23521722487282E-16));
#913=DIRECTION('',(0.,-3.23521722487282E-16,-1.));
#914=DIRECTION('',(0.,1.,-3.23521722487282E-16));
#915=DIRECTION('',(0.,3.23521722487282E-16,1.));
#916=DIRECTION('',(0.,1.,-3.23521722487282E-16));
#917=DIRECTION('',(0.,3.23521722487282E-16,1.));
#918=DIRECTION('',(0.,-1.,3.23521722487282E-16));
#919=DIRECTION('',(0.,-3.23521722487282E-16,-1.));
#920=DIRECTION('',(0.,1.,-3.23521722487282E-16));
#921=DIRECTION('',(0.,3.23521722487282E-16,1.));
#922=DIRECTION('',(0.,1.,-3.23521722487282E-16));
#923=DIRECTION('',(0.,3.23521722487282E-16,1.));
#924=DIRECTION('',(0.,3.23521722487282E-16,1.));
#925=DIRECTION('',(0.,-1.,3.23521722487282E-16));
#926=DIRECTION('',(0.,0.,1.));
#927=DIRECTION('',(1.,0.,0.));
#928=DIRECTION('',(0.,0.,-1.));
#929=DIRECTION('',(-1.,0.,0.));
#930=DIRECTION('',(0.,3.23521722487282E-16,1.));
#931=DIRECTION('',(0.,-1.,3.23521722487282E-16));
#932=DIRECTION('',(0.,0.,-1.));
#933=DIRECTION('',(-1.,0.,0.));
#934=DIRECTION('',(0.,0.,-1.));
#935=DIRECTION('',(-1.,0.,0.));
#936=DIRECTION('',(0.,-3.23521722487282E-16,-1.));
#937=DIRECTION('',(0.,1.,-3.23521722487282E-16));
#938=DIRECTION('',(0.,0.,-1.));
#939=DIRECTION('',(-1.,0.,0.));
#940=DIRECTION('',(0.,0.,-1.));
#941=DIRECTION('',(-1.,0.,0.));
#942=DIRECTION('',(0.,1.,-3.23521722487282E-16));
#943=DIRECTION('',(0.,3.23521722487282E-16,1.));
#944=DIRECTION('',(1.,0.,0.));
#945=DIRECTION('',(0.,0.,-1.));
#946=DIRECTION('',(1.,0.,0.));
#947=DIRECTION('',(0.,0.,-1.));
#948=DIRECTION('',(1.,0.,0.));
#949=DIRECTION('',(0.,0.,-1.));
#950=DIRECTION('',(0.,1.,-3.23521722487282E-16));
#951=DIRECTION('',(0.,3.23521722487282E-16,1.));
#952=DIRECTION('',(0.444444444444465,6.16790569236226E-15,-0.895806416477607));
#953=DIRECTION('',(-0.895806416477607,0.,-0.444444444444465));
#954=DIRECTION('',(0.,1.,-3.23521722487282E-16));
#955=DIRECTION('',(0.,3.23521722487282E-16,1.));
#956=DIRECTION('',(0.444444444444465,0.,0.895806416477607));
#957=DIRECTION('',(0.895806416477607,0.,-0.444444444444465));
#958=DIRECTION('',(0.,1.,-3.23521722487282E-16));
#959=DIRECTION('',(0.,3.23521722487282E-16,1.));
#960=DIRECTION('',(1.,0.,0.));
#961=DIRECTION('',(0.,0.,-1.));
#962=DIRECTION('',(1.,0.,0.));
#963=DIRECTION('',(0.,0.,-1.));
#964=DIRECTION('',(1.,0.,0.));
#965=DIRECTION('',(0.,0.,-1.));
#966=DIRECTION('',(0.,1.,-3.23521722487282E-16));
#967=DIRECTION('',(0.,3.23521722487282E-16,1.));
#968=DIRECTION('',(0.,0.,1.));
#969=DIRECTION('',(1.,0.,0.));
#970=DIRECTION('',(0.,3.23521722487282E-16,1.));
#971=DIRECTION('',(0.,-1.,3.23521722487282E-16));
#972=DIRECTION('',(0.,0.,-1.));
#973=DIRECTION('',(-1.,0.,0.));
#974=DIRECTION('',(0.,3.23521722487282E-16,1.));
#975=DIRECTION('',(0.,-1.,3.23521722487282E-16));
#976=DIRECTION('',(0.,0.,-1.));
#977=DIRECTION('',(-1.,0.,0.));
#978=DIRECTION('',(0.,0.,-1.));
#979=DIRECTION('',(-1.,0.,0.));
#980=DIRECTION('',(0.,1.,-3.23521722487282E-16));
#981=DIRECTION('',(0.,3.23521722487282E-16,1.));
#982=DIRECTION('',(1.,0.,0.));
#983=DIRECTION('',(0.,0.,-1.));
#984=DIRECTION('',(-1.,0.,0.));
#985=DIRECTION('',(0.,0.,1.));
#986=DIRECTION('',(1.,0.,0.));
#987=DIRECTION('',(0.,0.,-1.));
#988=DIRECTION('',(0.,1.,-3.23521722487282E-16));
#989=DIRECTION('',(0.,3.23521722487282E-16,1.));
#990=DIRECTION('',(0.444444444444471,0.,-0.895806416477604));
#991=DIRECTION('',(-0.895806416477604,0.,-0.444444444444471));
#992=DIRECTION('',(0.,1.,-3.23521722487282E-16));
#993=DIRECTION('',(0.,3.23521722487282E-16,1.));
#994=DIRECTION('',(0.444444444444471,0.,0.895806416477604));
#995=DIRECTION('',(0.895806416477604,0.,-0.444444444444471));
#996=DIRECTION('',(0.,1.,-3.23521722487282E-16));
#997=DIRECTION('',(0.,3.23521722487282E-16,1.));
#998=DIRECTION('',(1.,0.,0.));
#999=DIRECTION('',(0.,0.,-1.));
#1000=DIRECTION('',(-1.,0.,0.));
#1001=DIRECTION('',(0.,0.,1.));
#1002=DIRECTION('',(1.,0.,0.));
#1003=DIRECTION('',(0.,0.,-1.));
#1004=DIRECTION('',(0.,1.,-3.23521722487282E-16));
#1005=DIRECTION('',(0.,3.23521722487282E-16,1.));
#1006=DIRECTION('',(0.,0.,1.));
#1007=DIRECTION('',(1.,0.,0.));
#1008=DIRECTION('',(0.,-3.23521722487282E-16,-1.));
#1009=DIRECTION('',(0.,1.,-3.23521722487282E-16));
#1010=DIRECTION('',(0.,0.,-1.));
#1011=DIRECTION('',(-1.,0.,0.));
#1012=DIRECTION('',(0.,0.707106781186587,-0.707106781186508));
#1013=DIRECTION('',(1.,0.,0.));
#1014=DIRECTION('',(0.,-0.707106781186508,-0.707106781186587));
#1015=DIRECTION('',(0.,0.707106781186508,0.707106781186587));
#1016=DIRECTION('',(0.,0.,-1.));
#1017=DIRECTION('',(-1.,0.,0.));
#1018=DIRECTION('',(0.707106781186508,0.,0.707106781186587));
#1019=DIRECTION('',(0.,0.,-1.));
#1020=DIRECTION('',(-1.,0.,0.));
#1021=DIRECTION('',(0.707106781186518,0.,-0.707106781186577));
#1022=DIRECTION('',(0.707106781186579,-2.28764403831899E-16,-0.707106781186516));
#1023=DIRECTION('',(0.,-1.,3.23521722487282E-16));
#1024=DIRECTION('',(0.707106781186516,0.,0.707106781186579));
#1025=DIRECTION('',(0.707106781186577,2.287644038319E-16,0.707106781186518));
#1026=DIRECTION('',(0.,1.,-3.23521722487282E-16));
#1027=DIRECTION('',(0.707106781186518,0.,-0.707106781186577));
#1028=DIRECTION('',(0.,0.,-1.));
#1029=DIRECTION('',(-1.,0.,0.));
#1030=DIRECTION('',(0.,-0.707106781186508,0.707106781186587));
#1031=DIRECTION('',(0.,0.,-1.));
#1032=DIRECTION('',(-1.,0.,0.));
#1033=DIRECTION('',(0.,0.707106781186508,-0.707106781186587));
#1034=DIRECTION('',(0.,0.707106781186587,0.707106781186508));
#1035=DIRECTION('',(-1.,0.,0.));
#1036=DIRECTION('',(0.,0.,-1.));
#1037=DIRECTION('',(-1.,0.,0.));
#1038=DIRECTION('',(0.,0.,-1.));
#1039=DIRECTION('',(-1.,0.,0.));
#1040=DIRECTION('',(0.,0.,1.));
#1041=DIRECTION('',(1.,0.,0.));
#1042=DIRECTION('',(0.,0.,1.));
#1043=DIRECTION('',(1.,0.,0.));
#1044=CARTESIAN_POINT('',(0.,0.,0.));
#1045=CARTESIAN_POINT('',(0.00911910847066755,-0.1905,0.514857821048681));
#1046=CARTESIAN_POINT('',(0.00911910847066755,-0.2095,0.514857821048681));
#1047=CARTESIAN_POINT('',(0.00911910847066755,-0.2095,0.515207821048681));
#1048=CARTESIAN_POINT('',(0.00911910847066755,-0.2095,0.52035782104868));
#1049=CARTESIAN_POINT('',(0.00911910847066755,-0.1905,0.52035782104868));
#1050=CARTESIAN_POINT('',(0.00911910847066755,-0.1915,0.52035782104868));
#1051=CARTESIAN_POINT('',(0.00911910847066755,-0.1915,0.515207821048681));
#1052=CARTESIAN_POINT('',(0.00911910847066755,-0.1915,0.515207821048681));
#1053=CARTESIAN_POINT('',(0.00911910847066755,-0.1905,0.515207821048681));
#1054=CARTESIAN_POINT('',(0.0344576475966832,-0.1905,0.520857821048681));
#1055=CARTESIAN_POINT('',(0.10947326497473,-0.1915,0.520857821048681));
#1056=CARTESIAN_POINT('',(0.10997326497473,-0.1915,0.520857821048681));
#1057=CARTESIAN_POINT('',(0.10947326497473,-0.191,0.520857821048681));
#1058=CARTESIAN_POINT('',(0.0101191084706675,-0.191,0.520857821048681));
#1059=CARTESIAN_POINT('',(0.0101191084706675,-0.191,0.520857821048681));
#1060=CARTESIAN_POINT('',(0.0101191084706675,-0.1915,0.520857821048681));
#1061=CARTESIAN_POINT('',(0.00961910847066756,-0.1915,0.520857821048681));
#1062=CARTESIAN_POINT('',(0.00961910847066756,-0.1905,0.520857821048681));
#1063=CARTESIAN_POINT('',(0.00961910847066756,-0.2095,0.520857821048681));
#1064=CARTESIAN_POINT('',(0.0101191084706675,-0.2095,0.520857821048681));
#1065=CARTESIAN_POINT('',(0.0101191084706675,-0.21,0.520857821048681));
#1066=CARTESIAN_POINT('',(0.0344576475966832,-0.21,0.520857821048681));
#1067=CARTESIAN_POINT('',(0.10947326497473,-0.21,0.520857821048681));
#1068=CARTESIAN_POINT('',(0.10947326497473,-0.2095,0.520857821048681));
#1069=CARTESIAN_POINT('',(0.10997326497473,-0.2095,0.520857821048681));
#1070=CARTESIAN_POINT('',(0.10997326497473,-0.1915,0.520857821048681));
#1071=CARTESIAN_POINT('',(0.0896188707095981,-0.2005,0.520857821048681));
#1072=CARTESIAN_POINT('',(0.0896188707095981,-0.19725,0.520857821048681));
#1073=CARTESIAN_POINT('',(0.0299735027357996,-0.2005,0.520857821048681));
#1074=CARTESIAN_POINT('',(0.0299735027357996,-0.19725,0.520857821048681));
#1075=CARTESIAN_POINT('',(0.11047326497473,-0.1905,0.514857821048681));
#1076=CARTESIAN_POINT('',(0.11047326497473,-0.1915,0.514857821048681));
#1077=CARTESIAN_POINT('',(0.11047326497473,-0.1915,0.515207821048681));
#1078=CARTESIAN_POINT('',(0.11047326497473,-0.1915,0.52035782104868));
#1079=CARTESIAN_POINT('',(0.11047326497473,-0.2095,0.52035782104868));
#1080=CARTESIAN_POINT('',(0.11047326497473,-0.2095,0.52035782104868));
#1081=CARTESIAN_POINT('',(0.11047326497473,-0.2095,0.515207821048681));
#1082=CARTESIAN_POINT('',(0.11047326497473,-0.2095,0.515207821048681));
#1083=CARTESIAN_POINT('',(0.11047326497473,-0.1905,0.515207821048681));
#1084=CARTESIAN_POINT('',(0.0904732649747301,-0.1905,0.508857821048681));
#1085=CARTESIAN_POINT('',(0.0896188707095981,-0.2005,0.508857821048681));
#1086=CARTESIAN_POINT('',(0.0896188707095981,-0.19725,0.508857821048681));
#1087=CARTESIAN_POINT('',(0.075114476444466,-0.1905,0.508857821048681));
#1088=CARTESIAN_POINT('',(0.075114476444466,-0.2095,0.508857821048681));
#1089=CARTESIAN_POINT('',(0.075114476444466,-0.1915,0.508857821048681));
#1090=CARTESIAN_POINT('',(0.0904732649747301,-0.1915,0.508857821048681));
#1091=CARTESIAN_POINT('',(0.10412326497473,-0.1915,0.508857821048681));
#1092=CARTESIAN_POINT('',(0.10412326497473,-0.1905,0.508857821048681));
#1093=CARTESIAN_POINT('',(0.10412326497473,-0.2095,0.508857821048681));
#1094=CARTESIAN_POINT('',(0.075114476444466,-0.2095,0.508857821048681));
#1095=CARTESIAN_POINT('',(0.0597961867226988,-0.1905,0.510107821048681));
#1096=CARTESIAN_POINT('',(0.0501662677455644,-0.1905,0.505330043270903));
#1097=CARTESIAN_POINT('',(0.0501662677455644,-0.2095,0.505330043270903));
#1098=CARTESIAN_POINT('',(0.0501662677455644,-0.1915,0.505330043270903));
#1099=CARTESIAN_POINT('',(0.0597961867226988,-0.1915,0.510107821048681));
#1100=CARTESIAN_POINT('',(0.0694261056998332,-0.1915,0.505330043270903));
#1101=CARTESIAN_POINT('',(0.0694261056998332,-0.1905,0.505330043270903));
#1102=CARTESIAN_POINT('',(0.0694261056998332,-0.2095,0.505330043270903));
#1103=CARTESIAN_POINT('',(0.0597961867226988,-0.2095,0.510107821048681));
#1104=CARTESIAN_POINT('',(0.0291191084706676,-0.1905,0.508857821048681));
#1105=CARTESIAN_POINT('',(0.0299735027357996,-0.2005,0.508857821048681));
#1106=CARTESIAN_POINT('',(0.0299735027357996,-0.20375,0.508857821048681));
#1107=CARTESIAN_POINT('',(0.0154691084706675,-0.1905,0.508857821048681));
#1108=CARTESIAN_POINT('',(0.0154691084706675,-0.2095,0.508857821048681));
#1109=CARTESIAN_POINT('',(0.0154691084706675,-0.1915,0.508857821048681));
#1110=CARTESIAN_POINT('',(0.0444778970009316,-0.1915,0.508857821048681));
#1111=CARTESIAN_POINT('',(0.0444778970009316,-0.1915,0.508857821048681));
#1112=CARTESIAN_POINT('',(0.0444778970009316,-0.2105,0.508857821048681));
#1113=CARTESIAN_POINT('',(0.0444778970009316,-0.2095,0.508857821048681));
#1114=CARTESIAN_POINT('',(0.0291191084706676,-0.2095,0.508857821048681));
#1115=CARTESIAN_POINT('',(0.0597961867226988,-0.1905,0.510107821048681));
#1116=CARTESIAN_POINT('',(0.0597961867226988,-0.1905,0.510107821048681));
#1117=CARTESIAN_POINT('',(0.0597961867226988,-0.1905,0.516857821048681));
#1118=CARTESIAN_POINT('',(0.0597961867226988,-0.2105,0.510107821048681));
#1119=CARTESIAN_POINT('',(0.0597961867226988,-0.2105,0.516857821048681));
#1120=CARTESIAN_POINT('',(0.0597961867226988,-0.1905,0.510107821048681));
#1121=CARTESIAN_POINT('',(0.0101191084706675,-0.1905,0.520857821048681));
#1122=CARTESIAN_POINT('',(0.0101191084706675,-0.1905,0.515207821048681));
#1123=CARTESIAN_POINT('',(0.0101191084706675,-0.1905,0.52035782104868));
#1124=CARTESIAN_POINT('',(0.10947326497473,-0.1905,0.52035782104868));
#1125=CARTESIAN_POINT('',(0.10947326497473,-0.1905,0.52035782104868));
#1126=CARTESIAN_POINT('',(0.10947326497473,-0.1905,0.510107821048681));
#1127=CARTESIAN_POINT('',(0.10947326497473,-0.1905,0.515207821048681));
#1128=CARTESIAN_POINT('',(0.10412326497473,-0.1905,0.515207821048681));
#1129=CARTESIAN_POINT('',(0.10412326497473,-0.1905,0.509857821048681));
#1130=CARTESIAN_POINT('',(0.0597961867226988,-0.1905,0.509857821048681));
#1131=CARTESIAN_POINT('',(0.075114476444466,-0.1905,0.509857821048681));
#1132=CARTESIAN_POINT('',(0.075114476444466,-0.1905,0.502507821048681));
#1133=CARTESIAN_POINT('',(0.0685302992833556,-0.1905,0.505774487715347));
#1134=CARTESIAN_POINT('',(0.0597961867226988,-0.1905,0.510107821048681));
#1135=CARTESIAN_POINT('',(0.051062074162042,-0.1905,0.505774487715347));
#1136=CARTESIAN_POINT('',(0.0444778970009316,-0.1905,0.502507821048681));
#1137=CARTESIAN_POINT('',(0.0444778970009316,-0.1905,0.509857821048681));
#1138=CARTESIAN_POINT('',(0.0154691084706675,-0.1905,0.509857821048681));
#1139=CARTESIAN_POINT('',(0.0154691084706675,-0.1905,0.509857821048681));
#1140=CARTESIAN_POINT('',(0.0154691084706675,-0.1905,0.515207821048681));
#1141=CARTESIAN_POINT('',(0.0597961867226988,-0.2105,0.510107821048681));
#1142=CARTESIAN_POINT('',(0.10947326497473,-0.2105,0.520857821048681));
#1143=CARTESIAN_POINT('',(0.10947326497473,-0.2105,0.515207821048681));
#1144=CARTESIAN_POINT('',(0.10947326497473,-0.2105,0.52035782104868));
#1145=CARTESIAN_POINT('',(0.0597961867226988,-0.2105,0.52035782104868));
#1146=CARTESIAN_POINT('',(0.0101191084706675,-0.2105,0.52035782104868));
#1147=CARTESIAN_POINT('',(0.0101191084706675,-0.2105,0.510107821048681));
#1148=CARTESIAN_POINT('',(0.0101191084706675,-0.2105,0.515207821048681));
#1149=CARTESIAN_POINT('',(0.0154691084706675,-0.2105,0.515207821048681));
#1150=CARTESIAN_POINT('',(0.0154691084706675,-0.2105,0.509857821048681));
#1151=CARTESIAN_POINT('',(0.0597961867226988,-0.2105,0.509857821048681));
#1152=CARTESIAN_POINT('',(0.0444778970009316,-0.2105,0.509857821048681));
#1153=CARTESIAN_POINT('',(0.0444778970009316,-0.2105,0.502507821048681));
#1154=CARTESIAN_POINT('',(0.051062074162042,-0.2105,0.505774487715347));
#1155=CARTESIAN_POINT('',(0.0597961867226988,-0.2105,0.510107821048681));
#1156=CARTESIAN_POINT('',(0.0685302992833556,-0.2105,0.505774487715347));
#1157=CARTESIAN_POINT('',(0.075114476444466,-0.2105,0.502507821048681));
#1158=CARTESIAN_POINT('',(0.075114476444466,-0.2105,0.509857821048681));
#1159=CARTESIAN_POINT('',(0.10412326497473,-0.2105,0.509857821048681));
#1160=CARTESIAN_POINT('',(0.10412326497473,-0.2105,0.509857821048681));
#1161=CARTESIAN_POINT('',(0.10412326497473,-0.2105,0.515207821048681));
#1162=CARTESIAN_POINT('',(0.10412326497473,-0.1905,0.515207821048681));
#1163=CARTESIAN_POINT('',(0.10412326497473,-0.1915,0.515207821048681));
#1164=CARTESIAN_POINT('',(0.10412326497473,-0.2095,0.515207821048681));
#1165=CARTESIAN_POINT('',(0.075114476444466,-0.1905,0.502507821048681));
#1166=CARTESIAN_POINT('',(0.075114476444466,-0.1915,0.502507821048681));
#1167=CARTESIAN_POINT('',(0.075114476444466,-0.2095,0.502507821048681));
#1168=CARTESIAN_POINT('',(0.0444778970009316,-0.1905,0.502507821048681));
#1169=CARTESIAN_POINT('',(0.0444778970009316,-0.1915,0.502507821048681));
#1170=CARTESIAN_POINT('',(0.0444778970009316,-0.2095,0.502507821048681));
#1171=CARTESIAN_POINT('',(0.0154691084706675,-0.1905,0.515207821048681));
#1172=CARTESIAN_POINT('',(0.0154691084706675,-0.1915,0.515207821048681));
#1173=CARTESIAN_POINT('',(0.0154691084706675,-0.2095,0.515207821048681));
#1174=CARTESIAN_POINT('',(0.0299735027357996,-0.2005,0.508857821048681));
#1175=CARTESIAN_POINT('',(0.0299735027357996,-0.2005,0.50935782104868));
#1176=CARTESIAN_POINT('',(0.0327235027357996,-0.2005,0.50935782104868));
#1177=CARTESIAN_POINT('',(0.0299735027357996,-0.2005,0.520357821048681));
#1178=CARTESIAN_POINT('',(0.0272235027357996,-0.2005,0.520357821048681));
#1179=CARTESIAN_POINT('',(0.0896188707095981,-0.2005,0.508857821048681));
#1180=CARTESIAN_POINT('',(0.0896188707095981,-0.2005,0.50935782104868));
#1181=CARTESIAN_POINT('',(0.0868688707095981,-0.2005,0.50935782104868));
#1182=CARTESIAN_POINT('',(0.0896188707095981,-0.2005,0.520357821048681));
#1183=CARTESIAN_POINT('',(0.0868688707095981,-0.2005,0.520357821048681));
#1184=CARTESIAN_POINT('',(0.0101191084706675,-0.1915,0.510107821048681));
#1185=CARTESIAN_POINT('',(0.0101191084706675,-0.1915,0.52035782104868));
#1186=CARTESIAN_POINT('',(0.0101191084706675,-0.1915,0.515207821048681));
#1187=CARTESIAN_POINT('',(0.0154691084706675,-0.1915,0.515207821048681));
#1188=CARTESIAN_POINT('',(0.0154691084706675,-0.1915,0.509857821048681));
#1189=CARTESIAN_POINT('',(0.0597961867226988,-0.1915,0.509857821048681));
#1190=CARTESIAN_POINT('',(0.0444778970009316,-0.1915,0.509857821048681));
#1191=CARTESIAN_POINT('',(0.0444778970009316,-0.1915,0.502507821048681));
#1192=CARTESIAN_POINT('',(0.0510620741620421,-0.1915,0.505774487715347));
#1193=CARTESIAN_POINT('',(0.0597961867226988,-0.1915,0.510107821048681));
#1194=CARTESIAN_POINT('',(0.0685302992833556,-0.1915,0.505774487715347));
#1195=CARTESIAN_POINT('',(0.075114476444466,-0.1915,0.502507821048681));
#1196=CARTESIAN_POINT('',(0.075114476444466,-0.1915,0.509857821048681));
#1197=CARTESIAN_POINT('',(0.0904732649747301,-0.1915,0.509857821048681));
#1198=CARTESIAN_POINT('',(0.10412326497473,-0.1915,0.509857821048681));
#1199=CARTESIAN_POINT('',(0.10412326497473,-0.1915,0.515207821048681));
#1200=CARTESIAN_POINT('',(0.10947326497473,-0.1915,0.515207821048681));
#1201=CARTESIAN_POINT('',(0.10947326497473,-0.1915,0.514857821048681));
#1202=CARTESIAN_POINT('',(0.10947326497473,-0.1915,0.52035782104868));
#1203=CARTESIAN_POINT('',(0.0101191084706675,-0.2095,0.514857821048681));
#1204=CARTESIAN_POINT('',(0.0101191084706675,-0.2095,0.52035782104868));
#1205=CARTESIAN_POINT('',(0.0101191084706675,-0.2095,0.515207821048681));
#1206=CARTESIAN_POINT('',(0.0154691084706675,-0.2095,0.515207821048681));
#1207=CARTESIAN_POINT('',(0.0154691084706675,-0.2095,0.509857821048681));
#1208=CARTESIAN_POINT('',(0.0291191084706676,-0.2095,0.509857821048681));
#1209=CARTESIAN_POINT('',(0.0444778970009316,-0.2095,0.509857821048681));
#1210=CARTESIAN_POINT('',(0.0444778970009316,-0.2095,0.502507821048681));
#1211=CARTESIAN_POINT('',(0.051062074162042,-0.2095,0.505774487715347));
#1212=CARTESIAN_POINT('',(0.0597961867226988,-0.2095,0.510107821048681));
#1213=CARTESIAN_POINT('',(0.0685302992833556,-0.2095,0.505774487715347));
#1214=CARTESIAN_POINT('',(0.075114476444466,-0.2095,0.502507821048681));
#1215=CARTESIAN_POINT('',(0.075114476444466,-0.2095,0.509857821048681));
#1216=CARTESIAN_POINT('',(0.0597961867226988,-0.2095,0.509857821048681));
#1217=CARTESIAN_POINT('',(0.10412326497473,-0.2095,0.509857821048681));
#1218=CARTESIAN_POINT('',(0.10412326497473,-0.2095,0.515207821048681));
#1219=CARTESIAN_POINT('',(0.10947326497473,-0.2095,0.515207821048681));
#1220=CARTESIAN_POINT('',(0.10947326497473,-0.2095,0.510107821048681));
#1221=CARTESIAN_POINT('',(0.10947326497473,-0.2095,0.52035782104868));
#1222=CARTESIAN_POINT('',(0.0344576475966832,-0.21,0.520857821048681));
#1223=CARTESIAN_POINT('',(0.10947326497473,-0.21,0.520857821048681));
#1224=CARTESIAN_POINT('',(0.0101191084706675,-0.2105,0.52035782104868));
#1225=CARTESIAN_POINT('',(0.0101191084706675,-0.2095,0.520857821048681));
#1226=CARTESIAN_POINT('',(0.00911910847066755,-0.2095,0.52035782104868));
#1227=CARTESIAN_POINT('',(0.10947326497473,-0.2095,0.520857821048681));
#1228=CARTESIAN_POINT('',(0.10997326497473,-0.2095,0.520857821048681));
#1229=CARTESIAN_POINT('',(0.00961910847066756,-0.1905,0.520857821048681));
#1230=CARTESIAN_POINT('',(0.00911910847066755,-0.1915,0.52035782104868));
#1231=CARTESIAN_POINT('',(0.11047326497473,-0.1905,0.52035782104868));
#1232=CARTESIAN_POINT('',(0.10997326497473,-0.1915,0.520857821048681));
#1233=CARTESIAN_POINT('',(0.0101191084706675,-0.1915,0.520857821048681));
#1234=CARTESIAN_POINT('',(0.0101191084706675,-0.1905,0.52035782104868));
#1235=CARTESIAN_POINT('',(0.10947326497473,-0.1915,0.520857821048681));
#1236=CARTESIAN_POINT('',(0.10947326497473,-0.191,0.520857821048681));
#1237=CARTESIAN_POINT('',(0.0597961867226988,-0.1905,0.52035782104868));
#1238=CARTESIAN_POINT('',(0.0896188707095981,-0.2005,0.508857821048681));
#1239=CARTESIAN_POINT('',(0.0299735027357996,-0.2005,0.508857821048681));
#1240=CARTESIAN_POINT('',(0.0896188707095981,-0.2005,0.520357821048681));
#1241=CARTESIAN_POINT('',(0.0299735027357996,-0.2005,0.520357821048681));
#1242=MECHANICAL_DESIGN_GEOMETRIC_PRESENTATION_REPRESENTATION('',(#693),
#1243);
#1243=(
GEOMETRIC_REPRESENTATION_CONTEXT(3)
GLOBAL_UNCERTAINTY_ASSIGNED_CONTEXT((#1244))
GLOBAL_UNIT_ASSIGNED_CONTEXT((#1247,#1246,#1245))
REPRESENTATION_CONTEXT('Part 29','TOP_LEVEL_ASSEMBLY_PART')
);
#1244=UNCERTAINTY_MEASURE_WITH_UNIT(LENGTH_MEASURE(1.E-8),#1247,
'DISTANCE_ACCURACY_VALUE','Maximum Tolerance applied to model');
#1245=(
NAMED_UNIT(*)
SI_UNIT($,.STERADIAN.)
SOLID_ANGLE_UNIT()
);
#1246=(
NAMED_UNIT(*)
PLANE_ANGLE_UNIT()
SI_UNIT($,.RADIAN.)
);
#1247=(
LENGTH_UNIT()
NAMED_UNIT(*)
SI_UNIT($,.METRE.)
);
#1248=PRODUCT_DEFINITION_SHAPE('','',#1249);
#1249=PRODUCT_DEFINITION('','',#1251,#1250);
#1250=PRODUCT_DEFINITION_CONTEXT('',#1257,'design');
#1251=PRODUCT_DEFINITION_FORMATION_WITH_SPECIFIED_SOURCE('','',#1253,
 .NOT_KNOWN.);
#1252=PRODUCT_RELATED_PRODUCT_CATEGORY('','',(#1253));
#1253=PRODUCT('Part 29','Part 29','Part 29',(#1255));
#1254=PRODUCT_CATEGORY('','');
#1255=PRODUCT_CONTEXT('',#1257,'mechanical');
#1256=APPLICATION_PROTOCOL_DEFINITION('international standard',
'ap242_managed_model_based_3d_engineering',2020,#1257);
#1257=APPLICATION_CONTEXT('managed model based 3d engineering');
ENDSEC;
END-ISO-10303-21;
