ISO-10303-21;
HEADER;
/* Generated by software containing ST-Developer
 * from STEP Tools, Inc. (www.steptools.com) 
 */
/* OPTION: using custom renumber hook */

FILE_DESCRIPTION(
/* description */ ('STEP AP242 Edition 2',
'CAx-IF Rec.Pracs.---Representation and Presentation of Product Manufa
cturing Information (PMI)---4.0---2014-10-13',
'CAx-IF Rec.Pracs.---3D Tessellated Geometry---0.4---2014-09-14','2;1',
'CAx-IF Rec.Pracs.---User Defined Attributes---1.5---2016-08-15'),
/* implementation_level */ '2;1');

FILE_NAME(
/* name */ 'shaft collar - Part 1',
/* time_stamp */ '2026-08-12T18:48:13Z',
/* author */ (''),
/* organization */ (''),
/* preprocessor_version */ 'ST-DEVELOPER v20',
/* originating_system */ 'ONSHAPE BY PTC INC, 1.219',
/* authorisation */ '  ');

FILE_SCHEMA (('AP242_MANAGED_MODEL_BASED_3D_ENGINEERING_MIM_LF { 1 0 10303 442 3 1 4 }'));
ENDSEC;

DATA;
#10=SHAPE_REPRESENTATION_RELATIONSHIP('','',#142,#11);
#11=ADVANCED_BREP_SHAPE_REPRESENTATION('',(#140),#312);
#12=CONICAL_SURFACE('',#157,0.01015,0.78539816339745);
#13=CONICAL_SURFACE('',#158,0.01065,0.785398163397448);
#14=CONICAL_SURFACE('',#159,0.00665,0.785398163397448);
#15=CONICAL_SURFACE('',#160,0.00815,0.785398163397449);
#16=B_SPLINE_SURFACE_WITH_KNOTS('',1,3,((#271,#272,#273,#274,#275,#276,
#277,#278,#279,#280,#281,#282,#283,#284,#285,#286,#287,#288),(#289,#290,
#291,#292,#293,#294,#295,#296,#297,#298,#299,#300,#301,#302,#303,#304,#305,
#306)),.RULED_SURF.,.F.,.T.,.F.,(2,2),(2,2,2,2,2,2,2,2,2,2,2),(0.,1.),(-0.0123174246070414,
-0.010947084096662,-0.00957674358628258,-0.00820640307590318,-0.00683606256552378,
-0.00546572205514438,-0.00409538154476497,-0.00272504103438557,-0.00135470052400617,
1.56399863732275E-5,0.00138598049675263),.UNSPECIFIED.);
#17=PLANE('',#150);
#18=PLANE('',#153);
#19=B_SPLINE_CURVE_WITH_KNOTS('',3,(#203,#204,#205,#206,#207,#208,#209,
#210,#211,#212,#213),.UNSPECIFIED.,.T.,.F.,(1,1,1,1,1,1,1,1,1,1,1,1,1,1,
1),(-0.00293721929291168,-0.00195814619527445,-0.000979073097637227,5.20065027580734E-21,
0.000979073097637227,0.00195814619527445,0.00293721929291168,0.00391629239054891,
0.00489536548818613,0.00587443858582336,0.00685351168346059,0.00783258478109781,
0.00881165787873504,0.00979073097637227,0.0107698040740095),
 .UNSPECIFIED.);
#20=B_SPLINE_CURVE_WITH_KNOTS('',3,(#216,#217,#218,#219,#220,#221,#222,
#223,#224,#225,#226,#227,#228,#229,#230,#231,#232,#233,#234),
 .UNSPECIFIED.,.T.,.F.,(1,1,1,1,1,1,1,1,1,1,1,1,1,1,1,1,1,1,1,1,1,1,1),
(-0.190789473684211,-0.128289473684211,-0.0657894736842105,0.,0.059375,
0.12171875,0.1842109375,0.246710546875,0.30921052734375,0.371710526367187,
0.434210526318359,0.496710526315918,0.559210526315796,0.62171052631579,
0.684210526315789,0.746710526315789,0.809210526315789,0.871710526315789,
0.934210526315789,1.,1.059375,1.12171875,1.1842109375),.UNSPECIFIED.);
#21=B_SPLINE_CURVE_WITH_KNOTS('',3,(#251,#252,#253,#254,#255,#256,#257,
#258,#259,#260,#261,#262,#263,#264,#265,#266,#267,#268,#269),
 .UNSPECIFIED.,.T.,.F.,(1,1,1,1,1,1,1,1,1,1,1,1,1,1,1,1,1,1,1,1,1,1,1),
(-0.194078947314453,-0.131578947363281,-0.0657894736816407,0.,0.059375,
0.11875,0.18109375,0.2434375,0.3059296875,0.368421875,0.430921484375,0.49342109375,
0.55592107421875,0.6184210546875,0.680921053710937,0.743421052734375,0.805921052685547,
0.868421052636719,0.934210526318359,1.,1.059375,1.11875,1.18109375),
 .UNSPECIFIED.);
#22=ORIENTED_EDGE('',*,*,#44,.T.);
#23=ORIENTED_EDGE('',*,*,#45,.T.);
#24=ORIENTED_EDGE('',*,*,#46,.T.);
#25=ORIENTED_EDGE('',*,*,#47,.T.);
#26=ORIENTED_EDGE('',*,*,#48,.T.);
#27=ORIENTED_EDGE('',*,*,#49,.T.);
#28=ORIENTED_EDGE('',*,*,#50,.T.);
#29=ORIENTED_EDGE('',*,*,#51,.T.);
#30=ORIENTED_EDGE('',*,*,#52,.T.);
#31=ORIENTED_EDGE('',*,*,#53,.T.);
#32=ORIENTED_EDGE('',*,*,#54,.T.);
#33=ORIENTED_EDGE('',*,*,#46,.F.);
#34=ORIENTED_EDGE('',*,*,#47,.F.);
#35=ORIENTED_EDGE('',*,*,#54,.F.);
#36=ORIENTED_EDGE('',*,*,#48,.F.);
#37=ORIENTED_EDGE('',*,*,#51,.F.);
#38=ORIENTED_EDGE('',*,*,#53,.F.);
#39=ORIENTED_EDGE('',*,*,#49,.F.);
#40=ORIENTED_EDGE('',*,*,#50,.F.);
#41=ORIENTED_EDGE('',*,*,#44,.F.);
#42=ORIENTED_EDGE('',*,*,#45,.F.);
#43=ORIENTED_EDGE('',*,*,#52,.F.);
#44=EDGE_CURVE('',#55,#55,#66,.T.);
#45=EDGE_CURVE('',#56,#56,#67,.F.);
#46=EDGE_CURVE('',#57,#57,#19,.T.);
#47=EDGE_CURVE('',#58,#58,#20,.T.);
#48=EDGE_CURVE('',#59,#59,#68,.F.);
#49=EDGE_CURVE('',#60,#60,#69,.T.);
#50=EDGE_CURVE('',#61,#61,#70,.F.);
#51=EDGE_CURVE('',#62,#62,#71,.T.);
#52=EDGE_CURVE('',#63,#63,#72,.T.);
#53=EDGE_CURVE('',#64,#64,#73,.F.);
#54=EDGE_CURVE('',#65,#65,#21,.T.);
#55=VERTEX_POINT('',#200);
#56=VERTEX_POINT('',#202);
#57=VERTEX_POINT('',#214);
#58=VERTEX_POINT('',#235);
#59=VERTEX_POINT('',#237);
#60=VERTEX_POINT('',#239);
#61=VERTEX_POINT('',#242);
#62=VERTEX_POINT('',#244);
#63=VERTEX_POINT('',#247);
#64=VERTEX_POINT('',#249);
#65=VERTEX_POINT('',#270);
#66=CIRCLE('',#145,0.00665);
#67=CIRCLE('',#146,0.00665);
#68=CIRCLE('',#148,0.01065);
#69=CIRCLE('',#149,0.01065);
#70=CIRCLE('',#151,0.00815);
#71=CIRCLE('',#152,0.01015);
#72=CIRCLE('',#154,0.00815);
#73=CIRCLE('',#155,0.01015);
#74=EDGE_LOOP('',(#22));
#75=EDGE_LOOP('',(#23));
#76=EDGE_LOOP('',(#24));
#77=EDGE_LOOP('',(#25));
#78=EDGE_LOOP('',(#26));
#79=EDGE_LOOP('',(#27));
#80=EDGE_LOOP('',(#28));
#81=EDGE_LOOP('',(#29));
#82=EDGE_LOOP('',(#30));
#83=EDGE_LOOP('',(#31));
#84=EDGE_LOOP('',(#32));
#85=EDGE_LOOP('',(#33));
#86=EDGE_LOOP('',(#34));
#87=EDGE_LOOP('',(#35));
#88=EDGE_LOOP('',(#36));
#89=EDGE_LOOP('',(#37));
#90=EDGE_LOOP('',(#38));
#91=EDGE_LOOP('',(#39));
#92=EDGE_LOOP('',(#40));
#93=EDGE_LOOP('',(#41));
#94=EDGE_LOOP('',(#42));
#95=EDGE_LOOP('',(#43));
#96=FACE_BOUND('',#74,.T.);
#97=FACE_BOUND('',#75,.T.);
#98=FACE_BOUND('',#76,.T.);
#99=FACE_BOUND('',#77,.T.);
#100=FACE_BOUND('',#78,.T.);
#101=FACE_BOUND('',#79,.T.);
#102=FACE_BOUND('',#80,.T.);
#103=FACE_BOUND('',#81,.T.);
#104=FACE_BOUND('',#82,.T.);
#105=FACE_BOUND('',#83,.T.);
#106=FACE_BOUND('',#84,.T.);
#107=FACE_BOUND('',#85,.T.);
#108=FACE_BOUND('',#86,.T.);
#109=FACE_BOUND('',#87,.T.);
#110=FACE_BOUND('',#88,.T.);
#111=FACE_BOUND('',#89,.T.);
#112=FACE_BOUND('',#90,.T.);
#113=FACE_BOUND('',#91,.T.);
#114=FACE_BOUND('',#92,.T.);
#115=FACE_BOUND('',#93,.T.);
#116=FACE_BOUND('',#94,.T.);
#117=FACE_BOUND('',#95,.T.);
#118=CYLINDRICAL_SURFACE('',#144,0.00665);
#119=CYLINDRICAL_SURFACE('',#147,0.01065);
#120=CYLINDRICAL_SURFACE('',#156,0.00125);
#121=ADVANCED_FACE('',(#96,#97,#98),#118,.F.);
#122=ADVANCED_FACE('',(#99,#100,#101),#119,.T.);
#123=ADVANCED_FACE('',(#102,#103),#17,.T.);
#124=ADVANCED_FACE('',(#104,#105),#18,.F.);
#125=ADVANCED_FACE('',(#106,#107),#120,.F.);
#126=ADVANCED_FACE('',(#108,#109),#16,.T.);
#127=ADVANCED_FACE('',(#110,#111),#12,.T.);
#128=ADVANCED_FACE('',(#112,#113),#13,.T.);
#129=ADVANCED_FACE('',(#114,#115),#14,.F.);
#130=ADVANCED_FACE('',(#116,#117),#15,.F.);
#131=CLOSED_SHELL('',(#121,#122,#123,#124,#125,#126,#127,#128,#129,#130));
#132=STYLED_ITEM('',(#133),#140);
#133=PRESENTATION_STYLE_ASSIGNMENT((#134));
#134=SURFACE_STYLE_USAGE(.BOTH.,#135);
#135=SURFACE_SIDE_STYLE('',(#136));
#136=SURFACE_STYLE_FILL_AREA(#137);
#137=FILL_AREA_STYLE('',(#138));
#138=FILL_AREA_STYLE_COLOUR('',#139);
#139=COLOUR_RGB('',0.615686274509804,0.811764705882353,0.929411764705882);
#140=MANIFOLD_SOLID_BREP('Part 1',#131);
#141=SHAPE_DEFINITION_REPRESENTATION(#317,#142);
#142=SHAPE_REPRESENTATION('Part 1',(#143),#312);
#143=AXIS2_PLACEMENT_3D('',#197,#161,#162);
#144=AXIS2_PLACEMENT_3D('',#198,#163,#164);
#145=AXIS2_PLACEMENT_3D('',#199,#165,#166);
#146=AXIS2_PLACEMENT_3D('',#201,#167,#168);
#147=AXIS2_PLACEMENT_3D('',#215,#169,#170);
#148=AXIS2_PLACEMENT_3D('',#236,#171,#172);
#149=AXIS2_PLACEMENT_3D('',#238,#173,#174);
#150=AXIS2_PLACEMENT_3D('',#240,#175,#176);
#151=AXIS2_PLACEMENT_3D('',#241,#177,#178);
#152=AXIS2_PLACEMENT_3D('',#243,#179,#180);
#153=AXIS2_PLACEMENT_3D('',#245,#181,#182);
#154=AXIS2_PLACEMENT_3D('',#246,#183,#184);
#155=AXIS2_PLACEMENT_3D('',#248,#185,#186);
#156=AXIS2_PLACEMENT_3D('',#250,#187,#188);
#157=AXIS2_PLACEMENT_3D('',#307,#189,#190);
#158=AXIS2_PLACEMENT_3D('',#308,#191,#192);
#159=AXIS2_PLACEMENT_3D('',#309,#193,#194);
#160=AXIS2_PLACEMENT_3D('',#310,#195,#196);
#161=DIRECTION('',(0.,0.,1.));
#162=DIRECTION('',(1.,0.,0.));
#163=DIRECTION('',(0.,0.,-1.));
#164=DIRECTION('',(-1.,0.,0.));
#165=DIRECTION('',(0.,0.,1.));
#166=DIRECTION('',(1.,0.,0.));
#167=DIRECTION('',(0.,0.,1.));
#168=DIRECTION('',(1.,0.,0.));
#169=DIRECTION('',(0.,0.,-1.));
#170=DIRECTION('',(-1.,0.,0.));
#171=DIRECTION('',(0.,0.,1.));
#172=DIRECTION('',(1.,0.,0.));
#173=DIRECTION('',(0.,0.,1.));
#174=DIRECTION('',(1.,0.,0.));
#175=DIRECTION('',(0.,0.,1.));
#176=DIRECTION('',(1.,0.,0.));
#177=DIRECTION('',(0.,0.,1.));
#178=DIRECTION('',(1.,0.,0.));
#179=DIRECTION('',(0.,0.,1.));
#180=DIRECTION('',(1.,0.,0.));
#181=DIRECTION('',(0.,0.,1.));
#182=DIRECTION('',(1.,0.,0.));
#183=DIRECTION('',(0.,0.,1.));
#184=DIRECTION('',(1.,0.,0.));
#185=DIRECTION('',(0.,0.,1.));
#186=DIRECTION('',(1.,0.,0.));
#187=DIRECTION('',(0.,1.,0.));
#188=DIRECTION('',(0.,0.,1.));
#189=DIRECTION('',(0.,0.,-1.));
#190=DIRECTION('',(-1.,0.,0.));
#191=DIRECTION('',(0.,0.,1.));
#192=DIRECTION('',(1.,0.,0.));
#193=DIRECTION('',(0.,0.,1.));
#194=DIRECTION('',(1.,0.,0.));
#195=DIRECTION('',(0.,0.,-1.));
#196=DIRECTION('',(-1.,0.,0.));
#197=CARTESIAN_POINT('',(0.,0.,0.));
#198=CARTESIAN_POINT('',(0.,4.07195060716495E-19,0.008));
#199=CARTESIAN_POINT('',(0.,4.07195060716495E-19,0.0065));
#200=CARTESIAN_POINT('',(0.00665,4.07195060716495E-19,0.0065));
#201=CARTESIAN_POINT('',(0.,4.07195060716495E-19,0.0015));
#202=CARTESIAN_POINT('',(0.00665,4.07195060716495E-19,0.0015));
#203=CARTESIAN_POINT('',(0.000980570211464654,-0.0065911196156329,0.00497865340156478));
#204=CARTESIAN_POINT('',(-2.24437582785466E-7,-0.00667941461008895,0.00538560675199211));
#205=CARTESIAN_POINT('',(-0.000979672461133513,-0.00659122194401129,0.0049789195904668));
#206=CARTESIAN_POINT('',(-0.00138513931595024,-0.00650158255059262,0.00400126289901447));
#207=CARTESIAN_POINT('',(-0.000979768979882176,-0.00659122200423118,0.00302043650544242));
#208=CARTESIAN_POINT('',(-4.17851823022837E-7,-0.00667933664145365,0.00261502278346935));
#209=CARTESIAN_POINT('',(0.000978439451611099,-0.00659143131710192,0.00301947296105447));
#210=CARTESIAN_POINT('',(0.00138524706637097,-0.0065015558416098,0.00399907486168153));
#211=CARTESIAN_POINT('',(0.000980570211464654,-0.0065911196156329,0.00497865340156478));
#212=CARTESIAN_POINT('',(-2.24437582785466E-7,-0.00667941461008895,0.00538560675199211));
#213=CARTESIAN_POINT('',(-0.000979672461133513,-0.00659122194401129,0.0049789195904668));
#214=CARTESIAN_POINT('',(-2.11487143013802E-19,-0.00665,0.00525));
#215=CARTESIAN_POINT('',(0.,6.52124420545966E-19,0.008));
#216=CARTESIAN_POINT('',(-0.000747753266938139,-0.0106313523549773,0.00564725856888794));
#217=CARTESIAN_POINT('',(-2.40130483506031E-5,-0.0106585454321204,0.00579723985934185));
#218=CARTESIAN_POINT('',(0.000695194531550309,-0.0106343394887976,0.00566314712944662));
#219=CARTESIAN_POINT('',(0.00130616334208617,-0.0105740408366091,0.00529517631341409));
#220=CARTESIAN_POINT('',(0.00172142443204151,-0.0105111880950538,0.00472308415353609));
#221=CARTESIAN_POINT('',(0.00188517683746941,-0.0104816319277893,0.00403769454812982));
#222=CARTESIAN_POINT('',(0.00175270465995643,-0.0105057776918468,0.00334983925058629));
#223=CARTESIAN_POINT('',(0.00135988059856693,-0.0105668595244982,0.00275578202830678));
#224=CARTESIAN_POINT('',(0.000759333929354672,-0.0106301175458123,0.00235928159006541));
#225=CARTESIAN_POINT('',(3.86925205823344E-5,-0.0106585149631575,0.00220324334506244));
#226=CARTESIAN_POINT('',(-0.000685065359938488,-0.0106354121252537,0.00232997372834591));
#227=CARTESIAN_POINT('',(-0.0013060773229453,-0.010574037993769,0.00270462071734956));
#228=CARTESIAN_POINT('',(-0.00172189463295964,-0.0105111165579206,0.00327846783868539));
#229=CARTESIAN_POINT('',(-0.00188504796079894,-0.0104816521087272,0.0039642809458556));
#230=CARTESIAN_POINT('',(-0.00175267425667425,-0.0105057817890342,0.00465143770771913));
#231=CARTESIAN_POINT('',(-0.00135995478331,-0.0105668516178958,0.00524425266280189));
#232=CARTESIAN_POINT('',(-0.000747753266938139,-0.0106313523549773,0.00564725856888794));
#233=CARTESIAN_POINT('',(-2.40130483506031E-5,-0.0106585454321204,0.00579723985934185));
#234=CARTESIAN_POINT('',(0.000695194531550309,-0.0106343394887976,0.00566314712944662));
#235=CARTESIAN_POINT('',(1.95637326163789E-18,-0.01065,0.00574999998885569));
#236=CARTESIAN_POINT('',(0.,6.52124420545966E-19,0.0075));
#237=CARTESIAN_POINT('',(0.01065,6.52124420545966E-19,0.0075));
#238=CARTESIAN_POINT('',(0.,6.52124420545966E-19,0.0005));
#239=CARTESIAN_POINT('',(0.01065,6.52124420545966E-19,0.0005));
#240=CARTESIAN_POINT('',(0.,0.,0.008));
#241=CARTESIAN_POINT('',(0.,4.07195060716495E-19,0.008));
#242=CARTESIAN_POINT('',(0.00815,4.07195060716495E-19,0.008));
#243=CARTESIAN_POINT('',(0.,6.52124420545966E-19,0.008));
#244=CARTESIAN_POINT('',(0.01015,6.52124420545966E-19,0.008));
#245=CARTESIAN_POINT('',(0.,0.,0.));
#246=CARTESIAN_POINT('',(0.,4.07195060716495E-19,0.));
#247=CARTESIAN_POINT('',(0.00815,4.07195060716495E-19,0.));
#248=CARTESIAN_POINT('',(0.,6.52124420545966E-19,0.));
#249=CARTESIAN_POINT('',(0.01015,6.52124420545966E-19,0.));
#250=CARTESIAN_POINT('',(-2.16840434497101E-19,-0.0311769696954966,0.004));
#251=CARTESIAN_POINT('',(0.000426490981172519,-0.0101384360554098,0.005216258812905));
#252=CARTESIAN_POINT('',(1.30722057033447E-5,-0.010155452610767,0.00526603503894218));
#253=CARTESIAN_POINT('',(-0.000382108543173568,-0.0101397492924318,0.00521964498925123));
#254=CARTESIAN_POINT('',(-0.000875274234600945,-0.0100825673097204,0.00495961911382486));
#255=CARTESIAN_POINT('',(-0.00120500365613724,-0.0100126551716526,0.00445146317862924));
#256=CARTESIAN_POINT('',(-0.00126497213886634,-0.00999274603345148,0.00403303295323293));
#257=CARTESIAN_POINT('',(-0.00123142122635428,-0.0100056060383997,0.00365164582113623));
#258=CARTESIAN_POINT('',(-0.000970860809841268,-0.0100643653195145,0.00313247632292516));
#259=CARTESIAN_POINT('',(-0.000455693892008866,-0.010135359893237,0.002796609383533));
#260=CARTESIAN_POINT('',(-3.34917283154801E-5,-0.0101552385411118,0.00273433056423691));
#261=CARTESIAN_POINT('',(0.000351919321793148,-0.0101424088026955,0.00276983736605578));
#262=CARTESIAN_POINT('',(0.000867551453181657,-0.0100842531584426,0.00302918245404671));
#263=CARTESIAN_POINT('',(0.00120511201055071,-0.0100126894875257,0.00354774448123983));
#264=CARTESIAN_POINT('',(0.00126503047677783,-0.00999276294530798,0.0039681898606939));
#265=CARTESIAN_POINT('',(0.00123121582338232,-0.010005535422424,0.00434875535488771));
#266=CARTESIAN_POINT('',(0.000965740240119694,-0.0100656785744651,0.00487780997378356));
#267=CARTESIAN_POINT('',(0.000426490981172519,-0.0101384360554098,0.005216258812905));
#268=CARTESIAN_POINT('',(1.30722057033447E-5,-0.010155452610767,0.00526603503894218));
#269=CARTESIAN_POINT('',(-0.000382108543173568,-0.0101397492924318,0.00521964498925123));
#270=CARTESIAN_POINT('',(-5.23002134283939E-19,-0.0101500000189132,0.00525));
#271=CARTESIAN_POINT('',(0.000328621061059519,-0.0101500202299962,0.00525010001813844));
#272=CARTESIAN_POINT('',(-0.000328621061059518,-0.0101499798078302,0.00524989998186157));
#273=CARTESIAN_POINT('',(-0.00065277330702238,-0.010114757647318,0.00511467736290315));
#274=CARTESIAN_POINT('',(-0.00111521827619837,-0.0100337769124617,0.00465286493126143));
#275=CARTESIAN_POINT('',(-0.00125007413545424,-0.00999798992918996,0.00432872897554815));
#276=CARTESIAN_POINT('',(-0.00124992565913698,-0.00999800976336797,0.00367228445617073));
#277=CARTESIAN_POINT('',(-0.00111562179810767,-0.0100337109691155,0.00334792732815707));
#278=CARTESIAN_POINT('',(-0.000653004979584066,-0.010114714326263,0.0028851659620159));
#279=CARTESIAN_POINT('',(-0.00033004019745437,-0.0101499903023763,0.00275006523409476));
#280=CARTESIAN_POINT('',(0.000330091097617267,-0.010150009735325,0.00274993476642341));
#281=CARTESIAN_POINT('',(0.000652778947605649,-0.0101147540699631,0.00288490776821035));
#282=CARTESIAN_POINT('',(0.00111539153977153,-0.0100337497192474,0.00334772890537136));
#283=CARTESIAN_POINT('',(0.00124995568821524,-0.00999799806965017,0.00367240988363747));
#284=CARTESIAN_POINT('',(0.00125004380830055,-0.00999800169595084,0.00432917675456231));
#285=CARTESIAN_POINT('',(0.00111502136129613,-0.0100337927206126,0.00465294491570247));
#286=CARTESIAN_POINT('',(0.000652850386320478,-0.0101147624484899,0.00511471723640098));
#287=CARTESIAN_POINT('',(0.000328621061059519,-0.0101500202299962,0.00525010001813844));
#288=CARTESIAN_POINT('',(-0.000328621061059518,-0.0101499798078302,0.00524989998186157));
#289=CARTESIAN_POINT('',(0.000482731624878492,-0.0106500212066423,0.00575014001384887));
#290=CARTESIAN_POINT('',(-0.000482731624878488,-0.0106499787933577,0.00574985996386251));
#291=CARTESIAN_POINT('',(-0.000958901456300197,-0.0106130215528561,0.00556054831182987));
#292=CARTESIAN_POINT('',(-0.00163821719284577,-0.0105280516157949,0.00491401088424211));
#293=CARTESIAN_POINT('',(-0.0018363157837146,-0.0104905017288283,0.00446021994224729));
#294=CARTESIAN_POINT('',(-0.00183609767742079,-0.0104905225400312,0.00354119886215012));
#295=CARTESIAN_POINT('',(-0.00163880994747486,-0.0105279824246508,0.00308709827406318));
#296=CARTESIAN_POINT('',(-0.000959241780438039,-0.0106129760971166,0.00243923234793176));
#297=CARTESIAN_POINT('',(-0.000484816373387616,-0.0106499898048432,0.00225009133863303));
#298=CARTESIAN_POINT('',(0.000484891143971132,-0.0106500101950256,0.00224990868438103));
#299=CARTESIAN_POINT('',(0.000958909747447176,-0.0106130177986108,0.00243887087678478));
#300=CARTESIAN_POINT('',(0.00163847170573332,-0.0105280230836796,0.00308682048198644));
#301=CARTESIAN_POINT('',(0.00183614178904502,-0.010490510270285,0.00354137448918354));
#302=CARTESIAN_POINT('',(0.00183627123422786,-0.0104905140752158,0.00446084680428202));
#303=CARTESIAN_POINT('',(0.00163792793334546,-0.0105280682024591,0.00491412286083452));
#304=CARTESIAN_POINT('',(0.000959014681431739,-0.0106130265907524,0.0055606041363508));
#305=CARTESIAN_POINT('',(0.000482731624878492,-0.0106500212066423,0.00575014001384887));
#306=CARTESIAN_POINT('',(-0.000482731624878488,-0.0106499787933577,0.00574985996386251));
#307=CARTESIAN_POINT('',(0.,6.52124420545966E-19,0.008));
#308=CARTESIAN_POINT('',(0.,6.52124420545966E-19,0.0005));
#309=CARTESIAN_POINT('',(0.,4.07195060716495E-19,0.0065));
#310=CARTESIAN_POINT('',(0.,4.07195060716495E-19,0.));
#311=MECHANICAL_DESIGN_GEOMETRIC_PRESENTATION_REPRESENTATION('',(#132),
#312);
#312=(
GEOMETRIC_REPRESENTATION_CONTEXT(3)
GLOBAL_UNCERTAINTY_ASSIGNED_CONTEXT((#313))
GLOBAL_UNIT_ASSIGNED_CONTEXT((#316,#315,#314))
REPRESENTATION_CONTEXT('Part 1','TOP_LEVEL_ASSEMBLY_PART')
);
#313=UNCERTAINTY_MEASURE_WITH_UNIT(LENGTH_MEASURE(2.E-5),#316,
'DISTANCE_ACCURACY_VALUE','Maximum Tolerance applied to model');
#314=(
NAMED_UNIT(*)
SI_UNIT($,.STERADIAN.)
SOLID_ANGLE_UNIT()
);
#315=(
NAMED_UNIT(*)
PLANE_ANGLE_UNIT()
SI_UNIT($,.RADIAN.)
);
#316=(
LENGTH_UNIT()
NAMED_UNIT(*)
SI_UNIT($,.METRE.)
);
#317=PRODUCT_DEFINITION_SHAPE('','',#318);
#318=PRODUCT_DEFINITION('','',#320,#319);
#319=PRODUCT_DEFINITION_CONTEXT('',#326,'design');
#320=PRODUCT_DEFINITION_FORMATION_WITH_SPECIFIED_SOURCE('','',#322,
 .NOT_KNOWN.);
#321=PRODUCT_RELATED_PRODUCT_CATEGORY('','',(#322));
#322=PRODUCT('Part 1','Part 1','Part 1',(#324));
#323=PRODUCT_CATEGORY('','');
#324=PRODUCT_CONTEXT('',#326,'mechanical');
#325=APPLICATION_PROTOCOL_DEFINITION('international standard',
'ap242_managed_model_based_3d_engineering',2020,#326);
#326=APPLICATION_CONTEXT('managed model based 3d engineering');
ENDSEC;
END-ISO-10303-21;
