ISO-10303-21;
HEADER;
/* Generated by software containing ST-Developer
 * from STEP Tools, Inc. (www.steptools.com) 
 */
/* OPTION: using custom renumber hook */

FILE_DESCRIPTION(
/* description */ ('STEP AP242 Edition 2',
'CAx-IF Rec.Pracs.---Representation and Presentation of Product Manufa
cturing Information (PMI)---4.0---2014-10-13',
'CAx-IF Rec.Pracs.---3D Tessellated Geometry---0.4---2014-09-14','2;1',
'CAx-IF Rec.Pracs.---User Defined Attributes---1.5---2016-08-15'),
/* implementation_level */ '2;1');

FILE_NAME(
/* name */ 'Part Studio 1 - Part 27',
/* time_stamp */ '2026-08-12T18:45:10Z',
/* author */ (''),
/* organization */ (''),
/* preprocessor_version */ 'ST-DEVELOPER v20',
/* originating_system */ 'ONSHAPE BY PTC INC, 1.219',
/* authorisation */ '  ');

FILE_SCHEMA (('AP242_MANAGED_MODEL_BASED_3D_ENGINEERING_MIM_LF { 1 0 10303 442 3 1 4 }'));
ENDSEC;

DATA;
#10=SHAPE_REPRESENTATION_RELATIONSHIP('','',#381,#11);
#11=ADVANCED_BREP_SHAPE_REPRESENTATION('',(#379),#789);
#12=CONICAL_SURFACE('',#407,0.0341625,0.785398163397448);
#13=CONICAL_SURFACE('',#424,0.0312625,0.785398163397446);
#14=CONICAL_SURFACE('',#425,0.0341625,0.785398163397426);
#15=CONICAL_SURFACE('',#426,0.0304000000000005,0.78539816339747);
#16=B_SPLINE_CURVE_WITH_KNOTS('',3,(#551,#552,#553,#554,#555,#556,#557,
#558,#559,#560,#561,#562,#563,#564,#565,#566,#567,#568),.UNSPECIFIED.,.F.,
 .F.,(4,1,1,1,1,1,1,1,1,1,1,1,1,1,1,4),(0.0584948171932675,0.0630315770243154,
0.0675683368553633,0.0721050966864112,0.076641856517459,0.0811786163485069,
0.0857153761795548,0.0902521360106027,0.0947888958416505,0.0993256556726984,
0.103862415503746,0.112935935165842,0.11747269499689,0.122009454827938,
0.126546214658986,0.131082974490034),.UNSPECIFIED.);
#17=B_SPLINE_CURVE_WITH_KNOTS('',3,(#577,#578,#579,#580,#581,#582,#583,
#584,#585,#586,#587,#588,#589,#590,#591,#592,#593,#594,#595),
 .UNSPECIFIED.,.T.,.F.,(1,1,1,1,1,1,1,1,1,1,1,1,1,1,1,1,1,1,1,1,1,1,1),
(-0.00794968769314248,-0.0052997917954283,-0.00264989589771412,5.59431511413976E-17,
0.00264989589771423,0.00529979179542841,0.00794968769314259,0.0105995835908568,
0.0132494794885709,0.0158993753862851,0.0185492712839993,0.0211991671817135,
0.0238490630794277,0.0264989589771418,0.029148854874856,0.0317987507725702,
0.0344486466702844,0.0370985425679985,0.0397484384657127,0.0423983343634269,
0.0450482302611411,0.0476981261588553,0.0503480220565694),.UNSPECIFIED.);
#18=B_SPLINE_CURVE_WITH_KNOTS('',3,(#597,#598,#599,#600,#601,#602,#603),
 .UNSPECIFIED.,.F.,.F.,(4,1,1,1,4),(0.,0.00226548643036749,0.00453097286073499,
0.00679645929110248,0.00906194572146997),.UNSPECIFIED.);
#19=B_SPLINE_CURVE_WITH_KNOTS('',3,(#607,#608,#609,#610,#611,#612,#613),
 .UNSPECIFIED.,.F.,.F.,(4,1,1,1,4),(0.,0.00226548643036715,0.0045309728607343,
0.00679645929110144,0.00906194572146859),.UNSPECIFIED.);
#20=B_SPLINE_CURVE_WITH_KNOTS('',3,(#615,#616,#617,#618,#619,#620,#621,
#622,#623,#624,#625,#626,#627,#628,#629,#630,#631,#632,#633,#634,#635,#636,
#637,#638,#639,#640,#641,#642,#643,#644,#645,#646,#647,#648,#649,#650,#651,
#652,#653,#654,#655,#656,#657,#658),.UNSPECIFIED.,.T.,.F.,(1,1,1,1,1,1,
1,1,1,1,1,1,1,1,1,1,1,1,1,1,1,1,1,1,1,1,1,1,1,1,1,1,1,1,1,1,1,1,1,1,1,1,
1,1,1,1,1,1),(-0.0101389309309159,-0.00506946546545792,-0.00253473273272892,
4.43876310406036E-17,0.00506946546545801,0.010138930930916,0.0152083963963739,
0.0202778618618319,0.0228125945945609,0.0253473273272899,0.0304167927927479,
0.0354862582582058,0.0405557237236638,0.0430904564563928,0.0456251891891218,
0.0481599219218507,0.0506946546545797,0.0557641201200377,0.0608335855854957,
0.0633683183182246,0.0659030510509536,0.0709725165164116,0.0735072492491406,
0.0760419819818696,0.0811114474473275,0.0836461801800565,0.0861809129127855,
0.0912503783782435,0.0963198438437014,0.101389309309159,0.106458774774617,
0.111528240240075,0.116597705705533,0.121667171170991,0.12420190390372,
0.126736636636449,0.131806102101907,0.136875567567365,0.141945033032823,
0.144479765765552,0.147014498498281,0.152083963963739,0.157153429429197,
0.159688162161926,0.162222894894655,0.167292360360113,0.172361825825571,
0.177431291291029),.UNSPECIFIED.);
#21=B_SPLINE_CURVE_WITH_KNOTS('',3,(#663,#664,#665,#666),.UNSPECIFIED.,
 .F.,.F.,(4,4),(3.5381555418773E-17,0.00567830784149566),.UNSPECIFIED.);
#22=B_SPLINE_CURVE_WITH_KNOTS('',3,(#667,#668,#669,#670),.UNSPECIFIED.,
 .F.,.F.,(4,4),(3.5381555418773E-17,0.00567830784149554),.UNSPECIFIED.);
#23=B_SPLINE_CURVE_WITH_KNOTS('',3,(#671,#672,#673,#674),.UNSPECIFIED.,
 .F.,.F.,(4,4),(1.86835436258807E-17,0.00567830784149633),.UNSPECIFIED.);
#24=B_SPLINE_CURVE_WITH_KNOTS('',3,(#676,#677,#678,#679,#680,#681,#682,
#683,#684,#685,#686,#687,#688,#689,#690,#691,#692,#693,#694,#695),
 .UNSPECIFIED.,.F.,.F.,(4,1,1,1,1,1,1,1,1,1,1,1,1,1,1,1,1,4),(0.153124007975625,
0.157662688364523,0.162201368753422,0.166740049142321,0.17127872953122,
0.175817409920119,0.180356090309017,0.184894770697916,0.187164110892366,
0.189433451086815,0.193972131475714,0.198510811864613,0.203049492253511,
0.20758817264241,0.212126853031309,0.216665533420208,0.221204213809107,
0.225742894198006),.UNSPECIFIED.);
#25=B_SPLINE_CURVE_WITH_KNOTS('',3,(#697,#698,#699,#700),.UNSPECIFIED.,
 .F.,.F.,(4,4),(0.,0.0056783078414963),.UNSPECIFIED.);
#26=B_SPLINE_CURVE_WITH_KNOTS('',3,(#710,#711,#712,#713,#714,#715,#716,
#717,#718,#719,#720,#721,#722,#723,#724,#725,#726,#727,#728),
 .UNSPECIFIED.,.T.,.F.,(1,1,1,1,1,1,1,1,1,1,1,1,1,1,1,1,1,1,1,1,1,1,1),
(-0.00794970876974775,-0.00529980584649849,-0.00264990292324922,4.22076438404016E-17,
0.00264990292324931,0.00529980584649857,0.00794970876974784,0.0105996116929971,
0.0132495146162464,0.0158994175394956,0.0185493204627449,0.0211992233859942,
0.0238491263092434,0.0264990292324927,0.029148932155742,0.0317988350789912,
0.0344487380022405,0.0370986409254897,0.039748543848739,0.0423984467719883,
0.0450483496952375,0.0476982526184868,0.0503481555417361),.UNSPECIFIED.);
#27=B_SPLINE_CURVE_WITH_KNOTS('',3,(#749,#750,#751,#752,#753,#754,#755),
 .UNSPECIFIED.,.F.,.F.,(4,1,1,1,4),(0.,0.00226548643036752,0.00453097286073504,
0.00679645929110255,0.00906194572147007),.UNSPECIFIED.);
#28=B_SPLINE_CURVE_WITH_KNOTS('',3,(#759,#760,#761,#762,#763,#764,#765),
 .UNSPECIFIED.,.F.,.F.,(4,1,1,1,4),(0.,0.00226548643036736,0.00453097286073471,
0.00679645929110207,0.00906194572146943),.UNSPECIFIED.);
#29=CYLINDRICAL_SURFACE('',#388,0.0294);
#30=CYLINDRICAL_SURFACE('',#390,0.00675);
#31=CYLINDRICAL_SURFACE('',#392,0.045);
#32=CYLINDRICAL_SURFACE('',#394,0.0294);
#33=CYLINDRICAL_SURFACE('',#396,0.0254);
#34=CYLINDRICAL_SURFACE('',#398,0.0302625);
#35=CYLINDRICAL_SURFACE('',#404,0.0341625);
#36=CYLINDRICAL_SURFACE('',#410,0.00675);
#37=CYLINDRICAL_SURFACE('',#420,0.015);
#38=CYLINDRICAL_SURFACE('',#421,0.015);
#39=CYLINDRICAL_SURFACE('',#422,0.015);
#40=CYLINDRICAL_SURFACE('',#423,0.015);
#41=LINE('',#536,#55);
#42=LINE('',#540,#56);
#43=LINE('',#542,#57);
#44=LINE('',#545,#58);
#45=LINE('',#549,#59);
#46=LINE('',#571,#60);
#47=LINE('',#575,#61);
#48=LINE('',#705,#62);
#49=LINE('',#706,#63);
#50=LINE('',#767,#64);
#51=LINE('',#769,#65);
#52=LINE('',#771,#66);
#53=LINE('',#776,#67);
#54=LINE('',#777,#68);
#55=VECTOR('',#433,1.);
#56=VECTOR('',#436,1.);
#57=VECTOR('',#439,1.);
#58=VECTOR('',#440,1.);
#59=VECTOR('',#443,1.);
#60=VECTOR('',#446,1.);
#61=VECTOR('',#449,1.);
#62=VECTOR('',#462,1.);
#63=VECTOR('',#463,1.);
#64=VECTOR('',#498,1.);
#65=VECTOR('',#499,1.);
#66=VECTOR('',#500,1.);
#67=VECTOR('',#509,1.);
#68=VECTOR('',#510,1.);
#69=ORIENTED_EDGE('',*,*,#165,.T.);
#70=ORIENTED_EDGE('',*,*,#166,.T.);
#71=ORIENTED_EDGE('',*,*,#167,.F.);
#72=ORIENTED_EDGE('',*,*,#168,.T.);
#73=ORIENTED_EDGE('',*,*,#169,.T.);
#74=ORIENTED_EDGE('',*,*,#170,.T.);
#75=ORIENTED_EDGE('',*,*,#171,.T.);
#76=ORIENTED_EDGE('',*,*,#172,.T.);
#77=ORIENTED_EDGE('',*,*,#173,.F.);
#78=ORIENTED_EDGE('',*,*,#174,.T.);
#79=ORIENTED_EDGE('',*,*,#175,.T.);
#80=ORIENTED_EDGE('',*,*,#176,.T.);
#81=ORIENTED_EDGE('',*,*,#177,.T.);
#82=ORIENTED_EDGE('',*,*,#171,.F.);
#83=ORIENTED_EDGE('',*,*,#178,.T.);
#84=ORIENTED_EDGE('',*,*,#179,.F.);
#85=ORIENTED_EDGE('',*,*,#180,.T.);
#86=ORIENTED_EDGE('',*,*,#181,.F.);
#87=ORIENTED_EDGE('',*,*,#182,.T.);
#88=ORIENTED_EDGE('',*,*,#183,.T.);
#89=ORIENTED_EDGE('',*,*,#173,.T.);
#90=ORIENTED_EDGE('',*,*,#184,.T.);
#91=ORIENTED_EDGE('',*,*,#165,.F.);
#92=ORIENTED_EDGE('',*,*,#185,.T.);
#93=ORIENTED_EDGE('',*,*,#186,.T.);
#94=ORIENTED_EDGE('',*,*,#187,.T.);
#95=ORIENTED_EDGE('',*,*,#188,.T.);
#96=ORIENTED_EDGE('',*,*,#189,.T.);
#97=ORIENTED_EDGE('',*,*,#186,.F.);
#98=ORIENTED_EDGE('',*,*,#190,.T.);
#99=ORIENTED_EDGE('',*,*,#191,.T.);
#100=ORIENTED_EDGE('',*,*,#192,.F.);
#101=ORIENTED_EDGE('',*,*,#177,.F.);
#102=ORIENTED_EDGE('',*,*,#181,.T.);
#103=ORIENTED_EDGE('',*,*,#193,.T.);
#104=ORIENTED_EDGE('',*,*,#194,.T.);
#105=ORIENTED_EDGE('',*,*,#195,.T.);
#106=ORIENTED_EDGE('',*,*,#196,.T.);
#107=ORIENTED_EDGE('',*,*,#197,.T.);
#108=ORIENTED_EDGE('',*,*,#198,.F.);
#109=ORIENTED_EDGE('',*,*,#199,.F.);
#110=ORIENTED_EDGE('',*,*,#188,.F.);
#111=ORIENTED_EDGE('',*,*,#200,.F.);
#112=ORIENTED_EDGE('',*,*,#175,.F.);
#113=ORIENTED_EDGE('',*,*,#198,.T.);
#114=ORIENTED_EDGE('',*,*,#167,.T.);
#115=ORIENTED_EDGE('',*,*,#201,.T.);
#116=ORIENTED_EDGE('',*,*,#202,.T.);
#117=ORIENTED_EDGE('',*,*,#203,.T.);
#118=ORIENTED_EDGE('',*,*,#192,.T.);
#119=ORIENTED_EDGE('',*,*,#202,.F.);
#120=ORIENTED_EDGE('',*,*,#204,.T.);
#121=ORIENTED_EDGE('',*,*,#205,.F.);
#122=ORIENTED_EDGE('',*,*,#206,.T.);
#123=ORIENTED_EDGE('',*,*,#200,.T.);
#124=ORIENTED_EDGE('',*,*,#207,.T.);
#125=ORIENTED_EDGE('',*,*,#205,.T.);
#126=ORIENTED_EDGE('',*,*,#208,.T.);
#127=ORIENTED_EDGE('',*,*,#179,.T.);
#128=ORIENTED_EDGE('',*,*,#209,.T.);
#129=ORIENTED_EDGE('',*,*,#182,.F.);
#130=ORIENTED_EDGE('',*,*,#210,.T.);
#131=ORIENTED_EDGE('',*,*,#199,.T.);
#132=ORIENTED_EDGE('',*,*,#211,.T.);
#133=ORIENTED_EDGE('',*,*,#169,.F.);
#134=ORIENTED_EDGE('',*,*,#212,.T.);
#135=ORIENTED_EDGE('',*,*,#211,.F.);
#136=ORIENTED_EDGE('',*,*,#174,.F.);
#137=ORIENTED_EDGE('',*,*,#183,.F.);
#138=ORIENTED_EDGE('',*,*,#209,.F.);
#139=ORIENTED_EDGE('',*,*,#178,.F.);
#140=ORIENTED_EDGE('',*,*,#170,.F.);
#141=ORIENTED_EDGE('',*,*,#180,.F.);
#142=ORIENTED_EDGE('',*,*,#210,.F.);
#143=ORIENTED_EDGE('',*,*,#187,.F.);
#144=ORIENTED_EDGE('',*,*,#189,.F.);
#145=ORIENTED_EDGE('',*,*,#212,.F.);
#146=ORIENTED_EDGE('',*,*,#172,.F.);
#147=ORIENTED_EDGE('',*,*,#201,.F.);
#148=ORIENTED_EDGE('',*,*,#166,.F.);
#149=ORIENTED_EDGE('',*,*,#184,.F.);
#150=ORIENTED_EDGE('',*,*,#176,.F.);
#151=ORIENTED_EDGE('',*,*,#208,.F.);
#152=ORIENTED_EDGE('',*,*,#204,.F.);
#153=ORIENTED_EDGE('',*,*,#207,.F.);
#154=ORIENTED_EDGE('',*,*,#190,.F.);
#155=ORIENTED_EDGE('',*,*,#185,.F.);
#156=ORIENTED_EDGE('',*,*,#168,.F.);
#157=ORIENTED_EDGE('',*,*,#203,.F.);
#158=ORIENTED_EDGE('',*,*,#206,.F.);
#159=ORIENTED_EDGE('',*,*,#194,.F.);
#160=ORIENTED_EDGE('',*,*,#195,.F.);
#161=ORIENTED_EDGE('',*,*,#196,.F.);
#162=ORIENTED_EDGE('',*,*,#197,.F.);
#163=ORIENTED_EDGE('',*,*,#191,.F.);
#164=ORIENTED_EDGE('',*,*,#193,.F.);
#165=EDGE_CURVE('',#213,#214,#247,.F.);
#166=EDGE_CURVE('',#214,#215,#41,.F.);
#167=EDGE_CURVE('',#216,#215,#248,.F.);
#168=EDGE_CURVE('',#216,#213,#42,.T.);
#169=EDGE_CURVE('',#217,#218,#43,.T.);
#170=EDGE_CURVE('',#218,#219,#44,.F.);
#171=EDGE_CURVE('',#219,#220,#249,.F.);
#172=EDGE_CURVE('',#220,#217,#45,.T.);
#173=EDGE_CURVE('',#221,#222,#16,.T.);
#174=EDGE_CURVE('',#221,#223,#46,.F.);
#175=EDGE_CURVE('',#223,#224,#250,.T.);
#176=EDGE_CURVE('',#224,#222,#47,.T.);
#177=EDGE_CURVE('',#225,#225,#17,.T.);
#178=EDGE_CURVE('',#219,#226,#18,.T.);
#179=EDGE_CURVE('',#227,#226,#251,.F.);
#180=EDGE_CURVE('',#227,#220,#19,.T.);
#181=EDGE_CURVE('',#228,#228,#20,.T.);
#182=EDGE_CURVE('',#229,#230,#252,.F.);
#183=EDGE_CURVE('',#230,#221,#21,.T.);
#184=EDGE_CURVE('',#222,#214,#22,.T.);
#185=EDGE_CURVE('',#213,#231,#23,.T.);
#186=EDGE_CURVE('',#231,#232,#24,.T.);
#187=EDGE_CURVE('',#232,#229,#25,.T.);
#188=EDGE_CURVE('',#233,#234,#253,.T.);
#189=EDGE_CURVE('',#234,#232,#48,.T.);
#190=EDGE_CURVE('',#231,#233,#49,.F.);
#191=EDGE_CURVE('',#235,#235,#254,.F.);
#192=EDGE_CURVE('',#236,#236,#26,.T.);
#193=EDGE_CURVE('',#237,#237,#255,.F.);
#194=EDGE_CURVE('',#238,#238,#256,.F.);
#195=EDGE_CURVE('',#239,#239,#257,.T.);
#196=EDGE_CURVE('',#240,#240,#258,.F.);
#197=EDGE_CURVE('',#241,#241,#259,.T.);
#198=EDGE_CURVE('',#242,#242,#260,.T.);
#199=EDGE_CURVE('',#234,#223,#261,.T.);
#200=EDGE_CURVE('',#224,#233,#262,.F.);
#201=EDGE_CURVE('',#215,#243,#27,.T.);
#202=EDGE_CURVE('',#243,#244,#263,.F.);
#203=EDGE_CURVE('',#244,#216,#28,.T.);
#204=EDGE_CURVE('',#243,#245,#50,.F.);
#205=EDGE_CURVE('',#246,#245,#51,.T.);
#206=EDGE_CURVE('',#246,#244,#52,.T.);
#207=EDGE_CURVE('',#233,#246,#264,.T.);
#208=EDGE_CURVE('',#245,#224,#265,.T.);
#209=EDGE_CURVE('',#226,#230,#53,.F.);
#210=EDGE_CURVE('',#229,#227,#54,.T.);
#211=EDGE_CURVE('',#223,#218,#266,.T.);
#212=EDGE_CURVE('',#217,#234,#267,.T.);
#213=VERTEX_POINT('',#534);
#214=VERTEX_POINT('',#535);
#215=VERTEX_POINT('',#537);
#216=VERTEX_POINT('',#539);
#217=VERTEX_POINT('',#543);
#218=VERTEX_POINT('',#544);
#219=VERTEX_POINT('',#546);
#220=VERTEX_POINT('',#548);
#221=VERTEX_POINT('',#569);
#222=VERTEX_POINT('',#570);
#223=VERTEX_POINT('',#572);
#224=VERTEX_POINT('',#574);
#225=VERTEX_POINT('',#596);
#226=VERTEX_POINT('',#604);
#227=VERTEX_POINT('',#606);
#228=VERTEX_POINT('',#659);
#229=VERTEX_POINT('',#661);
#230=VERTEX_POINT('',#662);
#231=VERTEX_POINT('',#675);
#232=VERTEX_POINT('',#696);
#233=VERTEX_POINT('',#703);
#234=VERTEX_POINT('',#704);
#235=VERTEX_POINT('',#709);
#236=VERTEX_POINT('',#729);
#237=VERTEX_POINT('',#732);
#238=VERTEX_POINT('',#734);
#239=VERTEX_POINT('',#737);
#240=VERTEX_POINT('',#739);
#241=VERTEX_POINT('',#742);
#242=VERTEX_POINT('',#744);
#243=VERTEX_POINT('',#756);
#244=VERTEX_POINT('',#758);
#245=VERTEX_POINT('',#768);
#246=VERTEX_POINT('',#770);
#247=CIRCLE('',#384,0.045);
#248=CIRCLE('',#385,0.00675);
#249=CIRCLE('',#387,0.00675);
#250=CIRCLE('',#389,0.0294);
#251=CIRCLE('',#391,0.00675);
#252=CIRCLE('',#393,0.045);
#253=CIRCLE('',#395,0.0294);
#254=CIRCLE('',#397,0.0254);
#255=CIRCLE('',#399,0.0302625);
#256=CIRCLE('',#400,0.0302625);
#257=CIRCLE('',#402,0.0312625);
#258=CIRCLE('',#403,0.0331625000000005);
#259=CIRCLE('',#405,0.0341625);
#260=CIRCLE('',#406,0.0341625);
#261=CIRCLE('',#408,0.0294);
#262=CIRCLE('',#409,0.0294);
#263=CIRCLE('',#411,0.00675);
#264=CIRCLE('',#414,0.015);
#265=CIRCLE('',#415,0.015);
#266=CIRCLE('',#418,0.015);
#267=CIRCLE('',#419,0.015);
#268=EDGE_LOOP('',(#69,#70,#71,#72));
#269=EDGE_LOOP('',(#73,#74,#75,#76));
#270=EDGE_LOOP('',(#77,#78,#79,#80));
#271=EDGE_LOOP('',(#81));
#272=EDGE_LOOP('',(#82,#83,#84,#85));
#273=EDGE_LOOP('',(#86));
#274=EDGE_LOOP('',(#87,#88,#89,#90,#91,#92,#93,#94));
#275=EDGE_LOOP('',(#95,#96,#97,#98));
#276=EDGE_LOOP('',(#99));
#277=EDGE_LOOP('',(#100));
#278=EDGE_LOOP('',(#101));
#279=EDGE_LOOP('',(#102));
#280=EDGE_LOOP('',(#103));
#281=EDGE_LOOP('',(#104));
#282=EDGE_LOOP('',(#105));
#283=EDGE_LOOP('',(#106));
#284=EDGE_LOOP('',(#107));
#285=EDGE_LOOP('',(#108));
#286=EDGE_LOOP('',(#109,#110,#111,#112));
#287=EDGE_LOOP('',(#113));
#288=EDGE_LOOP('',(#114,#115,#116,#117));
#289=EDGE_LOOP('',(#118));
#290=EDGE_LOOP('',(#119,#120,#121,#122));
#291=EDGE_LOOP('',(#123,#124,#125,#126));
#292=EDGE_LOOP('',(#127,#128,#129,#130));
#293=EDGE_LOOP('',(#131,#132,#133,#134));
#294=EDGE_LOOP('',(#135,#136,#137,#138,#139,#140));
#295=EDGE_LOOP('',(#141,#142,#143,#144,#145,#146));
#296=EDGE_LOOP('',(#147,#148,#149,#150,#151,#152));
#297=EDGE_LOOP('',(#153,#154,#155,#156,#157,#158));
#298=EDGE_LOOP('',(#159));
#299=EDGE_LOOP('',(#160));
#300=EDGE_LOOP('',(#161));
#301=EDGE_LOOP('',(#162));
#302=EDGE_LOOP('',(#163));
#303=EDGE_LOOP('',(#164));
#304=FACE_BOUND('',#268,.T.);
#305=FACE_BOUND('',#269,.T.);
#306=FACE_BOUND('',#270,.T.);
#307=FACE_BOUND('',#271,.T.);
#308=FACE_BOUND('',#272,.T.);
#309=FACE_BOUND('',#273,.T.);
#310=FACE_BOUND('',#274,.T.);
#311=FACE_BOUND('',#275,.T.);
#312=FACE_BOUND('',#276,.T.);
#313=FACE_BOUND('',#277,.T.);
#314=FACE_BOUND('',#278,.T.);
#315=FACE_BOUND('',#279,.T.);
#316=FACE_BOUND('',#280,.T.);
#317=FACE_BOUND('',#281,.T.);
#318=FACE_BOUND('',#282,.T.);
#319=FACE_BOUND('',#283,.T.);
#320=FACE_BOUND('',#284,.T.);
#321=FACE_BOUND('',#285,.T.);
#322=FACE_BOUND('',#286,.T.);
#323=FACE_BOUND('',#287,.T.);
#324=FACE_BOUND('',#288,.T.);
#325=FACE_BOUND('',#289,.T.);
#326=FACE_BOUND('',#290,.T.);
#327=FACE_BOUND('',#291,.T.);
#328=FACE_BOUND('',#292,.T.);
#329=FACE_BOUND('',#293,.T.);
#330=FACE_BOUND('',#294,.T.);
#331=FACE_BOUND('',#295,.T.);
#332=FACE_BOUND('',#296,.T.);
#333=FACE_BOUND('',#297,.T.);
#334=FACE_BOUND('',#298,.T.);
#335=FACE_BOUND('',#299,.T.);
#336=FACE_BOUND('',#300,.T.);
#337=FACE_BOUND('',#301,.T.);
#338=FACE_BOUND('',#302,.T.);
#339=FACE_BOUND('',#303,.T.);
#340=PLANE('',#383);
#341=PLANE('',#386);
#342=PLANE('',#401);
#343=PLANE('',#412);
#344=PLANE('',#413);
#345=PLANE('',#416);
#346=PLANE('',#417);
#347=ADVANCED_FACE('',(#304),#340,.F.);
#348=ADVANCED_FACE('',(#305),#341,.T.);
#349=ADVANCED_FACE('',(#306),#29,.T.);
#350=ADVANCED_FACE('',(#307,#308),#30,.F.);
#351=ADVANCED_FACE('',(#309,#310),#31,.T.);
#352=ADVANCED_FACE('',(#311),#32,.T.);
#353=ADVANCED_FACE('',(#312,#313,#314,#315),#33,.F.);
#354=ADVANCED_FACE('',(#316,#317),#34,.F.);
#355=ADVANCED_FACE('',(#318,#319),#342,.F.);
#356=ADVANCED_FACE('',(#320,#321),#35,.T.);
#357=ADVANCED_FACE('',(#322,#323),#12,.T.);
#358=ADVANCED_FACE('',(#324,#325),#36,.F.);
#359=ADVANCED_FACE('',(#326),#343,.F.);
#360=ADVANCED_FACE('',(#327),#344,.F.);
#361=ADVANCED_FACE('',(#328),#345,.T.);
#362=ADVANCED_FACE('',(#329),#346,.F.);
#363=ADVANCED_FACE('',(#330),#37,.T.);
#364=ADVANCED_FACE('',(#331),#38,.T.);
#365=ADVANCED_FACE('',(#332),#39,.T.);
#366=ADVANCED_FACE('',(#333),#40,.T.);
#367=ADVANCED_FACE('',(#334,#335),#13,.F.);
#368=ADVANCED_FACE('',(#336,#337),#14,.T.);
#369=ADVANCED_FACE('',(#338,#339),#15,.F.);
#370=CLOSED_SHELL('',(#347,#348,#349,#350,#351,#352,#353,#354,#355,#356,
#357,#358,#359,#360,#361,#362,#363,#364,#365,#366,#367,#368,#369));
#371=STYLED_ITEM('',(#372),#379);
#372=PRESENTATION_STYLE_ASSIGNMENT((#373));
#373=SURFACE_STYLE_USAGE(.BOTH.,#374);
#374=SURFACE_SIDE_STYLE('',(#375));
#375=SURFACE_STYLE_FILL_AREA(#376);
#376=FILL_AREA_STYLE('',(#377));
#377=FILL_AREA_STYLE_COLOUR('',#378);
#378=COLOUR_RGB('',0.768627450980392,0.886274509803922,0.952941176470588);
#379=MANIFOLD_SOLID_BREP('Part 27',#370);
#380=SHAPE_DEFINITION_REPRESENTATION(#794,#381);
#381=SHAPE_REPRESENTATION('Part 27',(#382),#789);
#382=AXIS2_PLACEMENT_3D('',#531,#427,#428);
#383=AXIS2_PLACEMENT_3D('',#532,#429,#430);
#384=AXIS2_PLACEMENT_3D('',#533,#431,#432);
#385=AXIS2_PLACEMENT_3D('',#538,#434,#435);
#386=AXIS2_PLACEMENT_3D('',#541,#437,#438);
#387=AXIS2_PLACEMENT_3D('',#547,#441,#442);
#388=AXIS2_PLACEMENT_3D('',#550,#444,#445);
#389=AXIS2_PLACEMENT_3D('',#573,#447,#448);
#390=AXIS2_PLACEMENT_3D('',#576,#450,#451);
#391=AXIS2_PLACEMENT_3D('',#605,#452,#453);
#392=AXIS2_PLACEMENT_3D('',#614,#454,#455);
#393=AXIS2_PLACEMENT_3D('',#660,#456,#457);
#394=AXIS2_PLACEMENT_3D('',#701,#458,#459);
#395=AXIS2_PLACEMENT_3D('',#702,#460,#461);
#396=AXIS2_PLACEMENT_3D('',#707,#464,#465);
#397=AXIS2_PLACEMENT_3D('',#708,#466,#467);
#398=AXIS2_PLACEMENT_3D('',#730,#468,#469);
#399=AXIS2_PLACEMENT_3D('',#731,#470,#471);
#400=AXIS2_PLACEMENT_3D('',#733,#472,#473);
#401=AXIS2_PLACEMENT_3D('',#735,#474,#475);
#402=AXIS2_PLACEMENT_3D('',#736,#476,#477);
#403=AXIS2_PLACEMENT_3D('',#738,#478,#479);
#404=AXIS2_PLACEMENT_3D('',#740,#480,#481);
#405=AXIS2_PLACEMENT_3D('',#741,#482,#483);
#406=AXIS2_PLACEMENT_3D('',#743,#484,#485);
#407=AXIS2_PLACEMENT_3D('',#745,#486,#487);
#408=AXIS2_PLACEMENT_3D('',#746,#488,#489);
#409=AXIS2_PLACEMENT_3D('',#747,#490,#491);
#410=AXIS2_PLACEMENT_3D('',#748,#492,#493);
#411=AXIS2_PLACEMENT_3D('',#757,#494,#495);
#412=AXIS2_PLACEMENT_3D('',#766,#496,#497);
#413=AXIS2_PLACEMENT_3D('',#772,#501,#502);
#414=AXIS2_PLACEMENT_3D('',#773,#503,#504);
#415=AXIS2_PLACEMENT_3D('',#774,#505,#506);
#416=AXIS2_PLACEMENT_3D('',#775,#507,#508);
#417=AXIS2_PLACEMENT_3D('',#778,#511,#512);
#418=AXIS2_PLACEMENT_3D('',#779,#513,#514);
#419=AXIS2_PLACEMENT_3D('',#780,#515,#516);
#420=AXIS2_PLACEMENT_3D('',#781,#517,#518);
#421=AXIS2_PLACEMENT_3D('',#782,#519,#520);
#422=AXIS2_PLACEMENT_3D('',#783,#521,#522);
#423=AXIS2_PLACEMENT_3D('',#784,#523,#524);
#424=AXIS2_PLACEMENT_3D('',#785,#525,#526);
#425=AXIS2_PLACEMENT_3D('',#786,#527,#528);
#426=AXIS2_PLACEMENT_3D('',#787,#529,#530);
#427=DIRECTION('',(0.,0.,1.));
#428=DIRECTION('',(1.,0.,0.));
#429=DIRECTION('',(0.,1.,0.));
#430=DIRECTION('',(0.,0.,1.));
#431=DIRECTION('',(0.,1.,0.));
#432=DIRECTION('',(0.,0.,1.));
#433=DIRECTION('',(-0.707106781186548,0.,-0.707106781186548));
#434=DIRECTION('',(0.,1.,0.));
#435=DIRECTION('',(0.,0.,1.));
#436=DIRECTION('',(-0.707106781186548,0.,-0.707106781186548));
#437=DIRECTION('',(0.,1.,0.));
#438=DIRECTION('',(0.,0.,1.));
#439=DIRECTION('',(0.707106781186548,0.,-0.707106781186547));
#440=DIRECTION('',(0.707106781186548,0.,0.707106781186548));
#441=DIRECTION('',(0.,1.,0.));
#442=DIRECTION('',(0.,0.,1.));
#443=DIRECTION('',(0.707106781186548,0.,0.707106781186548));
#444=DIRECTION('',(-0.707106781186548,0.,-0.707106781186548));
#445=DIRECTION('',(-0.707106781186548,0.,0.707106781186548));
#446=DIRECTION('',(-0.707106781186548,0.,-0.707106781186548));
#447=DIRECTION('',(-0.707106781186548,0.,-0.707106781186548));
#448=DIRECTION('',(-0.707106781186548,0.,0.707106781186548));
#449=DIRECTION('',(-0.707106781186548,0.,-0.707106781186548));
#450=DIRECTION('',(0.,-1.,0.));
#451=DIRECTION('',(0.,0.,-1.));
#452=DIRECTION('',(0.,1.,0.));
#453=DIRECTION('',(0.,0.,1.));
#454=DIRECTION('',(0.,-1.,0.));
#455=DIRECTION('',(0.,0.,-1.));
#456=DIRECTION('',(0.,1.,0.));
#457=DIRECTION('',(0.,0.,1.));
#458=DIRECTION('',(-0.707106781186548,0.,-0.707106781186548));
#459=DIRECTION('',(-0.707106781186548,0.,0.707106781186548));
#460=DIRECTION('',(-0.707106781186548,0.,-0.707106781186548));
#461=DIRECTION('',(-0.707106781186548,0.,0.707106781186548));
#462=DIRECTION('',(-0.707106781186548,0.,-0.707106781186548));
#463=DIRECTION('',(-0.707106781186548,0.,-0.707106781186548));
#464=DIRECTION('',(-0.707106781186548,0.,-0.707106781186548));
#465=DIRECTION('',(-0.707106781186548,0.,0.707106781186548));
#466=DIRECTION('',(-0.70710678118655,0.,-0.707106781186545));
#467=DIRECTION('',(-0.707106781186545,0.,0.70710678118655));
#468=DIRECTION('',(-0.707106781186548,0.,-0.707106781186548));
#469=DIRECTION('',(-0.707106781186548,0.,0.707106781186548));
#470=DIRECTION('',(0.70710678118655,0.,0.707106781186545));
#471=DIRECTION('',(0.707106781186545,0.,-0.70710678118655));
#472=DIRECTION('',(-0.707106781186548,0.,-0.707106781186548));
#473=DIRECTION('',(-0.707106781186548,0.,0.707106781186548));
#474=DIRECTION('',(-0.707106781186548,0.,-0.707106781186548));
#475=DIRECTION('',(-0.707106781186548,0.,0.707106781186548));
#476=DIRECTION('',(-0.707106781186548,0.,-0.707106781186548));
#477=DIRECTION('',(-0.707106781186548,0.,0.707106781186548));
#478=DIRECTION('',(-0.707106781186548,0.,-0.707106781186548));
#479=DIRECTION('',(-0.707106781186548,0.,0.707106781186548));
#480=DIRECTION('',(-0.707106781186548,0.,-0.707106781186548));
#481=DIRECTION('',(-0.707106781186548,0.,0.707106781186548));
#482=DIRECTION('',(-0.707106781186555,0.,-0.707106781186541));
#483=DIRECTION('',(-0.707106781186541,0.,0.707106781186555));
#484=DIRECTION('',(-0.707106781186548,0.,-0.707106781186548));
#485=DIRECTION('',(-0.707106781186548,0.,0.707106781186548));
#486=DIRECTION('',(0.707106781186548,0.,0.707106781186548));
#487=DIRECTION('',(0.707106781186548,0.,-0.707106781186548));
#488=DIRECTION('',(-0.707106781186548,0.,-0.707106781186548));
#489=DIRECTION('',(-0.707106781186548,0.,0.707106781186548));
#490=DIRECTION('',(0.707106781186547,0.,0.707106781186548));
#491=DIRECTION('',(0.707106781186548,0.,-0.707106781186547));
#492=DIRECTION('',(0.,-1.,0.));
#493=DIRECTION('',(0.,0.,-1.));
#494=DIRECTION('',(0.,1.,0.));
#495=DIRECTION('',(0.,0.,1.));
#496=DIRECTION('',(0.,1.,0.));
#497=DIRECTION('',(0.,0.,1.));
#498=DIRECTION('',(-0.707106781186548,0.,-0.707106781186548));
#499=DIRECTION('',(0.707106781186548,0.,-0.707106781186547));
#500=DIRECTION('',(-0.707106781186548,0.,-0.707106781186548));
#501=DIRECTION('',(0.707106781186547,0.,0.707106781186548));
#502=DIRECTION('',(0.,1.,0.));
#503=DIRECTION('',(0.707106781186547,0.,0.707106781186548));
#504=DIRECTION('',(0.707106781186548,0.,-0.707106781186547));
#505=DIRECTION('',(0.707106781186547,0.,0.707106781186548));
#506=DIRECTION('',(0.707106781186548,0.,-0.707106781186547));
#507=DIRECTION('',(0.,1.,0.));
#508=DIRECTION('',(0.,0.,1.));
#509=DIRECTION('',(0.707106781186548,0.,0.707106781186548));
#510=DIRECTION('',(0.707106781186548,0.,0.707106781186548));
#511=DIRECTION('',(0.707106781186547,0.,0.707106781186548));
#512=DIRECTION('',(0.,1.,0.));
#513=DIRECTION('',(0.707106781186547,0.,0.707106781186548));
#514=DIRECTION('',(0.707106781186548,0.,-0.707106781186547));
#515=DIRECTION('',(0.707106781186547,0.,0.707106781186548));
#516=DIRECTION('',(0.707106781186548,0.,-0.707106781186547));
#517=DIRECTION('',(-0.707106781186548,0.,-0.707106781186548));
#518=DIRECTION('',(-0.707106781186548,0.,0.707106781186548));
#519=DIRECTION('',(-0.707106781186548,0.,-0.707106781186548));
#520=DIRECTION('',(-0.707106781186548,0.,0.707106781186548));
#521=DIRECTION('',(-0.707106781186548,0.,-0.707106781186548));
#522=DIRECTION('',(-0.707106781186548,0.,0.707106781186548));
#523=DIRECTION('',(-0.707106781186548,0.,-0.707106781186548));
#524=DIRECTION('',(-0.707106781186548,0.,0.707106781186548));
#525=DIRECTION('',(0.707106781186548,0.,0.707106781186548));
#526=DIRECTION('',(0.707106781186548,0.,-0.707106781186548));
#527=DIRECTION('',(-0.707106781186555,0.,-0.707106781186541));
#528=DIRECTION('',(-0.707106781186541,0.,0.707106781186555));
#529=DIRECTION('',(0.70710678118655,0.,0.707106781186545));
#530=DIRECTION('',(0.707106781186545,0.,-0.70710678118655));
#531=CARTESIAN_POINT('',(0.,0.,0.));
#532=CARTESIAN_POINT('',(0.0776432083264566,-0.0284,0.527954842652438));
#533=CARTESIAN_POINT('',(0.0597961867226987,-0.0284,0.51010782104868));
#534=CARTESIAN_POINT('',(0.024467283441183,-0.0284,0.482235458520087));
#535=CARTESIAN_POINT('',(0.031923824194106,-0.0284,0.474778917767164));
#536=CARTESIAN_POINT('',(0.0813714787029181,-0.0284,0.524226572275976));
#537=CARTESIAN_POINT('',(0.0605443144851232,-0.0284,0.503399408058181));
#538=CARTESIAN_POINT('',(0.0597961867226988,-0.0284,0.51010782104868));
#539=CARTESIAN_POINT('',(0.0530877737322003,-0.0284,0.510855948811104));
#540=CARTESIAN_POINT('',(0.0739149379499951,-0.0284,0.531683113028899));
#541=CARTESIAN_POINT('',(0.0776432083264566,0.0284,0.527954842652438));
#542=CARTESIAN_POINT('',(0.0776417941128942,0.0284,0.527953428438875));
#543=CARTESIAN_POINT('',(0.0739135237364327,0.0284,0.531681698815337));
#544=CARTESIAN_POINT('',(0.0813700644893557,0.0284,0.524225158062414));
#545=CARTESIAN_POINT('',(0.0321620592316502,0.0284,0.475017152804708));
#546=CARTESIAN_POINT('',(0.0665045997131974,0.0284,0.509359693286256));
#547=CARTESIAN_POINT('',(0.0597961867226988,0.0284,0.51010782104868));
#548=CARTESIAN_POINT('',(0.0590480589602742,0.0284,0.516816234039179));
#549=CARTESIAN_POINT('',(0.0739135237364327,0.0284,0.531681698815337));
#550=CARTESIAN_POINT('',(0.197752719732194,0.,0.648064354058175));
#551=CARTESIAN_POINT('',(0.0365121305711214,0.0273583333333334,0.471599994193218));
#552=CARTESIAN_POINT('',(0.0377318767834778,0.0268137623468713,0.470862465186303));
#553=CARTESIAN_POINT('',(0.0401586055726606,0.0255349433007101,0.469551813886325));
#554=CARTESIAN_POINT('',(0.0437458865663513,0.0230525310850123,0.46801303568374));
#555=CARTESIAN_POINT('',(0.0470684683862868,0.020150910581663,0.466902312385721));
#556=CARTESIAN_POINT('',(0.0501364724221464,0.0167768462509504,0.46612458399256));
#557=CARTESIAN_POINT('',(0.0527291440845405,0.0130917067226479,0.465645230391215));
#558=CARTESIAN_POINT('',(0.0548117076330648,0.00899738826771411,0.465373363719496));
#559=CARTESIAN_POINT('',(0.0561705358797659,0.00462006716753406,0.465251338519232));
#560=CARTESIAN_POINT('',(0.056653459085018,8.88436401184954E-6,0.465218228575787));
#561=CARTESIAN_POINT('',(0.0561873346537611,-0.00453055919169777,0.465250050283501));
#562=CARTESIAN_POINT('',(0.0543766427441467,-0.010433716140713,0.465411846332699));
#563=CARTESIAN_POINT('',(0.051136575605949,-0.0156773877010723,0.465870778875601));
#564=CARTESIAN_POINT('',(0.0470844127044902,-0.0201363515656105,0.466897039293768));
#565=CARTESIAN_POINT('',(0.0437168549421681,-0.0230740940911337,0.46802491500279));
#566=CARTESIAN_POINT('',(0.0402027927316691,-0.025506920610022,0.469531022176033));
#567=CARTESIAN_POINT('',(0.0377320461319263,-0.0268136867391336,0.47086236278845));
#568=CARTESIAN_POINT('',(0.0365121305711213,-0.0273583333333335,0.471599994193219));
#569=CARTESIAN_POINT('',(0.0365121305711216,0.0273583333333333,0.471599994193219));
#570=CARTESIAN_POINT('',(0.0365121305711216,-0.0273583333333333,0.471599994193219));
#571=CARTESIAN_POINT('',(0.205364605084137,0.0273583333333333,0.640452468706233));
#572=CARTESIAN_POINT('',(0.0852536794648364,0.0273583333333333,0.520341543086933));
#573=CARTESIAN_POINT('',(0.0776417941128942,0.,0.527953428438875));
#574=CARTESIAN_POINT('',(0.0852536794648363,-0.0273583333333334,0.520341543086933));
#575=CARTESIAN_POINT('',(0.205364605084137,-0.0273583333333333,0.640452468706233));
#576=CARTESIAN_POINT('',(0.0597961867226988,1.55613756117133,0.51010782104868));
#577=CARTESIAN_POINT('',(0.0571477734705594,0.0253030619829523,0.503707761806468));
#578=CARTESIAN_POINT('',(0.0597981176993006,0.0249483223606939,0.503183358897662));
#579=CARTESIAN_POINT('',(0.0624368760684311,0.0245887680751806,0.503705728894965));
#580=CARTESIAN_POINT('',(0.0646943466905803,0.0244356677088695,0.505208709284102));
#581=CARTESIAN_POINT('',(0.0661979767937548,0.0245886414549487,0.507465830528454));
#582=CARTESIAN_POINT('',(0.0667194761380696,0.0249479815704547,0.510103980947023));
#583=CARTESIAN_POINT('',(0.0662012326581672,0.0253014879426674,0.512742524871286));
#584=CARTESIAN_POINT('',(0.0646974482529972,0.0254490888804289,0.515004690991962));
#585=CARTESIAN_POINT('',(0.0624368923584376,0.0253021554307848,0.516510483157142));
#586=CARTESIAN_POINT('',(0.0597978355216206,0.0249487832987089,0.517031053488576));
#587=CARTESIAN_POINT('',(0.0571615482745057,0.0245895438831072,0.516512227201175));
#588=CARTESIAN_POINT('',(0.0549034998496856,0.0244356000310905,0.51501262722997));
#589=CARTESIAN_POINT('',(0.0533947971722254,0.0245881428629498,0.512753030329349));
#590=CARTESIAN_POINT('',(0.0528724997143956,0.0249483484662521,0.510109236831563));
#591=CARTESIAN_POINT('',(0.053392326770699,0.0253016714252837,0.50747107695717));
#592=CARTESIAN_POINT('',(0.054893907643525,0.0254488157362594,0.505213461794928));
#593=CARTESIAN_POINT('',(0.0571477734705594,0.0253030619829523,0.503707761806468));
#594=CARTESIAN_POINT('',(0.0597981176993006,0.0249483223606939,0.503183358897662));
#595=CARTESIAN_POINT('',(0.0624368760684311,0.0245887680751806,0.503705728894965));
#596=CARTESIAN_POINT('',(0.0597961867226988,0.0249475199168176,0.50335782104868));
#597=CARTESIAN_POINT('',(0.0665045997131974,0.0284,0.509359693286256));
#598=CARTESIAN_POINT('',(0.0664196867422685,0.0284,0.508598284198327));
#599=CARTESIAN_POINT('',(0.0659958579067677,0.0283560795024541,0.507130068421881));
#600=CARTESIAN_POINT('',(0.0646612914375382,0.0283125518148511,0.505242676102049));
#601=CARTESIAN_POINT('',(0.0627735716589722,0.0283560897023584,0.503907979169863));
#602=CARTESIAN_POINT('',(0.0613057244766494,0.0284,0.50348432112988));
#603=CARTESIAN_POINT('',(0.060544314485123,0.0284,0.503399408058181));
#604=CARTESIAN_POINT('',(0.060544314485123,0.0284,0.503399408058181));
#605=CARTESIAN_POINT('',(0.0597961867226988,0.0284,0.51010782104868));
#606=CARTESIAN_POINT('',(0.0530877737322003,0.0284,0.510855948811105));
#607=CARTESIAN_POINT('',(0.0530877737322003,0.0284,0.510855948811105));
#608=CARTESIAN_POINT('',(0.0531726867031293,0.0284,0.511617357899034));
#609=CARTESIAN_POINT('',(0.0535965155386302,0.0283560795024541,0.513085573675479));
#610=CARTESIAN_POINT('',(0.0549310820078598,0.0283125518148512,0.514972965995312));
#611=CARTESIAN_POINT('',(0.0568188017864256,0.0283560897023584,0.516307662927497));
#612=CARTESIAN_POINT('',(0.0582866489687481,0.0284,0.516731320967479));
#613=CARTESIAN_POINT('',(0.0590480589602743,0.0284,0.516816234039178));
#614=CARTESIAN_POINT('',(0.0597961867226987,1.55613756117133,0.51010782104868));
#615=CARTESIAN_POINT('',(0.0155886811891655,-0.0025703730193425,0.501697829788041));
#616=CARTESIAN_POINT('',(0.0155503986818744,0.00086369352695452,0.501905313536626));
#617=CARTESIAN_POINT('',(0.0156431993005409,0.00507862335412192,0.501393104767266));
#618=CARTESIAN_POINT('',(0.0160108740477067,0.0099188852229569,0.499641739881704));
#619=CARTESIAN_POINT('',(0.016704777817934,0.0142513860362168,0.497017621117649));
#620=CARTESIAN_POINT('',(0.0176369702238471,0.0174055884532393,0.494284475585038));
#621=CARTESIAN_POINT('',(0.0186309191289417,0.0195916143703562,0.491892407149718));
#622=CARTESIAN_POINT('',(0.0198257263192881,0.0215708575627259,0.489349795399117));
#623=CARTESIAN_POINT('',(0.0216373610562298,0.0235238328239098,0.486099854113122));
#624=CARTESIAN_POINT('',(0.0244922322256312,0.0250497094592241,0.482053850815712));
#625=CARTESIAN_POINT('',(0.0272751276249196,0.0254828290742929,0.478922832225166));
#626=CARTESIAN_POINT('',(0.0297732138561803,0.025320619691949,0.476554710457342));
#627=CARTESIAN_POINT('',(0.031693676740756,0.0249449758249993,0.474932540007165));
#628=CARTESIAN_POINT('',(0.0336650965267317,0.024327920628275,0.473444671071934));
#629=CARTESIAN_POINT('',(0.0363555613748961,0.0231761817966939,0.471637216356142));
#630=CARTESIAN_POINT('',(0.0396410573266816,0.0212162228322409,0.469796771076016));
#631=CARTESIAN_POINT('',(0.0427643829353835,0.0185977625656472,0.468423144778578));
#632=CARTESIAN_POINT('',(0.0450111197025009,0.0162084287455577,0.467594372724007));
#633=CARTESIAN_POINT('',(0.047111247146132,0.0135777722316722,0.466909937470228));
#634=CARTESIAN_POINT('',(0.0488532229105786,0.0107081232643517,0.46644812488752));
#635=CARTESIAN_POINT('',(0.0501704445010142,0.00760359958953523,0.466146297065372));
#636=CARTESIAN_POINT('',(0.0511689143979216,0.00431199293261219,0.465939032564168));
#637=CARTESIAN_POINT('',(0.0515903118023926,0.000948537411759033,0.465862686713453));
#638=CARTESIAN_POINT('',(0.0513953729869117,-0.0024939997978229,0.465898569072146));
#639=CARTESIAN_POINT('',(0.0508060113564377,-0.0058253486888984,0.466012491731631));
#640=CARTESIAN_POINT('',(0.0493536823540442,-0.00987455336365862,0.466316795088883));
#641=CARTESIAN_POINT('',(0.0467227864269961,-0.0142272959324769,0.4670118978311));
#642=CARTESIAN_POINT('',(0.0434580282332961,-0.0180082165699382,0.46812123223105));
#643=CARTESIAN_POINT('',(0.0397134747171187,-0.0211628165646622,0.469761899912175));
#644=CARTESIAN_POINT('',(0.0357965654994547,-0.0235206999616755,0.471943247484274));
#645=CARTESIAN_POINT('',(0.0317469858112012,-0.0250486387597057,0.474799907051672));
#646=CARTESIAN_POINT('',(0.0286091982338488,-0.0254836059042578,0.477588144139515));
#647=CARTESIAN_POINT('',(0.0262372467444769,-0.0253194706613266,0.480091599025835));
#648=CARTESIAN_POINT('',(0.0240756705706328,-0.0248197665805902,0.482649928561969));
#649=CARTESIAN_POINT('',(0.0216867921639213,-0.023565422785026,0.486018951162692));
#650=CARTESIAN_POINT('',(0.0194729008245503,-0.0211994410828132,0.489977030916258));
#651=CARTESIAN_POINT('',(0.0181022276070663,-0.0185766625123305,0.493098740737038));
#652=CARTESIAN_POINT('',(0.0172737271247103,-0.0161792652861202,0.495348558503997));
#653=CARTESIAN_POINT('',(0.0165903119543448,-0.0135369878354573,0.497450327254764));
#654=CARTESIAN_POINT('',(0.0160165512880895,-0.00996183932058231,0.499619307769901));
#655=CARTESIAN_POINT('',(0.0157052997180586,-0.00591252980476567,0.501094759182537));
#656=CARTESIAN_POINT('',(0.0155886811891655,-0.0025703730193425,0.501697829788041));
#657=CARTESIAN_POINT('',(0.0155503986818744,0.00086369352695452,0.501905313536626));
#658=CARTESIAN_POINT('',(0.0156431993005409,0.00507862335412192,0.501393104767266));
#659=CARTESIAN_POINT('',(0.0155693462255492,-4.58523418507144E-17,0.501802005035807));
#660=CARTESIAN_POINT('',(0.0597961867226987,0.0284,0.51010782104868));
#661=CARTESIAN_POINT('',(0.024467283441183,0.0284,0.482235458520087));
#662=CARTESIAN_POINT('',(0.031923824194106,0.0284,0.474778917767164));
#663=CARTESIAN_POINT('',(0.0319238241941059,0.0284,0.474778917767164));
#664=CARTESIAN_POINT('',(0.0334383811308957,0.0284,0.473584024178874));
#665=CARTESIAN_POINT('',(0.0349713554490649,0.0280462317007436,0.47253163582009));
#666=CARTESIAN_POINT('',(0.0365121305711216,0.0273583333333333,0.471599994193218));
#667=CARTESIAN_POINT('',(0.0365121305711216,-0.0273583333333334,0.471599994193219));
#668=CARTESIAN_POINT('',(0.0349713554490649,-0.0280462317007436,0.472531635820091));
#669=CARTESIAN_POINT('',(0.0334383811308957,-0.0284,0.473584024178874));
#670=CARTESIAN_POINT('',(0.031923824194106,-0.0284,0.474778917767164));
#671=CARTESIAN_POINT('',(0.024467283441183,-0.0284,0.482235458520087));
#672=CARTESIAN_POINT('',(0.0232723898528929,-0.0284000000000001,0.483750015456877));
#673=CARTESIAN_POINT('',(0.0222200014941092,-0.0280462317007436,0.485282989775046));
#674=CARTESIAN_POINT('',(0.0212883598672372,-0.0273583333333333,0.486823764897103));
#675=CARTESIAN_POINT('',(0.0212883598672372,-0.0273583333333333,0.486823764897103));
#676=CARTESIAN_POINT('',(0.0212883598672371,-0.0273583333333332,0.486823764897103));
#677=CARTESIAN_POINT('',(0.0205490772859602,-0.0268124675561429,0.488046411220052));
#678=CARTESIAN_POINT('',(0.0192191560353411,-0.0255077255924954,0.49051400741153));
#679=CARTESIAN_POINT('',(0.017701328910416,-0.023053940360771,0.494057312987432));
#680=CARTESIAN_POINT('',(0.0165735771867636,-0.0200941507332096,0.497437528253532));
#681=CARTESIAN_POINT('',(0.0158121130060453,-0.0167720766152166,0.500453208514205));
#682=CARTESIAN_POINT('',(0.0153234163132009,-0.012994601689356,0.503101280846681));
#683=CARTESIAN_POINT('',(0.0150593892401023,-0.00893459671154975,0.505149802143801));
#684=CARTESIAN_POINT('',(0.0149575245658228,-0.00522878916683078,0.50628324668197));
#685=CARTESIAN_POINT('',(0.0149224407166864,-0.00220967298156603,0.506736816416));
#686=CARTESIAN_POINT('',(0.0149120967328239,0.000877868828384227,0.506882702219116));
#687=CARTESIAN_POINT('',(0.0149404065431358,0.0046517983612232,0.506472146381421));
#688=CARTESIAN_POINT('',(0.015064102276376,0.00904456048181506,0.505104079387899));
#689=CARTESIAN_POINT('',(0.0153346339638278,0.0131128172668729,0.50302964627417));
#690=CARTESIAN_POINT('',(0.015826814478207,0.0168550452273196,0.500385432482449));
#691=CARTESIAN_POINT('',(0.0165976714223259,0.0201730121222782,0.497356251464416));
#692=CARTESIAN_POINT('',(0.0177249933206096,0.0231021266027932,0.49399485897119));
#693=CARTESIAN_POINT('',(0.0192522196942396,0.0255446696648781,0.490449160373575));
#694=CARTESIAN_POINT('',(0.0205526187977264,0.0268150825103182,0.488040554168299));
#695=CARTESIAN_POINT('',(0.0212883598672371,0.0273583333333332,0.486823764897103));
#696=CARTESIAN_POINT('',(0.0212883598672372,0.0273583333333333,0.486823764897103));
#697=CARTESIAN_POINT('',(0.0212883598672372,0.0273583333333333,0.486823764897103));
#698=CARTESIAN_POINT('',(0.0222200014941091,0.0280462317007436,0.485282989775046));
#699=CARTESIAN_POINT('',(0.0232723898528928,0.0284,0.483750015456877));
#700=CARTESIAN_POINT('',(0.024467283441183,0.0284,0.482235458520087));
#701=CARTESIAN_POINT('',(0.197752719732194,0.,0.648064354058175));
#702=CARTESIAN_POINT('',(0.0776417941128942,0.,0.527953428438875));
#703=CARTESIAN_POINT('',(0.070029908760952,-0.0273583333333333,0.535565313790818));
#704=CARTESIAN_POINT('',(0.0700299087609519,0.0273583333333333,0.535565313790818));
#705=CARTESIAN_POINT('',(0.190140834380252,0.0273583333333333,0.655676239410118));
#706=CARTESIAN_POINT('',(0.190140834380252,-0.0273583333333333,0.655676239410118));
#707=CARTESIAN_POINT('',(0.197752719732194,0.,0.648064354058175));
#708=CARTESIAN_POINT('',(0.0774738562523624,0.,0.527785490578344));
#709=CARTESIAN_POINT('',(0.0595133440102242,0.,0.545746002820482));
#710=CARTESIAN_POINT('',(0.0624439754462657,-0.02458788852154,0.503707611160644));
#711=CARTESIAN_POINT('',(0.0597945670818953,-0.0249487567433859,0.50318336363748));
#712=CARTESIAN_POINT('',(0.0571548765623457,-0.0253022040058197,0.503705860581517));
#713=CARTESIAN_POINT('',(0.0548974384064376,-0.0254489084134067,0.505209318164023));
#714=CARTESIAN_POINT('',(0.053393944505544,-0.0253021623371422,0.507466689439066));
#715=CARTESIAN_POINT('',(0.0528728871518428,-0.0249488702474671,0.510105761150201));
#716=CARTESIAN_POINT('',(0.0533916295659476,-0.0245893397267648,0.512743417047927));
#717=CARTESIAN_POINT('',(0.0548953725624231,-0.0244354821883811,0.515005145693944));
#718=CARTESIAN_POINT('',(0.05715606061069,-0.0245888125321772,0.51651063226051));
#719=CARTESIAN_POINT('',(0.0597942943712019,-0.0249482919535718,0.517031044283836));
#720=CARTESIAN_POINT('',(0.0624313995277295,-0.0253014504337957,0.516512114972544));
#721=CARTESIAN_POINT('',(0.0646895142633538,-0.0254489737724479,0.515011974941969));
#722=CARTESIAN_POINT('',(0.0661980105789479,-0.0253026495268938,0.51275218766434));
#723=CARTESIAN_POINT('',(0.0667198829024916,-0.0249485140964023,0.510107490577639));
#724=CARTESIAN_POINT('',(0.0661995777823222,-0.0245891491315545,0.507470213360948));
#725=CARTESIAN_POINT('',(0.0646979767563,-0.024435761382355,0.505212951779761));
#726=CARTESIAN_POINT('',(0.0624439754462657,-0.02458788852154,0.503707611160644));
#727=CARTESIAN_POINT('',(0.0597945670818953,-0.0249487567433859,0.50318336363748));
#728=CARTESIAN_POINT('',(0.0571548765623457,-0.0253022040058197,0.503705860581517));
#729=CARTESIAN_POINT('',(0.0597961867226989,-0.0249475199168176,0.50335782104868));
#730=CARTESIAN_POINT('',(0.197752719732194,0.,0.648064354058175));
#731=CARTESIAN_POINT('',(0.0809121629758819,0.,0.531223797301863));
#732=CARTESIAN_POINT('',(0.10231098194154,0.,0.509824978336205));
#733=CARTESIAN_POINT('',(0.101515486812705,0.,0.551827121138686));
#734=CARTESIAN_POINT('',(0.0801166678470471,0.,0.573225940104344));
#735=CARTESIAN_POINT('',(0.0794449164049198,0.,0.575311905108845));
#736=CARTESIAN_POINT('',(0.102222593593892,0.,0.552534227919873));
#737=CARTESIAN_POINT('',(0.0801166678470471,0.,0.574640153666717));
#738=CARTESIAN_POINT('',(0.102222593593892,0.,0.552534227919873));
#739=CARTESIAN_POINT('',(0.0787731649627924,0.,0.575983656550972));
#740=CARTESIAN_POINT('',(0.197752719732194,0.,0.648064354058175));
#741=CARTESIAN_POINT('',(0.101515486812705,0.,0.551827121138686));
#742=CARTESIAN_POINT('',(0.0773589514004198,0.,0.575983656550972));
#743=CARTESIAN_POINT('',(0.0810093901582952,0.,0.531321024484276));
#744=CARTESIAN_POINT('',(0.0568528547460097,0.,0.555477559896561));
#745=CARTESIAN_POINT('',(0.0810093901582952,0.,0.531321024484276));
#746=CARTESIAN_POINT('',(0.0776417941128942,0.,0.527953428438875));
#747=CARTESIAN_POINT('',(0.0776417941128942,1.90819582357449E-16,0.527953428438875));
#748=CARTESIAN_POINT('',(0.0597961867226988,1.55613756117133,0.51010782104868));
#749=CARTESIAN_POINT('',(0.0605443144851232,-0.0284,0.503399408058181));
#750=CARTESIAN_POINT('',(0.061305723573052,-0.0284,0.50348432102911));
#751=CARTESIAN_POINT('',(0.0627739393494979,-0.028356079502454,0.503908149864611));
#752=CARTESIAN_POINT('',(0.0646613316693305,-0.0283125518148511,0.505242716333841));
#753=CARTESIAN_POINT('',(0.065996028601516,-0.0283560897023583,0.507130436112407));
#754=CARTESIAN_POINT('',(0.0664196866414985,-0.0284,0.50859828329473));
#755=CARTESIAN_POINT('',(0.0665045997131974,-0.0284,0.509359693286256));
#756=CARTESIAN_POINT('',(0.0665045997131974,-0.0284,0.509359693286256));
#757=CARTESIAN_POINT('',(0.0597961867226988,-0.0284,0.51010782104868));
#758=CARTESIAN_POINT('',(0.0590480589602743,-0.0284,0.516816234039178));
#759=CARTESIAN_POINT('',(0.0590480589602743,-0.0284,0.516816234039178));
#760=CARTESIAN_POINT('',(0.0582866498723456,-0.0284,0.516731321068249));
#761=CARTESIAN_POINT('',(0.0568184340958996,-0.0283560795024541,0.516307492232749));
#762=CARTESIAN_POINT('',(0.0549310417760671,-0.0283125518148512,0.514972925763519));
#763=CARTESIAN_POINT('',(0.0535963448438816,-0.0283560897023584,0.513085205984953));
#764=CARTESIAN_POINT('',(0.0531726868038992,-0.0284,0.51161735880263));
#765=CARTESIAN_POINT('',(0.0530877737322003,-0.0284,0.510855948811104));
#766=CARTESIAN_POINT('',(0.0776432083264566,-0.0284,0.527954842652438));
#767=CARTESIAN_POINT('',(0.0813714787029181,-0.0284,0.524226572275976));
#768=CARTESIAN_POINT('',(0.0813700644893557,-0.0284,0.524225158062414));
#769=CARTESIAN_POINT('',(0.0776417941128942,-0.0284,0.527953428438875));
#770=CARTESIAN_POINT('',(0.0739135237364327,-0.0284,0.531681698815337));
#771=CARTESIAN_POINT('',(0.0739149379499951,-0.0284,0.531683113028899));
#772=CARTESIAN_POINT('',(0.0568528547460096,0.,0.54874236780576));
#773=CARTESIAN_POINT('',(0.0739135237364327,-0.0134,0.531681698815337));
#774=CARTESIAN_POINT('',(0.0813700644893557,-0.0134,0.524225158062414));
#775=CARTESIAN_POINT('',(0.0776432083264566,0.0284,0.527954842652438));
#776=CARTESIAN_POINT('',(0.0321620592316502,0.0284,0.475017152804708));
#777=CARTESIAN_POINT('',(0.0739135237364327,0.0284,0.531681698815337));
#778=CARTESIAN_POINT('',(0.0568528547460096,0.,0.54874236780576));
#779=CARTESIAN_POINT('',(0.0813700644893557,0.0134,0.524225158062414));
#780=CARTESIAN_POINT('',(0.0739135237364327,0.0134,0.531681698815337));
#781=CARTESIAN_POINT('',(0.201480990108655,0.0134,0.644336083681714));
#782=CARTESIAN_POINT('',(0.194024449355733,0.0134,0.651792624434637));
#783=CARTESIAN_POINT('',(0.201480990108655,-0.0134,0.644336083681714));
#784=CARTESIAN_POINT('',(0.194024449355733,-0.0134,0.651792624434637));
#785=CARTESIAN_POINT('',(0.102222593593892,0.,0.552534227919873));
#786=CARTESIAN_POINT('',(0.101515486812705,0.,0.551827121138686));
#787=CARTESIAN_POINT('',(0.0810093901582952,0.,0.531321024484276));
#788=MECHANICAL_DESIGN_GEOMETRIC_PRESENTATION_REPRESENTATION('',(#371),
#789);
#789=(
GEOMETRIC_REPRESENTATION_CONTEXT(3)
GLOBAL_UNCERTAINTY_ASSIGNED_CONTEXT((#790))
GLOBAL_UNIT_ASSIGNED_CONTEXT((#793,#792,#791))
REPRESENTATION_CONTEXT('Part 27','TOP_LEVEL_ASSEMBLY_PART')
);
#790=UNCERTAINTY_MEASURE_WITH_UNIT(LENGTH_MEASURE(2.E-5),#793,
'DISTANCE_ACCURACY_VALUE','Maximum Tolerance applied to model');
#791=(
NAMED_UNIT(*)
SI_UNIT($,.STERADIAN.)
SOLID_ANGLE_UNIT()
);
#792=(
NAMED_UNIT(*)
PLANE_ANGLE_UNIT()
SI_UNIT($,.RADIAN.)
);
#793=(
LENGTH_UNIT()
NAMED_UNIT(*)
SI_UNIT($,.METRE.)
);
#794=PRODUCT_DEFINITION_SHAPE('','',#795);
#795=PRODUCT_DEFINITION('','',#797,#796);
#796=PRODUCT_DEFINITION_CONTEXT('',#803,'design');
#797=PRODUCT_DEFINITION_FORMATION_WITH_SPECIFIED_SOURCE('','',#799,
 .NOT_KNOWN.);
#798=PRODUCT_RELATED_PRODUCT_CATEGORY('','',(#799));
#799=PRODUCT('Part 27','Part 27','Part 27',(#801));
#800=PRODUCT_CATEGORY('','');
#801=PRODUCT_CONTEXT('',#803,'mechanical');
#802=APPLICATION_PROTOCOL_DEFINITION('international standard',
'ap242_managed_model_based_3d_engineering',2020,#803);
#803=APPLICATION_CONTEXT('managed model based 3d engineering');
ENDSEC;
END-ISO-10303-21;
