ISO-10303-21;
HEADER;
/* Generated by software containing ST-Developer
 * from STEP Tools, Inc. (www.steptools.com) 
 */
/* OPTION: using custom renumber hook */

FILE_DESCRIPTION(
/* description */ ('STEP AP242 Edition 2',
'CAx-IF Rec.Pracs.---Representation and Presentation of Product Manufa
cturing Information (PMI)---4.0---2014-10-13',
'CAx-IF Rec.Pracs.---3D Tessellated Geometry---0.4---2014-09-14','2;1',
'CAx-IF Rec.Pracs.---User Defined Attributes---1.5---2016-08-15'),
/* implementation_level */ '2;1');

FILE_NAME(
/* name */ 'Part Studio 1 - Part 28',
/* time_stamp */ '2026-08-12T19:24:38Z',
/* author */ (''),
/* organization */ (''),
/* preprocessor_version */ 'ST-DEVELOPER v20',
/* originating_system */ 'ONSHAPE BY PTC INC, 1.219',
/* authorisation */ '  ');

FILE_SCHEMA (('AP242_MANAGED_MODEL_BASED_3D_ENGINEERING_MIM_LF { 1 0 10303 442 3 1 4 }'));
ENDSEC;

DATA;
#10=SHAPE_REPRESENTATION_RELATIONSHIP('','',#856,#11);
#11=ADVANCED_BREP_SHAPE_REPRESENTATION('',(#854),#1480);
#12=CONICAL_SURFACE('',#925,0.002,0.785398163397438);
#13=CONICAL_SURFACE('',#926,0.002,0.785398163397438);
#14=CONICAL_SURFACE('',#929,0.002,0.785398163397436);
#15=CONICAL_SURFACE('',#930,0.002,0.785398163397428);
#16=CONICAL_SURFACE('',#939,0.0086,0.785398163397448);
#17=CONICAL_SURFACE('',#940,0.0066,0.785398163397448);
#18=CONICAL_SURFACE('',#941,0.0066,0.785398163397448);
#19=CONICAL_SURFACE('',#942,0.0086,0.785398163397448);
#20=ELLIPSE('',#875,0.00472200620342232,0.003);
#21=ELLIPSE('',#880,0.00545604689961703,0.003);
#22=ELLIPSE('',#898,0.00545604689961703,0.003);
#23=ELLIPSE('',#903,0.00472200620342232,0.003);
#24=LINE('',#1225,#91);
#25=LINE('',#1228,#92);
#26=LINE('',#1230,#93);
#27=LINE('',#1232,#94);
#28=LINE('',#1234,#95);
#29=LINE('',#1236,#96);
#30=LINE('',#1238,#97);
#31=LINE('',#1240,#98);
#32=LINE('',#1245,#99);
#33=LINE('',#1249,#100);
#34=LINE('',#1253,#101);
#35=LINE('',#1257,#102);
#36=LINE('',#1259,#103);
#37=LINE('',#1262,#104);
#38=LINE('',#1264,#105);
#39=LINE('',#1266,#106);
#40=LINE('',#1268,#107);
#41=LINE('',#1270,#108);
#42=LINE('',#1272,#109);
#43=LINE('',#1274,#110);
#44=LINE('',#1279,#111);
#45=LINE('',#1283,#112);
#46=LINE('',#1285,#113);
#47=LINE('',#1287,#114);
#48=LINE('',#1289,#115);
#49=LINE('',#1291,#116);
#50=LINE('',#1294,#117);
#51=LINE('',#1296,#118);
#52=LINE('',#1298,#119);
#53=LINE('',#1302,#120);
#54=LINE('',#1304,#121);
#55=LINE('',#1306,#122);
#56=LINE('',#1312,#123);
#57=LINE('',#1315,#124);
#58=LINE('',#1317,#125);
#59=LINE('',#1319,#126);
#60=LINE('',#1323,#127);
#61=LINE('',#1326,#128);
#62=LINE('',#1328,#129);
#63=LINE('',#1376,#130);
#64=LINE('',#1378,#131);
#65=LINE('',#1380,#132);
#66=LINE('',#1386,#133);
#67=LINE('',#1387,#134);
#68=LINE('',#1395,#135);
#69=LINE('',#1397,#136);
#70=LINE('',#1399,#137);
#71=LINE('',#1405,#138);
#72=LINE('',#1408,#139);
#73=LINE('',#1410,#140);
#74=LINE('',#1412,#141);
#75=LINE('',#1416,#142);
#76=LINE('',#1419,#143);
#77=LINE('',#1421,#144);
#78=LINE('',#1427,#145);
#79=LINE('',#1429,#146);
#80=LINE('',#1431,#147);
#81=LINE('',#1438,#148);
#82=LINE('',#1439,#149);
#83=LINE('',#1453,#150);
#84=LINE('',#1454,#151);
#85=LINE('',#1456,#152);
#86=LINE('',#1458,#153);
#87=LINE('',#1460,#154);
#88=LINE('',#1462,#155);
#89=LINE('',#1464,#156);
#90=LINE('',#1466,#157);
#91=VECTOR('',#953,1.);
#92=VECTOR('',#954,1.);
#93=VECTOR('',#955,1.);
#94=VECTOR('',#956,1.);
#95=VECTOR('',#957,1.);
#96=VECTOR('',#958,1.);
#97=VECTOR('',#959,1.);
#98=VECTOR('',#960,1.);
#99=VECTOR('',#965,1.);
#100=VECTOR('',#968,1.);
#101=VECTOR('',#971,1.);
#102=VECTOR('',#974,1.);
#103=VECTOR('',#977,1.);
#104=VECTOR('',#978,1.);
#105=VECTOR('',#979,1.);
#106=VECTOR('',#980,1.);
#107=VECTOR('',#981,1.);
#108=VECTOR('',#982,1.);
#109=VECTOR('',#983,1.);
#110=VECTOR('',#984,1.);
#111=VECTOR('',#989,1.);
#112=VECTOR('',#992,1.);
#113=VECTOR('',#995,1.);
#114=VECTOR('',#996,1.);
#115=VECTOR('',#997,1.);
#116=VECTOR('',#1000,1.);
#117=VECTOR('',#1001,1.);
#118=VECTOR('',#1002,1.);
#119=VECTOR('',#1003,1.);
#120=VECTOR('',#1008,1.);
#121=VECTOR('',#1009,1.);
#122=VECTOR('',#1010,1.);
#123=VECTOR('',#1017,1.);
#124=VECTOR('',#1018,1.);
#125=VECTOR('',#1019,1.);
#126=VECTOR('',#1020,1.);
#127=VECTOR('',#1025,1.);
#128=VECTOR('',#1026,1.);
#129=VECTOR('',#1027,1.);
#130=VECTOR('',#1044,1.);
#131=VECTOR('',#1045,1.);
#132=VECTOR('',#1046,1.);
#133=VECTOR('',#1055,1.);
#134=VECTOR('',#1056,1.);
#135=VECTOR('',#1069,1.);
#136=VECTOR('',#1070,1.);
#137=VECTOR('',#1071,1.);
#138=VECTOR('',#1078,1.);
#139=VECTOR('',#1079,1.);
#140=VECTOR('',#1080,1.);
#141=VECTOR('',#1081,1.);
#142=VECTOR('',#1086,1.);
#143=VECTOR('',#1087,1.);
#144=VECTOR('',#1088,1.);
#145=VECTOR('',#1097,1.);
#146=VECTOR('',#1098,1.);
#147=VECTOR('',#1099,1.);
#148=VECTOR('',#1110,1.);
#149=VECTOR('',#1111,1.);
#150=VECTOR('',#1138,1.);
#151=VECTOR('',#1139,1.);
#152=VECTOR('',#1142,1.);
#153=VECTOR('',#1145,1.);
#154=VECTOR('',#1148,1.);
#155=VECTOR('',#1151,1.);
#156=VECTOR('',#1154,1.);
#157=VECTOR('',#1157,1.);
#158=PLANE('',#861);
#159=PLANE('',#862);
#160=PLANE('',#867);
#161=PLANE('',#871);
#162=PLANE('',#872);
#163=PLANE('',#873);
#164=PLANE('',#876);
#165=PLANE('',#878);
#166=PLANE('',#884);
#167=PLANE('',#888);
#168=PLANE('',#896);
#169=PLANE('',#899);
#170=PLANE('',#901);
#171=PLANE('',#904);
#172=PLANE('',#908);
#173=PLANE('',#924);
#174=PLANE('',#927);
#175=PLANE('',#928);
#176=PLANE('',#931);
#177=PLANE('',#933);
#178=PLANE('',#934);
#179=B_SPLINE_CURVE_WITH_KNOTS('',3,(#1188,#1189,#1190,#1191,#1192,#1193,
#1194,#1195,#1196,#1197,#1198),.UNSPECIFIED.,.T.,.F.,(1,1,1,1,1,1,1,1,1,
1,1,1,1,1,1),(-0.00117270549650467,-0.000781803664336448,-0.000390901832168224,
0.,0.000390901832168224,0.000781803664336448,0.00117270549650467,0.0015636073286729,
0.00195450916084112,0.00234541099300934,0.00273631282517757,0.00312721465734579,
0.00351811648951401,0.00390901832168224,0.00429992015385046),
 .UNSPECIFIED.);
#180=B_SPLINE_CURVE_WITH_KNOTS('',3,(#1200,#1201,#1202,#1203,#1204,#1205,
#1206,#1207,#1208,#1209,#1210),.UNSPECIFIED.,.T.,.F.,(1,1,1,1,1,1,1,1,1,
1,1,1,1,1,1),(-0.00117270549650425,-0.000781803664336166,-0.000390901832168083,
0.,0.000390901832168083,0.000781803664336166,0.00117270549650425,0.00156360732867233,
0.00195450916084042,0.0023454109930085,0.00273631282517658,0.00312721465734466,
0.00351811648951275,0.00390901832168083,0.00429992015384891),
 .UNSPECIFIED.);
#181=B_SPLINE_CURVE_WITH_KNOTS('',3,(#1212,#1213,#1214,#1215,#1216,#1217,
#1218,#1219,#1220,#1221,#1222),.UNSPECIFIED.,.T.,.F.,(1,1,1,1,1,1,1,1,1,
1,1,1,1,1,1),(-0.00117552885941039,-0.000783685906273596,-0.000391842953136798,
0.,0.000391842953136798,0.000783685906273596,0.00117552885941039,0.00156737181254719,
0.00195921476568399,0.00235105771882079,0.00274290067195759,0.00313474362509439,
0.00352658657823118,0.00391842953136798,0.00431027248450478),
 .UNSPECIFIED.);
#182=B_SPLINE_CURVE_WITH_KNOTS('',3,(#1335,#1336,#1337,#1338,#1339,#1340,
#1341,#1342,#1343,#1344,#1345),.UNSPECIFIED.,.T.,.F.,(1,1,1,1,1,1,1,1,1,
1,1,1,1,1,1),(-0.00117552885941039,-0.000783685906273597,-0.000391842953136798,
0.,0.000391842953136798,0.000783685906273597,0.00117552885941039,0.00156737181254719,
0.00195921476568399,0.00235105771882079,0.00274290067195759,0.00313474362509439,
0.00352658657823118,0.00391842953136798,0.00431027248450478),
 .UNSPECIFIED.);
#183=B_SPLINE_CURVE_WITH_KNOTS('',3,(#1347,#1348,#1349,#1350,#1351,#1352,
#1353,#1354,#1355,#1356,#1357),.UNSPECIFIED.,.T.,.F.,(1,1,1,1,1,1,1,1,1,
1,1,1,1,1,1),(-0.00117270549650425,-0.000781803664336166,-0.000390901832168083,
0.,0.000390901832168083,0.000781803664336166,0.00117270549650425,0.00156360732867233,
0.00195450916084041,0.0023454109930085,0.00273631282517658,0.00312721465734466,
0.00351811648951274,0.00390901832168083,0.00429992015384891),
 .UNSPECIFIED.);
#184=B_SPLINE_CURVE_WITH_KNOTS('',3,(#1359,#1360,#1361,#1362,#1363,#1364,
#1365,#1366,#1367,#1368,#1369),.UNSPECIFIED.,.T.,.F.,(1,1,1,1,1,1,1,1,1,
1,1,1,1,1,1),(-0.00117270549650467,-0.000781803664336448,-0.000390901832168224,
0.,0.000390901832168224,0.000781803664336448,0.00117270549650467,0.0015636073286729,
0.00195450916084112,0.00234541099300934,0.00273631282517757,0.00312721465734579,
0.00351811648951402,0.00390901832168224,0.00429992015385046),
 .UNSPECIFIED.);
#185=ORIENTED_EDGE('',*,*,#407,.T.);
#186=ORIENTED_EDGE('',*,*,#408,.T.);
#187=ORIENTED_EDGE('',*,*,#409,.T.);
#188=ORIENTED_EDGE('',*,*,#410,.T.);
#189=ORIENTED_EDGE('',*,*,#411,.T.);
#190=ORIENTED_EDGE('',*,*,#412,.T.);
#191=ORIENTED_EDGE('',*,*,#413,.T.);
#192=ORIENTED_EDGE('',*,*,#414,.F.);
#193=ORIENTED_EDGE('',*,*,#415,.T.);
#194=ORIENTED_EDGE('',*,*,#416,.T.);
#195=ORIENTED_EDGE('',*,*,#417,.T.);
#196=ORIENTED_EDGE('',*,*,#418,.T.);
#197=ORIENTED_EDGE('',*,*,#419,.T.);
#198=ORIENTED_EDGE('',*,*,#420,.T.);
#199=ORIENTED_EDGE('',*,*,#421,.T.);
#200=ORIENTED_EDGE('',*,*,#422,.T.);
#201=ORIENTED_EDGE('',*,*,#423,.T.);
#202=ORIENTED_EDGE('',*,*,#424,.T.);
#203=ORIENTED_EDGE('',*,*,#425,.T.);
#204=ORIENTED_EDGE('',*,*,#426,.T.);
#205=ORIENTED_EDGE('',*,*,#427,.T.);
#206=ORIENTED_EDGE('',*,*,#428,.T.);
#207=ORIENTED_EDGE('',*,*,#429,.T.);
#208=ORIENTED_EDGE('',*,*,#430,.T.);
#209=ORIENTED_EDGE('',*,*,#431,.T.);
#210=ORIENTED_EDGE('',*,*,#432,.F.);
#211=ORIENTED_EDGE('',*,*,#433,.T.);
#212=ORIENTED_EDGE('',*,*,#434,.T.);
#213=ORIENTED_EDGE('',*,*,#435,.T.);
#214=ORIENTED_EDGE('',*,*,#436,.T.);
#215=ORIENTED_EDGE('',*,*,#437,.T.);
#216=ORIENTED_EDGE('',*,*,#438,.F.);
#217=ORIENTED_EDGE('',*,*,#439,.F.);
#218=ORIENTED_EDGE('',*,*,#440,.F.);
#219=ORIENTED_EDGE('',*,*,#441,.T.);
#220=ORIENTED_EDGE('',*,*,#442,.T.);
#221=ORIENTED_EDGE('',*,*,#439,.T.);
#222=ORIENTED_EDGE('',*,*,#443,.T.);
#223=ORIENTED_EDGE('',*,*,#444,.T.);
#224=ORIENTED_EDGE('',*,*,#445,.F.);
#225=ORIENTED_EDGE('',*,*,#446,.T.);
#226=ORIENTED_EDGE('',*,*,#447,.F.);
#227=ORIENTED_EDGE('',*,*,#448,.T.);
#228=ORIENTED_EDGE('',*,*,#449,.T.);
#229=ORIENTED_EDGE('',*,*,#450,.F.);
#230=ORIENTED_EDGE('',*,*,#451,.T.);
#231=ORIENTED_EDGE('',*,*,#432,.T.);
#232=ORIENTED_EDGE('',*,*,#452,.F.);
#233=ORIENTED_EDGE('',*,*,#453,.T.);
#234=ORIENTED_EDGE('',*,*,#454,.T.);
#235=ORIENTED_EDGE('',*,*,#455,.F.);
#236=ORIENTED_EDGE('',*,*,#456,.T.);
#237=ORIENTED_EDGE('',*,*,#457,.F.);
#238=ORIENTED_EDGE('',*,*,#458,.F.);
#239=ORIENTED_EDGE('',*,*,#459,.T.);
#240=ORIENTED_EDGE('',*,*,#460,.T.);
#241=ORIENTED_EDGE('',*,*,#418,.F.);
#242=ORIENTED_EDGE('',*,*,#461,.T.);
#243=ORIENTED_EDGE('',*,*,#462,.T.);
#244=ORIENTED_EDGE('',*,*,#463,.T.);
#245=ORIENTED_EDGE('',*,*,#464,.T.);
#246=ORIENTED_EDGE('',*,*,#465,.T.);
#247=ORIENTED_EDGE('',*,*,#466,.T.);
#248=ORIENTED_EDGE('',*,*,#467,.T.);
#249=ORIENTED_EDGE('',*,*,#450,.T.);
#250=ORIENTED_EDGE('',*,*,#468,.T.);
#251=ORIENTED_EDGE('',*,*,#453,.F.);
#252=ORIENTED_EDGE('',*,*,#469,.T.);
#253=ORIENTED_EDGE('',*,*,#458,.T.);
#254=ORIENTED_EDGE('',*,*,#470,.T.);
#255=ORIENTED_EDGE('',*,*,#471,.T.);
#256=ORIENTED_EDGE('',*,*,#472,.T.);
#257=ORIENTED_EDGE('',*,*,#473,.T.);
#258=ORIENTED_EDGE('',*,*,#455,.T.);
#259=ORIENTED_EDGE('',*,*,#474,.T.);
#260=ORIENTED_EDGE('',*,*,#448,.F.);
#261=ORIENTED_EDGE('',*,*,#431,.F.);
#262=ORIENTED_EDGE('',*,*,#475,.T.);
#263=ORIENTED_EDGE('',*,*,#436,.F.);
#264=ORIENTED_EDGE('',*,*,#442,.F.);
#265=ORIENTED_EDGE('',*,*,#476,.T.);
#266=ORIENTED_EDGE('',*,*,#445,.T.);
#267=ORIENTED_EDGE('',*,*,#477,.T.);
#268=ORIENTED_EDGE('',*,*,#419,.F.);
#269=ORIENTED_EDGE('',*,*,#460,.F.);
#270=ORIENTED_EDGE('',*,*,#478,.T.);
#271=ORIENTED_EDGE('',*,*,#447,.T.);
#272=ORIENTED_EDGE('',*,*,#466,.F.);
#273=ORIENTED_EDGE('',*,*,#457,.T.);
#274=ORIENTED_EDGE('',*,*,#465,.F.);
#275=ORIENTED_EDGE('',*,*,#452,.T.);
#276=ORIENTED_EDGE('',*,*,#464,.F.);
#277=ORIENTED_EDGE('',*,*,#479,.T.);
#278=ORIENTED_EDGE('',*,*,#480,.F.);
#279=ORIENTED_EDGE('',*,*,#481,.T.);
#280=ORIENTED_EDGE('',*,*,#482,.T.);
#281=ORIENTED_EDGE('',*,*,#483,.T.);
#282=ORIENTED_EDGE('',*,*,#414,.T.);
#283=ORIENTED_EDGE('',*,*,#484,.T.);
#284=ORIENTED_EDGE('',*,*,#485,.T.);
#285=ORIENTED_EDGE('',*,*,#486,.T.);
#286=ORIENTED_EDGE('',*,*,#487,.F.);
#287=ORIENTED_EDGE('',*,*,#488,.T.);
#288=ORIENTED_EDGE('',*,*,#489,.T.);
#289=ORIENTED_EDGE('',*,*,#490,.T.);
#290=ORIENTED_EDGE('',*,*,#491,.T.);
#291=ORIENTED_EDGE('',*,*,#492,.F.);
#292=ORIENTED_EDGE('',*,*,#428,.F.);
#293=ORIENTED_EDGE('',*,*,#493,.T.);
#294=ORIENTED_EDGE('',*,*,#494,.T.);
#295=ORIENTED_EDGE('',*,*,#487,.T.);
#296=ORIENTED_EDGE('',*,*,#495,.T.);
#297=ORIENTED_EDGE('',*,*,#490,.F.);
#298=ORIENTED_EDGE('',*,*,#496,.T.);
#299=ORIENTED_EDGE('',*,*,#497,.T.);
#300=ORIENTED_EDGE('',*,*,#498,.T.);
#301=ORIENTED_EDGE('',*,*,#482,.F.);
#302=ORIENTED_EDGE('',*,*,#499,.T.);
#303=ORIENTED_EDGE('',*,*,#500,.T.);
#304=ORIENTED_EDGE('',*,*,#492,.T.);
#305=ORIENTED_EDGE('',*,*,#501,.T.);
#306=ORIENTED_EDGE('',*,*,#485,.F.);
#307=ORIENTED_EDGE('',*,*,#502,.T.);
#308=ORIENTED_EDGE('',*,*,#480,.T.);
#309=ORIENTED_EDGE('',*,*,#413,.F.);
#310=ORIENTED_EDGE('',*,*,#503,.T.);
#311=ORIENTED_EDGE('',*,*,#443,.F.);
#312=ORIENTED_EDGE('',*,*,#504,.T.);
#313=ORIENTED_EDGE('',*,*,#440,.T.);
#314=ORIENTED_EDGE('',*,*,#438,.T.);
#315=ORIENTED_EDGE('',*,*,#505,.T.);
#316=ORIENTED_EDGE('',*,*,#429,.F.);
#317=ORIENTED_EDGE('',*,*,#409,.F.);
#318=ORIENTED_EDGE('',*,*,#489,.F.);
#319=ORIENTED_EDGE('',*,*,#410,.F.);
#320=ORIENTED_EDGE('',*,*,#479,.F.);
#321=ORIENTED_EDGE('',*,*,#411,.F.);
#322=ORIENTED_EDGE('',*,*,#484,.F.);
#323=ORIENTED_EDGE('',*,*,#472,.F.);
#324=ORIENTED_EDGE('',*,*,#506,.T.);
#325=ORIENTED_EDGE('',*,*,#433,.F.);
#326=ORIENTED_EDGE('',*,*,#451,.F.);
#327=ORIENTED_EDGE('',*,*,#435,.F.);
#328=ORIENTED_EDGE('',*,*,#507,.T.);
#329=ORIENTED_EDGE('',*,*,#496,.F.);
#330=ORIENTED_EDGE('',*,*,#493,.F.);
#331=ORIENTED_EDGE('',*,*,#417,.F.);
#332=ORIENTED_EDGE('',*,*,#508,.T.);
#333=ORIENTED_EDGE('',*,*,#470,.F.);
#334=ORIENTED_EDGE('',*,*,#461,.F.);
#335=ORIENTED_EDGE('',*,*,#498,.F.);
#336=ORIENTED_EDGE('',*,*,#509,.T.);
#337=ORIENTED_EDGE('',*,*,#415,.F.);
#338=ORIENTED_EDGE('',*,*,#483,.F.);
#339=ORIENTED_EDGE('',*,*,#510,.F.);
#340=ORIENTED_EDGE('',*,*,#425,.F.);
#341=ORIENTED_EDGE('',*,*,#511,.F.);
#342=ORIENTED_EDGE('',*,*,#416,.F.);
#343=ORIENTED_EDGE('',*,*,#511,.T.);
#344=ORIENTED_EDGE('',*,*,#424,.F.);
#345=ORIENTED_EDGE('',*,*,#512,.F.);
#346=ORIENTED_EDGE('',*,*,#508,.F.);
#347=ORIENTED_EDGE('',*,*,#510,.T.);
#348=ORIENTED_EDGE('',*,*,#509,.F.);
#349=ORIENTED_EDGE('',*,*,#513,.F.);
#350=ORIENTED_EDGE('',*,*,#426,.F.);
#351=ORIENTED_EDGE('',*,*,#512,.T.);
#352=ORIENTED_EDGE('',*,*,#423,.F.);
#353=ORIENTED_EDGE('',*,*,#514,.F.);
#354=ORIENTED_EDGE('',*,*,#471,.F.);
#355=ORIENTED_EDGE('',*,*,#513,.T.);
#356=ORIENTED_EDGE('',*,*,#497,.F.);
#357=ORIENTED_EDGE('',*,*,#515,.F.);
#358=ORIENTED_EDGE('',*,*,#427,.F.);
#359=ORIENTED_EDGE('',*,*,#514,.T.);
#360=ORIENTED_EDGE('',*,*,#422,.F.);
#361=ORIENTED_EDGE('',*,*,#516,.F.);
#362=ORIENTED_EDGE('',*,*,#506,.F.);
#363=ORIENTED_EDGE('',*,*,#515,.T.);
#364=ORIENTED_EDGE('',*,*,#507,.F.);
#365=ORIENTED_EDGE('',*,*,#517,.F.);
#366=ORIENTED_EDGE('',*,*,#420,.F.);
#367=ORIENTED_EDGE('',*,*,#516,.T.);
#368=ORIENTED_EDGE('',*,*,#421,.F.);
#369=ORIENTED_EDGE('',*,*,#517,.T.);
#370=ORIENTED_EDGE('',*,*,#434,.F.);
#371=ORIENTED_EDGE('',*,*,#475,.F.);
#372=ORIENTED_EDGE('',*,*,#430,.F.);
#373=ORIENTED_EDGE('',*,*,#505,.F.);
#374=ORIENTED_EDGE('',*,*,#437,.F.);
#375=ORIENTED_EDGE('',*,*,#477,.F.);
#376=ORIENTED_EDGE('',*,*,#444,.F.);
#377=ORIENTED_EDGE('',*,*,#503,.F.);
#378=ORIENTED_EDGE('',*,*,#412,.F.);
#379=ORIENTED_EDGE('',*,*,#476,.F.);
#380=ORIENTED_EDGE('',*,*,#441,.F.);
#381=ORIENTED_EDGE('',*,*,#504,.F.);
#382=ORIENTED_EDGE('',*,*,#446,.F.);
#383=ORIENTED_EDGE('',*,*,#495,.F.);
#384=ORIENTED_EDGE('',*,*,#486,.F.);
#385=ORIENTED_EDGE('',*,*,#501,.F.);
#386=ORIENTED_EDGE('',*,*,#491,.F.);
#387=ORIENTED_EDGE('',*,*,#499,.F.);
#388=ORIENTED_EDGE('',*,*,#481,.F.);
#389=ORIENTED_EDGE('',*,*,#502,.F.);
#390=ORIENTED_EDGE('',*,*,#488,.F.);
#391=ORIENTED_EDGE('',*,*,#468,.F.);
#392=ORIENTED_EDGE('',*,*,#449,.F.);
#393=ORIENTED_EDGE('',*,*,#474,.F.);
#394=ORIENTED_EDGE('',*,*,#454,.F.);
#395=ORIENTED_EDGE('',*,*,#469,.F.);
#396=ORIENTED_EDGE('',*,*,#456,.F.);
#397=ORIENTED_EDGE('',*,*,#478,.F.);
#398=ORIENTED_EDGE('',*,*,#459,.F.);
#399=ORIENTED_EDGE('',*,*,#407,.F.);
#400=ORIENTED_EDGE('',*,*,#494,.F.);
#401=ORIENTED_EDGE('',*,*,#500,.F.);
#402=ORIENTED_EDGE('',*,*,#408,.F.);
#403=ORIENTED_EDGE('',*,*,#467,.F.);
#404=ORIENTED_EDGE('',*,*,#462,.F.);
#405=ORIENTED_EDGE('',*,*,#463,.F.);
#406=ORIENTED_EDGE('',*,*,#473,.F.);
#407=EDGE_CURVE('',#518,#518,#596,.T.);
#408=EDGE_CURVE('',#519,#519,#597,.F.);
#409=EDGE_CURVE('',#520,#520,#179,.T.);
#410=EDGE_CURVE('',#521,#521,#180,.T.);
#411=EDGE_CURVE('',#522,#522,#181,.T.);
#412=EDGE_CURVE('',#523,#524,#24,.T.);
#413=EDGE_CURVE('',#524,#525,#25,.T.);
#414=EDGE_CURVE('',#526,#525,#26,.T.);
#415=EDGE_CURVE('',#526,#527,#27,.F.);
#416=EDGE_CURVE('',#527,#528,#28,.T.);
#417=EDGE_CURVE('',#528,#529,#29,.T.);
#418=EDGE_CURVE('',#529,#530,#30,.T.);
#419=EDGE_CURVE('',#530,#523,#31,.T.);
#420=EDGE_CURVE('',#531,#532,#598,.F.);
#421=EDGE_CURVE('',#532,#533,#32,.T.);
#422=EDGE_CURVE('',#533,#534,#599,.F.);
#423=EDGE_CURVE('',#534,#535,#33,.T.);
#424=EDGE_CURVE('',#535,#536,#600,.F.);
#425=EDGE_CURVE('',#536,#537,#34,.T.);
#426=EDGE_CURVE('',#537,#538,#601,.F.);
#427=EDGE_CURVE('',#538,#531,#35,.T.);
#428=EDGE_CURVE('',#539,#540,#36,.T.);
#429=EDGE_CURVE('',#540,#541,#37,.T.);
#430=EDGE_CURVE('',#541,#542,#38,.T.);
#431=EDGE_CURVE('',#542,#543,#39,.T.);
#432=EDGE_CURVE('',#544,#543,#40,.T.);
#433=EDGE_CURVE('',#544,#545,#41,.F.);
#434=EDGE_CURVE('',#545,#546,#42,.T.);
#435=EDGE_CURVE('',#546,#539,#43,.T.);
#436=EDGE_CURVE('',#547,#548,#602,.T.);
#437=EDGE_CURVE('',#548,#549,#44,.T.);
#438=EDGE_CURVE('',#550,#549,#603,.T.);
#439=EDGE_CURVE('',#547,#550,#45,.T.);
#440=EDGE_CURVE('',#551,#550,#46,.T.);
#441=EDGE_CURVE('',#551,#552,#47,.T.);
#442=EDGE_CURVE('',#552,#547,#48,.T.);
#443=EDGE_CURVE('',#553,#554,#49,.T.);
#444=EDGE_CURVE('',#554,#555,#50,.T.);
#445=EDGE_CURVE('',#556,#555,#51,.T.);
#446=EDGE_CURVE('',#556,#553,#52,.T.);
#447=EDGE_CURVE('',#557,#557,#604,.T.);
#448=EDGE_CURVE('',#543,#558,#53,.T.);
#449=EDGE_CURVE('',#558,#559,#54,.F.);
#450=EDGE_CURVE('',#560,#559,#55,.T.);
#451=EDGE_CURVE('',#560,#544,#20,.F.);
#452=EDGE_CURVE('',#561,#561,#605,.T.);
#453=EDGE_CURVE('',#562,#563,#56,.T.);
#454=EDGE_CURVE('',#563,#564,#57,.T.);
#455=EDGE_CURVE('',#565,#564,#58,.T.);
#456=EDGE_CURVE('',#565,#562,#59,.F.);
#457=EDGE_CURVE('',#566,#566,#606,.T.);
#458=EDGE_CURVE('',#567,#568,#60,.T.);
#459=EDGE_CURVE('',#567,#569,#61,.T.);
#460=EDGE_CURVE('',#569,#530,#62,.T.);
#461=EDGE_CURVE('',#529,#568,#21,.F.);
#462=EDGE_CURVE('',#570,#570,#607,.T.);
#463=EDGE_CURVE('',#571,#571,#608,.F.);
#464=EDGE_CURVE('',#572,#572,#182,.T.);
#465=EDGE_CURVE('',#573,#573,#183,.T.);
#466=EDGE_CURVE('',#574,#574,#184,.T.);
#467=EDGE_CURVE('',#575,#575,#609,.F.);
#468=EDGE_CURVE('',#559,#563,#610,.T.);
#469=EDGE_CURVE('',#562,#567,#611,.T.);
#470=EDGE_CURVE('',#568,#576,#63,.F.);
#471=EDGE_CURVE('',#576,#577,#64,.T.);
#472=EDGE_CURVE('',#577,#560,#65,.T.);
#473=EDGE_CURVE('',#578,#578,#612,.T.);
#474=EDGE_CURVE('',#564,#558,#613,.F.);
#475=EDGE_CURVE('',#542,#548,#614,.T.);
#476=EDGE_CURVE('',#552,#556,#66,.T.);
#477=EDGE_CURVE('',#555,#523,#67,.T.);
#478=EDGE_CURVE('',#569,#565,#615,.F.);
#479=EDGE_CURVE('',#579,#579,#616,.T.);
#480=EDGE_CURVE('',#580,#525,#68,.T.);
#481=EDGE_CURVE('',#580,#581,#69,.F.);
#482=EDGE_CURVE('',#581,#582,#70,.T.);
#483=EDGE_CURVE('',#582,#526,#22,.T.);
#484=EDGE_CURVE('',#583,#583,#617,.T.);
#485=EDGE_CURVE('',#584,#585,#71,.T.);
#486=EDGE_CURVE('',#585,#586,#72,.F.);
#487=EDGE_CURVE('',#587,#586,#73,.T.);
#488=EDGE_CURVE('',#587,#584,#74,.T.);
#489=EDGE_CURVE('',#588,#588,#618,.T.);
#490=EDGE_CURVE('',#589,#590,#75,.T.);
#491=EDGE_CURVE('',#590,#591,#76,.T.);
#492=EDGE_CURVE('',#540,#591,#77,.T.);
#493=EDGE_CURVE('',#539,#589,#23,.T.);
#494=EDGE_CURVE('',#592,#592,#619,.F.);
#495=EDGE_CURVE('',#586,#590,#620,.T.);
#496=EDGE_CURVE('',#589,#593,#78,.F.);
#497=EDGE_CURVE('',#593,#594,#79,.T.);
#498=EDGE_CURVE('',#594,#582,#80,.T.);
#499=EDGE_CURVE('',#581,#587,#621,.T.);
#500=EDGE_CURVE('',#595,#595,#622,.T.);
#501=EDGE_CURVE('',#591,#585,#623,.F.);
#502=EDGE_CURVE('',#584,#580,#624,.F.);
#503=EDGE_CURVE('',#524,#554,#81,.T.);
#504=EDGE_CURVE('',#553,#551,#82,.T.);
#505=EDGE_CURVE('',#549,#541,#625,.T.);
#506=EDGE_CURVE('',#577,#545,#626,.T.);
#507=EDGE_CURVE('',#546,#593,#627,.T.);
#508=EDGE_CURVE('',#528,#576,#628,.T.);
#509=EDGE_CURVE('',#594,#527,#629,.T.);
#510=EDGE_CURVE('',#537,#527,#83,.T.);
#511=EDGE_CURVE('',#528,#536,#84,.T.);
#512=EDGE_CURVE('',#576,#535,#85,.T.);
#513=EDGE_CURVE('',#538,#594,#86,.T.);
#514=EDGE_CURVE('',#577,#534,#87,.T.);
#515=EDGE_CURVE('',#531,#593,#88,.T.);
#516=EDGE_CURVE('',#545,#533,#89,.T.);
#517=EDGE_CURVE('',#532,#546,#90,.T.);
#518=VERTEX_POINT('',#1185);
#519=VERTEX_POINT('',#1187);
#520=VERTEX_POINT('',#1199);
#521=VERTEX_POINT('',#1211);
#522=VERTEX_POINT('',#1223);
#523=VERTEX_POINT('',#1226);
#524=VERTEX_POINT('',#1227);
#525=VERTEX_POINT('',#1229);
#526=VERTEX_POINT('',#1231);
#527=VERTEX_POINT('',#1233);
#528=VERTEX_POINT('',#1235);
#529=VERTEX_POINT('',#1237);
#530=VERTEX_POINT('',#1239);
#531=VERTEX_POINT('',#1243);
#532=VERTEX_POINT('',#1244);
#533=VERTEX_POINT('',#1246);
#534=VERTEX_POINT('',#1248);
#535=VERTEX_POINT('',#1250);
#536=VERTEX_POINT('',#1252);
#537=VERTEX_POINT('',#1254);
#538=VERTEX_POINT('',#1256);
#539=VERTEX_POINT('',#1260);
#540=VERTEX_POINT('',#1261);
#541=VERTEX_POINT('',#1263);
#542=VERTEX_POINT('',#1265);
#543=VERTEX_POINT('',#1267);
#544=VERTEX_POINT('',#1269);
#545=VERTEX_POINT('',#1271);
#546=VERTEX_POINT('',#1273);
#547=VERTEX_POINT('',#1277);
#548=VERTEX_POINT('',#1278);
#549=VERTEX_POINT('',#1280);
#550=VERTEX_POINT('',#1282);
#551=VERTEX_POINT('',#1286);
#552=VERTEX_POINT('',#1288);
#553=VERTEX_POINT('',#1292);
#554=VERTEX_POINT('',#1293);
#555=VERTEX_POINT('',#1295);
#556=VERTEX_POINT('',#1297);
#557=VERTEX_POINT('',#1301);
#558=VERTEX_POINT('',#1303);
#559=VERTEX_POINT('',#1305);
#560=VERTEX_POINT('',#1307);
#561=VERTEX_POINT('',#1311);
#562=VERTEX_POINT('',#1313);
#563=VERTEX_POINT('',#1314);
#564=VERTEX_POINT('',#1316);
#565=VERTEX_POINT('',#1318);
#566=VERTEX_POINT('',#1322);
#567=VERTEX_POINT('',#1324);
#568=VERTEX_POINT('',#1325);
#569=VERTEX_POINT('',#1327);
#570=VERTEX_POINT('',#1332);
#571=VERTEX_POINT('',#1334);
#572=VERTEX_POINT('',#1346);
#573=VERTEX_POINT('',#1358);
#574=VERTEX_POINT('',#1370);
#575=VERTEX_POINT('',#1373);
#576=VERTEX_POINT('',#1377);
#577=VERTEX_POINT('',#1379);
#578=VERTEX_POINT('',#1383);
#579=VERTEX_POINT('',#1394);
#580=VERTEX_POINT('',#1396);
#581=VERTEX_POINT('',#1398);
#582=VERTEX_POINT('',#1400);
#583=VERTEX_POINT('',#1404);
#584=VERTEX_POINT('',#1406);
#585=VERTEX_POINT('',#1407);
#586=VERTEX_POINT('',#1409);
#587=VERTEX_POINT('',#1411);
#588=VERTEX_POINT('',#1415);
#589=VERTEX_POINT('',#1417);
#590=VERTEX_POINT('',#1418);
#591=VERTEX_POINT('',#1420);
#592=VERTEX_POINT('',#1425);
#593=VERTEX_POINT('',#1428);
#594=VERTEX_POINT('',#1430);
#595=VERTEX_POINT('',#1435);
#596=CIRCLE('',#859,0.0066);
#597=CIRCLE('',#860,0.0066);
#598=CIRCLE('',#863,0.002);
#599=CIRCLE('',#864,0.00199999999999997);
#600=CIRCLE('',#865,0.002);
#601=CIRCLE('',#866,0.002);
#602=CIRCLE('',#869,0.0455);
#603=CIRCLE('',#870,0.0455);
#604=CIRCLE('',#874,0.0005);
#605=CIRCLE('',#877,0.0005);
#606=CIRCLE('',#879,0.0005);
#607=CIRCLE('',#882,0.0066);
#608=CIRCLE('',#883,0.0066);
#609=CIRCLE('',#885,0.0086);
#610=CIRCLE('',#886,0.002);
#611=CIRCLE('',#887,0.002);
#612=CIRCLE('',#889,0.0086);
#613=CIRCLE('',#890,0.002);
#614=CIRCLE('',#891,0.0005);
#615=CIRCLE('',#892,0.002);
#616=CIRCLE('',#897,0.0005);
#617=CIRCLE('',#900,0.0005);
#618=CIRCLE('',#902,0.0005);
#619=CIRCLE('',#905,0.0086);
#620=CIRCLE('',#906,0.002);
#621=CIRCLE('',#907,0.002);
#622=CIRCLE('',#909,0.0086);
#623=CIRCLE('',#910,0.002);
#624=CIRCLE('',#911,0.002);
#625=CIRCLE('',#912,0.0005);
#626=CIRCLE('',#917,0.003);
#627=CIRCLE('',#919,0.003);
#628=CIRCLE('',#921,0.003);
#629=CIRCLE('',#923,0.003);
#630=EDGE_LOOP('',(#185));
#631=EDGE_LOOP('',(#186));
#632=EDGE_LOOP('',(#187));
#633=EDGE_LOOP('',(#188));
#634=EDGE_LOOP('',(#189));
#635=EDGE_LOOP('',(#190,#191,#192,#193,#194,#195,#196,#197));
#636=EDGE_LOOP('',(#198,#199,#200,#201,#202,#203,#204,#205));
#637=EDGE_LOOP('',(#206,#207,#208,#209,#210,#211,#212,#213));
#638=EDGE_LOOP('',(#214,#215,#216,#217));
#639=EDGE_LOOP('',(#218,#219,#220,#221));
#640=EDGE_LOOP('',(#222,#223,#224,#225));
#641=EDGE_LOOP('',(#226));
#642=EDGE_LOOP('',(#227,#228,#229,#230,#231));
#643=EDGE_LOOP('',(#232));
#644=EDGE_LOOP('',(#233,#234,#235,#236));
#645=EDGE_LOOP('',(#237));
#646=EDGE_LOOP('',(#238,#239,#240,#241,#242));
#647=EDGE_LOOP('',(#243));
#648=EDGE_LOOP('',(#244));
#649=EDGE_LOOP('',(#245));
#650=EDGE_LOOP('',(#246));
#651=EDGE_LOOP('',(#247));
#652=EDGE_LOOP('',(#248));
#653=EDGE_LOOP('',(#249,#250,#251,#252,#253,#254,#255,#256));
#654=EDGE_LOOP('',(#257));
#655=EDGE_LOOP('',(#258,#259,#260,#261,#262,#263,#264,#265,#266,#267,#268,
#269,#270));
#656=EDGE_LOOP('',(#271));
#657=EDGE_LOOP('',(#272));
#658=EDGE_LOOP('',(#273));
#659=EDGE_LOOP('',(#274));
#660=EDGE_LOOP('',(#275));
#661=EDGE_LOOP('',(#276));
#662=EDGE_LOOP('',(#277));
#663=EDGE_LOOP('',(#278,#279,#280,#281,#282));
#664=EDGE_LOOP('',(#283));
#665=EDGE_LOOP('',(#284,#285,#286,#287));
#666=EDGE_LOOP('',(#288));
#667=EDGE_LOOP('',(#289,#290,#291,#292,#293));
#668=EDGE_LOOP('',(#294));
#669=EDGE_LOOP('',(#295,#296,#297,#298,#299,#300,#301,#302));
#670=EDGE_LOOP('',(#303));
#671=EDGE_LOOP('',(#304,#305,#306,#307,#308,#309,#310,#311,#312,#313,#314,
#315,#316));
#672=EDGE_LOOP('',(#317));
#673=EDGE_LOOP('',(#318));
#674=EDGE_LOOP('',(#319));
#675=EDGE_LOOP('',(#320));
#676=EDGE_LOOP('',(#321));
#677=EDGE_LOOP('',(#322));
#678=EDGE_LOOP('',(#323,#324,#325,#326));
#679=EDGE_LOOP('',(#327,#328,#329,#330));
#680=EDGE_LOOP('',(#331,#332,#333,#334));
#681=EDGE_LOOP('',(#335,#336,#337,#338));
#682=EDGE_LOOP('',(#339,#340,#341,#342));
#683=EDGE_LOOP('',(#343,#344,#345,#346));
#684=EDGE_LOOP('',(#347,#348,#349,#350));
#685=EDGE_LOOP('',(#351,#352,#353,#354));
#686=EDGE_LOOP('',(#355,#356,#357,#358));
#687=EDGE_LOOP('',(#359,#360,#361,#362));
#688=EDGE_LOOP('',(#363,#364,#365,#366));
#689=EDGE_LOOP('',(#367,#368,#369,#370));
#690=EDGE_LOOP('',(#371,#372,#373,#374));
#691=EDGE_LOOP('',(#375,#376,#377,#378));
#692=EDGE_LOOP('',(#379,#380,#381,#382));
#693=EDGE_LOOP('',(#383,#384,#385,#386));
#694=EDGE_LOOP('',(#387,#388,#389,#390));
#695=EDGE_LOOP('',(#391,#392,#393,#394));
#696=EDGE_LOOP('',(#395,#396,#397,#398));
#697=EDGE_LOOP('',(#399));
#698=EDGE_LOOP('',(#400));
#699=EDGE_LOOP('',(#401));
#700=EDGE_LOOP('',(#402));
#701=EDGE_LOOP('',(#403));
#702=EDGE_LOOP('',(#404));
#703=EDGE_LOOP('',(#405));
#704=EDGE_LOOP('',(#406));
#705=FACE_BOUND('',#630,.T.);
#706=FACE_BOUND('',#631,.T.);
#707=FACE_BOUND('',#632,.T.);
#708=FACE_BOUND('',#633,.T.);
#709=FACE_BOUND('',#634,.T.);
#710=FACE_BOUND('',#635,.T.);
#711=FACE_BOUND('',#636,.T.);
#712=FACE_BOUND('',#637,.T.);
#713=FACE_BOUND('',#638,.T.);
#714=FACE_BOUND('',#639,.T.);
#715=FACE_BOUND('',#640,.T.);
#716=FACE_BOUND('',#641,.T.);
#717=FACE_BOUND('',#642,.T.);
#718=FACE_BOUND('',#643,.T.);
#719=FACE_BOUND('',#644,.T.);
#720=FACE_BOUND('',#645,.T.);
#721=FACE_BOUND('',#646,.T.);
#722=FACE_BOUND('',#647,.T.);
#723=FACE_BOUND('',#648,.T.);
#724=FACE_BOUND('',#649,.T.);
#725=FACE_BOUND('',#650,.T.);
#726=FACE_BOUND('',#651,.T.);
#727=FACE_BOUND('',#652,.T.);
#728=FACE_BOUND('',#653,.T.);
#729=FACE_BOUND('',#654,.T.);
#730=FACE_BOUND('',#655,.T.);
#731=FACE_BOUND('',#656,.T.);
#732=FACE_BOUND('',#657,.T.);
#733=FACE_BOUND('',#658,.T.);
#734=FACE_BOUND('',#659,.T.);
#735=FACE_BOUND('',#660,.T.);
#736=FACE_BOUND('',#661,.T.);
#737=FACE_BOUND('',#662,.T.);
#738=FACE_BOUND('',#663,.T.);
#739=FACE_BOUND('',#664,.T.);
#740=FACE_BOUND('',#665,.T.);
#741=FACE_BOUND('',#666,.T.);
#742=FACE_BOUND('',#667,.T.);
#743=FACE_BOUND('',#668,.T.);
#744=FACE_BOUND('',#669,.T.);
#745=FACE_BOUND('',#670,.T.);
#746=FACE_BOUND('',#671,.T.);
#747=FACE_BOUND('',#672,.T.);
#748=FACE_BOUND('',#673,.T.);
#749=FACE_BOUND('',#674,.T.);
#750=FACE_BOUND('',#675,.T.);
#751=FACE_BOUND('',#676,.T.);
#752=FACE_BOUND('',#677,.T.);
#753=FACE_BOUND('',#678,.T.);
#754=FACE_BOUND('',#679,.T.);
#755=FACE_BOUND('',#680,.T.);
#756=FACE_BOUND('',#681,.T.);
#757=FACE_BOUND('',#682,.T.);
#758=FACE_BOUND('',#683,.T.);
#759=FACE_BOUND('',#684,.T.);
#760=FACE_BOUND('',#685,.T.);
#761=FACE_BOUND('',#686,.T.);
#762=FACE_BOUND('',#687,.T.);
#763=FACE_BOUND('',#688,.T.);
#764=FACE_BOUND('',#689,.T.);
#765=FACE_BOUND('',#690,.T.);
#766=FACE_BOUND('',#691,.T.);
#767=FACE_BOUND('',#692,.T.);
#768=FACE_BOUND('',#693,.T.);
#769=FACE_BOUND('',#694,.T.);
#770=FACE_BOUND('',#695,.T.);
#771=FACE_BOUND('',#696,.T.);
#772=FACE_BOUND('',#697,.T.);
#773=FACE_BOUND('',#698,.T.);
#774=FACE_BOUND('',#699,.T.);
#775=FACE_BOUND('',#700,.T.);
#776=FACE_BOUND('',#701,.T.);
#777=FACE_BOUND('',#702,.T.);
#778=FACE_BOUND('',#703,.T.);
#779=FACE_BOUND('',#704,.T.);
#780=CYLINDRICAL_SURFACE('',#858,0.0066);
#781=CYLINDRICAL_SURFACE('',#868,0.0455);
#782=CYLINDRICAL_SURFACE('',#881,0.0066);
#783=CYLINDRICAL_SURFACE('',#893,0.0005);
#784=CYLINDRICAL_SURFACE('',#894,0.0005);
#785=CYLINDRICAL_SURFACE('',#895,0.0005);
#786=CYLINDRICAL_SURFACE('',#913,0.0005);
#787=CYLINDRICAL_SURFACE('',#914,0.0005);
#788=CYLINDRICAL_SURFACE('',#915,0.0005);
#789=CYLINDRICAL_SURFACE('',#916,0.003);
#790=CYLINDRICAL_SURFACE('',#918,0.003);
#791=CYLINDRICAL_SURFACE('',#920,0.003);
#792=CYLINDRICAL_SURFACE('',#922,0.003);
#793=CYLINDRICAL_SURFACE('',#932,0.0005);
#794=CYLINDRICAL_SURFACE('',#935,0.002);
#795=CYLINDRICAL_SURFACE('',#936,0.002);
#796=CYLINDRICAL_SURFACE('',#937,0.002);
#797=CYLINDRICAL_SURFACE('',#938,0.002);
#798=ADVANCED_FACE('',(#705,#706,#707,#708,#709),#780,.F.);
#799=ADVANCED_FACE('',(#710),#158,.T.);
#800=ADVANCED_FACE('',(#711),#159,.F.);
#801=ADVANCED_FACE('',(#712),#160,.F.);
#802=ADVANCED_FACE('',(#713),#781,.F.);
#803=ADVANCED_FACE('',(#714),#161,.T.);
#804=ADVANCED_FACE('',(#715),#162,.F.);
#805=ADVANCED_FACE('',(#716,#717),#163,.F.);
#806=ADVANCED_FACE('',(#718,#719),#164,.T.);
#807=ADVANCED_FACE('',(#720,#721),#165,.F.);
#808=ADVANCED_FACE('',(#722,#723,#724,#725,#726),#782,.F.);
#809=ADVANCED_FACE('',(#727,#728),#166,.T.);
#810=ADVANCED_FACE('',(#729,#730),#167,.F.);
#811=ADVANCED_FACE('',(#731,#732),#783,.F.);
#812=ADVANCED_FACE('',(#733,#734),#784,.F.);
#813=ADVANCED_FACE('',(#735,#736),#785,.F.);
#814=ADVANCED_FACE('',(#737,#738),#168,.T.);
#815=ADVANCED_FACE('',(#739,#740),#169,.F.);
#816=ADVANCED_FACE('',(#741,#742),#170,.T.);
#817=ADVANCED_FACE('',(#743,#744),#171,.T.);
#818=ADVANCED_FACE('',(#745,#746),#172,.F.);
#819=ADVANCED_FACE('',(#747,#748),#786,.F.);
#820=ADVANCED_FACE('',(#749,#750),#787,.F.);
#821=ADVANCED_FACE('',(#751,#752),#788,.F.);
#822=ADVANCED_FACE('',(#753),#789,.T.);
#823=ADVANCED_FACE('',(#754),#790,.T.);
#824=ADVANCED_FACE('',(#755),#791,.T.);
#825=ADVANCED_FACE('',(#756),#792,.T.);
#826=ADVANCED_FACE('',(#757),#173,.T.);
#827=ADVANCED_FACE('',(#758),#12,.T.);
#828=ADVANCED_FACE('',(#759),#13,.T.);
#829=ADVANCED_FACE('',(#760),#174,.T.);
#830=ADVANCED_FACE('',(#761),#175,.T.);
#831=ADVANCED_FACE('',(#762),#14,.T.);
#832=ADVANCED_FACE('',(#763),#15,.T.);
#833=ADVANCED_FACE('',(#764),#176,.F.);
#834=ADVANCED_FACE('',(#765),#793,.T.);
#835=ADVANCED_FACE('',(#766),#177,.T.);
#836=ADVANCED_FACE('',(#767),#178,.T.);
#837=ADVANCED_FACE('',(#768),#794,.T.);
#838=ADVANCED_FACE('',(#769),#795,.T.);
#839=ADVANCED_FACE('',(#770),#796,.T.);
#840=ADVANCED_FACE('',(#771),#797,.T.);
#841=ADVANCED_FACE('',(#772,#773),#16,.F.);
#842=ADVANCED_FACE('',(#774,#775),#17,.F.);
#843=ADVANCED_FACE('',(#776,#777),#18,.F.);
#844=ADVANCED_FACE('',(#778,#779),#19,.F.);
#845=CLOSED_SHELL('',(#798,#799,#800,#801,#802,#803,#804,#805,#806,#807,
#808,#809,#810,#811,#812,#813,#814,#815,#816,#817,#818,#819,#820,#821,#822,
#823,#824,#825,#826,#827,#828,#829,#830,#831,#832,#833,#834,#835,#836,#837,
#838,#839,#840,#841,#842,#843,#844));
#846=STYLED_ITEM('',(#847),#854);
#847=PRESENTATION_STYLE_ASSIGNMENT((#848));
#848=SURFACE_STYLE_USAGE(.BOTH.,#849);
#849=SURFACE_SIDE_STYLE('',(#850));
#850=SURFACE_STYLE_FILL_AREA(#851);
#851=FILL_AREA_STYLE('',(#852));
#852=FILL_AREA_STYLE_COLOUR('',#853);
#853=COLOUR_RGB('',0.972549019607843,0.529411764705882,0.00392156862745098);
#854=MANIFOLD_SOLID_BREP('Part 28',#845);
#855=SHAPE_DEFINITION_REPRESENTATION(#1485,#856);
#856=SHAPE_REPRESENTATION('Part 28',(#857),#1480);
#857=AXIS2_PLACEMENT_3D('',#1182,#943,#944);
#858=AXIS2_PLACEMENT_3D('',#1183,#945,#946);
#859=AXIS2_PLACEMENT_3D('',#1184,#947,#948);
#860=AXIS2_PLACEMENT_3D('',#1186,#949,#950);
#861=AXIS2_PLACEMENT_3D('',#1224,#951,#952);
#862=AXIS2_PLACEMENT_3D('',#1241,#961,#962);
#863=AXIS2_PLACEMENT_3D('',#1242,#963,#964);
#864=AXIS2_PLACEMENT_3D('',#1247,#966,#967);
#865=AXIS2_PLACEMENT_3D('',#1251,#969,#970);
#866=AXIS2_PLACEMENT_3D('',#1255,#972,#973);
#867=AXIS2_PLACEMENT_3D('',#1258,#975,#976);
#868=AXIS2_PLACEMENT_3D('',#1275,#985,#986);
#869=AXIS2_PLACEMENT_3D('',#1276,#987,#988);
#870=AXIS2_PLACEMENT_3D('',#1281,#990,#991);
#871=AXIS2_PLACEMENT_3D('',#1284,#993,#994);
#872=AXIS2_PLACEMENT_3D('',#1290,#998,#999);
#873=AXIS2_PLACEMENT_3D('',#1299,#1004,#1005);
#874=AXIS2_PLACEMENT_3D('',#1300,#1006,#1007);
#875=AXIS2_PLACEMENT_3D('',#1308,#1011,#1012);
#876=AXIS2_PLACEMENT_3D('',#1309,#1013,#1014);
#877=AXIS2_PLACEMENT_3D('',#1310,#1015,#1016);
#878=AXIS2_PLACEMENT_3D('',#1320,#1021,#1022);
#879=AXIS2_PLACEMENT_3D('',#1321,#1023,#1024);
#880=AXIS2_PLACEMENT_3D('',#1329,#1028,#1029);
#881=AXIS2_PLACEMENT_3D('',#1330,#1030,#1031);
#882=AXIS2_PLACEMENT_3D('',#1331,#1032,#1033);
#883=AXIS2_PLACEMENT_3D('',#1333,#1034,#1035);
#884=AXIS2_PLACEMENT_3D('',#1371,#1036,#1037);
#885=AXIS2_PLACEMENT_3D('',#1372,#1038,#1039);
#886=AXIS2_PLACEMENT_3D('',#1374,#1040,#1041);
#887=AXIS2_PLACEMENT_3D('',#1375,#1042,#1043);
#888=AXIS2_PLACEMENT_3D('',#1381,#1047,#1048);
#889=AXIS2_PLACEMENT_3D('',#1382,#1049,#1050);
#890=AXIS2_PLACEMENT_3D('',#1384,#1051,#1052);
#891=AXIS2_PLACEMENT_3D('',#1385,#1053,#1054);
#892=AXIS2_PLACEMENT_3D('',#1388,#1057,#1058);
#893=AXIS2_PLACEMENT_3D('',#1389,#1059,#1060);
#894=AXIS2_PLACEMENT_3D('',#1390,#1061,#1062);
#895=AXIS2_PLACEMENT_3D('',#1391,#1063,#1064);
#896=AXIS2_PLACEMENT_3D('',#1392,#1065,#1066);
#897=AXIS2_PLACEMENT_3D('',#1393,#1067,#1068);
#898=AXIS2_PLACEMENT_3D('',#1401,#1072,#1073);
#899=AXIS2_PLACEMENT_3D('',#1402,#1074,#1075);
#900=AXIS2_PLACEMENT_3D('',#1403,#1076,#1077);
#901=AXIS2_PLACEMENT_3D('',#1413,#1082,#1083);
#902=AXIS2_PLACEMENT_3D('',#1414,#1084,#1085);
#903=AXIS2_PLACEMENT_3D('',#1422,#1089,#1090);
#904=AXIS2_PLACEMENT_3D('',#1423,#1091,#1092);
#905=AXIS2_PLACEMENT_3D('',#1424,#1093,#1094);
#906=AXIS2_PLACEMENT_3D('',#1426,#1095,#1096);
#907=AXIS2_PLACEMENT_3D('',#1432,#1100,#1101);
#908=AXIS2_PLACEMENT_3D('',#1433,#1102,#1103);
#909=AXIS2_PLACEMENT_3D('',#1434,#1104,#1105);
#910=AXIS2_PLACEMENT_3D('',#1436,#1106,#1107);
#911=AXIS2_PLACEMENT_3D('',#1437,#1108,#1109);
#912=AXIS2_PLACEMENT_3D('',#1440,#1112,#1113);
#913=AXIS2_PLACEMENT_3D('',#1441,#1114,#1115);
#914=AXIS2_PLACEMENT_3D('',#1442,#1116,#1117);
#915=AXIS2_PLACEMENT_3D('',#1443,#1118,#1119);
#916=AXIS2_PLACEMENT_3D('',#1444,#1120,#1121);
#917=AXIS2_PLACEMENT_3D('',#1445,#1122,#1123);
#918=AXIS2_PLACEMENT_3D('',#1446,#1124,#1125);
#919=AXIS2_PLACEMENT_3D('',#1447,#1126,#1127);
#920=AXIS2_PLACEMENT_3D('',#1448,#1128,#1129);
#921=AXIS2_PLACEMENT_3D('',#1449,#1130,#1131);
#922=AXIS2_PLACEMENT_3D('',#1450,#1132,#1133);
#923=AXIS2_PLACEMENT_3D('',#1451,#1134,#1135);
#924=AXIS2_PLACEMENT_3D('',#1452,#1136,#1137);
#925=AXIS2_PLACEMENT_3D('',#1455,#1140,#1141);
#926=AXIS2_PLACEMENT_3D('',#1457,#1143,#1144);
#927=AXIS2_PLACEMENT_3D('',#1459,#1146,#1147);
#928=AXIS2_PLACEMENT_3D('',#1461,#1149,#1150);
#929=AXIS2_PLACEMENT_3D('',#1463,#1152,#1153);
#930=AXIS2_PLACEMENT_3D('',#1465,#1155,#1156);
#931=AXIS2_PLACEMENT_3D('',#1467,#1158,#1159);
#932=AXIS2_PLACEMENT_3D('',#1468,#1160,#1161);
#933=AXIS2_PLACEMENT_3D('',#1469,#1162,#1163);
#934=AXIS2_PLACEMENT_3D('',#1470,#1164,#1165);
#935=AXIS2_PLACEMENT_3D('',#1471,#1166,#1167);
#936=AXIS2_PLACEMENT_3D('',#1472,#1168,#1169);
#937=AXIS2_PLACEMENT_3D('',#1473,#1170,#1171);
#938=AXIS2_PLACEMENT_3D('',#1474,#1172,#1173);
#939=AXIS2_PLACEMENT_3D('',#1475,#1174,#1175);
#940=AXIS2_PLACEMENT_3D('',#1476,#1176,#1177);
#941=AXIS2_PLACEMENT_3D('',#1477,#1178,#1179);
#942=AXIS2_PLACEMENT_3D('',#1478,#1180,#1181);
#943=DIRECTION('',(0.,0.,1.));
#944=DIRECTION('',(1.,0.,0.));
#945=DIRECTION('',(0.,-1.,0.));
#946=DIRECTION('',(0.,0.,-1.));
#947=DIRECTION('',(0.,1.,0.));
#948=DIRECTION('',(0.,0.,1.));
#949=DIRECTION('',(0.,1.,0.));
#950=DIRECTION('',(0.,0.,1.));
#951=DIRECTION('',(-0.707106781186548,0.,0.707106781186547));
#952=DIRECTION('',(0.707106781186547,0.,0.707106781186548));
#953=DIRECTION('',(0.,1.,0.));
#954=DIRECTION('',(0.707106781186547,0.,0.707106781186548));
#955=DIRECTION('',(0.,-1.,0.));
#956=DIRECTION('',(0.707106781186547,0.,0.707106781186548));
#957=DIRECTION('',(0.,-1.,0.));
#958=DIRECTION('',(0.707106781186547,0.,0.707106781186548));
#959=DIRECTION('',(0.,1.,0.));
#960=DIRECTION('',(-0.707106781186547,0.,-0.707106781186548));
#961=DIRECTION('',(0.707106781186547,0.,0.707106781186548));
#962=DIRECTION('',(0.707106781186548,0.,-0.707106781186547));
#963=DIRECTION('',(0.707106781186547,0.,0.707106781186548));
#964=DIRECTION('',(0.707106781186548,0.,-0.707106781186547));
#965=DIRECTION('',(0.,-1.,0.));
#966=DIRECTION('',(0.707106781186547,0.,0.707106781186548));
#967=DIRECTION('',(0.707106781186548,0.,-0.707106781186547));
#968=DIRECTION('',(-0.707106781186548,0.,0.707106781186547));
#969=DIRECTION('',(0.707106781186547,0.,0.707106781186548));
#970=DIRECTION('',(0.707106781186548,0.,-0.707106781186547));
#971=DIRECTION('',(0.,1.,0.));
#972=DIRECTION('',(0.707106781186547,0.,0.707106781186548));
#973=DIRECTION('',(0.707106781186548,0.,-0.707106781186547));
#974=DIRECTION('',(0.707106781186548,0.,-0.707106781186547));
#975=DIRECTION('',(-0.707106781186548,0.,0.707106781186547));
#976=DIRECTION('',(0.707106781186547,0.,0.707106781186548));
#977=DIRECTION('',(0.,-1.,0.));
#978=DIRECTION('',(-0.707106781186547,0.,-0.707106781186548));
#979=DIRECTION('',(0.,-1.,0.));
#980=DIRECTION('',(0.707106781186547,0.,0.707106781186548));
#981=DIRECTION('',(0.,1.,0.));
#982=DIRECTION('',(0.707106781186547,0.,0.707106781186548));
#983=DIRECTION('',(0.,1.,0.));
#984=DIRECTION('',(0.707106781186547,0.,0.707106781186548));
#985=DIRECTION('',(0.,1.,0.));
#986=DIRECTION('',(0.,0.,1.));
#987=DIRECTION('',(0.,-1.,0.));
#988=DIRECTION('',(0.,0.,-1.));
#989=DIRECTION('',(0.,1.,0.));
#990=DIRECTION('',(0.,-1.,0.));
#991=DIRECTION('',(0.,0.,-1.));
#992=DIRECTION('',(0.,1.,0.));
#993=DIRECTION('',(0.707106781186563,0.,-0.707106781186532));
#994=DIRECTION('',(-0.707106781186532,0.,-0.707106781186563));
#995=DIRECTION('',(-0.707106781186532,0.,-0.707106781186563));
#996=DIRECTION('',(0.,-1.,0.));
#997=DIRECTION('',(-0.707106781186532,0.,-0.707106781186563));
#998=DIRECTION('',(-0.707106781186494,0.,-0.707106781186601));
#999=DIRECTION('',(-0.707106781186601,0.,0.707106781186494));
#1000=DIRECTION('',(-0.707106781186601,0.,0.707106781186494));
#1001=DIRECTION('',(0.,-1.,0.));
#1002=DIRECTION('',(-0.707106781186601,0.,0.707106781186494));
#1003=DIRECTION('',(0.,1.,0.));
#1004=DIRECTION('',(-0.995301974319757,0.,0.0968193158165985));
#1005=DIRECTION('',(0.0968193158165985,0.,0.995301974319757));
#1006=DIRECTION('',(0.995301974319757,0.,-0.0968193158165985));
#1007=DIRECTION('',(-0.0968193158165985,0.,-0.995301974319757));
#1008=DIRECTION('',(0.0968193158165985,0.,0.995301974319757));
#1009=DIRECTION('',(0.,1.,0.));
#1010=DIRECTION('',(0.0968193158165985,0.,0.995301974319757));
#1011=DIRECTION('',(-0.995301974319757,0.,0.0968193158165985));
#1012=DIRECTION('',(-0.0968193158165985,0.,-0.995301974319757));
#1013=DIRECTION('',(0.707106781186548,0.,0.707106781186548));
#1014=DIRECTION('',(0.707106781186548,0.,-0.707106781186548));
#1015=DIRECTION('',(0.707106781186548,0.,0.707106781186548));
#1016=DIRECTION('',(0.707106781186548,0.,-0.707106781186548));
#1017=DIRECTION('',(0.707106781186548,0.,-0.707106781186548));
#1018=DIRECTION('',(0.,1.,0.));
#1019=DIRECTION('',(0.707106781186548,0.,-0.707106781186548));
#1020=DIRECTION('',(0.,1.,0.));
#1021=DIRECTION('',(0.201819351076642,0.,-0.979422763433137));
#1022=DIRECTION('',(-0.979422763433137,0.,-0.201819351076642));
#1023=DIRECTION('',(-0.201819351076642,0.,0.979422763433137));
#1024=DIRECTION('',(0.979422763433137,0.,0.201819351076642));
#1025=DIRECTION('',(-0.979422763433137,0.,-0.201819351076642));
#1026=DIRECTION('',(0.,1.,0.));
#1027=DIRECTION('',(-0.979422763433137,0.,-0.201819351076642));
#1028=DIRECTION('',(0.201819351076642,0.,-0.979422763433137));
#1029=DIRECTION('',(0.979422763433137,0.,0.201819351076642));
#1030=DIRECTION('',(0.,1.,0.));
#1031=DIRECTION('',(0.,0.,1.));
#1032=DIRECTION('',(0.,-1.,0.));
#1033=DIRECTION('',(0.,0.,-1.));
#1034=DIRECTION('',(0.,-1.,0.));
#1035=DIRECTION('',(0.,0.,-1.));
#1036=DIRECTION('',(0.,-1.,0.));
#1037=DIRECTION('',(1.,0.,0.));
#1038=DIRECTION('',(0.,-1.,0.));
#1039=DIRECTION('',(0.,0.,-1.));
#1040=DIRECTION('',(0.,-1.,0.));
#1041=DIRECTION('',(0.,0.,-1.));
#1042=DIRECTION('',(0.,-1.,0.));
#1043=DIRECTION('',(0.,0.,-1.));
#1044=DIRECTION('',(0.707106781186547,0.,0.707106781186548));
#1045=DIRECTION('',(0.707106781186548,0.,-0.707106781186547));
#1046=DIRECTION('',(0.707106781186547,0.,0.707106781186548));
#1047=DIRECTION('',(0.,-1.,0.));
#1048=DIRECTION('',(1.,0.,0.));
#1049=DIRECTION('',(0.,-1.,0.));
#1050=DIRECTION('',(0.,0.,-1.));
#1051=DIRECTION('',(0.,-1.,0.));
#1052=DIRECTION('',(0.,0.,-1.));
#1053=DIRECTION('',(0.,-1.,0.));
#1054=DIRECTION('',(0.,0.,-1.));
#1055=DIRECTION('',(1.27570012268032E-13,0.,1.));
#1056=DIRECTION('',(-1.,0.,-7.85046229341912E-14));
#1057=DIRECTION('',(0.,-1.,0.));
#1058=DIRECTION('',(0.,0.,-1.));
#1059=DIRECTION('',(0.995301974319757,0.,-0.0968193158165985));
#1060=DIRECTION('',(-0.0968193158165985,0.,-0.995301974319757));
#1061=DIRECTION('',(-0.201819351076642,0.,0.979422763433137));
#1062=DIRECTION('',(0.979422763433137,0.,0.201819351076642));
#1063=DIRECTION('',(0.707106781186548,0.,0.707106781186548));
#1064=DIRECTION('',(0.707106781186548,0.,-0.707106781186548));
#1065=DIRECTION('',(-0.201819351076642,0.,0.979422763433137));
#1066=DIRECTION('',(0.979422763433137,0.,0.201819351076642));
#1067=DIRECTION('',(0.201819351076642,0.,-0.979422763433137));
#1068=DIRECTION('',(0.979422763433137,0.,0.201819351076642));
#1069=DIRECTION('',(-0.979422763433137,0.,-0.201819351076642));
#1070=DIRECTION('',(0.,-1.,0.));
#1071=DIRECTION('',(-0.979422763433137,0.,-0.201819351076642));
#1072=DIRECTION('',(-0.201819351076642,0.,0.979422763433137));
#1073=DIRECTION('',(0.979422763433137,0.,0.201819351076642));
#1074=DIRECTION('',(-0.707106781186548,0.,-0.707106781186548));
#1075=DIRECTION('',(-0.707106781186548,0.,0.707106781186548));
#1076=DIRECTION('',(-0.707106781186548,0.,-0.707106781186548));
#1077=DIRECTION('',(0.707106781186548,0.,-0.707106781186548));
#1078=DIRECTION('',(0.707106781186548,0.,-0.707106781186548));
#1079=DIRECTION('',(0.,-1.,0.));
#1080=DIRECTION('',(0.707106781186548,0.,-0.707106781186548));
#1081=DIRECTION('',(0.,-1.,0.));
#1082=DIRECTION('',(0.995301974319757,0.,-0.0968193158165985));
#1083=DIRECTION('',(-0.0968193158165985,0.,-0.995301974319757));
#1084=DIRECTION('',(-0.995301974319757,0.,0.0968193158165985));
#1085=DIRECTION('',(-0.0968193158165985,0.,-0.995301974319757));
#1086=DIRECTION('',(0.0968193158165985,0.,0.995301974319757));
#1087=DIRECTION('',(0.,-1.,0.));
#1088=DIRECTION('',(0.0968193158165985,0.,0.995301974319757));
#1089=DIRECTION('',(0.995301974319757,0.,-0.0968193158165985));
#1090=DIRECTION('',(-0.0968193158165985,0.,-0.995301974319757));
#1091=DIRECTION('',(0.,1.,0.));
#1092=DIRECTION('',(1.,0.,0.));
#1093=DIRECTION('',(0.,1.,0.));
#1094=DIRECTION('',(0.,0.,1.));
#1095=DIRECTION('',(0.,1.,0.));
#1096=DIRECTION('',(0.,0.,1.));
#1097=DIRECTION('',(0.707106781186547,0.,0.707106781186548));
#1098=DIRECTION('',(-0.707106781186548,0.,0.707106781186547));
#1099=DIRECTION('',(0.707106781186547,0.,0.707106781186548));
#1100=DIRECTION('',(0.,1.,0.));
#1101=DIRECTION('',(0.,0.,1.));
#1102=DIRECTION('',(0.,1.,0.));
#1103=DIRECTION('',(1.,0.,0.));
#1104=DIRECTION('',(0.,1.,0.));
#1105=DIRECTION('',(0.,0.,1.));
#1106=DIRECTION('',(0.,1.,0.));
#1107=DIRECTION('',(0.,0.,1.));
#1108=DIRECTION('',(0.,1.,0.));
#1109=DIRECTION('',(0.,0.,1.));
#1110=DIRECTION('',(1.,0.,7.85046229341912E-14));
#1111=DIRECTION('',(-1.27570012268032E-13,0.,-1.));
#1112=DIRECTION('',(0.,1.,0.));
#1113=DIRECTION('',(0.,0.,1.));
#1114=DIRECTION('',(0.995301974319757,0.,-0.0968193158165985));
#1115=DIRECTION('',(-0.0968193158165985,0.,-0.995301974319757));
#1116=DIRECTION('',(-0.201819351076642,0.,0.979422763433137));
#1117=DIRECTION('',(0.979422763433137,0.,0.201819351076642));
#1118=DIRECTION('',(0.707106781186548,0.,0.707106781186548));
#1119=DIRECTION('',(0.707106781186548,0.,-0.707106781186548));
#1120=DIRECTION('',(-0.707106781186547,0.,-0.707106781186548));
#1121=DIRECTION('',(-0.707106781186548,0.,0.707106781186547));
#1122=DIRECTION('',(0.707106781186548,0.,0.707106781186548));
#1123=DIRECTION('',(0.707106781186548,0.,-0.707106781186548));
#1124=DIRECTION('',(-0.707106781186547,0.,-0.707106781186548));
#1125=DIRECTION('',(-0.707106781186548,0.,0.707106781186547));
#1126=DIRECTION('',(0.707106781186541,0.,0.707106781186555));
#1127=DIRECTION('',(0.707106781186555,0.,-0.707106781186541));
#1128=DIRECTION('',(0.707106781186547,0.,0.707106781186548));
#1129=DIRECTION('',(0.707106781186548,0.,-0.707106781186547));
#1130=DIRECTION('',(0.707106781186548,0.,0.707106781186547));
#1131=DIRECTION('',(0.707106781186547,0.,-0.707106781186548));
#1132=DIRECTION('',(0.707106781186547,0.,0.707106781186548));
#1133=DIRECTION('',(0.707106781186548,0.,-0.707106781186547));
#1134=DIRECTION('',(0.707106781186545,0.,0.70710678118655));
#1135=DIRECTION('',(0.70710678118655,0.,-0.707106781186545));
#1136=DIRECTION('',(-1.,0.,-9.81307786677324E-15));
#1137=DIRECTION('',(0.,-1.,0.));
#1138=DIRECTION('',(-2.16194371752348E-14,0.,1.));
#1139=DIRECTION('',(2.18494311877373E-14,0.,-1.));
#1140=DIRECTION('',(0.707106781186548,0.,0.707106781186547));
#1141=DIRECTION('',(0.707106781186547,0.,-0.707106781186548));
#1142=DIRECTION('',(-0.5,0.707106781186541,-0.500000000000009));
#1143=DIRECTION('',(0.707106781186545,0.,0.70710678118655));
#1144=DIRECTION('',(0.70710678118655,0.,-0.707106781186545));
#1145=DIRECTION('',(0.500000000000007,0.707106781186535,0.500000000000012));
#1146=DIRECTION('',(-0.49999999999999,-0.707106781186562,-0.49999999999999));
#1147=DIRECTION('',(-0.707106781186548,0.,0.707106781186547));
#1148=DIRECTION('',(-0.500000000000014,0.707106781186534,-0.5));
#1149=DIRECTION('',(-0.499999999999991,0.70710678118656,-0.499999999999991));
#1150=DIRECTION('',(-0.707106781186548,0.,0.707106781186547));
#1151=DIRECTION('',(0.5,0.70710678118654,0.500000000000008));
#1152=DIRECTION('',(0.707106781186548,0.,0.707106781186548));
#1153=DIRECTION('',(0.707106781186548,0.,-0.707106781186548));
#1154=DIRECTION('',(-1.,0.,0.));
#1155=DIRECTION('',(0.707106781186541,0.,0.707106781186555));
#1156=DIRECTION('',(0.707106781186555,0.,-0.707106781186541));
#1157=DIRECTION('',(1.,0.,3.92523114670941E-14));
#1158=DIRECTION('',(0.,0.,1.));
#1159=DIRECTION('',(0.,1.,0.));
#1160=DIRECTION('',(0.,1.,0.));
#1161=DIRECTION('',(0.,0.,1.));
#1162=DIRECTION('',(-7.85046229341912E-14,0.,1.));
#1163=DIRECTION('',(0.,-1.,0.));
#1164=DIRECTION('',(1.,0.,-1.27570012268032E-13));
#1165=DIRECTION('',(0.,-1.,0.));
#1166=DIRECTION('',(0.,1.,0.));
#1167=DIRECTION('',(0.,0.,1.));
#1168=DIRECTION('',(0.,1.,0.));
#1169=DIRECTION('',(0.,0.,1.));
#1170=DIRECTION('',(0.,-1.,0.));
#1171=DIRECTION('',(0.,0.,-1.));
#1172=DIRECTION('',(0.,-1.,0.));
#1173=DIRECTION('',(0.,0.,-1.));
#1174=DIRECTION('',(0.,1.,0.));
#1175=DIRECTION('',(0.,0.,1.));
#1176=DIRECTION('',(0.,-1.,0.));
#1177=DIRECTION('',(0.,0.,-1.));
#1178=DIRECTION('',(0.,-1.,0.));
#1179=DIRECTION('',(0.,0.,-1.));
#1180=DIRECTION('',(0.,1.,0.));
#1181=DIRECTION('',(0.,0.,1.));
#1182=CARTESIAN_POINT('',(0.,0.,0.));
#1183=CARTESIAN_POINT('',(0.0597961867226988,0.0425,0.51010782104868));
#1184=CARTESIAN_POINT('',(0.0597961867226988,0.0405,0.51010782104868));
#1185=CARTESIAN_POINT('',(0.0597961867226988,0.0405,0.51670782104868));
#1186=CARTESIAN_POINT('',(0.0597961867226988,0.0345,0.51010782104868));
#1187=CARTESIAN_POINT('',(0.0597961867226988,0.0345,0.51670782104868));
#1188=CARTESIAN_POINT('',(0.066317874274702,0.0371077527741754,0.509080072133539));
#1189=CARTESIAN_POINT('',(0.0662879092356934,0.0375000992849279,0.508919492581651));
#1190=CARTESIAN_POINT('',(0.0663178441101381,0.0378918500861131,0.509079951029059));
#1191=CARTESIAN_POINT('',(0.0663698468465111,0.0380540248387246,0.509467937536256));
#1192=CARTESIAN_POINT('',(0.0663936901783987,0.037892050121787,0.509859568191467));
#1193=CARTESIAN_POINT('',(0.0663952207805474,0.0375000864496512,0.510022538073151));
#1194=CARTESIAN_POINT('',(0.0663936979177681,0.0371086887819791,0.509860084654432));
#1195=CARTESIAN_POINT('',(0.0663699479407888,0.0369458899733846,0.50946891500406));
#1196=CARTESIAN_POINT('',(0.066317874274702,0.0371077527741754,0.509080072133539));
#1197=CARTESIAN_POINT('',(0.0662879092356934,0.0375000992849279,0.508919492581651));
#1198=CARTESIAN_POINT('',(0.0663178441101381,0.0378918500861131,0.509079951029059));
#1199=CARTESIAN_POINT('',(0.0662978925546023,0.0375,0.508972998914867));
#1200=CARTESIAN_POINT('',(0.0588495246100316,0.0371077527741754,0.516641771400723));
#1201=CARTESIAN_POINT('',(0.0590117838782625,0.0375000992849279,0.516660629447292));
#1202=CARTESIAN_POINT('',(0.0588496492184973,0.037891850086113,0.516641778395458));
#1203=CARTESIAN_POINT('',(0.0584636358076017,0.0380540248387246,0.516576728714704));
#1204=CARTESIAN_POINT('',(0.0580824678962521,0.037892050121787,0.516483701310492));
#1205=CARTESIAN_POINT('',(0.0579263332033779,0.0375000864496511,0.516436973558996));
#1206=CARTESIAN_POINT('',(0.0580819722402709,0.0371086887819791,0.516483555986578));
#1207=CARTESIAN_POINT('',(0.0584626721573907,0.0369458899733846,0.516576536252677));
#1208=CARTESIAN_POINT('',(0.0588495246100316,0.0371077527741754,0.516641771400723));
#1209=CARTESIAN_POINT('',(0.0590117838782625,0.0375000992849279,0.516660629447292));
#1210=CARTESIAN_POINT('',(0.0588496492184973,0.037891850086113,0.516641778395458));
#1211=CARTESIAN_POINT('',(0.0589577182235965,0.0375,0.516654344597558));
#1212=CARTESIAN_POINT('',(0.0642852983555082,0.0371065455716803,0.514948980462896));
#1213=CARTESIAN_POINT('',(0.0644022440893654,0.037500105973073,0.514834208094889));
#1214=CARTESIAN_POINT('',(0.0642854120538166,0.0378930305360277,0.5149488617523));
#1215=CARTESIAN_POINT('',(0.0639910335544193,0.0380536724738472,0.51520939073421));
#1216=CARTESIAN_POINT('',(0.063678640514329,0.0378922736517313,0.515447816889613));
#1217=CARTESIAN_POINT('',(0.0635414595513007,0.037500156698644,0.515541756069422));
#1218=CARTESIAN_POINT('',(0.0636782103467596,0.0371084027350115,0.515448116700903));
#1219=CARTESIAN_POINT('',(0.0639903433717576,0.0369462672720971,0.515209965347526));
#1220=CARTESIAN_POINT('',(0.0642852983555082,0.0371065455716803,0.514948980462896));
#1221=CARTESIAN_POINT('',(0.0644022440893654,0.037500105973073,0.514834208094889));
#1222=CARTESIAN_POINT('',(0.0642854120538166,0.0378930305360277,0.5149488617523));
#1223=CARTESIAN_POINT('',(0.0643632811277977,0.0375,0.514872445765792));
#1224=CARTESIAN_POINT('',(0.00726497700999262,-0.0325,0.506225557881608));
#1225=CARTESIAN_POINT('',(0.0142103086947661,0.0325,0.513170889566382));
#1226=CARTESIAN_POINT('',(0.0142103086947661,-0.0325,0.513170889566382));
#1227=CARTESIAN_POINT('',(0.0142103086947661,0.0325,0.513170889566382));
#1228=CARTESIAN_POINT('',(0.0134764771979193,0.0325,0.512437058069535));
#1229=CARTESIAN_POINT('',(0.0149174154759527,0.0325,0.513877996347568));
#1230=CARTESIAN_POINT('',(0.0149174154759527,0.0425,0.513877996347568));
#1231=CARTESIAN_POINT('',(0.0149174154759527,0.0395,0.513877996347568));
#1232=CARTESIAN_POINT('',(0.00726497700999262,0.0395,0.506225557881608));
#1233=CARTESIAN_POINT('',(0.000823481171740701,0.0395,0.499784062043356));
#1234=CARTESIAN_POINT('',(0.000823481171740704,-0.0395,0.499784062043356));
#1235=CARTESIAN_POINT('',(0.000823481171740726,-0.0395,0.499784062043356));
#1236=CARTESIAN_POINT('',(0.00726497700999262,-0.0395,0.506225557881608));
#1237=CARTESIAN_POINT('',(0.0149174154759527,-0.0395,0.513877996347568));
#1238=CARTESIAN_POINT('',(0.0149174154759527,-0.0425,0.513877996347568));
#1239=CARTESIAN_POINT('',(0.0149174154759527,-0.0325,0.513877996347568));
#1240=CARTESIAN_POINT('',(0.0134764771979193,-0.0325,0.512437058069535));
#1241=CARTESIAN_POINT('',(0.0255015078351512,-0.0325,0.473691821817573));
#1242=CARTESIAN_POINT('',(0.0487653209361886,0.0395,0.450428008716535));
#1243=CARTESIAN_POINT('',(0.0487653209361886,0.0415,0.450428008716535));
#1244=CARTESIAN_POINT('',(0.0501795344985617,0.0395,0.449013795154163));
#1245=CARTESIAN_POINT('',(0.0501795344985617,-0.0325,0.449013795154163));
#1246=CARTESIAN_POINT('',(0.0501795344985617,-0.0395,0.449013795154163));
#1247=CARTESIAN_POINT('',(0.0487653209361886,-0.0395,0.450428008716535));
#1248=CARTESIAN_POINT('',(0.0487653209361886,-0.0415,0.450428008716535));
#1249=CARTESIAN_POINT('',(0.00223769473411377,-0.0415,0.49695563491861));
#1250=CARTESIAN_POINT('',(0.00223769473411377,-0.0415,0.49695563491861));
#1251=CARTESIAN_POINT('',(0.00223769473411378,-0.0395,0.49695563491861));
#1252=CARTESIAN_POINT('',(0.000823481171740688,-0.0395,0.498369848480983));
#1253=CARTESIAN_POINT('',(0.000823481171740734,0.0395,0.498369848480983));
#1254=CARTESIAN_POINT('',(0.000823481171740735,0.0395,0.498369848480983));
#1255=CARTESIAN_POINT('',(0.00223769473411377,0.0395,0.49695563491861));
#1256=CARTESIAN_POINT('',(0.00223769473411377,0.0415,0.49695563491861));
#1257=CARTESIAN_POINT('',(0.0487653209361886,0.0415,0.450428008716535));
#1258=CARTESIAN_POINT('',(0.0594026379272359,-0.0325,0.456822685020463));
#1259=CARTESIAN_POINT('',(0.0679186345747236,0.0425,0.465338681667951));
#1260=CARTESIAN_POINT('',(0.0679186345747236,0.0395,0.465338681667951));
#1261=CARTESIAN_POINT('',(0.0679186345747236,0.0325,0.465338681667951));
#1262=CARTESIAN_POINT('',(0.0594026379272359,0.0325,0.456822685020463));
#1263=CARTESIAN_POINT('',(0.0668204716438172,0.0325,0.464240518737045));
#1264=CARTESIAN_POINT('',(0.0668204716438172,-0.0325,0.464240518737045));
#1265=CARTESIAN_POINT('',(0.0668204716438172,-0.0325,0.464240518737045));
#1266=CARTESIAN_POINT('',(0.0594026379272359,-0.0325,0.456822685020463));
#1267=CARTESIAN_POINT('',(0.0679186345747236,-0.0325,0.465338681667951));
#1268=CARTESIAN_POINT('',(0.0679186345747236,-0.0425,0.465338681667951));
#1269=CARTESIAN_POINT('',(0.0679186345747236,-0.0395,0.465338681667951));
#1270=CARTESIAN_POINT('',(0.0508866412797483,-0.0395,0.448306688372975));
#1271=CARTESIAN_POINT('',(0.0515937480609349,-0.0395,0.449013795154163));
#1272=CARTESIAN_POINT('',(0.0515937480609348,-0.0325,0.449013795154163));
#1273=CARTESIAN_POINT('',(0.0515937480609349,0.0395,0.449013795154163));
#1274=CARTESIAN_POINT('',(0.0679186345747236,0.0395,0.465338681667951));
#1275=CARTESIAN_POINT('',(0.0597961867226987,-0.0325,0.51010782104868));
#1276=CARTESIAN_POINT('',(0.0597961867226987,-0.0325,0.51010782104868));
#1277=CARTESIAN_POINT('',(0.0144523089523077,-0.0325,0.506341822012058));
#1278=CARTESIAN_POINT('',(0.0663944103018052,-0.0325,0.465088786789823));
#1279=CARTESIAN_POINT('',(0.0663944103018052,-0.0325,0.465088786789823));
#1280=CARTESIAN_POINT('',(0.0663944103018052,0.0325,0.465088786789823));
#1281=CARTESIAN_POINT('',(0.0597961867226987,0.0325,0.51010782104868));
#1282=CARTESIAN_POINT('',(0.0144523089523077,0.0325,0.506341822012058));
#1283=CARTESIAN_POINT('',(0.0144523089523077,-0.0325,0.506341822012058));
#1284=CARTESIAN_POINT('',(0.0146848622141302,-0.0325,0.506574375273881));
#1285=CARTESIAN_POINT('',(0.0146848622141302,0.0325,0.506574375273881));
#1286=CARTESIAN_POINT('',(0.0177458426006987,0.0325,0.509635355660449));
#1287=CARTESIAN_POINT('',(0.0177458426006987,-0.0325,0.509635355660449));
#1288=CARTESIAN_POINT('',(0.0177458426006987,-0.0325,0.509635355660449));
#1289=CARTESIAN_POINT('',(0.0146848622141302,-0.0325,0.506574375273881));
#1290=CARTESIAN_POINT('',(0.0149344798739886,-0.0325,0.513860931949532));
#1291=CARTESIAN_POINT('',(0.0149344798739886,0.0325,0.513860931949532));
#1292=CARTESIAN_POINT('',(0.0177458426006988,0.0325,0.511049569222823));
#1293=CARTESIAN_POINT('',(0.0156245222571392,0.0325,0.513170889566382));
#1294=CARTESIAN_POINT('',(0.0156245222571392,-0.0325,0.513170889566382));
#1295=CARTESIAN_POINT('',(0.0156245222571392,-0.0325,0.513170889566382));
#1296=CARTESIAN_POINT('',(0.0149344798739886,-0.0325,0.513860931949532));
#1297=CARTESIAN_POINT('',(0.0177458426006988,-0.0325,0.511049569222823));
#1298=CARTESIAN_POINT('',(0.0177458426006988,0.0325,0.511049569222823));
#1299=CARTESIAN_POINT('',(0.0694935210319369,-0.0425,0.481528504814017));
#1300=CARTESIAN_POINT('',(0.0721566486819707,-0.0375,0.508905440765157));
#1301=CARTESIAN_POINT('',(0.0721082390240624,-0.0375,0.508407789777997));
#1302=CARTESIAN_POINT('',(0.0694935210319369,-0.0325,0.481528504814017));
#1303=CARTESIAN_POINT('',(0.0726745283455172,-0.0325,0.514229240538379));
#1304=CARTESIAN_POINT('',(0.0726745283455172,-0.0425,0.514229240538379));
#1305=CARTESIAN_POINT('',(0.0726745283455172,-0.0425,0.514229240538379));
#1306=CARTESIAN_POINT('',(0.0694935210319369,-0.0425,0.481528504814017));
#1307=CARTESIAN_POINT('',(0.0683758159846206,-0.0425,0.470038503764967));
#1308=CARTESIAN_POINT('',(0.0683758159846206,-0.0395,0.470038503764967));
#1309=CARTESIAN_POINT('',(0.0683594796362275,-0.0425,0.519575751055408));
#1310=CARTESIAN_POINT('',(0.0683594796362276,-0.0375,0.519575751055408));
#1311=CARTESIAN_POINT('',(0.0687130330268209,-0.0375,0.519222197664815));
#1312=CARTESIAN_POINT('',(0.0683594796362275,-0.0425,0.519575751055408));
#1313=CARTESIAN_POINT('',(0.0647151553383296,-0.0425,0.523220075353306));
#1314=CARTESIAN_POINT('',(0.0720981379592508,-0.0425,0.515837092732385));
#1315=CARTESIAN_POINT('',(0.0720981379592508,-0.0325,0.515837092732385));
#1316=CARTESIAN_POINT('',(0.0720981379592508,-0.0325,0.515837092732385));
#1317=CARTESIAN_POINT('',(0.0683594796362275,-0.0325,0.519575751055408));
#1318=CARTESIAN_POINT('',(0.0647151553383296,-0.0325,0.523220075353306));
#1319=CARTESIAN_POINT('',(0.0647151553383296,-0.0425,0.523220075353306));
#1320=CARTESIAN_POINT('',(0.0307505754925827,-0.0425,0.517140569160199));
#1321=CARTESIAN_POINT('',(0.0572229899964717,-0.0375,0.522595461282453));
#1322=CARTESIAN_POINT('',(0.0577127013781883,-0.0375,0.522696370957991));
#1323=CARTESIAN_POINT('',(0.0307505754925827,-0.0425,0.517140569160199));
#1324=CARTESIAN_POINT('',(0.0628973030738032,-0.0425,0.523764707317799));
#1325=CARTESIAN_POINT('',(0.0202611920077964,-0.0425,0.514979132192293));
#1326=CARTESIAN_POINT('',(0.0628973030738032,-0.0325,0.523764707317799));
#1327=CARTESIAN_POINT('',(0.0628973030738032,-0.0325,0.523764707317799));
#1328=CARTESIAN_POINT('',(0.0307505754925827,-0.0325,0.517140569160199));
#1329=CARTESIAN_POINT('',(0.0202611920077963,-0.0395,0.514979132192293));
#1330=CARTESIAN_POINT('',(0.0597961867226988,-0.0425,0.51010782104868));
#1331=CARTESIAN_POINT('',(0.0597961867226988,-0.0405,0.51010782104868));
#1332=CARTESIAN_POINT('',(0.0597961867226988,-0.0405,0.50350782104868));
#1333=CARTESIAN_POINT('',(0.0597961867226988,-0.0345,0.51010782104868));
#1334=CARTESIAN_POINT('',(0.0597961867226988,-0.0345,0.50350782104868));
#1335=CARTESIAN_POINT('',(0.0642852983555082,-0.0378934544283197,0.514948980462896));
#1336=CARTESIAN_POINT('',(0.0644022440893653,-0.037499894026927,0.514834208094889));
#1337=CARTESIAN_POINT('',(0.0642854120538166,-0.0371069694639722,0.514948861752301));
#1338=CARTESIAN_POINT('',(0.0639910335544193,-0.0369463275261528,0.515209390734209));
#1339=CARTESIAN_POINT('',(0.063678640514329,-0.0371077263482687,0.515447816889613));
#1340=CARTESIAN_POINT('',(0.0635414595513007,-0.037499843301356,0.515541756069422));
#1341=CARTESIAN_POINT('',(0.0636782103467596,-0.0378915972649886,0.515448116700903));
#1342=CARTESIAN_POINT('',(0.0639903433717576,-0.0380537327279029,0.515209965347526));
#1343=CARTESIAN_POINT('',(0.0642852983555082,-0.0378934544283197,0.514948980462896));
#1344=CARTESIAN_POINT('',(0.0644022440893653,-0.037499894026927,0.514834208094889));
#1345=CARTESIAN_POINT('',(0.0642854120538166,-0.0371069694639722,0.514948861752301));
#1346=CARTESIAN_POINT('',(0.0643632811277977,-0.0375,0.514872445765792));
#1347=CARTESIAN_POINT('',(0.0588495246100316,-0.0378922472258246,0.516641771400723));
#1348=CARTESIAN_POINT('',(0.0590117838782625,-0.0374999007150721,0.516660629447292));
#1349=CARTESIAN_POINT('',(0.0588496492184974,-0.037108149913887,0.516641778395458));
#1350=CARTESIAN_POINT('',(0.0584636358076017,-0.0369459751612754,0.516576728714704));
#1351=CARTESIAN_POINT('',(0.0580824678962521,-0.037107949878213,0.516483701310492));
#1352=CARTESIAN_POINT('',(0.0579263332033779,-0.0374999135503489,0.516436973558996));
#1353=CARTESIAN_POINT('',(0.0580819722402708,-0.0378913112180209,0.516483555986578));
#1354=CARTESIAN_POINT('',(0.0584626721573907,-0.0380541100266154,0.516576536252677));
#1355=CARTESIAN_POINT('',(0.0588495246100316,-0.0378922472258246,0.516641771400723));
#1356=CARTESIAN_POINT('',(0.0590117838782625,-0.0374999007150721,0.516660629447292));
#1357=CARTESIAN_POINT('',(0.0588496492184974,-0.037108149913887,0.516641778395458));
#1358=CARTESIAN_POINT('',(0.0589577182235965,-0.0375,0.516654344597558));
#1359=CARTESIAN_POINT('',(0.066317874274702,-0.0378922472258246,0.509080072133539));
#1360=CARTESIAN_POINT('',(0.0662879092356934,-0.0374999007150721,0.508919492581651));
#1361=CARTESIAN_POINT('',(0.0663178441101381,-0.037108149913887,0.509079951029059));
#1362=CARTESIAN_POINT('',(0.0663698468465111,-0.0369459751612754,0.509467937536256));
#1363=CARTESIAN_POINT('',(0.0663936901783987,-0.0371079498782131,0.509859568191468));
#1364=CARTESIAN_POINT('',(0.0663952207805474,-0.0374999135503488,0.510022538073151));
#1365=CARTESIAN_POINT('',(0.0663936979177681,-0.037891311218021,0.509860084654432));
#1366=CARTESIAN_POINT('',(0.0663699479407888,-0.0380541100266154,0.50946891500406));
#1367=CARTESIAN_POINT('',(0.066317874274702,-0.0378922472258246,0.509080072133539));
#1368=CARTESIAN_POINT('',(0.0662879092356934,-0.0374999007150721,0.508919492581651));
#1369=CARTESIAN_POINT('',(0.0663178441101381,-0.037108149913887,0.509079951029059));
#1370=CARTESIAN_POINT('',(0.0662978925546023,-0.0375,0.508972998914867));
#1371=CARTESIAN_POINT('',(0.0383312805566264,-0.0425,0.487582254710828));
#1372=CARTESIAN_POINT('',(0.0597961867226988,-0.0425,0.51010782104868));
#1373=CARTESIAN_POINT('',(0.0597961867226988,-0.0425,0.50150782104868));
#1374=CARTESIAN_POINT('',(0.0706839243968777,-0.0425,0.514422879170012));
#1375=CARTESIAN_POINT('',(0.0633009417759565,-0.0425,0.521805861790933));
#1376=CARTESIAN_POINT('',(0.015597797541479,-0.0425,0.510315737725975));
#1377=CARTESIAN_POINT('',(0.00294480151530033,-0.0425,0.497662741699797));
#1378=CARTESIAN_POINT('',(0.0494724277173752,-0.0425,0.451135115497722));
#1379=CARTESIAN_POINT('',(0.0494724277173752,-0.0425,0.451135115497722));
#1380=CARTESIAN_POINT('',(0.0657973142311639,-0.0425,0.467460002011511));
#1381=CARTESIAN_POINT('',(0.0383312805566264,-0.0325,0.487582254710828));
#1382=CARTESIAN_POINT('',(0.0597961867226988,-0.0325,0.51010782104868));
#1383=CARTESIAN_POINT('',(0.0597961867226988,-0.0325,0.50150782104868));
#1384=CARTESIAN_POINT('',(0.0706839243968777,-0.0325,0.514422879170012));
#1385=CARTESIAN_POINT('',(0.0664669182532239,-0.0325,0.464594072127638));
#1386=CARTESIAN_POINT('',(0.0177458426006958,-0.0325,0.48758225471083));
#1387=CARTESIAN_POINT('',(0.0383312805566245,-0.0325,0.513170889566384));
#1388=CARTESIAN_POINT('',(0.0633009417759565,-0.0325,0.521805861790933));
#1389=CARTESIAN_POINT('',(0.0532252030882398,-0.0375,0.510747022171701));
#1390=CARTESIAN_POINT('',(0.0611285980785069,-0.0375,0.503641671964494));
#1391=CARTESIAN_POINT('',(0.0546755492067055,-0.0375,0.505891820625886));
#1392=CARTESIAN_POINT('',(0.0307505754925827,0.0425,0.517140569160199));
#1393=CARTESIAN_POINT('',(0.0572229899964717,0.0375,0.522595461282453));
#1394=CARTESIAN_POINT('',(0.0577127013781883,0.0375,0.522696370957991));
#1395=CARTESIAN_POINT('',(0.0307505754925827,0.0325,0.517140569160199));
#1396=CARTESIAN_POINT('',(0.0628973030738032,0.0325,0.523764707317799));
#1397=CARTESIAN_POINT('',(0.0628973030738032,0.0425,0.523764707317799));
#1398=CARTESIAN_POINT('',(0.0628973030738032,0.0425,0.523764707317799));
#1399=CARTESIAN_POINT('',(0.0307505754925827,0.0425,0.517140569160199));
#1400=CARTESIAN_POINT('',(0.0202611920077963,0.0425,0.514979132192293));
#1401=CARTESIAN_POINT('',(0.0202611920077963,0.0395,0.514979132192293));
#1402=CARTESIAN_POINT('',(0.0683594796362275,0.0425,0.519575751055408));
#1403=CARTESIAN_POINT('',(0.0683594796362276,0.0375,0.519575751055408));
#1404=CARTESIAN_POINT('',(0.0687130330268209,0.0375,0.519222197664815));
#1405=CARTESIAN_POINT('',(0.0683594796362275,0.0325,0.519575751055408));
#1406=CARTESIAN_POINT('',(0.0647151553383296,0.0325,0.523220075353306));
#1407=CARTESIAN_POINT('',(0.0720981379592508,0.0325,0.515837092732385));
#1408=CARTESIAN_POINT('',(0.0720981379592508,0.0425,0.515837092732385));
#1409=CARTESIAN_POINT('',(0.0720981379592508,0.0425,0.515837092732385));
#1410=CARTESIAN_POINT('',(0.0683594796362275,0.0425,0.519575751055408));
#1411=CARTESIAN_POINT('',(0.0647151553383296,0.0425,0.523220075353306));
#1412=CARTESIAN_POINT('',(0.0647151553383296,0.0325,0.523220075353306));
#1413=CARTESIAN_POINT('',(0.0694935210319369,0.0425,0.481528504814017));
#1414=CARTESIAN_POINT('',(0.0721566486819707,0.0375,0.508905440765157));
#1415=CARTESIAN_POINT('',(0.0721082390240624,0.0375,0.508407789777997));
#1416=CARTESIAN_POINT('',(0.0694935210319369,0.0425,0.481528504814017));
#1417=CARTESIAN_POINT('',(0.0683758159846206,0.0425,0.470038503764967));
#1418=CARTESIAN_POINT('',(0.0726745283455172,0.0425,0.514229240538379));
#1419=CARTESIAN_POINT('',(0.0726745283455172,0.0325,0.514229240538379));
#1420=CARTESIAN_POINT('',(0.0726745283455172,0.0325,0.514229240538379));
#1421=CARTESIAN_POINT('',(0.0694935210319369,0.0325,0.481528504814017));
#1422=CARTESIAN_POINT('',(0.0683758159846206,0.0395,0.470038503764967));
#1423=CARTESIAN_POINT('',(0.0383312805566264,0.0425,0.487582254710828));
#1424=CARTESIAN_POINT('',(0.0597961867226988,0.0425,0.51010782104868));
#1425=CARTESIAN_POINT('',(0.0597961867226988,0.0425,0.51870782104868));
#1426=CARTESIAN_POINT('',(0.0706839243968777,0.0425,0.514422879170012));
#1427=CARTESIAN_POINT('',(0.0487653209361886,0.0425,0.450428008716535));
#1428=CARTESIAN_POINT('',(0.0494724277173752,0.0425,0.451135115497722));
#1429=CARTESIAN_POINT('',(0.00294480151530034,0.0425,0.497662741699797));
#1430=CARTESIAN_POINT('',(0.00294480151530031,0.0425,0.497662741699797));
#1431=CARTESIAN_POINT('',(0.0155977975414789,0.0425,0.510315737725975));
#1432=CARTESIAN_POINT('',(0.0633009417759565,0.0425,0.521805861790933));
#1433=CARTESIAN_POINT('',(0.0383312805566264,0.0325,0.487582254710828));
#1434=CARTESIAN_POINT('',(0.0597961867226988,0.0325,0.51010782104868));
#1435=CARTESIAN_POINT('',(0.0597961867226988,0.0325,0.51870782104868));
#1436=CARTESIAN_POINT('',(0.0706839243968777,0.0325,0.514422879170012));
#1437=CARTESIAN_POINT('',(0.0633009417759565,0.0325,0.521805861790933));
#1438=CARTESIAN_POINT('',(0.0383312805566245,0.0325,0.513170889566384));
#1439=CARTESIAN_POINT('',(0.0177458426006958,0.0325,0.48758225471083));
#1440=CARTESIAN_POINT('',(0.0664669182532239,0.0325,0.464594072127638));
#1441=CARTESIAN_POINT('',(0.0532252030882398,0.0375,0.510747022171701));
#1442=CARTESIAN_POINT('',(0.0611285980785069,0.0375,0.503641671964494));
#1443=CARTESIAN_POINT('',(0.0546755492067055,0.0375,0.505891820625886));
#1444=CARTESIAN_POINT('',(0.0621254237435538,-0.0395,0.463788111523901));
#1445=CARTESIAN_POINT('',(0.0494724277173752,-0.0395,0.451135115497722));
#1446=CARTESIAN_POINT('',(0.0572813175836763,0.0395,0.458944005364023));
#1447=CARTESIAN_POINT('',(0.0494724277173752,0.0395,0.451135115497722));
#1448=CARTESIAN_POINT('',(0.00938629735355226,-0.0395,0.504104237538049));
#1449=CARTESIAN_POINT('',(0.00294480151530034,-0.0395,0.497662741699797));
#1450=CARTESIAN_POINT('',(0.0155977975414789,0.0395,0.510315737725975));
#1451=CARTESIAN_POINT('',(0.00294480151530032,0.0395,0.497662741699797));
#1452=CARTESIAN_POINT('',(0.000823481171740727,-0.0325,0.498369848480983));
#1453=CARTESIAN_POINT('',(0.000823481171740735,0.0395,0.498369848480983));
#1454=CARTESIAN_POINT('',(0.000823481171740704,-0.0395,0.499784062043356));
#1455=CARTESIAN_POINT('',(0.00223769473411377,-0.0395,0.49695563491861));
#1456=CARTESIAN_POINT('',(0.00294480151530033,-0.0425,0.497662741699797));
#1457=CARTESIAN_POINT('',(0.00223769473411375,0.0395,0.49695563491861));
#1458=CARTESIAN_POINT('',(0.00223769473411377,0.0415,0.49695563491861));
#1459=CARTESIAN_POINT('',(0.0256782845304478,-0.0425,0.474929258684649));
#1460=CARTESIAN_POINT('',(0.0494724277173752,-0.0425,0.451135115497722));
#1461=CARTESIAN_POINT('',(0.0255015078351512,0.0415,0.473691821817573));
#1462=CARTESIAN_POINT('',(0.0487653209361886,0.0415,0.450428008716535));
#1463=CARTESIAN_POINT('',(0.0487653209361886,-0.0395,0.450428008716535));
#1464=CARTESIAN_POINT('',(0.0515937480609348,-0.0395,0.449013795154163));
#1465=CARTESIAN_POINT('',(0.0487653209361886,0.0395,0.450428008716535));
#1466=CARTESIAN_POINT('',(0.0501795344985617,0.0395,0.449013795154163));
#1467=CARTESIAN_POINT('',(0.0515937480609348,-0.0325,0.449013795154163));
#1468=CARTESIAN_POINT('',(0.0664669182532239,-0.0325,0.464594072127638));
#1469=CARTESIAN_POINT('',(0.0142103086947661,-0.0325,0.513170889566382));
#1470=CARTESIAN_POINT('',(0.0177458426006988,-0.0325,0.511049569222823));
#1471=CARTESIAN_POINT('',(0.0706839243968777,0.0425,0.514422879170012));
#1472=CARTESIAN_POINT('',(0.0633009417759565,0.0425,0.521805861790933));
#1473=CARTESIAN_POINT('',(0.0706839243968777,-0.0425,0.514422879170012));
#1474=CARTESIAN_POINT('',(0.0633009417759565,-0.0425,0.521805861790933));
#1475=CARTESIAN_POINT('',(0.0597961867226988,0.0425,0.51010782104868));
#1476=CARTESIAN_POINT('',(0.0597961867226988,0.0345,0.51010782104868));
#1477=CARTESIAN_POINT('',(0.0597961867226988,-0.0405,0.51010782104868));
#1478=CARTESIAN_POINT('',(0.0597961867226988,-0.0325,0.51010782104868));
#1479=MECHANICAL_DESIGN_GEOMETRIC_PRESENTATION_REPRESENTATION('',(#846),
#1480);
#1480=(
GEOMETRIC_REPRESENTATION_CONTEXT(3)
GLOBAL_UNCERTAINTY_ASSIGNED_CONTEXT((#1481))
GLOBAL_UNIT_ASSIGNED_CONTEXT((#1484,#1483,#1482))
REPRESENTATION_CONTEXT('Part 28','TOP_LEVEL_ASSEMBLY_PART')
);
#1481=UNCERTAINTY_MEASURE_WITH_UNIT(LENGTH_MEASURE(2.E-5),#1484,
'DISTANCE_ACCURACY_VALUE','Maximum Tolerance applied to model');
#1482=(
NAMED_UNIT(*)
SI_UNIT($,.STERADIAN.)
SOLID_ANGLE_UNIT()
);
#1483=(
NAMED_UNIT(*)
PLANE_ANGLE_UNIT()
SI_UNIT($,.RADIAN.)
);
#1484=(
LENGTH_UNIT()
NAMED_UNIT(*)
SI_UNIT($,.METRE.)
);
#1485=PRODUCT_DEFINITION_SHAPE('','',#1486);
#1486=PRODUCT_DEFINITION('','',#1488,#1487);
#1487=PRODUCT_DEFINITION_CONTEXT('',#1494,'design');
#1488=PRODUCT_DEFINITION_FORMATION_WITH_SPECIFIED_SOURCE('','',#1490,
 .NOT_KNOWN.);
#1489=PRODUCT_RELATED_PRODUCT_CATEGORY('','',(#1490));
#1490=PRODUCT('Part 28','Part 28','Part 28',(#1492));
#1491=PRODUCT_CATEGORY('','');
#1492=PRODUCT_CONTEXT('',#1494,'mechanical');
#1493=APPLICATION_PROTOCOL_DEFINITION('international standard',
'ap242_managed_model_based_3d_engineering',2020,#1494);
#1494=APPLICATION_CONTEXT('managed model based 3d engineering');
ENDSEC;
END-ISO-10303-21;
