ISO-10303-21;
HEADER;
/* Generated by software containing ST-Developer
 * from STEP Tools, Inc. (www.steptools.com) 
 */
/* OPTION: using custom renumber hook */

FILE_DESCRIPTION(
/* description */ ('STEP AP242 Edition 2',
'CAx-IF Rec.Pracs.---Representation and Presentation of Product Manufa
cturing Information (PMI)---4.0---2014-10-13',
'CAx-IF Rec.Pracs.---3D Tessellated Geometry---0.4---2014-09-14','2;1',
'CAx-IF Rec.Pracs.---User Defined Attributes---1.5---2016-08-15'),
/* implementation_level */ '2;1');

FILE_NAME(
/* name */ 'corner - Part 1',
/* time_stamp */ '2026-08-12T19:24:41Z',
/* author */ (''),
/* organization */ (''),
/* preprocessor_version */ 'ST-DEVELOPER v20',
/* originating_system */ 'ONSHAPE BY PTC INC, 1.219',
/* authorisation */ '  ');

FILE_SCHEMA (('AP242_MANAGED_MODEL_BASED_3D_ENGINEERING_MIM_LF { 1 0 10303 442 3 1 4 }'));
ENDSEC;

DATA;
#10=SHAPE_REPRESENTATION_RELATIONSHIP('','',#983,#11);
#11=ADVANCED_BREP_SHAPE_REPRESENTATION('',(#981),#1867);
#12=(
BOUNDED_SURFACE()
B_SPLINE_SURFACE(3,2,((#1776,#1777,#1778),(#1779,#1780,#1781),(#1782,#1783,
#1784),(#1785,#1786,#1787),(#1788,#1789,#1790),(#1791,#1792,#1793),(#1794,
#1795,#1796)),.UNSPECIFIED.,.F.,.F.,.F.)
B_SPLINE_SURFACE_WITH_KNOTS((4,1,1,1,4),(3,3),(6.28318530717959,6.67588438887831,
7.06858347057703,7.46128255227576,7.85398163397448),(0.,1.),
 .UNSPECIFIED.)
GEOMETRIC_REPRESENTATION_ITEM()
RATIONAL_B_SPLINE_SURFACE(((1.,0.923879532511287,1.),(1.,0.923879532512093,
1.),(1.,0.932510447501316,1.),(1.,0.962880215138169,1.),(1.,0.992123211232947,
1.),(1.,0.999999999999505,1.),(1.,1.,1.)))
REPRESENTATION_ITEM('')
SURFACE()
);
#13=(
BOUNDED_SURFACE()
B_SPLINE_SURFACE(3,2,((#1800,#1801,#1802),(#1803,#1804,#1805),(#1806,#1807,
#1808),(#1809,#1810,#1811),(#1812,#1813,#1814),(#1815,#1816,#1817),(#1818,
#1819,#1820)),.UNSPECIFIED.,.F.,.F.,.F.)
B_SPLINE_SURFACE_WITH_KNOTS((4,1,1,1,4),(3,3),(3.14159265358979,3.53429173528852,
3.92699081698724,4.31968989868597,4.71238898038469),(0.,1.),
 .UNSPECIFIED.)
GEOMETRIC_REPRESENTATION_ITEM()
RATIONAL_B_SPLINE_SURFACE(((1.,0.923879532511287,1.),(1.,0.923879532512093,
1.),(1.,0.932510447501315,1.),(1.,0.96288021513817,1.),(1.,0.992123211232946,
1.),(1.,0.999999999999505,1.),(1.,1.,1.)))
REPRESENTATION_ITEM('')
SURFACE()
);
#14=(
BOUNDED_SURFACE()
B_SPLINE_SURFACE(3,2,((#1821,#1822,#1823),(#1824,#1825,#1826),(#1827,#1828,
#1829),(#1830,#1831,#1832),(#1833,#1834,#1835),(#1836,#1837,#1838),(#1839,
#1840,#1841)),.UNSPECIFIED.,.F.,.F.,.F.)
B_SPLINE_SURFACE_WITH_KNOTS((4,1,1,1,4),(3,3),(4.71238898038469,5.10508806208341,
5.49778714378214,5.89048622548086,6.28318530717959),(0.,1.),
 .UNSPECIFIED.)
GEOMETRIC_REPRESENTATION_ITEM()
RATIONAL_B_SPLINE_SURFACE(((1.,1.,1.),(1.,0.999999999999505,1.),(1.,0.992123211232944,
1.),(1.,0.962880215138181,1.),(1.,0.932510447501276,1.),(1.,0.923879532512181,
1.),(1.,0.923879532511287,1.)))
REPRESENTATION_ITEM('')
SURFACE()
);
#15=(
BOUNDED_SURFACE()
B_SPLINE_SURFACE(3,2,((#1845,#1846,#1847),(#1848,#1849,#1850),(#1851,#1852,
#1853),(#1854,#1855,#1856),(#1857,#1858,#1859),(#1860,#1861,#1862),(#1863,
#1864,#1865)),.UNSPECIFIED.,.F.,.F.,.F.)
B_SPLINE_SURFACE_WITH_KNOTS((4,1,1,1,4),(3,3),(6.28318530717959,6.67588438887831,
7.06858347057703,7.46128255227576,7.85398163397448),(0.,1.),
 .UNSPECIFIED.)
GEOMETRIC_REPRESENTATION_ITEM()
RATIONAL_B_SPLINE_SURFACE(((1.,0.923879532511287,1.),(1.,0.923879532512181,
1.),(1.,0.932510447501275,1.),(1.,0.96288021513818,1.),(1.,0.992123211232943,
1.),(1.,0.999999999999505,1.),(1.,1.,1.)))
REPRESENTATION_ITEM('')
SURFACE()
);
#16=ELLIPSE('',#1073,0.00159504102683419,0.001);
#17=ELLIPSE('',#1077,0.00159504102683419,0.001);
#18=ELLIPSE('',#1078,0.00159504102683419,0.001);
#19=ELLIPSE('',#1082,0.00159504102683419,0.001);
#20=ELLIPSE('',#1089,0.00159504102683419,0.001);
#21=ELLIPSE('',#1093,0.0015950410268342,0.001);
#22=ELLIPSE('',#1094,0.00159504102683419,0.001);
#23=ELLIPSE('',#1098,0.00159504102683419,0.001);
#24=TOROIDAL_SURFACE('',#1066,0.001,0.001);
#25=TOROIDAL_SURFACE('',#1068,0.001,0.001);
#26=TOROIDAL_SURFACE('',#1074,0.001,0.001);
#27=TOROIDAL_SURFACE('',#1084,0.001,0.001);
#28=TOROIDAL_SURFACE('',#1086,0.001,0.001);
#29=TOROIDAL_SURFACE('',#1095,0.001,0.001);
#30=CONICAL_SURFACE('',#1037,0.0066,0.785398163397448);
#31=CONICAL_SURFACE('',#1038,0.0066,0.785398163397448);
#32=CONICAL_SURFACE('',#1052,0.0015,0.785398163397449);
#33=CONICAL_SURFACE('',#1053,0.0015,0.785398163397448);
#34=CONICAL_SURFACE('',#1056,0.0015,0.785398163397446);
#35=CONICAL_SURFACE('',#1057,0.0015,0.785398163397446);
#36=LINE('',#1459,#86);
#37=LINE('',#1462,#87);
#38=LINE('',#1464,#88);
#39=LINE('',#1468,#89);
#40=LINE('',#1474,#90);
#41=LINE('',#1477,#91);
#42=LINE('',#1479,#92);
#43=LINE('',#1481,#93);
#44=LINE('',#1486,#94);
#45=LINE('',#1490,#95);
#46=LINE('',#1494,#96);
#47=LINE('',#1498,#97);
#48=LINE('',#1500,#98);
#49=LINE('',#1503,#99);
#50=LINE('',#1505,#100);
#51=LINE('',#1507,#101);
#52=LINE('',#1514,#102);
#53=LINE('',#1516,#103);
#54=LINE('',#1518,#104);
#55=LINE('',#1522,#105);
#56=LINE('',#1524,#106);
#57=LINE('',#1527,#107);
#58=LINE('',#1529,#108);
#59=LINE('',#1531,#109);
#60=LINE('',#1541,#110);
#61=LINE('',#1544,#111);
#62=LINE('',#1546,#112);
#63=LINE('',#1548,#113);
#64=LINE('',#1550,#114);
#65=LINE('',#1552,#115);
#66=LINE('',#1556,#116);
#67=LINE('',#1566,#117);
#68=LINE('',#1569,#118);
#69=LINE('',#1571,#119);
#70=LINE('',#1573,#120);
#71=LINE('',#1577,#121);
#72=LINE('',#1579,#122);
#73=LINE('',#1581,#123);
#74=LINE('',#1713,#124);
#75=LINE('',#1714,#125);
#76=LINE('',#1716,#126);
#77=LINE('',#1718,#127);
#78=LINE('',#1720,#128);
#79=LINE('',#1722,#129);
#80=LINE('',#1724,#130);
#81=LINE('',#1726,#131);
#82=LINE('',#1732,#132);
#83=LINE('',#1735,#133);
#84=LINE('',#1737,#134);
#85=LINE('',#1739,#135);
#86=VECTOR('',#1125,1.);
#87=VECTOR('',#1126,1.);
#88=VECTOR('',#1127,1.);
#89=VECTOR('',#1130,1.);
#90=VECTOR('',#1137,1.);
#91=VECTOR('',#1138,1.);
#92=VECTOR('',#1139,1.);
#93=VECTOR('',#1140,1.);
#94=VECTOR('',#1145,1.);
#95=VECTOR('',#1148,1.);
#96=VECTOR('',#1151,1.);
#97=VECTOR('',#1154,1.);
#98=VECTOR('',#1157,1.);
#99=VECTOR('',#1158,1.);
#100=VECTOR('',#1159,1.);
#101=VECTOR('',#1160,1.);
#102=VECTOR('',#1167,1.);
#103=VECTOR('',#1168,1.);
#104=VECTOR('',#1169,1.);
#105=VECTOR('',#1172,1.);
#106=VECTOR('',#1175,1.);
#107=VECTOR('',#1176,1.);
#108=VECTOR('',#1177,1.);
#109=VECTOR('',#1178,1.);
#110=VECTOR('',#1189,1.);
#111=VECTOR('',#1190,1.);
#112=VECTOR('',#1191,1.);
#113=VECTOR('',#1192,1.);
#114=VECTOR('',#1193,1.);
#115=VECTOR('',#1194,1.);
#116=VECTOR('',#1197,1.);
#117=VECTOR('',#1208,1.);
#118=VECTOR('',#1209,1.);
#119=VECTOR('',#1210,1.);
#120=VECTOR('',#1211,1.);
#121=VECTOR('',#1214,1.);
#122=VECTOR('',#1215,1.);
#123=VECTOR('',#1216,1.);
#124=VECTOR('',#1279,1.);
#125=VECTOR('',#1280,1.);
#126=VECTOR('',#1283,1.);
#127=VECTOR('',#1286,1.);
#128=VECTOR('',#1289,1.);
#129=VECTOR('',#1292,1.);
#130=VECTOR('',#1295,1.);
#131=VECTOR('',#1298,1.);
#132=VECTOR('',#1309,1.);
#133=VECTOR('',#1310,1.);
#134=VECTOR('',#1311,1.);
#135=VECTOR('',#1312,1.);
#136=PLANE('',#993);
#137=PLANE('',#996);
#138=PLANE('',#998);
#139=PLANE('',#1003);
#140=PLANE('',#1004);
#141=PLANE('',#1008);
#142=PLANE('',#1009);
#143=PLANE('',#1015);
#144=PLANE('',#1024);
#145=PLANE('',#1028);
#146=PLANE('',#1051);
#147=PLANE('',#1054);
#148=PLANE('',#1055);
#149=PLANE('',#1058);
#150=PLANE('',#1062);
#151=B_SPLINE_CURVE_WITH_KNOTS('',3,(#1401,#1402,#1403,#1404,#1405,#1406,
#1407,#1408,#1409,#1410,#1411),.UNSPECIFIED.,.T.,.F.,(1,1,1,1,1,1,1,1,1,
1,1,1,1,1,1),(-0.00117270549650418,-0.000781803664336119,-0.00039090183216806,
0.,0.00039090183216806,0.000781803664336119,0.00117270549650418,0.00156360732867224,
0.0019545091608403,0.00234541099300836,0.00273631282517642,0.00312721465734448,
0.00351811648951254,0.0039090183216806,0.00429992015384866),
 .UNSPECIFIED.);
#152=B_SPLINE_CURVE_WITH_KNOTS('',3,(#1414,#1415,#1416,#1417,#1418,#1419,
#1420,#1421,#1422,#1423,#1424),.UNSPECIFIED.,.T.,.F.,(1,1,1,1,1,1,1,1,1,
1,1,1,1,1,1),(-0.00117270549650418,-0.00078180366433612,-0.00039090183216806,
0.,0.00039090183216806,0.00078180366433612,0.00117270549650418,0.00156360732867224,
0.0019545091608403,0.00234541099300836,0.00273631282517642,0.00312721465734448,
0.00351811648951254,0.0039090183216806,0.00429992015384866),
 .UNSPECIFIED.);
#153=B_SPLINE_CURVE_WITH_KNOTS('',3,(#1431,#1432,#1433,#1434,#1435,#1436,
#1437,#1438,#1439,#1440,#1441),.UNSPECIFIED.,.T.,.F.,(1,1,1,1,1,1,1,1,1,
1,1,1,1,1,1),(-0.00117270549650418,-0.000781803664336119,-0.00039090183216806,
0.,0.00039090183216806,0.00078180366433612,0.00117270549650418,0.00156360732867224,
0.0019545091608403,0.00234541099300836,0.00273631282517642,0.00312721465734448,
0.00351811648951254,0.0039090183216806,0.00429992015384866),
 .UNSPECIFIED.);
#154=B_SPLINE_CURVE_WITH_KNOTS('',3,(#1444,#1445,#1446,#1447,#1448,#1449,
#1450,#1451,#1452,#1453,#1454),.UNSPECIFIED.,.T.,.F.,(1,1,1,1,1,1,1,1,1,
1,1,1,1,1,1),(-0.00117270549650418,-0.000781803664336121,-0.000390901832168061,
0.,0.000390901832168061,0.000781803664336121,0.00117270549650418,0.00156360732867224,
0.0019545091608403,0.00234541099300836,0.00273631282517642,0.00312721465734448,
0.00351811648951255,0.00390901832168061,0.00429992015384867),
 .UNSPECIFIED.);
#155=B_SPLINE_CURVE_WITH_KNOTS('',3,(#1585,#1586,#1587,#1588,#1589,#1590,
#1591,#1592,#1593,#1594,#1595),.UNSPECIFIED.,.T.,.F.,(1,1,1,1,1,1,1,1,1,
1,1,1,1,1,1),(-0.0011727055863604,-0.000781803724240268,-0.000390901862120134,
0.,0.000390901862120134,0.000781803724240268,0.0011727055863604,0.00156360744848054,
0.00195450931060067,0.0023454111727208,0.00273631303484094,0.00312721489696107,
0.00351811675908121,0.00390901862120134,0.00429992048332147),
 .UNSPECIFIED.);
#156=B_SPLINE_CURVE_WITH_KNOTS('',3,(#1597,#1598,#1599,#1600,#1601,#1602,
#1603,#1604,#1605,#1606,#1607),.UNSPECIFIED.,.T.,.F.,(1,1,1,1,1,1,1,1,1,
1,1,1,1,1,1),(-0.0011727055863604,-0.000781803724240269,-0.000390901862120134,
0.,0.000390901862120134,0.000781803724240269,0.0011727055863604,0.00156360744848054,
0.00195450931060067,0.00234541117272081,0.00273631303484094,0.00312721489696108,
0.00351811675908121,0.00390901862120134,0.00429992048332148),
 .UNSPECIFIED.);
#157=B_SPLINE_CURVE_WITH_KNOTS('',3,(#1609,#1610,#1611,#1612,#1613,#1614,
#1615,#1616,#1617,#1618,#1619),.UNSPECIFIED.,.T.,.F.,(1,1,1,1,1,1,1,1,1,
1,1,1,1,1,1),(-0.00117270558636041,-0.000781803724240273,-0.000390901862120136,
0.,0.000390901862120137,0.000781803724240273,0.00117270558636041,0.00156360744848055,
0.00195450931060068,0.00234541117272082,0.00273631303484096,0.00312721489696109,
0.00351811675908123,0.00390901862120137,0.0042999204833215),
 .UNSPECIFIED.);
#158=B_SPLINE_CURVE_WITH_KNOTS('',3,(#1621,#1622,#1623,#1624,#1625,#1626,
#1627,#1628,#1629,#1630,#1631),.UNSPECIFIED.,.T.,.F.,(1,1,1,1,1,1,1,1,1,
1,1,1,1,1,1),(-0.00117270558636041,-0.000781803724240274,-0.000390901862120137,
0.,0.000390901862120137,0.000781803724240274,0.00117270558636041,0.00156360744848055,
0.00195450931060068,0.00234541117272082,0.00273631303484096,0.0031272148969611,
0.00351811675908123,0.00390901862120137,0.00429992048332151),
 .UNSPECIFIED.);
#159=B_SPLINE_CURVE_WITH_KNOTS('',3,(#1639,#1640,#1641,#1642,#1643,#1644,
#1645,#1646,#1647,#1648,#1649),.UNSPECIFIED.,.T.,.F.,(1,1,1,1,1,1,1,1,1,
1,1,1,1,1,1),(-0.00117270549650417,-0.00078180366433611,-0.000390901832168055,
0.,0.000390901832168055,0.00078180366433611,0.00117270549650417,0.00156360732867222,
0.00195450916084028,0.00234541099300833,0.00273631282517639,0.00312721465734444,
0.0035181164895125,0.00390901832168055,0.00429992015384861),
 .UNSPECIFIED.);
#160=B_SPLINE_CURVE_WITH_KNOTS('',3,(#1651,#1652,#1653,#1654,#1655,#1656,
#1657,#1658,#1659,#1660,#1661),.UNSPECIFIED.,.T.,.F.,(1,1,1,1,1,1,1,1,1,
1,1,1,1,1,1),(-0.00117270549650417,-0.000781803664336111,-0.000390901832168056,
0.,0.000390901832168056,0.000781803664336112,0.00117270549650417,0.00156360732867222,
0.00195450916084028,0.00234541099300834,0.00273631282517639,0.00312721465734445,
0.0035181164895125,0.00390901832168056,0.00429992015384861),
 .UNSPECIFIED.);
#161=B_SPLINE_CURVE_WITH_KNOTS('',3,(#1663,#1664,#1665,#1666,#1667,#1668,
#1669,#1670,#1671,#1672,#1673),.UNSPECIFIED.,.T.,.F.,(1,1,1,1,1,1,1,1,1,
1,1,1,1,1,1),(-0.00117270549650416,-0.000781803664336109,-0.000390901832168054,
0.,0.000390901832168055,0.000781803664336109,0.00117270549650416,0.00156360732867222,
0.00195450916084027,0.00234541099300833,0.00273631282517638,0.00312721465734444,
0.00351811648951249,0.00390901832168055,0.0042999201538486),
 .UNSPECIFIED.);
#162=B_SPLINE_CURVE_WITH_KNOTS('',3,(#1675,#1676,#1677,#1678,#1679,#1680,
#1681,#1682,#1683,#1684,#1685),.UNSPECIFIED.,.T.,.F.,(1,1,1,1,1,1,1,1,1,
1,1,1,1,1,1),(-0.00117270549650417,-0.000781803664336111,-0.000390901832168056,
0.,0.000390901832168056,0.000781803664336112,0.00117270549650417,0.00156360732867222,
0.00195450916084028,0.00234541099300833,0.00273631282517639,0.00312721465734445,
0.0035181164895125,0.00390901832168056,0.00429992015384861),
 .UNSPECIFIED.);
#163=ORIENTED_EDGE('',*,*,#411,.T.);
#164=ORIENTED_EDGE('',*,*,#412,.F.);
#165=ORIENTED_EDGE('',*,*,#413,.F.);
#166=ORIENTED_EDGE('',*,*,#414,.F.);
#167=ORIENTED_EDGE('',*,*,#415,.T.);
#168=ORIENTED_EDGE('',*,*,#416,.F.);
#169=ORIENTED_EDGE('',*,*,#417,.F.);
#170=ORIENTED_EDGE('',*,*,#418,.F.);
#171=ORIENTED_EDGE('',*,*,#411,.F.);
#172=ORIENTED_EDGE('',*,*,#415,.F.);
#173=ORIENTED_EDGE('',*,*,#419,.T.);
#174=ORIENTED_EDGE('',*,*,#420,.T.);
#175=ORIENTED_EDGE('',*,*,#421,.T.);
#176=ORIENTED_EDGE('',*,*,#422,.T.);
#177=ORIENTED_EDGE('',*,*,#423,.T.);
#178=ORIENTED_EDGE('',*,*,#424,.T.);
#179=ORIENTED_EDGE('',*,*,#425,.T.);
#180=ORIENTED_EDGE('',*,*,#426,.T.);
#181=ORIENTED_EDGE('',*,*,#427,.T.);
#182=ORIENTED_EDGE('',*,*,#428,.T.);
#183=ORIENTED_EDGE('',*,*,#429,.T.);
#184=ORIENTED_EDGE('',*,*,#430,.T.);
#185=ORIENTED_EDGE('',*,*,#431,.T.);
#186=ORIENTED_EDGE('',*,*,#432,.T.);
#187=ORIENTED_EDGE('',*,*,#433,.T.);
#188=ORIENTED_EDGE('',*,*,#434,.T.);
#189=ORIENTED_EDGE('',*,*,#435,.T.);
#190=ORIENTED_EDGE('',*,*,#436,.T.);
#191=ORIENTED_EDGE('',*,*,#437,.T.);
#192=ORIENTED_EDGE('',*,*,#414,.T.);
#193=ORIENTED_EDGE('',*,*,#418,.T.);
#194=ORIENTED_EDGE('',*,*,#438,.T.);
#195=ORIENTED_EDGE('',*,*,#439,.T.);
#196=ORIENTED_EDGE('',*,*,#440,.T.);
#197=ORIENTED_EDGE('',*,*,#441,.T.);
#198=ORIENTED_EDGE('',*,*,#442,.T.);
#199=ORIENTED_EDGE('',*,*,#443,.T.);
#200=ORIENTED_EDGE('',*,*,#444,.T.);
#201=ORIENTED_EDGE('',*,*,#445,.T.);
#202=ORIENTED_EDGE('',*,*,#446,.T.);
#203=ORIENTED_EDGE('',*,*,#447,.T.);
#204=ORIENTED_EDGE('',*,*,#448,.T.);
#205=ORIENTED_EDGE('',*,*,#449,.T.);
#206=ORIENTED_EDGE('',*,*,#450,.T.);
#207=ORIENTED_EDGE('',*,*,#451,.T.);
#208=ORIENTED_EDGE('',*,*,#452,.T.);
#209=ORIENTED_EDGE('',*,*,#453,.F.);
#210=ORIENTED_EDGE('',*,*,#454,.F.);
#211=ORIENTED_EDGE('',*,*,#455,.F.);
#212=ORIENTED_EDGE('',*,*,#456,.F.);
#213=ORIENTED_EDGE('',*,*,#457,.T.);
#214=ORIENTED_EDGE('',*,*,#458,.T.);
#215=ORIENTED_EDGE('',*,*,#459,.T.);
#216=ORIENTED_EDGE('',*,*,#460,.T.);
#217=ORIENTED_EDGE('',*,*,#461,.T.);
#218=ORIENTED_EDGE('',*,*,#462,.T.);
#219=ORIENTED_EDGE('',*,*,#463,.T.);
#220=ORIENTED_EDGE('',*,*,#464,.T.);
#221=ORIENTED_EDGE('',*,*,#465,.T.);
#222=ORIENTED_EDGE('',*,*,#466,.T.);
#223=ORIENTED_EDGE('',*,*,#467,.T.);
#224=ORIENTED_EDGE('',*,*,#468,.T.);
#225=ORIENTED_EDGE('',*,*,#469,.T.);
#226=ORIENTED_EDGE('',*,*,#470,.T.);
#227=ORIENTED_EDGE('',*,*,#471,.T.);
#228=ORIENTED_EDGE('',*,*,#472,.T.);
#229=ORIENTED_EDGE('',*,*,#473,.T.);
#230=ORIENTED_EDGE('',*,*,#474,.T.);
#231=ORIENTED_EDGE('',*,*,#475,.T.);
#232=ORIENTED_EDGE('',*,*,#476,.T.);
#233=ORIENTED_EDGE('',*,*,#477,.T.);
#234=ORIENTED_EDGE('',*,*,#478,.T.);
#235=ORIENTED_EDGE('',*,*,#479,.T.);
#236=ORIENTED_EDGE('',*,*,#480,.T.);
#237=ORIENTED_EDGE('',*,*,#481,.T.);
#238=ORIENTED_EDGE('',*,*,#482,.F.);
#239=ORIENTED_EDGE('',*,*,#482,.T.);
#240=ORIENTED_EDGE('',*,*,#483,.T.);
#241=ORIENTED_EDGE('',*,*,#412,.T.);
#242=ORIENTED_EDGE('',*,*,#413,.T.);
#243=ORIENTED_EDGE('',*,*,#416,.T.);
#244=ORIENTED_EDGE('',*,*,#417,.T.);
#245=ORIENTED_EDGE('',*,*,#484,.T.);
#246=ORIENTED_EDGE('',*,*,#485,.T.);
#247=ORIENTED_EDGE('',*,*,#486,.T.);
#248=ORIENTED_EDGE('',*,*,#487,.T.);
#249=ORIENTED_EDGE('',*,*,#488,.F.);
#250=ORIENTED_EDGE('',*,*,#488,.T.);
#251=ORIENTED_EDGE('',*,*,#456,.T.);
#252=ORIENTED_EDGE('',*,*,#487,.F.);
#253=ORIENTED_EDGE('',*,*,#486,.F.);
#254=ORIENTED_EDGE('',*,*,#468,.F.);
#255=ORIENTED_EDGE('',*,*,#455,.T.);
#256=ORIENTED_EDGE('',*,*,#485,.F.);
#257=ORIENTED_EDGE('',*,*,#484,.F.);
#258=ORIENTED_EDGE('',*,*,#467,.F.);
#259=ORIENTED_EDGE('',*,*,#454,.T.);
#260=ORIENTED_EDGE('',*,*,#481,.F.);
#261=ORIENTED_EDGE('',*,*,#480,.F.);
#262=ORIENTED_EDGE('',*,*,#466,.F.);
#263=ORIENTED_EDGE('',*,*,#453,.T.);
#264=ORIENTED_EDGE('',*,*,#479,.F.);
#265=ORIENTED_EDGE('',*,*,#478,.F.);
#266=ORIENTED_EDGE('',*,*,#465,.F.);
#267=ORIENTED_EDGE('',*,*,#425,.F.);
#268=ORIENTED_EDGE('',*,*,#483,.F.);
#269=ORIENTED_EDGE('',*,*,#442,.F.);
#270=ORIENTED_EDGE('',*,*,#477,.F.);
#271=ORIENTED_EDGE('',*,*,#475,.F.);
#272=ORIENTED_EDGE('',*,*,#489,.T.);
#273=ORIENTED_EDGE('',*,*,#438,.F.);
#274=ORIENTED_EDGE('',*,*,#490,.T.);
#275=ORIENTED_EDGE('',*,*,#428,.F.);
#276=ORIENTED_EDGE('',*,*,#491,.T.);
#277=ORIENTED_EDGE('',*,*,#469,.F.);
#278=ORIENTED_EDGE('',*,*,#492,.T.);
#279=ORIENTED_EDGE('',*,*,#440,.F.);
#280=ORIENTED_EDGE('',*,*,#493,.T.);
#281=ORIENTED_EDGE('',*,*,#461,.F.);
#282=ORIENTED_EDGE('',*,*,#494,.T.);
#283=ORIENTED_EDGE('',*,*,#459,.F.);
#284=ORIENTED_EDGE('',*,*,#495,.T.);
#285=ORIENTED_EDGE('',*,*,#426,.F.);
#286=ORIENTED_EDGE('',*,*,#496,.T.);
#287=ORIENTED_EDGE('',*,*,#497,.F.);
#288=ORIENTED_EDGE('',*,*,#435,.F.);
#289=ORIENTED_EDGE('',*,*,#498,.F.);
#290=ORIENTED_EDGE('',*,*,#476,.F.);
#291=ORIENTED_EDGE('',*,*,#498,.T.);
#292=ORIENTED_EDGE('',*,*,#434,.F.);
#293=ORIENTED_EDGE('',*,*,#499,.F.);
#294=ORIENTED_EDGE('',*,*,#492,.F.);
#295=ORIENTED_EDGE('',*,*,#497,.T.);
#296=ORIENTED_EDGE('',*,*,#490,.F.);
#297=ORIENTED_EDGE('',*,*,#500,.F.);
#298=ORIENTED_EDGE('',*,*,#436,.F.);
#299=ORIENTED_EDGE('',*,*,#499,.T.);
#300=ORIENTED_EDGE('',*,*,#433,.F.);
#301=ORIENTED_EDGE('',*,*,#501,.F.);
#302=ORIENTED_EDGE('',*,*,#429,.F.);
#303=ORIENTED_EDGE('',*,*,#500,.T.);
#304=ORIENTED_EDGE('',*,*,#441,.F.);
#305=ORIENTED_EDGE('',*,*,#502,.F.);
#306=ORIENTED_EDGE('',*,*,#437,.F.);
#307=ORIENTED_EDGE('',*,*,#501,.T.);
#308=ORIENTED_EDGE('',*,*,#432,.F.);
#309=ORIENTED_EDGE('',*,*,#503,.F.);
#310=ORIENTED_EDGE('',*,*,#496,.F.);
#311=ORIENTED_EDGE('',*,*,#502,.T.);
#312=ORIENTED_EDGE('',*,*,#494,.F.);
#313=ORIENTED_EDGE('',*,*,#504,.F.);
#314=ORIENTED_EDGE('',*,*,#430,.F.);
#315=ORIENTED_EDGE('',*,*,#503,.T.);
#316=ORIENTED_EDGE('',*,*,#431,.F.);
#317=ORIENTED_EDGE('',*,*,#504,.T.);
#318=ORIENTED_EDGE('',*,*,#460,.F.);
#319=ORIENTED_EDGE('',*,*,#445,.F.);
#320=ORIENTED_EDGE('',*,*,#505,.T.);
#321=ORIENTED_EDGE('',*,*,#452,.F.);
#322=ORIENTED_EDGE('',*,*,#506,.T.);
#323=ORIENTED_EDGE('',*,*,#507,.T.);
#324=ORIENTED_EDGE('',*,*,#508,.T.);
#325=ORIENTED_EDGE('',*,*,#509,.T.);
#326=ORIENTED_EDGE('',*,*,#510,.T.);
#327=ORIENTED_EDGE('',*,*,#511,.F.);
#328=ORIENTED_EDGE('',*,*,#462,.F.);
#329=ORIENTED_EDGE('',*,*,#512,.F.);
#330=ORIENTED_EDGE('',*,*,#446,.F.);
#331=ORIENTED_EDGE('',*,*,#512,.T.);
#332=ORIENTED_EDGE('',*,*,#493,.F.);
#333=ORIENTED_EDGE('',*,*,#513,.F.);
#334=ORIENTED_EDGE('',*,*,#447,.F.);
#335=ORIENTED_EDGE('',*,*,#511,.T.);
#336=ORIENTED_EDGE('',*,*,#506,.F.);
#337=ORIENTED_EDGE('',*,*,#514,.F.);
#338=ORIENTED_EDGE('',*,*,#463,.F.);
#339=ORIENTED_EDGE('',*,*,#513,.T.);
#340=ORIENTED_EDGE('',*,*,#439,.F.);
#341=ORIENTED_EDGE('',*,*,#515,.F.);
#342=ORIENTED_EDGE('',*,*,#448,.F.);
#343=ORIENTED_EDGE('',*,*,#451,.F.);
#344=ORIENTED_EDGE('',*,*,#516,.T.);
#345=ORIENTED_EDGE('',*,*,#464,.F.);
#346=ORIENTED_EDGE('',*,*,#514,.T.);
#347=ORIENTED_EDGE('',*,*,#515,.T.);
#348=ORIENTED_EDGE('',*,*,#489,.F.);
#349=ORIENTED_EDGE('',*,*,#517,.F.);
#350=ORIENTED_EDGE('',*,*,#443,.F.);
#351=ORIENTED_EDGE('',*,*,#509,.F.);
#352=ORIENTED_EDGE('',*,*,#518,.T.);
#353=ORIENTED_EDGE('',*,*,#457,.F.);
#354=ORIENTED_EDGE('',*,*,#519,.T.);
#355=ORIENTED_EDGE('',*,*,#517,.T.);
#356=ORIENTED_EDGE('',*,*,#474,.F.);
#357=ORIENTED_EDGE('',*,*,#520,.F.);
#358=ORIENTED_EDGE('',*,*,#444,.F.);
#359=ORIENTED_EDGE('',*,*,#458,.F.);
#360=ORIENTED_EDGE('',*,*,#521,.T.);
#361=ORIENTED_EDGE('',*,*,#419,.F.);
#362=ORIENTED_EDGE('',*,*,#522,.F.);
#363=ORIENTED_EDGE('',*,*,#520,.T.);
#364=ORIENTED_EDGE('',*,*,#473,.F.);
#365=ORIENTED_EDGE('',*,*,#523,.F.);
#366=ORIENTED_EDGE('',*,*,#505,.F.);
#367=ORIENTED_EDGE('',*,*,#522,.T.);
#368=ORIENTED_EDGE('',*,*,#424,.F.);
#369=ORIENTED_EDGE('',*,*,#524,.F.);
#370=ORIENTED_EDGE('',*,*,#495,.F.);
#371=ORIENTED_EDGE('',*,*,#472,.F.);
#372=ORIENTED_EDGE('',*,*,#525,.T.);
#373=ORIENTED_EDGE('',*,*,#449,.F.);
#374=ORIENTED_EDGE('',*,*,#523,.T.);
#375=ORIENTED_EDGE('',*,*,#524,.T.);
#376=ORIENTED_EDGE('',*,*,#423,.F.);
#377=ORIENTED_EDGE('',*,*,#526,.F.);
#378=ORIENTED_EDGE('',*,*,#427,.F.);
#379=ORIENTED_EDGE('',*,*,#471,.F.);
#380=ORIENTED_EDGE('',*,*,#527,.T.);
#381=ORIENTED_EDGE('',*,*,#507,.F.);
#382=ORIENTED_EDGE('',*,*,#528,.T.);
#383=ORIENTED_EDGE('',*,*,#526,.T.);
#384=ORIENTED_EDGE('',*,*,#422,.F.);
#385=ORIENTED_EDGE('',*,*,#529,.F.);
#386=ORIENTED_EDGE('',*,*,#491,.F.);
#387=ORIENTED_EDGE('',*,*,#421,.F.);
#388=ORIENTED_EDGE('',*,*,#530,.T.);
#389=ORIENTED_EDGE('',*,*,#470,.F.);
#390=ORIENTED_EDGE('',*,*,#529,.T.);
#391=ORIENTED_EDGE('',*,*,#527,.F.);
#392=ORIENTED_EDGE('',*,*,#530,.F.);
#393=ORIENTED_EDGE('',*,*,#531,.F.);
#394=ORIENTED_EDGE('',*,*,#531,.T.);
#395=ORIENTED_EDGE('',*,*,#420,.F.);
#396=ORIENTED_EDGE('',*,*,#532,.F.);
#397=ORIENTED_EDGE('',*,*,#508,.F.);
#398=ORIENTED_EDGE('',*,*,#521,.F.);
#399=ORIENTED_EDGE('',*,*,#518,.F.);
#400=ORIENTED_EDGE('',*,*,#532,.T.);
#401=ORIENTED_EDGE('',*,*,#519,.F.);
#402=ORIENTED_EDGE('',*,*,#516,.F.);
#403=ORIENTED_EDGE('',*,*,#533,.F.);
#404=ORIENTED_EDGE('',*,*,#533,.T.);
#405=ORIENTED_EDGE('',*,*,#450,.F.);
#406=ORIENTED_EDGE('',*,*,#534,.F.);
#407=ORIENTED_EDGE('',*,*,#510,.F.);
#408=ORIENTED_EDGE('',*,*,#534,.T.);
#409=ORIENTED_EDGE('',*,*,#525,.F.);
#410=ORIENTED_EDGE('',*,*,#528,.F.);
#411=EDGE_CURVE('',#535,#535,#617,.T.);
#412=EDGE_CURVE('',#536,#536,#151,.T.);
#413=EDGE_CURVE('',#537,#537,#152,.T.);
#414=EDGE_CURVE('',#538,#538,#618,.T.);
#415=EDGE_CURVE('',#539,#539,#619,.T.);
#416=EDGE_CURVE('',#540,#540,#153,.T.);
#417=EDGE_CURVE('',#541,#541,#154,.T.);
#418=EDGE_CURVE('',#542,#542,#620,.T.);
#419=EDGE_CURVE('',#543,#544,#36,.F.);
#420=EDGE_CURVE('',#544,#545,#37,.F.);
#421=EDGE_CURVE('',#545,#546,#38,.T.);
#422=EDGE_CURVE('',#546,#547,#621,.F.);
#423=EDGE_CURVE('',#547,#548,#39,.F.);
#424=EDGE_CURVE('',#548,#543,#622,.F.);
#425=EDGE_CURVE('',#549,#549,#623,.T.);
#426=EDGE_CURVE('',#550,#551,#40,.F.);
#427=EDGE_CURVE('',#551,#552,#41,.T.);
#428=EDGE_CURVE('',#552,#553,#42,.T.);
#429=EDGE_CURVE('',#553,#550,#43,.T.);
#430=EDGE_CURVE('',#554,#555,#624,.F.);
#431=EDGE_CURVE('',#555,#556,#44,.T.);
#432=EDGE_CURVE('',#556,#557,#625,.F.);
#433=EDGE_CURVE('',#557,#558,#45,.T.);
#434=EDGE_CURVE('',#558,#559,#626,.F.);
#435=EDGE_CURVE('',#559,#560,#46,.T.);
#436=EDGE_CURVE('',#560,#561,#627,.F.);
#437=EDGE_CURVE('',#561,#554,#47,.T.);
#438=EDGE_CURVE('',#562,#563,#48,.T.);
#439=EDGE_CURVE('',#563,#564,#49,.F.);
#440=EDGE_CURVE('',#564,#565,#50,.F.);
#441=EDGE_CURVE('',#565,#562,#51,.T.);
#442=EDGE_CURVE('',#566,#566,#628,.T.);
#443=EDGE_CURVE('',#567,#568,#629,.F.);
#444=EDGE_CURVE('',#568,#569,#52,.T.);
#445=EDGE_CURVE('',#569,#570,#53,.F.);
#446=EDGE_CURVE('',#570,#571,#54,.F.);
#447=EDGE_CURVE('',#571,#572,#630,.F.);
#448=EDGE_CURVE('',#572,#567,#55,.T.);
#449=EDGE_CURVE('',#573,#574,#56,.T.);
#450=EDGE_CURVE('',#574,#575,#57,.F.);
#451=EDGE_CURVE('',#575,#576,#58,.F.);
#452=EDGE_CURVE('',#576,#573,#59,.T.);
#453=EDGE_CURVE('',#577,#577,#631,.T.);
#454=EDGE_CURVE('',#578,#578,#632,.T.);
#455=EDGE_CURVE('',#579,#579,#633,.T.);
#456=EDGE_CURVE('',#580,#580,#634,.T.);
#457=EDGE_CURVE('',#581,#582,#60,.F.);
#458=EDGE_CURVE('',#582,#583,#61,.T.);
#459=EDGE_CURVE('',#583,#584,#62,.T.);
#460=EDGE_CURVE('',#584,#585,#63,.T.);
#461=EDGE_CURVE('',#585,#586,#64,.T.);
#462=EDGE_CURVE('',#586,#587,#65,.T.);
#463=EDGE_CURVE('',#587,#588,#635,.T.);
#464=EDGE_CURVE('',#588,#581,#66,.T.);
#465=EDGE_CURVE('',#589,#589,#636,.T.);
#466=EDGE_CURVE('',#590,#590,#637,.T.);
#467=EDGE_CURVE('',#591,#591,#638,.T.);
#468=EDGE_CURVE('',#592,#592,#639,.T.);
#469=EDGE_CURVE('',#593,#594,#67,.F.);
#470=EDGE_CURVE('',#594,#595,#68,.F.);
#471=EDGE_CURVE('',#595,#596,#69,.F.);
#472=EDGE_CURVE('',#596,#597,#70,.F.);
#473=EDGE_CURVE('',#597,#598,#640,.F.);
#474=EDGE_CURVE('',#598,#599,#71,.F.);
#475=EDGE_CURVE('',#599,#600,#72,.F.);
#476=EDGE_CURVE('',#600,#593,#73,.T.);
#477=EDGE_CURVE('',#601,#601,#641,.F.);
#478=EDGE_CURVE('',#602,#602,#155,.T.);
#479=EDGE_CURVE('',#603,#603,#156,.T.);
#480=EDGE_CURVE('',#604,#604,#157,.T.);
#481=EDGE_CURVE('',#605,#605,#158,.T.);
#482=EDGE_CURVE('',#606,#606,#642,.T.);
#483=EDGE_CURVE('',#607,#607,#643,.F.);
#484=EDGE_CURVE('',#608,#608,#159,.T.);
#485=EDGE_CURVE('',#609,#609,#160,.T.);
#486=EDGE_CURVE('',#610,#610,#161,.T.);
#487=EDGE_CURVE('',#611,#611,#162,.T.);
#488=EDGE_CURVE('',#612,#612,#644,.T.);
#489=EDGE_CURVE('',#599,#563,#645,.T.);
#490=EDGE_CURVE('',#562,#600,#646,.T.);
#491=EDGE_CURVE('',#552,#594,#647,.T.);
#492=EDGE_CURVE('',#593,#553,#648,.T.);
#493=EDGE_CURVE('',#564,#586,#649,.T.);
#494=EDGE_CURVE('',#585,#565,#650,.T.);
#495=EDGE_CURVE('',#583,#551,#651,.T.);
#496=EDGE_CURVE('',#550,#584,#652,.T.);
#497=EDGE_CURVE('',#560,#600,#74,.T.);
#498=EDGE_CURVE('',#593,#559,#75,.T.);
#499=EDGE_CURVE('',#553,#558,#76,.T.);
#500=EDGE_CURVE('',#561,#562,#77,.T.);
#501=EDGE_CURVE('',#550,#557,#78,.T.);
#502=EDGE_CURVE('',#554,#565,#79,.T.);
#503=EDGE_CURVE('',#584,#556,#80,.T.);
#504=EDGE_CURVE('',#555,#585,#81,.T.);
#505=EDGE_CURVE('',#569,#573,#653,.T.);
#506=EDGE_CURVE('',#576,#570,#654,.F.);
#507=EDGE_CURVE('',#613,#614,#82,.F.);
#508=EDGE_CURVE('',#614,#615,#83,.F.);
#509=EDGE_CURVE('',#615,#616,#84,.F.);
#510=EDGE_CURVE('',#616,#613,#85,.F.);
#511=EDGE_CURVE('',#587,#570,#655,.T.);
#512=EDGE_CURVE('',#571,#586,#656,.T.);
#513=EDGE_CURVE('',#572,#564,#657,.T.);
#514=EDGE_CURVE('',#588,#576,#658,.T.);
#515=EDGE_CURVE('',#567,#563,#659,.T.);
#516=EDGE_CURVE('',#575,#581,#16,.T.);
#517=EDGE_CURVE('',#568,#599,#660,.T.);
#518=EDGE_CURVE('',#615,#582,#17,.F.);
#519=EDGE_CURVE('',#581,#616,#18,.F.);
#520=EDGE_CURVE('',#569,#598,#661,.T.);
#521=EDGE_CURVE('',#582,#544,#19,.T.);
#522=EDGE_CURVE('',#583,#543,#662,.T.);
#523=EDGE_CURVE('',#573,#597,#663,.T.);
#524=EDGE_CURVE('',#551,#548,#664,.T.);
#525=EDGE_CURVE('',#596,#574,#20,.T.);
#526=EDGE_CURVE('',#552,#547,#665,.T.);
#527=EDGE_CURVE('',#595,#614,#21,.T.);
#528=EDGE_CURVE('',#613,#596,#22,.F.);
#529=EDGE_CURVE('',#594,#546,#666,.T.);
#530=EDGE_CURVE('',#545,#595,#23,.F.);
#531=EDGE_CURVE('',#614,#545,#667,.T.);
#532=EDGE_CURVE('',#615,#544,#668,.T.);
#533=EDGE_CURVE('',#616,#575,#669,.T.);
#534=EDGE_CURVE('',#613,#574,#670,.T.);
#535=VERTEX_POINT('',#1400);
#536=VERTEX_POINT('',#1412);
#537=VERTEX_POINT('',#1425);
#538=VERTEX_POINT('',#1427);
#539=VERTEX_POINT('',#1430);
#540=VERTEX_POINT('',#1442);
#541=VERTEX_POINT('',#1455);
#542=VERTEX_POINT('',#1457);
#543=VERTEX_POINT('',#1460);
#544=VERTEX_POINT('',#1461);
#545=VERTEX_POINT('',#1463);
#546=VERTEX_POINT('',#1465);
#547=VERTEX_POINT('',#1467);
#548=VERTEX_POINT('',#1469);
#549=VERTEX_POINT('',#1473);
#550=VERTEX_POINT('',#1475);
#551=VERTEX_POINT('',#1476);
#552=VERTEX_POINT('',#1478);
#553=VERTEX_POINT('',#1480);
#554=VERTEX_POINT('',#1484);
#555=VERTEX_POINT('',#1485);
#556=VERTEX_POINT('',#1487);
#557=VERTEX_POINT('',#1489);
#558=VERTEX_POINT('',#1491);
#559=VERTEX_POINT('',#1493);
#560=VERTEX_POINT('',#1495);
#561=VERTEX_POINT('',#1497);
#562=VERTEX_POINT('',#1501);
#563=VERTEX_POINT('',#1502);
#564=VERTEX_POINT('',#1504);
#565=VERTEX_POINT('',#1506);
#566=VERTEX_POINT('',#1510);
#567=VERTEX_POINT('',#1512);
#568=VERTEX_POINT('',#1513);
#569=VERTEX_POINT('',#1515);
#570=VERTEX_POINT('',#1517);
#571=VERTEX_POINT('',#1519);
#572=VERTEX_POINT('',#1521);
#573=VERTEX_POINT('',#1525);
#574=VERTEX_POINT('',#1526);
#575=VERTEX_POINT('',#1528);
#576=VERTEX_POINT('',#1530);
#577=VERTEX_POINT('',#1534);
#578=VERTEX_POINT('',#1536);
#579=VERTEX_POINT('',#1538);
#580=VERTEX_POINT('',#1540);
#581=VERTEX_POINT('',#1542);
#582=VERTEX_POINT('',#1543);
#583=VERTEX_POINT('',#1545);
#584=VERTEX_POINT('',#1547);
#585=VERTEX_POINT('',#1549);
#586=VERTEX_POINT('',#1551);
#587=VERTEX_POINT('',#1553);
#588=VERTEX_POINT('',#1555);
#589=VERTEX_POINT('',#1559);
#590=VERTEX_POINT('',#1561);
#591=VERTEX_POINT('',#1563);
#592=VERTEX_POINT('',#1565);
#593=VERTEX_POINT('',#1567);
#594=VERTEX_POINT('',#1568);
#595=VERTEX_POINT('',#1570);
#596=VERTEX_POINT('',#1572);
#597=VERTEX_POINT('',#1574);
#598=VERTEX_POINT('',#1576);
#599=VERTEX_POINT('',#1578);
#600=VERTEX_POINT('',#1580);
#601=VERTEX_POINT('',#1584);
#602=VERTEX_POINT('',#1596);
#603=VERTEX_POINT('',#1608);
#604=VERTEX_POINT('',#1620);
#605=VERTEX_POINT('',#1632);
#606=VERTEX_POINT('',#1634);
#607=VERTEX_POINT('',#1638);
#608=VERTEX_POINT('',#1650);
#609=VERTEX_POINT('',#1662);
#610=VERTEX_POINT('',#1674);
#611=VERTEX_POINT('',#1686);
#612=VERTEX_POINT('',#1688);
#613=VERTEX_POINT('',#1733);
#614=VERTEX_POINT('',#1734);
#615=VERTEX_POINT('',#1736);
#616=VERTEX_POINT('',#1738);
#617=CIRCLE('',#986,0.0005);
#618=CIRCLE('',#988,0.0005);
#619=CIRCLE('',#990,0.0005);
#620=CIRCLE('',#992,0.0005);
#621=CIRCLE('',#994,0.001);
#622=CIRCLE('',#995,0.001);
#623=CIRCLE('',#997,0.0086);
#624=CIRCLE('',#999,0.0015);
#625=CIRCLE('',#1000,0.0015);
#626=CIRCLE('',#1001,0.0015);
#627=CIRCLE('',#1002,0.0015);
#628=CIRCLE('',#1005,0.0086);
#629=CIRCLE('',#1006,0.001);
#630=CIRCLE('',#1007,0.001);
#631=CIRCLE('',#1010,0.0005);
#632=CIRCLE('',#1011,0.0005);
#633=CIRCLE('',#1012,0.0005);
#634=CIRCLE('',#1013,0.0005);
#635=CIRCLE('',#1014,0.001);
#636=CIRCLE('',#1016,0.0005);
#637=CIRCLE('',#1017,0.0005);
#638=CIRCLE('',#1018,0.0005);
#639=CIRCLE('',#1019,0.0005);
#640=CIRCLE('',#1020,0.001);
#641=CIRCLE('',#1022,0.0066);
#642=CIRCLE('',#1023,0.0066);
#643=CIRCLE('',#1026,0.0066);
#644=CIRCLE('',#1027,0.0066);
#645=CIRCLE('',#1040,0.002);
#646=CIRCLE('',#1041,0.002);
#647=CIRCLE('',#1043,0.002);
#648=CIRCLE('',#1044,0.002);
#649=CIRCLE('',#1046,0.002);
#650=CIRCLE('',#1047,0.002);
#651=CIRCLE('',#1049,0.002);
#652=CIRCLE('',#1050,0.002);
#653=CIRCLE('',#1060,0.002);
#654=CIRCLE('',#1061,0.002);
#655=CIRCLE('',#1064,0.001);
#656=CIRCLE('',#1065,0.001);
#657=CIRCLE('',#1067,0.001);
#658=CIRCLE('',#1069,0.001);
#659=CIRCLE('',#1071,0.001);
#660=CIRCLE('',#1075,0.001);
#661=CIRCLE('',#1080,0.001);
#662=CIRCLE('',#1083,0.001);
#663=CIRCLE('',#1085,0.001);
#664=CIRCLE('',#1087,0.001);
#665=CIRCLE('',#1091,0.001);
#666=CIRCLE('',#1096,0.001);
#667=CIRCLE('',#1099,0.002);
#668=CIRCLE('',#1101,0.002);
#669=CIRCLE('',#1102,0.002);
#670=CIRCLE('',#1104,0.002);
#671=EDGE_LOOP('',(#163));
#672=EDGE_LOOP('',(#164));
#673=EDGE_LOOP('',(#165));
#674=EDGE_LOOP('',(#166));
#675=EDGE_LOOP('',(#167));
#676=EDGE_LOOP('',(#168));
#677=EDGE_LOOP('',(#169));
#678=EDGE_LOOP('',(#170));
#679=EDGE_LOOP('',(#171));
#680=EDGE_LOOP('',(#172));
#681=EDGE_LOOP('',(#173,#174,#175,#176,#177,#178));
#682=EDGE_LOOP('',(#179));
#683=EDGE_LOOP('',(#180,#181,#182,#183));
#684=EDGE_LOOP('',(#184,#185,#186,#187,#188,#189,#190,#191));
#685=EDGE_LOOP('',(#192));
#686=EDGE_LOOP('',(#193));
#687=EDGE_LOOP('',(#194,#195,#196,#197));
#688=EDGE_LOOP('',(#198));
#689=EDGE_LOOP('',(#199,#200,#201,#202,#203,#204));
#690=EDGE_LOOP('',(#205,#206,#207,#208));
#691=EDGE_LOOP('',(#209));
#692=EDGE_LOOP('',(#210));
#693=EDGE_LOOP('',(#211));
#694=EDGE_LOOP('',(#212));
#695=EDGE_LOOP('',(#213,#214,#215,#216,#217,#218,#219,#220));
#696=EDGE_LOOP('',(#221));
#697=EDGE_LOOP('',(#222));
#698=EDGE_LOOP('',(#223));
#699=EDGE_LOOP('',(#224));
#700=EDGE_LOOP('',(#225,#226,#227,#228,#229,#230,#231,#232));
#701=EDGE_LOOP('',(#233));
#702=EDGE_LOOP('',(#234));
#703=EDGE_LOOP('',(#235));
#704=EDGE_LOOP('',(#236));
#705=EDGE_LOOP('',(#237));
#706=EDGE_LOOP('',(#238));
#707=EDGE_LOOP('',(#239));
#708=EDGE_LOOP('',(#240));
#709=EDGE_LOOP('',(#241));
#710=EDGE_LOOP('',(#242));
#711=EDGE_LOOP('',(#243));
#712=EDGE_LOOP('',(#244));
#713=EDGE_LOOP('',(#245));
#714=EDGE_LOOP('',(#246));
#715=EDGE_LOOP('',(#247));
#716=EDGE_LOOP('',(#248));
#717=EDGE_LOOP('',(#249));
#718=EDGE_LOOP('',(#250));
#719=EDGE_LOOP('',(#251));
#720=EDGE_LOOP('',(#252));
#721=EDGE_LOOP('',(#253));
#722=EDGE_LOOP('',(#254));
#723=EDGE_LOOP('',(#255));
#724=EDGE_LOOP('',(#256));
#725=EDGE_LOOP('',(#257));
#726=EDGE_LOOP('',(#258));
#727=EDGE_LOOP('',(#259));
#728=EDGE_LOOP('',(#260));
#729=EDGE_LOOP('',(#261));
#730=EDGE_LOOP('',(#262));
#731=EDGE_LOOP('',(#263));
#732=EDGE_LOOP('',(#264));
#733=EDGE_LOOP('',(#265));
#734=EDGE_LOOP('',(#266));
#735=EDGE_LOOP('',(#267));
#736=EDGE_LOOP('',(#268));
#737=EDGE_LOOP('',(#269));
#738=EDGE_LOOP('',(#270));
#739=EDGE_LOOP('',(#271,#272,#273,#274));
#740=EDGE_LOOP('',(#275,#276,#277,#278));
#741=EDGE_LOOP('',(#279,#280,#281,#282));
#742=EDGE_LOOP('',(#283,#284,#285,#286));
#743=EDGE_LOOP('',(#287,#288,#289,#290));
#744=EDGE_LOOP('',(#291,#292,#293,#294));
#745=EDGE_LOOP('',(#295,#296,#297,#298));
#746=EDGE_LOOP('',(#299,#300,#301,#302));
#747=EDGE_LOOP('',(#303,#304,#305,#306));
#748=EDGE_LOOP('',(#307,#308,#309,#310));
#749=EDGE_LOOP('',(#311,#312,#313,#314));
#750=EDGE_LOOP('',(#315,#316,#317,#318));
#751=EDGE_LOOP('',(#319,#320,#321,#322));
#752=EDGE_LOOP('',(#323,#324,#325,#326));
#753=EDGE_LOOP('',(#327,#328,#329,#330));
#754=EDGE_LOOP('',(#331,#332,#333,#334));
#755=EDGE_LOOP('',(#335,#336,#337,#338));
#756=EDGE_LOOP('',(#339,#340,#341,#342));
#757=EDGE_LOOP('',(#343,#344,#345,#346));
#758=EDGE_LOOP('',(#347,#348,#349,#350));
#759=EDGE_LOOP('',(#351,#352,#353,#354));
#760=EDGE_LOOP('',(#355,#356,#357,#358));
#761=EDGE_LOOP('',(#359,#360,#361,#362));
#762=EDGE_LOOP('',(#363,#364,#365,#366));
#763=EDGE_LOOP('',(#367,#368,#369,#370));
#764=EDGE_LOOP('',(#371,#372,#373,#374));
#765=EDGE_LOOP('',(#375,#376,#377,#378));
#766=EDGE_LOOP('',(#379,#380,#381,#382));
#767=EDGE_LOOP('',(#383,#384,#385,#386));
#768=EDGE_LOOP('',(#387,#388,#389,#390));
#769=EDGE_LOOP('',(#391,#392,#393));
#770=EDGE_LOOP('',(#394,#395,#396,#397));
#771=EDGE_LOOP('',(#398,#399,#400));
#772=EDGE_LOOP('',(#401,#402,#403));
#773=EDGE_LOOP('',(#404,#405,#406,#407));
#774=EDGE_LOOP('',(#408,#409,#410));
#775=FACE_BOUND('',#671,.T.);
#776=FACE_BOUND('',#672,.T.);
#777=FACE_BOUND('',#673,.T.);
#778=FACE_BOUND('',#674,.T.);
#779=FACE_BOUND('',#675,.T.);
#780=FACE_BOUND('',#676,.T.);
#781=FACE_BOUND('',#677,.T.);
#782=FACE_BOUND('',#678,.T.);
#783=FACE_BOUND('',#679,.T.);
#784=FACE_BOUND('',#680,.T.);
#785=FACE_BOUND('',#681,.T.);
#786=FACE_BOUND('',#682,.T.);
#787=FACE_BOUND('',#683,.T.);
#788=FACE_BOUND('',#684,.T.);
#789=FACE_BOUND('',#685,.T.);
#790=FACE_BOUND('',#686,.T.);
#791=FACE_BOUND('',#687,.T.);
#792=FACE_BOUND('',#688,.T.);
#793=FACE_BOUND('',#689,.T.);
#794=FACE_BOUND('',#690,.T.);
#795=FACE_BOUND('',#691,.T.);
#796=FACE_BOUND('',#692,.T.);
#797=FACE_BOUND('',#693,.T.);
#798=FACE_BOUND('',#694,.T.);
#799=FACE_BOUND('',#695,.T.);
#800=FACE_BOUND('',#696,.T.);
#801=FACE_BOUND('',#697,.T.);
#802=FACE_BOUND('',#698,.T.);
#803=FACE_BOUND('',#699,.T.);
#804=FACE_BOUND('',#700,.T.);
#805=FACE_BOUND('',#701,.T.);
#806=FACE_BOUND('',#702,.T.);
#807=FACE_BOUND('',#703,.T.);
#808=FACE_BOUND('',#704,.T.);
#809=FACE_BOUND('',#705,.T.);
#810=FACE_BOUND('',#706,.T.);
#811=FACE_BOUND('',#707,.T.);
#812=FACE_BOUND('',#708,.T.);
#813=FACE_BOUND('',#709,.T.);
#814=FACE_BOUND('',#710,.T.);
#815=FACE_BOUND('',#711,.T.);
#816=FACE_BOUND('',#712,.T.);
#817=FACE_BOUND('',#713,.T.);
#818=FACE_BOUND('',#714,.T.);
#819=FACE_BOUND('',#715,.T.);
#820=FACE_BOUND('',#716,.T.);
#821=FACE_BOUND('',#717,.T.);
#822=FACE_BOUND('',#718,.T.);
#823=FACE_BOUND('',#719,.T.);
#824=FACE_BOUND('',#720,.T.);
#825=FACE_BOUND('',#721,.T.);
#826=FACE_BOUND('',#722,.T.);
#827=FACE_BOUND('',#723,.T.);
#828=FACE_BOUND('',#724,.T.);
#829=FACE_BOUND('',#725,.T.);
#830=FACE_BOUND('',#726,.T.);
#831=FACE_BOUND('',#727,.T.);
#832=FACE_BOUND('',#728,.T.);
#833=FACE_BOUND('',#729,.T.);
#834=FACE_BOUND('',#730,.T.);
#835=FACE_BOUND('',#731,.T.);
#836=FACE_BOUND('',#732,.T.);
#837=FACE_BOUND('',#733,.T.);
#838=FACE_BOUND('',#734,.T.);
#839=FACE_BOUND('',#735,.T.);
#840=FACE_BOUND('',#736,.T.);
#841=FACE_BOUND('',#737,.T.);
#842=FACE_BOUND('',#738,.T.);
#843=FACE_BOUND('',#739,.T.);
#844=FACE_BOUND('',#740,.T.);
#845=FACE_BOUND('',#741,.T.);
#846=FACE_BOUND('',#742,.T.);
#847=FACE_BOUND('',#743,.T.);
#848=FACE_BOUND('',#744,.T.);
#849=FACE_BOUND('',#745,.T.);
#850=FACE_BOUND('',#746,.T.);
#851=FACE_BOUND('',#747,.T.);
#852=FACE_BOUND('',#748,.T.);
#853=FACE_BOUND('',#749,.T.);
#854=FACE_BOUND('',#750,.T.);
#855=FACE_BOUND('',#751,.T.);
#856=FACE_BOUND('',#752,.T.);
#857=FACE_BOUND('',#753,.T.);
#858=FACE_BOUND('',#754,.T.);
#859=FACE_BOUND('',#755,.T.);
#860=FACE_BOUND('',#756,.T.);
#861=FACE_BOUND('',#757,.T.);
#862=FACE_BOUND('',#758,.T.);
#863=FACE_BOUND('',#759,.T.);
#864=FACE_BOUND('',#760,.T.);
#865=FACE_BOUND('',#761,.T.);
#866=FACE_BOUND('',#762,.T.);
#867=FACE_BOUND('',#763,.T.);
#868=FACE_BOUND('',#764,.T.);
#869=FACE_BOUND('',#765,.T.);
#870=FACE_BOUND('',#766,.T.);
#871=FACE_BOUND('',#767,.T.);
#872=FACE_BOUND('',#768,.T.);
#873=FACE_BOUND('',#769,.T.);
#874=FACE_BOUND('',#770,.T.);
#875=FACE_BOUND('',#771,.T.);
#876=FACE_BOUND('',#772,.T.);
#877=FACE_BOUND('',#773,.T.);
#878=FACE_BOUND('',#774,.T.);
#879=CYLINDRICAL_SURFACE('',#985,0.0005);
#880=CYLINDRICAL_SURFACE('',#987,0.0005);
#881=CYLINDRICAL_SURFACE('',#989,0.0005);
#882=CYLINDRICAL_SURFACE('',#991,0.0005);
#883=CYLINDRICAL_SURFACE('',#1021,0.0066);
#884=CYLINDRICAL_SURFACE('',#1025,0.0066);
#885=CYLINDRICAL_SURFACE('',#1029,0.0005);
#886=CYLINDRICAL_SURFACE('',#1030,0.0005);
#887=CYLINDRICAL_SURFACE('',#1031,0.0005);
#888=CYLINDRICAL_SURFACE('',#1032,0.0005);
#889=CYLINDRICAL_SURFACE('',#1033,0.0005);
#890=CYLINDRICAL_SURFACE('',#1034,0.0005);
#891=CYLINDRICAL_SURFACE('',#1035,0.0005);
#892=CYLINDRICAL_SURFACE('',#1036,0.0005);
#893=CYLINDRICAL_SURFACE('',#1039,0.002);
#894=CYLINDRICAL_SURFACE('',#1042,0.002);
#895=CYLINDRICAL_SURFACE('',#1045,0.002);
#896=CYLINDRICAL_SURFACE('',#1048,0.002);
#897=CYLINDRICAL_SURFACE('',#1059,0.002);
#898=CYLINDRICAL_SURFACE('',#1063,0.001);
#899=CYLINDRICAL_SURFACE('',#1070,0.001);
#900=CYLINDRICAL_SURFACE('',#1072,0.001);
#901=CYLINDRICAL_SURFACE('',#1076,0.001);
#902=CYLINDRICAL_SURFACE('',#1079,0.001);
#903=CYLINDRICAL_SURFACE('',#1081,0.001);
#904=CYLINDRICAL_SURFACE('',#1088,0.001);
#905=CYLINDRICAL_SURFACE('',#1090,0.001);
#906=CYLINDRICAL_SURFACE('',#1092,0.001);
#907=CYLINDRICAL_SURFACE('',#1097,0.001);
#908=CYLINDRICAL_SURFACE('',#1100,0.002);
#909=CYLINDRICAL_SURFACE('',#1103,0.002);
#910=ADVANCED_FACE('',(#775,#776),#879,.F.);
#911=ADVANCED_FACE('',(#777,#778),#880,.F.);
#912=ADVANCED_FACE('',(#779,#780),#881,.F.);
#913=ADVANCED_FACE('',(#781,#782),#882,.F.);
#914=ADVANCED_FACE('',(#783,#784,#785),#136,.F.);
#915=ADVANCED_FACE('',(#786,#787),#137,.F.);
#916=ADVANCED_FACE('',(#788,#789,#790),#138,.F.);
#917=ADVANCED_FACE('',(#791),#139,.F.);
#918=ADVANCED_FACE('',(#792,#793),#140,.F.);
#919=ADVANCED_FACE('',(#794),#141,.F.);
#920=ADVANCED_FACE('',(#795,#796,#797,#798,#799),#142,.T.);
#921=ADVANCED_FACE('',(#800,#801,#802,#803,#804),#143,.F.);
#922=ADVANCED_FACE('',(#805,#806,#807,#808,#809,#810),#883,.F.);
#923=ADVANCED_FACE('',(#811),#144,.T.);
#924=ADVANCED_FACE('',(#812,#813,#814,#815,#816,#817,#818,#819,#820,#821),
#884,.F.);
#925=ADVANCED_FACE('',(#822),#145,.T.);
#926=ADVANCED_FACE('',(#823,#824),#885,.F.);
#927=ADVANCED_FACE('',(#825,#826),#886,.F.);
#928=ADVANCED_FACE('',(#827,#828),#887,.F.);
#929=ADVANCED_FACE('',(#829,#830),#888,.F.);
#930=ADVANCED_FACE('',(#831,#832),#889,.F.);
#931=ADVANCED_FACE('',(#833,#834),#890,.F.);
#932=ADVANCED_FACE('',(#835,#836),#891,.F.);
#933=ADVANCED_FACE('',(#837,#838),#892,.F.);
#934=ADVANCED_FACE('',(#839,#840),#30,.F.);
#935=ADVANCED_FACE('',(#841,#842),#31,.F.);
#936=ADVANCED_FACE('',(#843),#893,.T.);
#937=ADVANCED_FACE('',(#844),#894,.T.);
#938=ADVANCED_FACE('',(#845),#895,.T.);
#939=ADVANCED_FACE('',(#846),#896,.T.);
#940=ADVANCED_FACE('',(#847),#146,.F.);
#941=ADVANCED_FACE('',(#848),#32,.T.);
#942=ADVANCED_FACE('',(#849),#33,.T.);
#943=ADVANCED_FACE('',(#850),#147,.F.);
#944=ADVANCED_FACE('',(#851),#148,.F.);
#945=ADVANCED_FACE('',(#852),#34,.T.);
#946=ADVANCED_FACE('',(#853),#35,.T.);
#947=ADVANCED_FACE('',(#854),#149,.T.);
#948=ADVANCED_FACE('',(#855),#897,.T.);
#949=ADVANCED_FACE('',(#856),#150,.T.);
#950=ADVANCED_FACE('',(#857),#898,.T.);
#951=ADVANCED_FACE('',(#858),#24,.T.);
#952=ADVANCED_FACE('',(#859),#25,.T.);
#953=ADVANCED_FACE('',(#860),#899,.T.);
#954=ADVANCED_FACE('',(#861),#900,.T.);
#955=ADVANCED_FACE('',(#862),#26,.T.);
#956=ADVANCED_FACE('',(#863),#901,.T.);
#957=ADVANCED_FACE('',(#864),#902,.T.);
#958=ADVANCED_FACE('',(#865),#903,.T.);
#959=ADVANCED_FACE('',(#866),#27,.T.);
#960=ADVANCED_FACE('',(#867),#28,.T.);
#961=ADVANCED_FACE('',(#868),#904,.T.);
#962=ADVANCED_FACE('',(#869),#905,.T.);
#963=ADVANCED_FACE('',(#870),#906,.T.);
#964=ADVANCED_FACE('',(#871),#29,.T.);
#965=ADVANCED_FACE('',(#872),#907,.T.);
#966=ADVANCED_FACE('',(#873),#12,.F.);
#967=ADVANCED_FACE('',(#874),#908,.F.);
#968=ADVANCED_FACE('',(#875),#13,.F.);
#969=ADVANCED_FACE('',(#876),#14,.F.);
#970=ADVANCED_FACE('',(#877),#909,.F.);
#971=ADVANCED_FACE('',(#878),#15,.F.);
#972=CLOSED_SHELL('',(#910,#911,#912,#913,#914,#915,#916,#917,#918,#919,
#920,#921,#922,#923,#924,#925,#926,#927,#928,#929,#930,#931,#932,#933,#934,
#935,#936,#937,#938,#939,#940,#941,#942,#943,#944,#945,#946,#947,#948,#949,
#950,#951,#952,#953,#954,#955,#956,#957,#958,#959,#960,#961,#962,#963,#964,
#965,#966,#967,#968,#969,#970,#971));
#973=STYLED_ITEM('',(#974),#981);
#974=PRESENTATION_STYLE_ASSIGNMENT((#975));
#975=SURFACE_STYLE_USAGE(.BOTH.,#976);
#976=SURFACE_SIDE_STYLE('',(#977));
#977=SURFACE_STYLE_FILL_AREA(#978);
#978=FILL_AREA_STYLE('',(#979));
#979=FILL_AREA_STYLE_COLOUR('',#980);
#980=COLOUR_RGB('',0.615686274509804,0.811764705882353,0.929411764705882);
#981=MANIFOLD_SOLID_BREP('Part 1',#972);
#982=SHAPE_DEFINITION_REPRESENTATION(#1872,#983);
#983=SHAPE_REPRESENTATION('Part 1',(#984),#1867);
#984=AXIS2_PLACEMENT_3D('',#1397,#1105,#1106);
#985=AXIS2_PLACEMENT_3D('',#1398,#1107,#1108);
#986=AXIS2_PLACEMENT_3D('',#1399,#1109,#1110);
#987=AXIS2_PLACEMENT_3D('',#1413,#1111,#1112);
#988=AXIS2_PLACEMENT_3D('',#1426,#1113,#1114);
#989=AXIS2_PLACEMENT_3D('',#1428,#1115,#1116);
#990=AXIS2_PLACEMENT_3D('',#1429,#1117,#1118);
#991=AXIS2_PLACEMENT_3D('',#1443,#1119,#1120);
#992=AXIS2_PLACEMENT_3D('',#1456,#1121,#1122);
#993=AXIS2_PLACEMENT_3D('',#1458,#1123,#1124);
#994=AXIS2_PLACEMENT_3D('',#1466,#1128,#1129);
#995=AXIS2_PLACEMENT_3D('',#1470,#1131,#1132);
#996=AXIS2_PLACEMENT_3D('',#1471,#1133,#1134);
#997=AXIS2_PLACEMENT_3D('',#1472,#1135,#1136);
#998=AXIS2_PLACEMENT_3D('',#1482,#1141,#1142);
#999=AXIS2_PLACEMENT_3D('',#1483,#1143,#1144);
#1000=AXIS2_PLACEMENT_3D('',#1488,#1146,#1147);
#1001=AXIS2_PLACEMENT_3D('',#1492,#1149,#1150);
#1002=AXIS2_PLACEMENT_3D('',#1496,#1152,#1153);
#1003=AXIS2_PLACEMENT_3D('',#1499,#1155,#1156);
#1004=AXIS2_PLACEMENT_3D('',#1508,#1161,#1162);
#1005=AXIS2_PLACEMENT_3D('',#1509,#1163,#1164);
#1006=AXIS2_PLACEMENT_3D('',#1511,#1165,#1166);
#1007=AXIS2_PLACEMENT_3D('',#1520,#1170,#1171);
#1008=AXIS2_PLACEMENT_3D('',#1523,#1173,#1174);
#1009=AXIS2_PLACEMENT_3D('',#1532,#1179,#1180);
#1010=AXIS2_PLACEMENT_3D('',#1533,#1181,#1182);
#1011=AXIS2_PLACEMENT_3D('',#1535,#1183,#1184);
#1012=AXIS2_PLACEMENT_3D('',#1537,#1185,#1186);
#1013=AXIS2_PLACEMENT_3D('',#1539,#1187,#1188);
#1014=AXIS2_PLACEMENT_3D('',#1554,#1195,#1196);
#1015=AXIS2_PLACEMENT_3D('',#1557,#1198,#1199);
#1016=AXIS2_PLACEMENT_3D('',#1558,#1200,#1201);
#1017=AXIS2_PLACEMENT_3D('',#1560,#1202,#1203);
#1018=AXIS2_PLACEMENT_3D('',#1562,#1204,#1205);
#1019=AXIS2_PLACEMENT_3D('',#1564,#1206,#1207);
#1020=AXIS2_PLACEMENT_3D('',#1575,#1212,#1213);
#1021=AXIS2_PLACEMENT_3D('',#1582,#1217,#1218);
#1022=AXIS2_PLACEMENT_3D('',#1583,#1219,#1220);
#1023=AXIS2_PLACEMENT_3D('',#1633,#1221,#1222);
#1024=AXIS2_PLACEMENT_3D('',#1635,#1223,#1224);
#1025=AXIS2_PLACEMENT_3D('',#1636,#1225,#1226);
#1026=AXIS2_PLACEMENT_3D('',#1637,#1227,#1228);
#1027=AXIS2_PLACEMENT_3D('',#1687,#1229,#1230);
#1028=AXIS2_PLACEMENT_3D('',#1689,#1231,#1232);
#1029=AXIS2_PLACEMENT_3D('',#1690,#1233,#1234);
#1030=AXIS2_PLACEMENT_3D('',#1691,#1235,#1236);
#1031=AXIS2_PLACEMENT_3D('',#1692,#1237,#1238);
#1032=AXIS2_PLACEMENT_3D('',#1693,#1239,#1240);
#1033=AXIS2_PLACEMENT_3D('',#1694,#1241,#1242);
#1034=AXIS2_PLACEMENT_3D('',#1695,#1243,#1244);
#1035=AXIS2_PLACEMENT_3D('',#1696,#1245,#1246);
#1036=AXIS2_PLACEMENT_3D('',#1697,#1247,#1248);
#1037=AXIS2_PLACEMENT_3D('',#1698,#1249,#1250);
#1038=AXIS2_PLACEMENT_3D('',#1699,#1251,#1252);
#1039=AXIS2_PLACEMENT_3D('',#1700,#1253,#1254);
#1040=AXIS2_PLACEMENT_3D('',#1701,#1255,#1256);
#1041=AXIS2_PLACEMENT_3D('',#1702,#1257,#1258);
#1042=AXIS2_PLACEMENT_3D('',#1703,#1259,#1260);
#1043=AXIS2_PLACEMENT_3D('',#1704,#1261,#1262);
#1044=AXIS2_PLACEMENT_3D('',#1705,#1263,#1264);
#1045=AXIS2_PLACEMENT_3D('',#1706,#1265,#1266);
#1046=AXIS2_PLACEMENT_3D('',#1707,#1267,#1268);
#1047=AXIS2_PLACEMENT_3D('',#1708,#1269,#1270);
#1048=AXIS2_PLACEMENT_3D('',#1709,#1271,#1272);
#1049=AXIS2_PLACEMENT_3D('',#1710,#1273,#1274);
#1050=AXIS2_PLACEMENT_3D('',#1711,#1275,#1276);
#1051=AXIS2_PLACEMENT_3D('',#1712,#1277,#1278);
#1052=AXIS2_PLACEMENT_3D('',#1715,#1281,#1282);
#1053=AXIS2_PLACEMENT_3D('',#1717,#1284,#1285);
#1054=AXIS2_PLACEMENT_3D('',#1719,#1287,#1288);
#1055=AXIS2_PLACEMENT_3D('',#1721,#1290,#1291);
#1056=AXIS2_PLACEMENT_3D('',#1723,#1293,#1294);
#1057=AXIS2_PLACEMENT_3D('',#1725,#1296,#1297);
#1058=AXIS2_PLACEMENT_3D('',#1727,#1299,#1300);
#1059=AXIS2_PLACEMENT_3D('',#1728,#1301,#1302);
#1060=AXIS2_PLACEMENT_3D('',#1729,#1303,#1304);
#1061=AXIS2_PLACEMENT_3D('',#1730,#1305,#1306);
#1062=AXIS2_PLACEMENT_3D('',#1731,#1307,#1308);
#1063=AXIS2_PLACEMENT_3D('',#1740,#1313,#1314);
#1064=AXIS2_PLACEMENT_3D('',#1741,#1315,#1316);
#1065=AXIS2_PLACEMENT_3D('',#1742,#1317,#1318);
#1066=AXIS2_PLACEMENT_3D('',#1743,#1319,#1320);
#1067=AXIS2_PLACEMENT_3D('',#1744,#1321,#1322);
#1068=AXIS2_PLACEMENT_3D('',#1745,#1323,#1324);
#1069=AXIS2_PLACEMENT_3D('',#1746,#1325,#1326);
#1070=AXIS2_PLACEMENT_3D('',#1747,#1327,#1328);
#1071=AXIS2_PLACEMENT_3D('',#1748,#1329,#1330);
#1072=AXIS2_PLACEMENT_3D('',#1749,#1331,#1332);
#1073=AXIS2_PLACEMENT_3D('',#1750,#1333,#1334);
#1074=AXIS2_PLACEMENT_3D('',#1751,#1335,#1336);
#1075=AXIS2_PLACEMENT_3D('',#1752,#1337,#1338);
#1076=AXIS2_PLACEMENT_3D('',#1753,#1339,#1340);
#1077=AXIS2_PLACEMENT_3D('',#1754,#1341,#1342);
#1078=AXIS2_PLACEMENT_3D('',#1755,#1343,#1344);
#1079=AXIS2_PLACEMENT_3D('',#1756,#1345,#1346);
#1080=AXIS2_PLACEMENT_3D('',#1757,#1347,#1348);
#1081=AXIS2_PLACEMENT_3D('',#1758,#1349,#1350);
#1082=AXIS2_PLACEMENT_3D('',#1759,#1351,#1352);
#1083=AXIS2_PLACEMENT_3D('',#1760,#1353,#1354);
#1084=AXIS2_PLACEMENT_3D('',#1761,#1355,#1356);
#1085=AXIS2_PLACEMENT_3D('',#1762,#1357,#1358);
#1086=AXIS2_PLACEMENT_3D('',#1763,#1359,#1360);
#1087=AXIS2_PLACEMENT_3D('',#1764,#1361,#1362);
#1088=AXIS2_PLACEMENT_3D('',#1765,#1363,#1364);
#1089=AXIS2_PLACEMENT_3D('',#1766,#1365,#1366);
#1090=AXIS2_PLACEMENT_3D('',#1767,#1367,#1368);
#1091=AXIS2_PLACEMENT_3D('',#1768,#1369,#1370);
#1092=AXIS2_PLACEMENT_3D('',#1769,#1371,#1372);
#1093=AXIS2_PLACEMENT_3D('',#1770,#1373,#1374);
#1094=AXIS2_PLACEMENT_3D('',#1771,#1375,#1376);
#1095=AXIS2_PLACEMENT_3D('',#1772,#1377,#1378);
#1096=AXIS2_PLACEMENT_3D('',#1773,#1379,#1380);
#1097=AXIS2_PLACEMENT_3D('',#1774,#1381,#1382);
#1098=AXIS2_PLACEMENT_3D('',#1775,#1383,#1384);
#1099=AXIS2_PLACEMENT_3D('',#1797,#1385,#1386);
#1100=AXIS2_PLACEMENT_3D('',#1798,#1387,#1388);
#1101=AXIS2_PLACEMENT_3D('',#1799,#1389,#1390);
#1102=AXIS2_PLACEMENT_3D('',#1842,#1391,#1392);
#1103=AXIS2_PLACEMENT_3D('',#1843,#1393,#1394);
#1104=AXIS2_PLACEMENT_3D('',#1844,#1395,#1396);
#1105=DIRECTION('',(0.,0.,1.));
#1106=DIRECTION('',(1.,0.,0.));
#1107=DIRECTION('',(0.,-6.12323399573677E-17,1.));
#1108=DIRECTION('',(0.,-1.,-6.12323399573677E-17));
#1109=DIRECTION('',(0.,-6.12323399573677E-17,1.));
#1110=DIRECTION('',(0.,-1.,-6.12323399573677E-17));
#1111=DIRECTION('',(0.,-6.12323399573677E-17,1.));
#1112=DIRECTION('',(0.,-1.,-6.12323399573677E-17));
#1113=DIRECTION('',(0.,-6.12323399573677E-17,1.));
#1114=DIRECTION('',(0.,-1.,-6.12323399573677E-17));
#1115=DIRECTION('',(0.,-6.12323399573677E-17,1.));
#1116=DIRECTION('',(0.,-1.,-6.12323399573677E-17));
#1117=DIRECTION('',(0.,-6.12323399573677E-17,1.));
#1118=DIRECTION('',(0.,-1.,-6.12323399573677E-17));
#1119=DIRECTION('',(0.,-6.12323399573677E-17,1.));
#1120=DIRECTION('',(0.,-1.,-6.12323399573677E-17));
#1121=DIRECTION('',(0.,-6.12323399573677E-17,1.));
#1122=DIRECTION('',(0.,-1.,-6.12323399573677E-17));
#1123=DIRECTION('',(2.31296463463574E-16,0.,-1.));
#1124=DIRECTION('',(-1.,0.,-2.31296463463574E-16));
#1125=DIRECTION('',(-1.,0.,-2.31296463463574E-16));
#1126=DIRECTION('',(0.,-1.,0.));
#1127=DIRECTION('',(-1.,0.,-2.31296463463574E-16));
#1128=DIRECTION('',(2.31296463463574E-16,0.,-1.));
#1129=DIRECTION('',(-1.,0.,-2.31296463463574E-16));
#1130=DIRECTION('',(0.,1.,0.));
#1131=DIRECTION('',(2.31296463463574E-16,0.,-1.));
#1132=DIRECTION('',(-1.,0.,-2.31296463463574E-16));
#1133=DIRECTION('',(1.,0.,0.));
#1134=DIRECTION('',(0.,0.,-1.));
#1135=DIRECTION('',(1.,0.,0.));
#1136=DIRECTION('',(0.,0.,-1.));
#1137=DIRECTION('',(0.,0.,-1.));
#1138=DIRECTION('',(0.,1.,0.));
#1139=DIRECTION('',(0.,0.,-1.));
#1140=DIRECTION('',(0.,-1.,0.));
#1141=DIRECTION('',(0.,0.,1.));
#1142=DIRECTION('',(1.,0.,0.));
#1143=DIRECTION('',(0.,0.,1.));
#1144=DIRECTION('',(1.,0.,0.));
#1145=DIRECTION('',(-1.,0.,0.));
#1146=DIRECTION('',(0.,0.,1.));
#1147=DIRECTION('',(1.,0.,0.));
#1148=DIRECTION('',(0.,1.,0.));
#1149=DIRECTION('',(0.,0.,1.));
#1150=DIRECTION('',(1.,0.,0.));
#1151=DIRECTION('',(1.,0.,0.));
#1152=DIRECTION('',(0.,0.,1.));
#1153=DIRECTION('',(1.,0.,0.));
#1154=DIRECTION('',(0.,-1.,0.));
#1155=DIRECTION('',(-1.,0.,0.));
#1156=DIRECTION('',(0.,0.,1.));
#1157=DIRECTION('',(0.,0.,1.));
#1158=DIRECTION('',(0.,1.,0.));
#1159=DIRECTION('',(0.,0.,1.));
#1160=DIRECTION('',(0.,1.,0.));
#1161=DIRECTION('',(0.,0.,-1.));
#1162=DIRECTION('',(-1.,0.,0.));
#1163=DIRECTION('',(0.,0.,-1.));
#1164=DIRECTION('',(-1.,0.,0.));
#1165=DIRECTION('',(0.,0.,-1.));
#1166=DIRECTION('',(-1.,0.,0.));
#1167=DIRECTION('',(-1.,0.,0.));
#1168=DIRECTION('',(0.,1.,0.));
#1169=DIRECTION('',(-1.,0.,0.));
#1170=DIRECTION('',(0.,0.,-1.));
#1171=DIRECTION('',(-1.,0.,0.));
#1172=DIRECTION('',(0.,1.,0.));
#1173=DIRECTION('',(1.,0.,0.));
#1174=DIRECTION('',(0.,0.,-1.));
#1175=DIRECTION('',(0.,0.,-1.));
#1176=DIRECTION('',(0.,1.,0.));
#1177=DIRECTION('',(0.,0.,-1.));
#1178=DIRECTION('',(0.,1.,0.));
#1179=DIRECTION('',(0.,-1.,0.));
#1180=DIRECTION('',(1.,0.,0.));
#1181=DIRECTION('',(0.,-1.,0.));
#1182=DIRECTION('',(0.,0.,-1.));
#1183=DIRECTION('',(0.,-1.,0.));
#1184=DIRECTION('',(0.,0.,-1.));
#1185=DIRECTION('',(0.,-1.,0.));
#1186=DIRECTION('',(0.,0.,-1.));
#1187=DIRECTION('',(0.,-1.,0.));
#1188=DIRECTION('',(0.,0.,-1.));
#1189=DIRECTION('',(0.707106781186548,0.,0.707106781186548));
#1190=DIRECTION('',(-1.,0.,-2.31296463463574E-16));
#1191=DIRECTION('',(0.,0.,-1.));
#1192=DIRECTION('',(1.,0.,0.));
#1193=DIRECTION('',(0.,0.,1.));
#1194=DIRECTION('',(-1.,0.,0.));
#1195=DIRECTION('',(0.,-1.,0.));
#1196=DIRECTION('',(0.,0.,-1.));
#1197=DIRECTION('',(0.,0.,-1.));
#1198=DIRECTION('',(0.,-1.,0.));
#1199=DIRECTION('',(1.,0.,0.));
#1200=DIRECTION('',(0.,-1.,0.));
#1201=DIRECTION('',(0.,0.,-1.));
#1202=DIRECTION('',(0.,-1.,0.));
#1203=DIRECTION('',(0.,0.,-1.));
#1204=DIRECTION('',(0.,-1.,0.));
#1205=DIRECTION('',(0.,0.,-1.));
#1206=DIRECTION('',(0.,-1.,0.));
#1207=DIRECTION('',(0.,0.,-1.));
#1208=DIRECTION('',(0.,0.,-1.));
#1209=DIRECTION('',(-1.,0.,-2.31296463463574E-16));
#1210=DIRECTION('',(-0.707106781186548,0.,-0.707106781186548));
#1211=DIRECTION('',(0.,0.,-1.));
#1212=DIRECTION('',(0.,-1.,0.));
#1213=DIRECTION('',(0.,0.,-1.));
#1214=DIRECTION('',(-1.,0.,0.));
#1215=DIRECTION('',(0.,0.,1.));
#1216=DIRECTION('',(-1.,0.,0.));
#1217=DIRECTION('',(0.,0.,1.));
#1218=DIRECTION('',(1.,0.,0.));
#1219=DIRECTION('',(0.,0.,-1.));
#1220=DIRECTION('',(-1.,0.,0.));
#1221=DIRECTION('',(0.,0.,1.));
#1222=DIRECTION('',(1.,0.,0.));
#1223=DIRECTION('',(0.,0.,1.));
#1224=DIRECTION('',(1.,0.,0.));
#1225=DIRECTION('',(-1.,0.,0.));
#1226=DIRECTION('',(0.,0.,1.));
#1227=DIRECTION('',(1.,0.,0.));
#1228=DIRECTION('',(0.,0.,-1.));
#1229=DIRECTION('',(-1.,0.,0.));
#1230=DIRECTION('',(0.,0.,1.));
#1231=DIRECTION('',(-1.,0.,0.));
#1232=DIRECTION('',(0.,-1.,0.));
#1233=DIRECTION('',(0.,-1.,0.));
#1234=DIRECTION('',(0.,0.,-1.));
#1235=DIRECTION('',(0.,-1.,0.));
#1236=DIRECTION('',(0.,0.,-1.));
#1237=DIRECTION('',(0.,-1.,0.));
#1238=DIRECTION('',(0.,0.,-1.));
#1239=DIRECTION('',(0.,-1.,0.));
#1240=DIRECTION('',(0.,0.,-1.));
#1241=DIRECTION('',(0.,-1.,0.));
#1242=DIRECTION('',(0.,0.,-1.));
#1243=DIRECTION('',(0.,-1.,0.));
#1244=DIRECTION('',(0.,0.,-1.));
#1245=DIRECTION('',(0.,-1.,0.));
#1246=DIRECTION('',(0.,0.,-1.));
#1247=DIRECTION('',(0.,-1.,0.));
#1248=DIRECTION('',(0.,0.,-1.));
#1249=DIRECTION('',(-1.,0.,0.));
#1250=DIRECTION('',(0.,0.,1.));
#1251=DIRECTION('',(0.,0.,1.));
#1252=DIRECTION('',(1.,0.,0.));
#1253=DIRECTION('',(0.,0.,1.));
#1254=DIRECTION('',(1.,0.,0.));
#1255=DIRECTION('',(0.,0.,-1.));
#1256=DIRECTION('',(-1.,0.,0.));
#1257=DIRECTION('',(0.,0.,1.));
#1258=DIRECTION('',(1.,0.,0.));
#1259=DIRECTION('',(0.,0.,-1.));
#1260=DIRECTION('',(-1.,0.,0.));
#1261=DIRECTION('',(2.31296463463574E-16,0.,-1.));
#1262=DIRECTION('',(-1.,0.,-2.31296463463574E-16));
#1263=DIRECTION('',(0.,0.,1.));
#1264=DIRECTION('',(1.,0.,0.));
#1265=DIRECTION('',(0.,0.,-1.));
#1266=DIRECTION('',(-1.,0.,0.));
#1267=DIRECTION('',(0.,0.,-1.));
#1268=DIRECTION('',(-1.,0.,0.));
#1269=DIRECTION('',(0.,0.,1.));
#1270=DIRECTION('',(1.,0.,0.));
#1271=DIRECTION('',(0.,0.,1.));
#1272=DIRECTION('',(1.,0.,0.));
#1273=DIRECTION('',(2.31296463463574E-16,0.,-1.));
#1274=DIRECTION('',(-1.,0.,-2.31296463463574E-16));
#1275=DIRECTION('',(0.,0.,1.));
#1276=DIRECTION('',(1.,0.,0.));
#1277=DIRECTION('',(0.,-0.707106781186548,0.707106781186548));
#1278=DIRECTION('',(1.,0.,0.));
#1279=DIRECTION('',(6.13317366673349E-16,0.707106781186548,0.707106781186548));
#1280=DIRECTION('',(0.,-0.707106781186548,-0.707106781186548));
#1281=DIRECTION('',(0.,0.,1.));
#1282=DIRECTION('',(1.,0.,0.));
#1283=DIRECTION('',(0.707106781186548,0.,-0.707106781186547));
#1284=DIRECTION('',(0.,0.,1.));
#1285=DIRECTION('',(1.,0.,0.));
#1286=DIRECTION('',(0.707106781186548,0.,0.707106781186548));
#1287=DIRECTION('',(0.707106781186547,0.,0.707106781186548));
#1288=DIRECTION('',(0.,1.,0.));
#1289=DIRECTION('',(0.707106781186548,0.,-0.707106781186547));
#1290=DIRECTION('',(-0.707106781186548,0.,0.707106781186548));
#1291=DIRECTION('',(0.,1.,0.));
#1292=DIRECTION('',(0.707106781186548,0.,0.707106781186548));
#1293=DIRECTION('',(0.,0.,1.));
#1294=DIRECTION('',(1.,0.,0.));
#1295=DIRECTION('',(0.,0.707106781186548,-0.707106781186548));
#1296=DIRECTION('',(0.,0.,1.));
#1297=DIRECTION('',(1.,0.,0.));
#1298=DIRECTION('',(0.,-0.707106781186548,0.707106781186548));
#1299=DIRECTION('',(0.,-0.707106781186548,-0.707106781186548));
#1300=DIRECTION('',(-1.,0.,0.));
#1301=DIRECTION('',(0.,1.,0.));
#1302=DIRECTION('',(0.,0.,1.));
#1303=DIRECTION('',(0.,-1.,0.));
#1304=DIRECTION('',(0.,0.,-1.));
#1305=DIRECTION('',(0.,-1.,0.));
#1306=DIRECTION('',(0.,0.,-1.));
#1307=DIRECTION('',(-0.707106781186548,0.,0.707106781186548));
#1308=DIRECTION('',(0.,-1.,0.));
#1309=DIRECTION('',(0.707106781186548,0.,0.707106781186548));
#1310=DIRECTION('',(0.,1.,0.));
#1311=DIRECTION('',(-0.707106781186548,0.,-0.707106781186548));
#1312=DIRECTION('',(0.,-1.,0.));
#1313=DIRECTION('',(1.,0.,0.));
#1314=DIRECTION('',(0.,0.,-1.));
#1315=DIRECTION('',(-1.,0.,0.));
#1316=DIRECTION('',(0.,0.,1.));
#1317=DIRECTION('',(1.,0.,0.));
#1318=DIRECTION('',(0.,0.,-1.));
#1319=DIRECTION('',(0.,0.,-1.));
#1320=DIRECTION('',(-1.,0.,0.));
#1321=DIRECTION('',(0.,1.,0.));
#1322=DIRECTION('',(0.,0.,1.));
#1323=DIRECTION('',(0.,-1.,0.));
#1324=DIRECTION('',(0.,0.,-1.));
#1325=DIRECTION('',(0.,0.,-1.));
#1326=DIRECTION('',(-1.,0.,0.));
#1327=DIRECTION('',(0.,1.,0.));
#1328=DIRECTION('',(0.,0.,1.));
#1329=DIRECTION('',(0.,1.,0.));
#1330=DIRECTION('',(0.,0.,1.));
#1331=DIRECTION('',(0.,0.,1.));
#1332=DIRECTION('',(1.,0.,0.));
#1333=DIRECTION('',(0.779065031064217,0.,0.626943121321951));
#1334=DIRECTION('',(-0.626943121321951,0.,0.779065031064217));
#1335=DIRECTION('',(0.,0.,-1.));
#1336=DIRECTION('',(-1.,0.,0.));
#1337=DIRECTION('',(-1.,0.,0.));
#1338=DIRECTION('',(0.,0.,1.));
#1339=DIRECTION('',(-0.707106781186548,0.,-0.707106781186548));
#1340=DIRECTION('',(-0.707106781186548,0.,0.707106781186548));
#1341=DIRECTION('',(-0.994197898955828,0.,0.107566433945804));
#1342=DIRECTION('',(-0.107566433945804,0.,-0.994197898955828));
#1343=DIRECTION('',(-0.107566433945804,0.,0.994197898955828));
#1344=DIRECTION('',(-0.994197898955828,0.,-0.107566433945804));
#1345=DIRECTION('',(-1.,0.,0.));
#1346=DIRECTION('',(0.,0.,1.));
#1347=DIRECTION('',(-1.,0.,0.));
#1348=DIRECTION('',(0.,0.,1.));
#1349=DIRECTION('',(1.,0.,2.31296463463574E-16));
#1350=DIRECTION('',(2.31296463463574E-16,0.,-1.));
#1351=DIRECTION('',(-0.626943121321951,0.,-0.779065031064217));
#1352=DIRECTION('',(0.779065031064217,0.,-0.626943121321951));
#1353=DIRECTION('',(-1.,0.,0.));
#1354=DIRECTION('',(0.,0.,1.));
#1355=DIRECTION('',(0.,-1.,0.));
#1356=DIRECTION('',(0.,0.,-1.));
#1357=DIRECTION('',(0.,0.,-1.));
#1358=DIRECTION('',(-1.,0.,0.));
#1359=DIRECTION('',(2.31296463463574E-16,0.,-1.));
#1360=DIRECTION('',(-1.,0.,-2.31296463463574E-16));
#1361=DIRECTION('',(0.,1.,0.));
#1362=DIRECTION('',(0.,0.,1.));
#1363=DIRECTION('',(0.,0.,-1.));
#1364=DIRECTION('',(-1.,0.,0.));
#1365=DIRECTION('',(0.779065031064217,0.,0.626943121321951));
#1366=DIRECTION('',(-0.626943121321951,0.,0.779065031064217));
#1367=DIRECTION('',(0.,1.,0.));
#1368=DIRECTION('',(0.,0.,1.));
#1369=DIRECTION('',(0.,1.,0.));
#1370=DIRECTION('',(0.,0.,1.));
#1371=DIRECTION('',(-0.707106781186548,0.,-0.707106781186548));
#1372=DIRECTION('',(-0.707106781186548,0.,0.707106781186548));
#1373=DIRECTION('',(0.994197898955828,0.,-0.107566433945805));
#1374=DIRECTION('',(0.107566433945805,0.,0.994197898955828));
#1375=DIRECTION('',(-0.107566433945804,0.,0.994197898955828));
#1376=DIRECTION('',(-0.994197898955828,0.,-0.107566433945804));
#1377=DIRECTION('',(2.31296463463574E-16,0.,-1.));
#1378=DIRECTION('',(-1.,0.,-2.31296463463574E-16));
#1379=DIRECTION('',(1.,0.,0.));
#1380=DIRECTION('',(0.,0.,-1.));
#1381=DIRECTION('',(-1.,0.,-2.31296463463574E-16));
#1382=DIRECTION('',(-2.31296463463574E-16,0.,1.));
#1383=DIRECTION('',(0.626943121321951,0.,0.779065031064217));
#1384=DIRECTION('',(-0.779065031064217,0.,0.626943121321951));
#1385=DIRECTION('',(-3.59272995358297E-16,1.,8.67361737988403E-16));
#1386=DIRECTION('',(0.,-8.67361737988403E-16,1.));
#1387=DIRECTION('',(0.,1.,0.));
#1388=DIRECTION('',(0.,0.,1.));
#1389=DIRECTION('',(0.,1.,0.));
#1390=DIRECTION('',(0.,0.,1.));
#1391=DIRECTION('',(0.,-1.,0.));
#1392=DIRECTION('',(0.,0.,-1.));
#1393=DIRECTION('',(0.,-1.,0.));
#1394=DIRECTION('',(0.,0.,-1.));
#1395=DIRECTION('',(0.,-1.,0.));
#1396=DIRECTION('',(0.,0.,-1.));
#1397=CARTESIAN_POINT('',(0.,0.,0.));
#1398=CARTESIAN_POINT('',(-0.0467,-0.01235,-0.050928648493609));
#1399=CARTESIAN_POINT('',(-0.0467,-0.01235,0.0247));
#1400=CARTESIAN_POINT('',(-0.0467,-0.01285,0.0247));
#1401=CARTESIAN_POINT('',(-0.0470922472258246,-0.0127414951975904,0.0189405544432006));
#1402=CARTESIAN_POINT('',(-0.0466999007150721,-0.0129042215371946,0.0189262773830627));
#1403=CARTESIAN_POINT('',(-0.046308149913887,-0.0127416186536311,0.0189405361456035));
#1404=CARTESIAN_POINT('',(-0.0461459751612754,-0.0123504200476519,0.0189547299836127));
#1405=CARTESIAN_POINT('',(-0.046307949878213,-0.0119583207882354,0.0189405438868244));
#1406=CARTESIAN_POINT('',(-0.0466999135503489,-0.0117959683513887,0.0189262886657215));
#1407=CARTESIAN_POINT('',(-0.0470913112180209,-0.0119578060023065,0.018940501586243));
#1408=CARTESIAN_POINT('',(-0.0472541100266154,-0.0123494373841379,0.0189547359651828));
#1409=CARTESIAN_POINT('',(-0.0470922472258246,-0.0127414951975904,0.0189405544432006));
#1410=CARTESIAN_POINT('',(-0.0466999007150721,-0.0129042215371946,0.0189262773830627));
#1411=CARTESIAN_POINT('',(-0.046308149913887,-0.0127416186536311,0.0189405361456035));
#1412=CARTESIAN_POINT('',(-0.0467,-0.01285,0.0189310333535092));
#1413=CARTESIAN_POINT('',(-0.0467,-0.01235,-0.050928648493609));
#1414=CARTESIAN_POINT('',(-0.0463077527741754,-0.0127414951975904,0.0057594455567994));
#1415=CARTESIAN_POINT('',(-0.0467000992849279,-0.0129042215371946,0.00577372261693731));
#1416=CARTESIAN_POINT('',(-0.047091850086113,-0.0127416186536311,0.00575946385439652));
#1417=CARTESIAN_POINT('',(-0.0472540248387246,-0.0123504200476519,0.00574527001638729));
#1418=CARTESIAN_POINT('',(-0.047092050121787,-0.0119583207882354,0.00575945611317564));
#1419=CARTESIAN_POINT('',(-0.0467000864496511,-0.0117959683513887,0.00577371133427846));
#1420=CARTESIAN_POINT('',(-0.0463086887819791,-0.0119578060023065,0.00575949841375695));
#1421=CARTESIAN_POINT('',(-0.0461458899733846,-0.0123494373841379,0.00574526403481721));
#1422=CARTESIAN_POINT('',(-0.0463077527741754,-0.0127414951975904,0.0057594455567994));
#1423=CARTESIAN_POINT('',(-0.0467000992849279,-0.0129042215371946,0.00577372261693731));
#1424=CARTESIAN_POINT('',(-0.047091850086113,-0.0127416186536311,0.00575946385439652));
#1425=CARTESIAN_POINT('',(-0.0467,-0.01285,0.00576896664649086));
#1426=CARTESIAN_POINT('',(-0.0467,-0.01235,1.81034541582416E-17));
#1427=CARTESIAN_POINT('',(-0.0467,-0.01285,1.80728379882629E-17));
#1428=CARTESIAN_POINT('',(-0.0327,-0.01235,-0.050928648493609));
#1429=CARTESIAN_POINT('',(-0.0327,-0.01235,0.0247));
#1430=CARTESIAN_POINT('',(-0.0327,-0.01285,0.0247));
#1431=CARTESIAN_POINT('',(-0.0330922472258246,-0.0127414951975904,0.0189405544432006));
#1432=CARTESIAN_POINT('',(-0.0326999007150721,-0.0129042215371946,0.0189262773830627));
#1433=CARTESIAN_POINT('',(-0.032308149913887,-0.0127416186536311,0.0189405361456035));
#1434=CARTESIAN_POINT('',(-0.0321459751612754,-0.0123504200476519,0.0189547299836127));
#1435=CARTESIAN_POINT('',(-0.032307949878213,-0.0119583207882354,0.0189405438868244));
#1436=CARTESIAN_POINT('',(-0.0326999135503489,-0.0117959683513887,0.0189262886657215));
#1437=CARTESIAN_POINT('',(-0.0330913112180209,-0.0119578060023065,0.0189405015862431));
#1438=CARTESIAN_POINT('',(-0.0332541100266154,-0.0123494373841378,0.0189547359651828));
#1439=CARTESIAN_POINT('',(-0.0330922472258246,-0.0127414951975904,0.0189405544432006));
#1440=CARTESIAN_POINT('',(-0.0326999007150721,-0.0129042215371946,0.0189262773830627));
#1441=CARTESIAN_POINT('',(-0.032308149913887,-0.0127416186536311,0.0189405361456035));
#1442=CARTESIAN_POINT('',(-0.0327,-0.01285,0.0189310333535092));
#1443=CARTESIAN_POINT('',(-0.0327,-0.01235,-0.050928648493609));
#1444=CARTESIAN_POINT('',(-0.0323077527741754,-0.0127414951975904,0.0057594455567994));
#1445=CARTESIAN_POINT('',(-0.0327000992849279,-0.0129042215371946,0.00577372261693731));
#1446=CARTESIAN_POINT('',(-0.033091850086113,-0.0127416186536311,0.00575946385439652));
#1447=CARTESIAN_POINT('',(-0.0332540248387246,-0.0123504200476519,0.00574527001638729));
#1448=CARTESIAN_POINT('',(-0.033092050121787,-0.0119583207882354,0.00575945611317564));
#1449=CARTESIAN_POINT('',(-0.0327000864496511,-0.0117959683513887,0.00577371133427846));
#1450=CARTESIAN_POINT('',(-0.0323086887819791,-0.0119578060023065,0.00575949841375695));
#1451=CARTESIAN_POINT('',(-0.0321458899733846,-0.0123494373841378,0.00574526403481721));
#1452=CARTESIAN_POINT('',(-0.0323077527741754,-0.0127414951975904,0.0057594455567994));
#1453=CARTESIAN_POINT('',(-0.0327000992849279,-0.0129042215371946,0.00577372261693731));
#1454=CARTESIAN_POINT('',(-0.033091850086113,-0.0127416186536311,0.00575946385439652));
#1455=CARTESIAN_POINT('',(-0.0327,-0.01285,0.00576896664649086));
#1456=CARTESIAN_POINT('',(-0.0327,-0.01235,1.81034541582416E-17));
#1457=CARTESIAN_POINT('',(-0.0327,-0.01285,1.80728379882629E-17));
#1458=CARTESIAN_POINT('',(-0.0397,-0.0247,0.0247));
#1459=CARTESIAN_POINT('',(-0.0287,-0.0237,0.0247));
#1460=CARTESIAN_POINT('',(-0.0527,-0.0237,0.0247));
#1461=CARTESIAN_POINT('',(-0.0295284271247462,-0.0237,0.0247));
#1462=CARTESIAN_POINT('',(-0.0295284271247462,-0.001,0.0247));
#1463=CARTESIAN_POINT('',(-0.0295284271247462,-0.001,0.0247));
#1464=CARTESIAN_POINT('',(-0.0397,-0.001,0.0247));
#1465=CARTESIAN_POINT('',(-0.0527,-0.001,0.0247));
#1466=CARTESIAN_POINT('',(-0.0527,-0.002,0.0247));
#1467=CARTESIAN_POINT('',(-0.0537,-0.002,0.0247));
#1468=CARTESIAN_POINT('',(-0.0537,-0.0247,0.0247));
#1469=CARTESIAN_POINT('',(-0.0537,-0.0227,0.0247));
#1470=CARTESIAN_POINT('',(-0.0527,-0.0227,0.0247));
#1471=CARTESIAN_POINT('',(-0.0547,-0.0247,0.003));
#1472=CARTESIAN_POINT('',(-0.0547,-0.01235,0.01235));
#1473=CARTESIAN_POINT('',(-0.0547,-0.01235,0.00375));
#1474=CARTESIAN_POINT('',(-0.0547,-0.0227,0.0247));
#1475=CARTESIAN_POINT('',(-0.0547,-0.0227,0.0005));
#1476=CARTESIAN_POINT('',(-0.0547,-0.0227,0.0237));
#1477=CARTESIAN_POINT('',(-0.0547,-0.0247,0.0237));
#1478=CARTESIAN_POINT('',(-0.0547,-0.002,0.0237));
#1479=CARTESIAN_POINT('',(-0.0547,-0.002,0.003));
#1480=CARTESIAN_POINT('',(-0.0547,-0.002,0.0005));
#1481=CARTESIAN_POINT('',(-0.0547,-0.0247,0.0005));
#1482=CARTESIAN_POINT('',(-0.02735,-0.0247,0.));
#1483=CARTESIAN_POINT('',(-0.002,-0.0227,0.));
#1484=CARTESIAN_POINT('',(-0.0005,-0.0227,0.));
#1485=CARTESIAN_POINT('',(-0.002,-0.0242,0.));
#1486=CARTESIAN_POINT('',(-0.0527,-0.0242,0.));
#1487=CARTESIAN_POINT('',(-0.0527,-0.0242,0.));
#1488=CARTESIAN_POINT('',(-0.0527,-0.0227,0.));
#1489=CARTESIAN_POINT('',(-0.0542,-0.0227,0.));
#1490=CARTESIAN_POINT('',(-0.0542,-0.0247,0.));
#1491=CARTESIAN_POINT('',(-0.0542,-0.002,0.));
#1492=CARTESIAN_POINT('',(-0.0527,-0.002,0.));
#1493=CARTESIAN_POINT('',(-0.0527,-0.0005,0.));
#1494=CARTESIAN_POINT('',(-0.02735,-0.0005,0.));
#1495=CARTESIAN_POINT('',(-0.002,-0.0005,0.));
#1496=CARTESIAN_POINT('',(-0.002,-0.002,0.));
#1497=CARTESIAN_POINT('',(-0.0005,-0.002,0.));
#1498=CARTESIAN_POINT('',(-0.0005,-0.0247,0.));
#1499=CARTESIAN_POINT('',(0.,-0.0247,0.023));
#1500=CARTESIAN_POINT('',(0.,-0.002,0.023));
#1501=CARTESIAN_POINT('',(0.,-0.002,0.0005));
#1502=CARTESIAN_POINT('',(0.,-0.002,0.045));
#1503=CARTESIAN_POINT('',(0.,-0.0247,0.045));
#1504=CARTESIAN_POINT('',(0.,-0.0227,0.045));
#1505=CARTESIAN_POINT('',(0.,-0.0227,0.));
#1506=CARTESIAN_POINT('',(0.,-0.0227,0.0005));
#1507=CARTESIAN_POINT('',(0.,-0.0247,0.0005));
#1508=CARTESIAN_POINT('',(-0.003,-0.0247,0.046));
#1509=CARTESIAN_POINT('',(-0.01235,-0.01235,0.046));
#1510=CARTESIAN_POINT('',(-0.02095,-0.01235,0.046));
#1511=CARTESIAN_POINT('',(-0.002,-0.002,0.046));
#1512=CARTESIAN_POINT('',(-0.001,-0.002,0.046));
#1513=CARTESIAN_POINT('',(-0.002,-0.001,0.046));
#1514=CARTESIAN_POINT('',(-0.003,-0.001,0.046));
#1515=CARTESIAN_POINT('',(-0.0227,-0.001,0.046));
#1516=CARTESIAN_POINT('',(-0.0227,-0.0247,0.046));
#1517=CARTESIAN_POINT('',(-0.0227,-0.0237,0.046));
#1518=CARTESIAN_POINT('',(-0.002,-0.0237,0.046));
#1519=CARTESIAN_POINT('',(-0.002,-0.0237,0.046));
#1520=CARTESIAN_POINT('',(-0.002,-0.0227,0.046));
#1521=CARTESIAN_POINT('',(-0.001,-0.0227,0.046));
#1522=CARTESIAN_POINT('',(-0.001,-0.0247,0.046));
#1523=CARTESIAN_POINT('',(-0.0247,-0.0247,0.03535));
#1524=CARTESIAN_POINT('',(-0.0247,-0.001,0.03535));
#1525=CARTESIAN_POINT('',(-0.0247,-0.001,0.044));
#1526=CARTESIAN_POINT('',(-0.0247,-0.001,0.0295284271247462));
#1527=CARTESIAN_POINT('',(-0.0247,-0.0237,0.0295284271247462));
#1528=CARTESIAN_POINT('',(-0.0247,-0.0237,0.0295284271247462));
#1529=CARTESIAN_POINT('',(-0.0247,-0.0237,0.044));
#1530=CARTESIAN_POINT('',(-0.0247,-0.0237,0.044));
#1531=CARTESIAN_POINT('',(-0.0247,-0.0247,0.044));
#1532=CARTESIAN_POINT('',(-0.02735,-0.0247,0.023));
#1533=CARTESIAN_POINT('',(-0.01235,-0.0247,0.014));
#1534=CARTESIAN_POINT('',(-0.01235,-0.0247,0.0135));
#1535=CARTESIAN_POINT('',(-0.01235,-0.0247,0.038));
#1536=CARTESIAN_POINT('',(-0.01235,-0.0247,0.0375));
#1537=CARTESIAN_POINT('',(-0.0327,-0.0247,0.01235));
#1538=CARTESIAN_POINT('',(-0.0327,-0.0247,0.01185));
#1539=CARTESIAN_POINT('',(-0.0467,-0.0247,0.01235));
#1540=CARTESIAN_POINT('',(-0.0467,-0.0247,0.01185));
#1541=CARTESIAN_POINT('',(-0.0279928932188135,-0.0247,0.0239928932188135));
#1542=CARTESIAN_POINT('',(-0.0237,-0.0247,0.0282857864376269));
#1543=CARTESIAN_POINT('',(-0.0282857864376269,-0.0247,0.0237));
#1544=CARTESIAN_POINT('',(-0.0527,-0.0247,0.0237));
#1545=CARTESIAN_POINT('',(-0.0527,-0.0247,0.0237));
#1546=CARTESIAN_POINT('',(-0.0527,-0.0247,0.));
#1547=CARTESIAN_POINT('',(-0.0527,-0.0247,0.0005));
#1548=CARTESIAN_POINT('',(-0.002,-0.0247,0.0005));
#1549=CARTESIAN_POINT('',(-0.002,-0.0247,0.0005));
#1550=CARTESIAN_POINT('',(-0.002,-0.0247,0.046));
#1551=CARTESIAN_POINT('',(-0.002,-0.0247,0.045));
#1552=CARTESIAN_POINT('',(-0.0227,-0.0247,0.045));
#1553=CARTESIAN_POINT('',(-0.0227,-0.0247,0.045));
#1554=CARTESIAN_POINT('',(-0.0227,-0.0247,0.044));
#1555=CARTESIAN_POINT('',(-0.0237,-0.0247,0.044));
#1556=CARTESIAN_POINT('',(-0.0237,-0.0247,0.0287));
#1557=CARTESIAN_POINT('',(-0.02735,0.,0.023));
#1558=CARTESIAN_POINT('',(-0.01235,0.,0.014));
#1559=CARTESIAN_POINT('',(-0.01235,0.,0.0135));
#1560=CARTESIAN_POINT('',(-0.01235,0.,0.038));
#1561=CARTESIAN_POINT('',(-0.01235,0.,0.0375));
#1562=CARTESIAN_POINT('',(-0.0327,0.,0.01235));
#1563=CARTESIAN_POINT('',(-0.0327,0.,0.01185));
#1564=CARTESIAN_POINT('',(-0.0467,0.,0.01235));
#1565=CARTESIAN_POINT('',(-0.0467,0.,0.01185));
#1566=CARTESIAN_POINT('',(-0.0527,0.,0.023));
#1567=CARTESIAN_POINT('',(-0.0527,0.,0.0005));
#1568=CARTESIAN_POINT('',(-0.0527,0.,0.0237));
#1569=CARTESIAN_POINT('',(-0.02735,0.,0.0237));
#1570=CARTESIAN_POINT('',(-0.0282857864376269,0.,0.0237));
#1571=CARTESIAN_POINT('',(-0.0281678932188134,0.,0.0238178932188135));
#1572=CARTESIAN_POINT('',(-0.0237,0.,0.0282857864376269));
#1573=CARTESIAN_POINT('',(-0.0237,0.,0.023));
#1574=CARTESIAN_POINT('',(-0.0237,0.,0.044));
#1575=CARTESIAN_POINT('',(-0.0227,0.,0.044));
#1576=CARTESIAN_POINT('',(-0.0227,0.,0.045));
#1577=CARTESIAN_POINT('',(-0.02735,0.,0.045));
#1578=CARTESIAN_POINT('',(-0.002,0.,0.045));
#1579=CARTESIAN_POINT('',(-0.002,0.,0.023));
#1580=CARTESIAN_POINT('',(-0.002,0.,0.0005));
#1581=CARTESIAN_POINT('',(-0.02735,0.,0.0005));
#1582=CARTESIAN_POINT('',(-0.01235,-0.01235,0.006));
#1583=CARTESIAN_POINT('',(-0.01235,-0.01235,0.044));
#1584=CARTESIAN_POINT('',(-0.01895,-0.01235,0.044));
#1585=CARTESIAN_POINT('',(-0.0119577523752788,-0.0057594938229959,0.0136085051787292));
#1586=CARTESIAN_POINT('',(-0.012350099285815,-0.0057452576629738,0.0134457782660134));
#1587=CARTESIAN_POINT('',(-0.0127418504814612,-0.0057594755251089,0.0136083817572171));
#1588=CARTESIAN_POINT('',(-0.0129040246461609,-0.00577371026393166,0.0139995798957318));
#1589=CARTESIAN_POINT('',(-0.0127420504966006,-0.00575948326488566,0.0143916788553179));
#1590=CARTESIAN_POINT('',(-0.0123500864296224,-0.00574526894597441,0.014554031843148));
#1591=CARTESIAN_POINT('',(-0.0119586883859857,-0.0057594409660697,0.0143921935760302));
#1592=CARTESIAN_POINT('',(-0.0117958901721841,-0.00577371624492858,0.0140005627054895));
#1593=CARTESIAN_POINT('',(-0.0119577523752788,-0.0057594938229959,0.0136085051787292));
#1594=CARTESIAN_POINT('',(-0.012350099285815,-0.0057452576629738,0.0134457782660134));
#1595=CARTESIAN_POINT('',(-0.0127418504814612,-0.0057594755251089,0.0136083817572171));
#1596=CARTESIAN_POINT('',(-0.01235,-0.00575,0.0135));
#1597=CARTESIAN_POINT('',(-0.0127422476247212,-0.0189405061770041,0.0136085051787292));
#1598=CARTESIAN_POINT('',(-0.012349900714185,-0.0189547423370262,0.0134457782660134));
#1599=CARTESIAN_POINT('',(-0.0119581495185388,-0.0189405244748911,0.0136083817572171));
#1600=CARTESIAN_POINT('',(-0.0117959753538391,-0.0189262897360683,0.0139995798957318));
#1601=CARTESIAN_POINT('',(-0.0119579495033994,-0.0189405167351143,0.0143916788553179));
#1602=CARTESIAN_POINT('',(-0.0123499135703776,-0.0189547310540256,0.014554031843148));
#1603=CARTESIAN_POINT('',(-0.0127413116140143,-0.0189405590339303,0.0143921935760302));
#1604=CARTESIAN_POINT('',(-0.0129041098278159,-0.0189262837550714,0.0140005627054895));
#1605=CARTESIAN_POINT('',(-0.0127422476247212,-0.0189405061770041,0.0136085051787292));
#1606=CARTESIAN_POINT('',(-0.012349900714185,-0.0189547423370262,0.0134457782660134));
#1607=CARTESIAN_POINT('',(-0.0119581495185388,-0.0189405244748911,0.0136083817572171));
#1608=CARTESIAN_POINT('',(-0.01235,-0.01895,0.0135));
#1609=CARTESIAN_POINT('',(-0.0119577523752788,-0.0057594938229959,0.0376085051787292));
#1610=CARTESIAN_POINT('',(-0.012350099285815,-0.0057452576629738,0.0374457782660134));
#1611=CARTESIAN_POINT('',(-0.0127418504814612,-0.0057594755251089,0.0376083817572171));
#1612=CARTESIAN_POINT('',(-0.0129040246461609,-0.00577371026393166,0.0379995798957318));
#1613=CARTESIAN_POINT('',(-0.0127420504966006,-0.00575948326488566,0.0383916788553179));
#1614=CARTESIAN_POINT('',(-0.0123500864296224,-0.00574526894597442,0.038554031843148));
#1615=CARTESIAN_POINT('',(-0.0119586883859857,-0.0057594409660697,0.0383921935760302));
#1616=CARTESIAN_POINT('',(-0.0117958901721841,-0.00577371624492858,0.0380005627054895));
#1617=CARTESIAN_POINT('',(-0.0119577523752788,-0.0057594938229959,0.0376085051787292));
#1618=CARTESIAN_POINT('',(-0.012350099285815,-0.0057452576629738,0.0374457782660134));
#1619=CARTESIAN_POINT('',(-0.0127418504814612,-0.0057594755251089,0.0376083817572171));
#1620=CARTESIAN_POINT('',(-0.01235,-0.00575,0.0375));
#1621=CARTESIAN_POINT('',(-0.0127422476247212,-0.0189405061770041,0.0376085051787292));
#1622=CARTESIAN_POINT('',(-0.012349900714185,-0.0189547423370262,0.0374457782660134));
#1623=CARTESIAN_POINT('',(-0.0119581495185388,-0.0189405244748911,0.0376083817572171));
#1624=CARTESIAN_POINT('',(-0.0117959753538391,-0.0189262897360683,0.0379995798957318));
#1625=CARTESIAN_POINT('',(-0.0119579495033994,-0.0189405167351143,0.0383916788553179));
#1626=CARTESIAN_POINT('',(-0.0123499135703776,-0.0189547310540256,0.038554031843148));
#1627=CARTESIAN_POINT('',(-0.0127413116140143,-0.0189405590339303,0.0383921935760302));
#1628=CARTESIAN_POINT('',(-0.0129041098278159,-0.0189262837550714,0.0380005627054895));
#1629=CARTESIAN_POINT('',(-0.0127422476247212,-0.0189405061770041,0.0376085051787292));
#1630=CARTESIAN_POINT('',(-0.012349900714185,-0.0189547423370262,0.0374457782660134));
#1631=CARTESIAN_POINT('',(-0.0119581495185388,-0.0189405244748911,0.0376083817572171));
#1632=CARTESIAN_POINT('',(-0.01235,-0.01895,0.0375));
#1633=CARTESIAN_POINT('',(-0.01235,-0.01235,0.006));
#1634=CARTESIAN_POINT('',(-0.00575,-0.01235,0.006));
#1635=CARTESIAN_POINT('',(-0.01235,-0.01235,0.006));
#1636=CARTESIAN_POINT('',(-0.0247,-0.01235,0.01235));
#1637=CARTESIAN_POINT('',(-0.0527,-0.01235,0.01235));
#1638=CARTESIAN_POINT('',(-0.0527,-0.01235,0.00575));
#1639=CARTESIAN_POINT('',(-0.0323077527741754,-0.00575944555679941,0.0119585048024096));
#1640=CARTESIAN_POINT('',(-0.0327000992849279,-0.00577372261693728,0.0117957784628054));
#1641=CARTESIAN_POINT('',(-0.033091850086113,-0.00575946385439653,0.0119583813463689));
#1642=CARTESIAN_POINT('',(-0.0332540248387246,-0.00574527001638729,0.0123495799523481));
#1643=CARTESIAN_POINT('',(-0.033092050121787,-0.00575945611317564,0.0127416792117646));
#1644=CARTESIAN_POINT('',(-0.0327000864496511,-0.00577371133427846,0.0129040316486113));
#1645=CARTESIAN_POINT('',(-0.0323086887819791,-0.00575949841375695,0.0127421939976935));
#1646=CARTESIAN_POINT('',(-0.0321458899733846,-0.00574526403481721,0.0123505626158622));
#1647=CARTESIAN_POINT('',(-0.0323077527741754,-0.00575944555679941,0.0119585048024096));
#1648=CARTESIAN_POINT('',(-0.0327000992849279,-0.00577372261693728,0.0117957784628054));
#1649=CARTESIAN_POINT('',(-0.033091850086113,-0.00575946385439653,0.0119583813463689));
#1650=CARTESIAN_POINT('',(-0.0327,-0.00576896664649084,0.01185));
#1651=CARTESIAN_POINT('',(-0.0330922472258246,-0.0189405544432006,0.0119585048024096));
#1652=CARTESIAN_POINT('',(-0.0326999007150721,-0.0189262773830627,0.0117957784628054));
#1653=CARTESIAN_POINT('',(-0.032308149913887,-0.0189405361456035,0.0119583813463689));
#1654=CARTESIAN_POINT('',(-0.0321459751612754,-0.0189547299836127,0.0123495799523481));
#1655=CARTESIAN_POINT('',(-0.032307949878213,-0.0189405438868244,0.0127416792117646));
#1656=CARTESIAN_POINT('',(-0.0326999135503489,-0.0189262886657215,0.0129040316486113));
#1657=CARTESIAN_POINT('',(-0.0330913112180209,-0.018940501586243,0.0127421939976935));
#1658=CARTESIAN_POINT('',(-0.0332541100266154,-0.0189547359651828,0.0123505626158622));
#1659=CARTESIAN_POINT('',(-0.0330922472258246,-0.0189405544432006,0.0119585048024096));
#1660=CARTESIAN_POINT('',(-0.0326999007150721,-0.0189262773830627,0.0117957784628054));
#1661=CARTESIAN_POINT('',(-0.032308149913887,-0.0189405361456035,0.0119583813463689));
#1662=CARTESIAN_POINT('',(-0.0327,-0.0189310333535092,0.01185));
#1663=CARTESIAN_POINT('',(-0.0463077527741754,-0.00575944555679941,0.0119585048024096));
#1664=CARTESIAN_POINT('',(-0.0467000992849279,-0.00577372261693728,0.0117957784628054));
#1665=CARTESIAN_POINT('',(-0.047091850086113,-0.00575946385439653,0.0119583813463689));
#1666=CARTESIAN_POINT('',(-0.0472540248387246,-0.00574527001638729,0.0123495799523481));
#1667=CARTESIAN_POINT('',(-0.047092050121787,-0.00575945611317564,0.0127416792117646));
#1668=CARTESIAN_POINT('',(-0.0467000864496511,-0.00577371133427846,0.0129040316486113));
#1669=CARTESIAN_POINT('',(-0.0463086887819791,-0.00575949841375695,0.0127421939976935));
#1670=CARTESIAN_POINT('',(-0.0461458899733846,-0.00574526403481721,0.0123505626158621));
#1671=CARTESIAN_POINT('',(-0.0463077527741754,-0.00575944555679941,0.0119585048024096));
#1672=CARTESIAN_POINT('',(-0.0467000992849279,-0.00577372261693728,0.0117957784628054));
#1673=CARTESIAN_POINT('',(-0.047091850086113,-0.00575946385439653,0.0119583813463689));
#1674=CARTESIAN_POINT('',(-0.0467,-0.00576896664649084,0.01185));
#1675=CARTESIAN_POINT('',(-0.0470922472258246,-0.0189405544432006,0.0119585048024096));
#1676=CARTESIAN_POINT('',(-0.0466999007150721,-0.0189262773830627,0.0117957784628054));
#1677=CARTESIAN_POINT('',(-0.046308149913887,-0.0189405361456035,0.0119583813463689));
#1678=CARTESIAN_POINT('',(-0.0461459751612754,-0.0189547299836127,0.0123495799523481));
#1679=CARTESIAN_POINT('',(-0.046307949878213,-0.0189405438868244,0.0127416792117646));
#1680=CARTESIAN_POINT('',(-0.0466999135503489,-0.0189262886657215,0.0129040316486113));
#1681=CARTESIAN_POINT('',(-0.0470913112180209,-0.018940501586243,0.0127421939976935));
#1682=CARTESIAN_POINT('',(-0.0472541100266154,-0.0189547359651828,0.0123505626158621));
#1683=CARTESIAN_POINT('',(-0.0470922472258246,-0.0189405544432006,0.0119585048024096));
#1684=CARTESIAN_POINT('',(-0.0466999007150721,-0.0189262773830627,0.0117957784628054));
#1685=CARTESIAN_POINT('',(-0.046308149913887,-0.0189405361456035,0.0119583813463689));
#1686=CARTESIAN_POINT('',(-0.0467,-0.0189310333535092,0.01185));
#1687=CARTESIAN_POINT('',(-0.0247,-0.01235,0.01235));
#1688=CARTESIAN_POINT('',(-0.0247,-0.01235,0.01895));
#1689=CARTESIAN_POINT('',(-0.0247,-0.01235,0.01235));
#1690=CARTESIAN_POINT('',(-0.0467,0.0509286484936091,0.01235));
#1691=CARTESIAN_POINT('',(-0.0467,0.0509286484936091,0.01235));
#1692=CARTESIAN_POINT('',(-0.0327,0.0509286484936091,0.01235));
#1693=CARTESIAN_POINT('',(-0.0327,0.0509286484936091,0.01235));
#1694=CARTESIAN_POINT('',(-0.01235,0.0509286484936091,0.038));
#1695=CARTESIAN_POINT('',(-0.01235,0.0509286484936091,0.038));
#1696=CARTESIAN_POINT('',(-0.01235,0.0509286484936091,0.014));
#1697=CARTESIAN_POINT('',(-0.01235,0.0509286484936091,0.014));
#1698=CARTESIAN_POINT('',(-0.0527,-0.01235,0.01235));
#1699=CARTESIAN_POINT('',(-0.01235,-0.01235,0.044));
#1700=CARTESIAN_POINT('',(-0.002,-0.002,0.023));
#1701=CARTESIAN_POINT('',(-0.002,-0.002,0.045));
#1702=CARTESIAN_POINT('',(-0.002,-0.002,0.0005));
#1703=CARTESIAN_POINT('',(-0.0527,-0.002,0.003));
#1704=CARTESIAN_POINT('',(-0.0527,-0.002,0.0237));
#1705=CARTESIAN_POINT('',(-0.0527,-0.002,0.0005));
#1706=CARTESIAN_POINT('',(-0.002,-0.0227,0.023));
#1707=CARTESIAN_POINT('',(-0.002,-0.0227,0.045));
#1708=CARTESIAN_POINT('',(-0.002,-0.0227,0.0005));
#1709=CARTESIAN_POINT('',(-0.0527,-0.0227,0.023));
#1710=CARTESIAN_POINT('',(-0.0527,-0.0227,0.0237));
#1711=CARTESIAN_POINT('',(-0.0527,-0.0227,0.0005));
#1712=CARTESIAN_POINT('',(-0.02735,-0.0005,0.));
#1713=CARTESIAN_POINT('',(-0.002,-0.0005,0.));
#1714=CARTESIAN_POINT('',(-0.0527,0.,0.0005));
#1715=CARTESIAN_POINT('',(-0.0527,-0.002,0.));
#1716=CARTESIAN_POINT('',(-0.0547,-0.002,0.0005));
#1717=CARTESIAN_POINT('',(-0.002,-0.002,0.));
#1718=CARTESIAN_POINT('',(-0.0005,-0.002,0.));
#1719=CARTESIAN_POINT('',(-0.0542,-0.0247,0.));
#1720=CARTESIAN_POINT('',(-0.0547,-0.0227,0.0005));
#1721=CARTESIAN_POINT('',(0.,-0.0247,0.0005));
#1722=CARTESIAN_POINT('',(-0.0005,-0.0227,0.));
#1723=CARTESIAN_POINT('',(-0.0527,-0.0227,0.));
#1724=CARTESIAN_POINT('',(-0.0527,-0.0247,0.0005));
#1725=CARTESIAN_POINT('',(-0.002,-0.0227,0.));
#1726=CARTESIAN_POINT('',(-0.002,-0.0242,0.));
#1727=CARTESIAN_POINT('',(-0.02735,-0.0247,0.0005));
#1728=CARTESIAN_POINT('',(-0.0227,-0.0247,0.044));
#1729=CARTESIAN_POINT('',(-0.0227,-0.001,0.044));
#1730=CARTESIAN_POINT('',(-0.0227,-0.0237,0.044));
#1731=CARTESIAN_POINT('',(-0.0287,-0.0247,0.0247));
#1732=CARTESIAN_POINT('',(-0.0287,-0.001,0.0247));
#1733=CARTESIAN_POINT('',(-0.0252857864376269,-0.001,0.0281142135623731));
#1734=CARTESIAN_POINT('',(-0.0281142135623731,-0.001,0.0252857864376269));
#1735=CARTESIAN_POINT('',(-0.0281142135623731,-0.0237,0.0252857864376269));
#1736=CARTESIAN_POINT('',(-0.0281142135623731,-0.0237,0.0252857864376269));
#1737=CARTESIAN_POINT('',(-0.0247,-0.0237,0.0287));
#1738=CARTESIAN_POINT('',(-0.0252857864376269,-0.0237,0.0281142135623731));
#1739=CARTESIAN_POINT('',(-0.0252857864376269,-0.001,0.0281142135623731));
#1740=CARTESIAN_POINT('',(-0.02735,-0.0237,0.045));
#1741=CARTESIAN_POINT('',(-0.0227,-0.0237,0.045));
#1742=CARTESIAN_POINT('',(-0.002,-0.0237,0.045));
#1743=CARTESIAN_POINT('',(-0.002,-0.0227,0.045));
#1744=CARTESIAN_POINT('',(-0.001,-0.0227,0.045));
#1745=CARTESIAN_POINT('',(-0.0227,-0.0237,0.044));
#1746=CARTESIAN_POINT('',(-0.0237,-0.0237,0.044));
#1747=CARTESIAN_POINT('',(-0.001,-0.0247,0.045));
#1748=CARTESIAN_POINT('',(-0.001,-0.002,0.045));
#1749=CARTESIAN_POINT('',(-0.0237,-0.0237,0.023));
#1750=CARTESIAN_POINT('',(-0.0237,-0.0237,0.0282857864376269));
#1751=CARTESIAN_POINT('',(-0.002,-0.002,0.045));
#1752=CARTESIAN_POINT('',(-0.002,-0.001,0.045));
#1753=CARTESIAN_POINT('',(-0.0281678932188134,-0.0237,0.0238178932188135));
#1754=CARTESIAN_POINT('',(-0.0282857864376269,-0.0237,0.0237));
#1755=CARTESIAN_POINT('',(-0.0237,-0.0237,0.0282857864376269));
#1756=CARTESIAN_POINT('',(-0.003,-0.001,0.045));
#1757=CARTESIAN_POINT('',(-0.0227,-0.001,0.045));
#1758=CARTESIAN_POINT('',(-0.02735,-0.0237,0.0237));
#1759=CARTESIAN_POINT('',(-0.0282857864376269,-0.0237,0.0237));
#1760=CARTESIAN_POINT('',(-0.0527,-0.0237,0.0237));
#1761=CARTESIAN_POINT('',(-0.0227,-0.001,0.044));
#1762=CARTESIAN_POINT('',(-0.0237,-0.001,0.044));
#1763=CARTESIAN_POINT('',(-0.0527,-0.0227,0.0237));
#1764=CARTESIAN_POINT('',(-0.0537,-0.0227,0.0237));
#1765=CARTESIAN_POINT('',(-0.0237,-0.001,0.03535));
#1766=CARTESIAN_POINT('',(-0.0237,-0.001,0.0282857864376269));
#1767=CARTESIAN_POINT('',(-0.0537,-0.0247,0.0237));
#1768=CARTESIAN_POINT('',(-0.0537,-0.002,0.0237));
#1769=CARTESIAN_POINT('',(-0.0281678932188134,-0.001,0.0238178932188135));
#1770=CARTESIAN_POINT('',(-0.0282857864376269,-0.001,0.0237));
#1771=CARTESIAN_POINT('',(-0.0237,-0.001,0.0282857864376269));
#1772=CARTESIAN_POINT('',(-0.0527,-0.002,0.0237));
#1773=CARTESIAN_POINT('',(-0.0527,-0.001,0.0237));
#1774=CARTESIAN_POINT('',(-0.0397,-0.001,0.0237));
#1775=CARTESIAN_POINT('',(-0.0282857864376269,-0.001,0.0237));
#1776=CARTESIAN_POINT('',(-0.0295284271247462,-0.001,0.0247));
#1777=CARTESIAN_POINT('',(-0.0287,-0.001,0.0247));
#1778=CARTESIAN_POINT('',(-0.0281142135623731,-0.001,0.0252857864376269));
#1779=CARTESIAN_POINT('',(-0.0295284271247448,-0.000869100301252238,0.0247));
#1780=CARTESIAN_POINT('',(-0.0287000000000111,-0.000914017989953807,0.0247000000000042));
#1781=CARTESIAN_POINT('',(-0.0281142135623748,-0.000869100301252238,0.0252857864376252));
#1782=CARTESIAN_POINT('',(-0.0294637243679453,-0.00060736194311796,0.0246479312423356));
#1783=CARTESIAN_POINT('',(-0.0286955087747948,-0.000742076677339817,0.0246891572232083));
#1784=CARTESIAN_POINT('',(-0.0281231471488356,-0.000607361943117969,0.0252032165078995));
#1785=CARTESIAN_POINT('',(-0.0291873444334074,-0.000274482153018261,0.024425517846893));
#1786=CARTESIAN_POINT('',(-0.028640785128363,-0.000404718751724673,0.0245570426537967));
#1787=CARTESIAN_POINT('',(-0.0281613072545881,-0.000274482153018272,0.0248505163618588));
#1788=CARTESIAN_POINT('',(-0.0287736944628288,-5.20687576897198E-5,0.0240926380572117));
#1789=CARTESIAN_POINT('',(-0.0284972260240601,-8.71042253859124E-5,0.024210460317192));
#1790=CARTESIAN_POINT('',(-0.0282184203972158,-5.20687576897303E-5,0.024322640106023));
#1791=CARTESIAN_POINT('',(-0.0284484477283422,2.4349821988378E-18,0.0238308996980377));
#1792=CARTESIAN_POINT('',(-0.028355887665177,-1.85152048289948E-15,0.0238692393342868));
#1793=CARTESIAN_POINT('',(-0.0282633276000673,3.86863921011799E-18,0.0239075789658367));
#1794=CARTESIAN_POINT('',(-0.0282857864376269,2.16840434497101E-18,0.0237));
#1795=CARTESIAN_POINT('',(-0.0282857864376269,2.16840434497101E-18,0.0237));
#1796=CARTESIAN_POINT('',(-0.0282857864376269,2.16840434497101E-18,0.0237));
#1797=CARTESIAN_POINT('',(-0.0295284271247462,-0.001,0.0267));
#1798=CARTESIAN_POINT('',(-0.0295284271247462,-0.0247,0.0267));
#1799=CARTESIAN_POINT('',(-0.0295284271247462,-0.0237,0.0267));
#1800=CARTESIAN_POINT('',(-0.0281142135623731,-0.0237,0.0252857864376269));
#1801=CARTESIAN_POINT('',(-0.0287,-0.0237,0.0247));
#1802=CARTESIAN_POINT('',(-0.0295284271247462,-0.0237,0.0247));
#1803=CARTESIAN_POINT('',(-0.0281142135623748,-0.0238308996987471,0.0252857864376252));
#1804=CARTESIAN_POINT('',(-0.0287000000000111,-0.0237859820100465,0.0247000000000042));
#1805=CARTESIAN_POINT('',(-0.0295284271247448,-0.0238308996987471,0.0247));
#1806=CARTESIAN_POINT('',(-0.0281231471488356,-0.0240926380568823,0.0252032165078995));
#1807=CARTESIAN_POINT('',(-0.0286955087747947,-0.0239579233226601,0.0246891572232084));
#1808=CARTESIAN_POINT('',(-0.0294637243679453,-0.0240926380568824,0.0246479312423357));
#1809=CARTESIAN_POINT('',(-0.0281613072545881,-0.0244255178469816,0.0248505163618588));
#1810=CARTESIAN_POINT('',(-0.028640785128363,-0.0242952812482753,0.0245570426537963));
#1811=CARTESIAN_POINT('',(-0.0291873444334074,-0.0244255178469817,0.0244255178468927));
#1812=CARTESIAN_POINT('',(-0.0282184203972158,-0.0246479312423103,0.024322640106023));
#1813=CARTESIAN_POINT('',(-0.0284972260240601,-0.0246128957746144,0.0242104603171933));
#1814=CARTESIAN_POINT('',(-0.0287736944628288,-0.0246479312423103,0.0240926380572127));
#1815=CARTESIAN_POINT('',(-0.0282633276000673,-0.0247,0.0239075789658367));
#1816=CARTESIAN_POINT('',(-0.028355887665177,-0.0246999999999975,0.0238692393342839));
#1817=CARTESIAN_POINT('',(-0.0284484477283422,-0.0247,0.0238308996980355));
#1818=CARTESIAN_POINT('',(-0.0282857864376269,-0.0247,0.0237));
#1819=CARTESIAN_POINT('',(-0.0282857864376269,-0.0247,0.0237));
#1820=CARTESIAN_POINT('',(-0.0282857864376269,-0.0247,0.0237));
#1821=CARTESIAN_POINT('',(-0.0237,-0.0247,0.028285786437627));
#1822=CARTESIAN_POINT('',(-0.0237,-0.0247,0.0282857864376269));
#1823=CARTESIAN_POINT('',(-0.0237,-0.0247,0.028285786437627));
#1824=CARTESIAN_POINT('',(-0.0239075789658367,-0.0247,0.0282633276000644));
#1825=CARTESIAN_POINT('',(-0.0238692393342839,-0.0246999999999975,0.0283558876651763));
#1826=CARTESIAN_POINT('',(-0.0238308996980384,-0.0247,0.0284484477283393));
#1827=CARTESIAN_POINT('',(-0.024322640106023,-0.0246479312423102,0.0282184203972172));
#1828=CARTESIAN_POINT('',(-0.0242104603171933,-0.0246128957746144,0.0284972260240607));
#1829=CARTESIAN_POINT('',(-0.0240926380572114,-0.0246479312423102,0.0287736944628302));
#1830=CARTESIAN_POINT('',(-0.0248505163618588,-0.0244255178469819,0.0281613072545877));
#1831=CARTESIAN_POINT('',(-0.0245570426537964,-0.0242952812482753,0.0286407851283621));
#1832=CARTESIAN_POINT('',(-0.0244255178468931,-0.0244255178469819,0.0291873444334071));
#1833=CARTESIAN_POINT('',(-0.0252032165078995,-0.0240926380568815,0.0281231471488357));
#1834=CARTESIAN_POINT('',(-0.0246891572232081,-0.0239579233226598,0.0286955087747981));
#1835=CARTESIAN_POINT('',(-0.0246479312423356,-0.0240926380568815,0.0294637243679454));
#1836=CARTESIAN_POINT('',(-0.0252857864376252,-0.023830899698749,0.0281142135623749));
#1837=CARTESIAN_POINT('',(-0.0247000000000049,-0.0237859820100471,0.028700000000004));
#1838=CARTESIAN_POINT('',(-0.0247,-0.023830899698749,0.0295284271247449));
#1839=CARTESIAN_POINT('',(-0.0252857864376269,-0.0237,0.0281142135623731));
#1840=CARTESIAN_POINT('',(-0.0247,-0.0237,0.0287));
#1841=CARTESIAN_POINT('',(-0.0247,-0.0237,0.0295284271247462));
#1842=CARTESIAN_POINT('',(-0.0267,-0.0237,0.0295284271247462));
#1843=CARTESIAN_POINT('',(-0.0267,-0.0247,0.0295284271247462));
#1844=CARTESIAN_POINT('',(-0.0267,-0.001,0.0295284271247462));
#1845=CARTESIAN_POINT('',(-0.0252857864376269,-0.001,0.0281142135623731));
#1846=CARTESIAN_POINT('',(-0.0247,-0.001,0.0287));
#1847=CARTESIAN_POINT('',(-0.0247,-0.001,0.0295284271247462));
#1848=CARTESIAN_POINT('',(-0.0252857864376252,-0.000869100301252238,0.0281142135623749));
#1849=CARTESIAN_POINT('',(-0.0247000000000049,-0.00091401798995379,0.028700000000004));
#1850=CARTESIAN_POINT('',(-0.0247,-0.000869100301252238,0.0295284271247449));
#1851=CARTESIAN_POINT('',(-0.0252032165078996,-0.000607361943117959,0.0281231471488356));
#1852=CARTESIAN_POINT('',(-0.0246891572232081,-0.000742076677339813,0.0286955087747981));
#1853=CARTESIAN_POINT('',(-0.0246479312423357,-0.000607361943117959,0.0294637243679453));
#1854=CARTESIAN_POINT('',(-0.0248505163618586,-0.000274482153018262,0.0281613072545881));
#1855=CARTESIAN_POINT('',(-0.0245570426537965,-0.000404718751724659,0.0286407851283621));
#1856=CARTESIAN_POINT('',(-0.0244255178468927,-0.000274482153018261,0.0291873444334074));
#1857=CARTESIAN_POINT('',(-0.024322640106024,-5.20687576897186E-5,0.0282184203972158));
#1858=CARTESIAN_POINT('',(-0.024210460317193,-8.71042253859475E-5,0.0284972260240607));
#1859=CARTESIAN_POINT('',(-0.0240926380572128,-5.20687576897191E-5,0.0287736944628288));
#1860=CARTESIAN_POINT('',(-0.0239075789658345,1.04957012101718E-18,0.0282633276000673));
#1861=CARTESIAN_POINT('',(-0.0238692393342846,-1.76021886132435E-15,0.0283558876651763));
#1862=CARTESIAN_POINT('',(-0.0238308996980355,1.45242579310293E-18,0.0284484477283422));
#1863=CARTESIAN_POINT('',(-0.0237,1.30104260698261E-18,0.028285786437627));
#1864=CARTESIAN_POINT('',(-0.0237,1.30104260698261E-18,0.0282857864376269));
#1865=CARTESIAN_POINT('',(-0.0237,1.30104260698261E-18,0.0282857864376269));
#1866=MECHANICAL_DESIGN_GEOMETRIC_PRESENTATION_REPRESENTATION('',(#973),
#1867);
#1867=(
GEOMETRIC_REPRESENTATION_CONTEXT(3)
GLOBAL_UNCERTAINTY_ASSIGNED_CONTEXT((#1868))
GLOBAL_UNIT_ASSIGNED_CONTEXT((#1871,#1870,#1869))
REPRESENTATION_CONTEXT('Part 1','TOP_LEVEL_ASSEMBLY_PART')
);
#1868=UNCERTAINTY_MEASURE_WITH_UNIT(LENGTH_MEASURE(2.E-5),#1871,
'DISTANCE_ACCURACY_VALUE','Maximum Tolerance applied to model');
#1869=(
NAMED_UNIT(*)
SI_UNIT($,.STERADIAN.)
SOLID_ANGLE_UNIT()
);
#1870=(
NAMED_UNIT(*)
PLANE_ANGLE_UNIT()
SI_UNIT($,.RADIAN.)
);
#1871=(
LENGTH_UNIT()
NAMED_UNIT(*)
SI_UNIT($,.METRE.)
);
#1872=PRODUCT_DEFINITION_SHAPE('','',#1873);
#1873=PRODUCT_DEFINITION('','',#1875,#1874);
#1874=PRODUCT_DEFINITION_CONTEXT('',#1881,'design');
#1875=PRODUCT_DEFINITION_FORMATION_WITH_SPECIFIED_SOURCE('','',#1877,
 .NOT_KNOWN.);
#1876=PRODUCT_RELATED_PRODUCT_CATEGORY('','',(#1877));
#1877=PRODUCT('Part 1','Part 1','Part 1',(#1879));
#1878=PRODUCT_CATEGORY('','');
#1879=PRODUCT_CONTEXT('',#1881,'mechanical');
#1880=APPLICATION_PROTOCOL_DEFINITION('international standard',
'ap242_managed_model_based_3d_engineering',2020,#1881);
#1881=APPLICATION_CONTEXT('managed model based 3d engineering');
ENDSEC;
END-ISO-10303-21;
