ISO-10303-21;
HEADER;
/* Generated by software containing ST-Developer
 * from STEP Tools, Inc. (www.steptools.com) 
 */
/* OPTION: using custom renumber hook */

FILE_DESCRIPTION(
/* description */ ('STEP AP242 Edition 2',
'CAx-IF Rec.Pracs.---Representation and Presentation of Product Manufa
cturing Information (PMI)---4.0---2014-10-13',
'CAx-IF Rec.Pracs.---3D Tessellated Geometry---0.4---2014-09-14','2;1',
'CAx-IF Rec.Pracs.---User Defined Attributes---1.5---2016-08-15'),
/* implementation_level */ '2;1');

FILE_NAME(
/* name */ 'shaft collar - Part 1',
/* time_stamp */ '2026-08-16T13:38:01Z',
/* author */ (''),
/* organization */ (''),
/* preprocessor_version */ 'ST-DEVELOPER v20',
/* originating_system */ 'ONSHAPE BY PTC INC, 1.219',
/* authorisation */ '  ');

FILE_SCHEMA (('AP242_MANAGED_MODEL_BASED_3D_ENGINEERING_MIM_LF { 1 0 10303 442 3 1 4 }'));
ENDSEC;

DATA;
#10=SHAPE_REPRESENTATION_RELATIONSHIP('','',#109,#11);
#11=ADVANCED_BREP_SHAPE_REPRESENTATION('',(#107),#197);
#12=CONICAL_SURFACE('',#122,0.00665,0.785398163397448);
#13=CONICAL_SURFACE('',#123,0.00815,0.785398163397449);
#14=PLANE('',#117);
#15=PLANE('',#119);
#16=B_SPLINE_CURVE_WITH_KNOTS('',3,(#158,#159,#160,#161,#162,#163,#164,
#165,#166,#167,#168),.UNSPECIFIED.,.T.,.F.,(1,1,1,1,1,1,1,1,1,1,1,1,1,1,
1),(-0.00117269933275929,-0.000781799555172857,-0.000390899777586429,1.34741433291464E-19,
0.000390899777586429,0.000781799555172857,0.00117269933275929,0.00156359911034571,
0.00195449888793214,0.00234539866551857,0.002736298443105,0.00312719822069143,
0.00351809799827786,0.00390899777586429,0.00429989755345071),
 .UNSPECIFIED.);
#17=B_SPLINE_CURVE_WITH_KNOTS('',3,(#175,#176,#177,#178,#179,#180,#181,
#182,#183,#184,#185),.UNSPECIFIED.,.T.,.F.,(1,1,1,1,1,1,1,1,1,1,1,1,1,1,
1),(-0.00117244886289328,-0.000781632575262187,-0.000390816287631093,3.24551736423234E-20,
0.000390816287631093,0.000781632575262187,0.00117244886289328,0.00156326515052437,
0.00195408143815547,0.00234489772578656,0.00273571401341765,0.00312653030104875,
0.00351734658867984,0.00390816287631093,0.00429897916394203),
 .UNSPECIFIED.);
#18=ORIENTED_EDGE('',*,*,#34,.T.);
#19=ORIENTED_EDGE('',*,*,#35,.T.);
#20=ORIENTED_EDGE('',*,*,#36,.T.);
#21=ORIENTED_EDGE('',*,*,#37,.F.);
#22=ORIENTED_EDGE('',*,*,#38,.T.);
#23=ORIENTED_EDGE('',*,*,#39,.F.);
#24=ORIENTED_EDGE('',*,*,#40,.T.);
#25=ORIENTED_EDGE('',*,*,#37,.T.);
#26=ORIENTED_EDGE('',*,*,#41,.T.);
#27=ORIENTED_EDGE('',*,*,#38,.F.);
#28=ORIENTED_EDGE('',*,*,#36,.F.);
#29=ORIENTED_EDGE('',*,*,#39,.T.);
#30=ORIENTED_EDGE('',*,*,#40,.F.);
#31=ORIENTED_EDGE('',*,*,#34,.F.);
#32=ORIENTED_EDGE('',*,*,#35,.F.);
#33=ORIENTED_EDGE('',*,*,#41,.F.);
#34=EDGE_CURVE('',#42,#42,#50,.T.);
#35=EDGE_CURVE('',#43,#43,#51,.F.);
#36=EDGE_CURVE('',#44,#44,#16,.T.);
#37=EDGE_CURVE('',#45,#45,#52,.T.);
#38=EDGE_CURVE('',#46,#46,#53,.T.);
#39=EDGE_CURVE('',#47,#47,#17,.T.);
#40=EDGE_CURVE('',#48,#48,#54,.F.);
#41=EDGE_CURVE('',#49,#49,#55,.T.);
#42=VERTEX_POINT('',#155);
#43=VERTEX_POINT('',#157);
#44=VERTEX_POINT('',#169);
#45=VERTEX_POINT('',#172);
#46=VERTEX_POINT('',#174);
#47=VERTEX_POINT('',#186);
#48=VERTEX_POINT('',#189);
#49=VERTEX_POINT('',#192);
#50=CIRCLE('',#112,0.00665);
#51=CIRCLE('',#113,0.00665);
#52=CIRCLE('',#115,0.01065);
#53=CIRCLE('',#116,0.01065);
#54=CIRCLE('',#118,0.00815);
#55=CIRCLE('',#120,0.00815);
#56=EDGE_LOOP('',(#18));
#57=EDGE_LOOP('',(#19));
#58=EDGE_LOOP('',(#20));
#59=EDGE_LOOP('',(#21));
#60=EDGE_LOOP('',(#22));
#61=EDGE_LOOP('',(#23));
#62=EDGE_LOOP('',(#24));
#63=EDGE_LOOP('',(#25));
#64=EDGE_LOOP('',(#26));
#65=EDGE_LOOP('',(#27));
#66=EDGE_LOOP('',(#28));
#67=EDGE_LOOP('',(#29));
#68=EDGE_LOOP('',(#30));
#69=EDGE_LOOP('',(#31));
#70=EDGE_LOOP('',(#32));
#71=EDGE_LOOP('',(#33));
#72=FACE_BOUND('',#56,.T.);
#73=FACE_BOUND('',#57,.T.);
#74=FACE_BOUND('',#58,.T.);
#75=FACE_BOUND('',#59,.T.);
#76=FACE_BOUND('',#60,.T.);
#77=FACE_BOUND('',#61,.T.);
#78=FACE_BOUND('',#62,.T.);
#79=FACE_BOUND('',#63,.T.);
#80=FACE_BOUND('',#64,.T.);
#81=FACE_BOUND('',#65,.T.);
#82=FACE_BOUND('',#66,.T.);
#83=FACE_BOUND('',#67,.T.);
#84=FACE_BOUND('',#68,.T.);
#85=FACE_BOUND('',#69,.T.);
#86=FACE_BOUND('',#70,.T.);
#87=FACE_BOUND('',#71,.T.);
#88=CYLINDRICAL_SURFACE('',#111,0.00665);
#89=CYLINDRICAL_SURFACE('',#114,0.01065);
#90=CYLINDRICAL_SURFACE('',#121,0.0005);
#91=ADVANCED_FACE('',(#72,#73,#74),#88,.F.);
#92=ADVANCED_FACE('',(#75,#76,#77),#89,.T.);
#93=ADVANCED_FACE('',(#78,#79),#14,.T.);
#94=ADVANCED_FACE('',(#80,#81),#15,.F.);
#95=ADVANCED_FACE('',(#82,#83),#90,.F.);
#96=ADVANCED_FACE('',(#84,#85),#12,.F.);
#97=ADVANCED_FACE('',(#86,#87),#13,.F.);
#98=CLOSED_SHELL('',(#91,#92,#93,#94,#95,#96,#97));
#99=STYLED_ITEM('',(#100),#107);
#100=PRESENTATION_STYLE_ASSIGNMENT((#101));
#101=SURFACE_STYLE_USAGE(.BOTH.,#102);
#102=SURFACE_SIDE_STYLE('',(#103));
#103=SURFACE_STYLE_FILL_AREA(#104);
#104=FILL_AREA_STYLE('',(#105));
#105=FILL_AREA_STYLE_COLOUR('',#106);
#106=COLOUR_RGB('',0.615686274509804,0.811764705882353,0.929411764705882);
#107=MANIFOLD_SOLID_BREP('Part 1',#98);
#108=SHAPE_DEFINITION_REPRESENTATION(#202,#109);
#109=SHAPE_REPRESENTATION('Part 1',(#110),#197);
#110=AXIS2_PLACEMENT_3D('',#152,#124,#125);
#111=AXIS2_PLACEMENT_3D('',#153,#126,#127);
#112=AXIS2_PLACEMENT_3D('',#154,#128,#129);
#113=AXIS2_PLACEMENT_3D('',#156,#130,#131);
#114=AXIS2_PLACEMENT_3D('',#170,#132,#133);
#115=AXIS2_PLACEMENT_3D('',#171,#134,#135);
#116=AXIS2_PLACEMENT_3D('',#173,#136,#137);
#117=AXIS2_PLACEMENT_3D('',#187,#138,#139);
#118=AXIS2_PLACEMENT_3D('',#188,#140,#141);
#119=AXIS2_PLACEMENT_3D('',#190,#142,#143);
#120=AXIS2_PLACEMENT_3D('',#191,#144,#145);
#121=AXIS2_PLACEMENT_3D('',#193,#146,#147);
#122=AXIS2_PLACEMENT_3D('',#194,#148,#149);
#123=AXIS2_PLACEMENT_3D('',#195,#150,#151);
#124=DIRECTION('',(0.,0.,1.));
#125=DIRECTION('',(1.,0.,0.));
#126=DIRECTION('',(0.,0.,-1.));
#127=DIRECTION('',(-1.,0.,0.));
#128=DIRECTION('',(0.,0.,1.));
#129=DIRECTION('',(1.,0.,0.));
#130=DIRECTION('',(0.,0.,1.));
#131=DIRECTION('',(1.,0.,0.));
#132=DIRECTION('',(0.,0.,-1.));
#133=DIRECTION('',(-1.,0.,0.));
#134=DIRECTION('',(0.,0.,1.));
#135=DIRECTION('',(1.,0.,0.));
#136=DIRECTION('',(0.,0.,1.));
#137=DIRECTION('',(1.,0.,0.));
#138=DIRECTION('',(0.,0.,1.));
#139=DIRECTION('',(1.,0.,0.));
#140=DIRECTION('',(0.,0.,1.));
#141=DIRECTION('',(1.,0.,0.));
#142=DIRECTION('',(0.,0.,1.));
#143=DIRECTION('',(1.,0.,0.));
#144=DIRECTION('',(0.,0.,1.));
#145=DIRECTION('',(1.,0.,0.));
#146=DIRECTION('',(0.,1.,0.));
#147=DIRECTION('',(0.,0.,1.));
#148=DIRECTION('',(0.,0.,1.));
#149=DIRECTION('',(1.,0.,0.));
#150=DIRECTION('',(0.,0.,-1.));
#151=DIRECTION('',(-1.,0.,0.));
#152=CARTESIAN_POINT('',(0.,0.,0.));
#153=CARTESIAN_POINT('',(0.,4.07195060716495E-19,0.008));
#154=CARTESIAN_POINT('',(0.,4.07195060716495E-19,0.0065));
#155=CARTESIAN_POINT('',(0.00665,4.07195060716495E-19,0.0065));
#156=CARTESIAN_POINT('',(0.,4.07195060716495E-19,0.0015));
#157=CARTESIAN_POINT('',(0.00665,4.07195060716495E-19,0.0015));
#158=CARTESIAN_POINT('',(0.000392247674816165,-0.00664057755634233,0.00439149491356161));
#159=CARTESIAN_POINT('',(-9.93080299635223E-8,-0.00665470668071542,0.00455422167703886));
#160=CARTESIAN_POINT('',(-0.000391850442696312,-0.00664059572079598,0.00439161837828297));
#161=CARTESIAN_POINT('',(-0.000554024544698339,-0.00662646862345103,0.0040004198535682));
#162=CARTESIAN_POINT('',(-0.000392050941434932,-0.00664058801571458,0.00360832160615952));
#163=CARTESIAN_POINT('',(-8.62012795978417E-8,-0.00665469548776032,0.00344596801253284));
#164=CARTESIAN_POINT('',(0.00039131150684435,-0.00664063001851261,0.00360780653963841));
#165=CARTESIAN_POINT('',(0.000554109841639617,-0.00662646268299249,0.00399943679000198));
#166=CARTESIAN_POINT('',(0.000392247674816165,-0.00664057755634233,0.00439149491356161));
#167=CARTESIAN_POINT('',(-9.93080299635223E-8,-0.00665470668071542,0.00455422167703886));
#168=CARTESIAN_POINT('',(-0.000391850442696312,-0.00664059572079598,0.00439161837828297));
#169=CARTESIAN_POINT('',(-2.4707715165824E-19,-0.00665,0.0045));
#170=CARTESIAN_POINT('',(0.,6.52124420545966E-19,0.008));
#171=CARTESIAN_POINT('',(0.,6.52124420545966E-19,0.008));
#172=CARTESIAN_POINT('',(0.01065,6.52124420545966E-19,0.008));
#173=CARTESIAN_POINT('',(0.,6.52124420545966E-19,0.));
#174=CARTESIAN_POINT('',(0.01065,6.52124420545966E-19,0.));
#175=CARTESIAN_POINT('',(0.000392249752138539,-0.0106441164345798,0.00439149836429728));
#176=CARTESIAN_POINT('',(-1.00206540806358E-7,-0.01065293892107,0.00455421947612859));
#177=CARTESIAN_POINT('',(-0.000391848925975314,-0.0106441278811403,0.00439162373118838));
#178=CARTESIAN_POINT('',(-0.000554020494507874,-0.0106353220674181,0.00400040986316476));
#179=CARTESIAN_POINT('',(-0.000392068667616453,-0.0106441224858581,0.00360834001926903));
#180=CARTESIAN_POINT('',(-7.7158128490765E-8,-0.0106529320638118,0.0034459622176859));
#181=CARTESIAN_POINT('',(0.000391307576058397,-0.0106441492499407,0.00360781130070565));
#182=CARTESIAN_POINT('',(0.000554110287667108,-0.0106353182508776,0.00399941731866829));
#183=CARTESIAN_POINT('',(0.000392249752138539,-0.0106441164345798,0.00439149836429728));
#184=CARTESIAN_POINT('',(-1.00206540806358E-7,-0.01065293892107,0.00455421947612859));
#185=CARTESIAN_POINT('',(-0.000391848925975314,-0.0106441278811403,0.00439162373118838));
#186=CARTESIAN_POINT('',(-1.41817404103412E-19,-0.01065,0.0045));
#187=CARTESIAN_POINT('',(0.,0.,0.008));
#188=CARTESIAN_POINT('',(0.,4.07195060716495E-19,0.008));
#189=CARTESIAN_POINT('',(0.00815,4.07195060716495E-19,0.008));
#190=CARTESIAN_POINT('',(0.,0.,0.));
#191=CARTESIAN_POINT('',(0.,4.07195060716495E-19,0.));
#192=CARTESIAN_POINT('',(0.00815,4.07195060716495E-19,0.));
#193=CARTESIAN_POINT('',(-1.0842021724855E-19,-0.0311769696954966,0.004));
#194=CARTESIAN_POINT('',(0.,4.07195060716495E-19,0.0065));
#195=CARTESIAN_POINT('',(0.,4.07195060716495E-19,0.));
#196=MECHANICAL_DESIGN_GEOMETRIC_PRESENTATION_REPRESENTATION('',(#99),#197);
#197=(
GEOMETRIC_REPRESENTATION_CONTEXT(3)
GLOBAL_UNCERTAINTY_ASSIGNED_CONTEXT((#198))
GLOBAL_UNIT_ASSIGNED_CONTEXT((#201,#200,#199))
REPRESENTATION_CONTEXT('Part 1','TOP_LEVEL_ASSEMBLY_PART')
);
#198=UNCERTAINTY_MEASURE_WITH_UNIT(LENGTH_MEASURE(2.E-5),#201,
'DISTANCE_ACCURACY_VALUE','Maximum Tolerance applied to model');
#199=(
NAMED_UNIT(*)
SI_UNIT($,.STERADIAN.)
SOLID_ANGLE_UNIT()
);
#200=(
NAMED_UNIT(*)
PLANE_ANGLE_UNIT()
SI_UNIT($,.RADIAN.)
);
#201=(
LENGTH_UNIT()
NAMED_UNIT(*)
SI_UNIT($,.METRE.)
);
#202=PRODUCT_DEFINITION_SHAPE('','',#203);
#203=PRODUCT_DEFINITION('','',#205,#204);
#204=PRODUCT_DEFINITION_CONTEXT('',#211,'design');
#205=PRODUCT_DEFINITION_FORMATION_WITH_SPECIFIED_SOURCE('','',#207,
 .NOT_KNOWN.);
#206=PRODUCT_RELATED_PRODUCT_CATEGORY('','',(#207));
#207=PRODUCT('Part 1','Part 1','Part 1',(#209));
#208=PRODUCT_CATEGORY('','');
#209=PRODUCT_CONTEXT('',#211,'mechanical');
#210=APPLICATION_PROTOCOL_DEFINITION('international standard',
'ap242_managed_model_based_3d_engineering',2020,#211);
#211=APPLICATION_CONTEXT('managed model based 3d engineering');
ENDSEC;
END-ISO-10303-21;
